<?xml version="1.0" standalone="no"?>
<!DOCTYPE svg PUBLIC "-//W3C//DTD SVG 1.1//EN" "http://www.w3.org/Graphics/SVG/1.1/DTD/svg11.dtd" >
<svg xmlns="http://www.w3.org/2000/svg" xmlns:xlink="http://www.w3.org/1999/xlink" version="1.1">
<metadata></metadata>
<defs>
<font id="millionairescript" horiz-adv-x="1013" >
<font-face units-per-em="2048" ascent="1638" descent="-410" />
<missing-glyph horiz-adv-x="645" />
<glyph horiz-adv-x="0" />
<glyph horiz-adv-x="682" />
<glyph unicode=" "  horiz-adv-x="645" />
<glyph unicode="&#x09;" horiz-adv-x="645" />
<glyph unicode="&#xa0;" horiz-adv-x="645" />
<glyph unicode="!" horiz-adv-x="696" d="M-360 98q0 51 34.5 86t85.5 35t86 -35t35 -86t-35 -86t-86 -35t-85.5 35t-34.5 86zM-76 401l926 1340h186l-1065 -1340h-47z" />
<glyph unicode="&#x22;" horiz-adv-x="747" d="M303 922l150 579h161l-284 -579h-27zM580 922l149 579h162l-285 -579h-26z" />
<glyph unicode="#" horiz-adv-x="1681" d="M-195 0l402 553h-332l49 70h334l358 493h-329l51 70h330l403 555h90l-403 -555h551l403 555h90l-403 -555h334l-52 -70h-333l-359 -493h330l-49 -70h-332l-401 -553h-91l402 553h-551l-401 -553h-91zM348 623h551l358 493h-550z" />
<glyph unicode="$" horiz-adv-x="937" d="M-244 0l262 360q-80 17 -126 63.5t-46 111.5q0 42 23 75t65 33q33 0 53.5 -20.5t20.5 -49.5q0 -37 -39 -65q-35 -24 -35 -41q0 -29 46 -52.5t124 -23.5q115 0 201.5 71t131 191.5t44.5 270.5v32q0 126 37.5 233.5t111 174.5t167.5 68l225 309h90l-233 -322 q47 -15 74.5 -49.5t27.5 -79.5q0 -34 -21 -58t-53 -24q-24 0 -38 15.5t-18.5 33.5t-8 43.5t-6.5 34.5q-15 49 -76 49q-135 0 -135 -305v-157q0 -126 -46 -235t-120 -181t-167 -113t-188 -41h-2l-256 -352h-90z" />
<glyph unicode="%" horiz-adv-x="2531" d="M154 0l2013 1741h98l-2013 -1741h-98zM225 973q0 118 80 261t201 261.5t274 198.5t287 80q56 0 102.5 -19t79.5 -65.5t33 -114.5q0 -95 -51 -207t-138.5 -215.5t-193.5 -189.5t-227.5 -137.5t-229.5 -51.5q-89 0 -153 49.5t-64 149.5zM342 963q0 -148 135 -148 q109 0 234 77.5t224.5 191t165.5 251t66 250.5q0 148 -137 148q-109 0 -234 -77.5t-223.5 -191.5t-164.5 -251t-66 -250zM1176 186q0 79 37 171.5t99 180.5t146.5 170t176.5 143.5t193 98.5t191 37q56 0 102.5 -19t79.5 -65.5t33 -114.5q0 -79 -36.5 -171.5t-98 -180 t-146 -169.5t-176 -143.5t-192 -98.5t-190.5 -37t-154.5 49.5t-64.5 148.5zM1294 176q0 -147 136 -147q109 0 234 77.5t224.5 191t165.5 251t66 250.5q0 147 -138 147q-109 0 -234 -77.5t-223.5 -191.5t-164.5 -251t-66 -250z" />
<glyph unicode="&#x26;" horiz-adv-x="2265" d="M35 543q0 84 27 161.5t68 135t98.5 109.5t110 86.5t110.5 62.5q-29 56 -29 123q0 92 63.5 192t162.5 179t228 130.5t250 51.5q104 0 155.5 -35.5t51.5 -85.5q0 -45 -23.5 -73t-60.5 -28q-23 0 -36.5 11.5t-19 29t-15 37.5t-22.5 37.5t-43.5 29t-76.5 11.5 q-124 0 -243 -65.5t-194 -173.5t-75 -224q0 -72 43 -104q45 10 74 10q39 0 65.5 -17t26.5 -47q0 -38 -35.5 -59.5t-81.5 -21.5q-85 0 -139 57q-70 -32 -128 -74.5t-106 -97.5t-75 -126t-27 -151q0 -221 183 -359t485 -138q178 0 347.5 47t297.5 127t205.5 193.5t77.5 238.5 q0 122 -69 200t-183 107q-106 25 -240 25q-139 0 -234.5 -40.5t-95.5 -115.5q0 -19 24.5 -37.5t49.5 -42t25 -55.5q0 -34 -21 -56t-57 -22q-40 0 -72.5 43.5t-32.5 104.5q0 105 100 180.5t275 108.5t391 18l234 -17q65 -7 137 -4.5t132.5 11.5t100 39t39.5 79 q0 15 -14.5 30.5t-32.5 27t-32.5 32t-14.5 45.5q0 34 21 56t57 22q40 0 72.5 -43t32.5 -104q0 -102 -102 -175t-253.5 -102t-314.5 -16l-60 4q84 -43 138.5 -128.5t54.5 -197.5q0 -139 -82.5 -272t-219 -232t-323.5 -159t-385 -60q-206 0 -375 68.5t-269.5 198.5t-100.5 299 z" />
<glyph unicode="'" horiz-adv-x="516" d="M348 922l150 579h161l-284 -579h-27z" />
<glyph unicode="(" horiz-adv-x="1064" d="M-289 -33q18 264 129.5 510t289 445.5t411.5 367.5t498.5 288.5t549.5 195.5l-2 -39q-257 -79 -500 -204.5t-463 -300.5t-388.5 -381.5t-276.5 -461.5t-127 -526q-20 -293 57 -557h-43q-78 173 -112.5 332t-22.5 331z" />
<glyph unicode=")" horiz-adv-x="1064" d="M-1104 -729l2 39q257 79 500 204.5t463 300.5t388.5 381.5t276.5 461.5t127 526q20 293 -57 557h43q78 -173 112.5 -332.5t22.5 -331.5q-15 -221 -95.5 -429.5t-211.5 -385.5t-304 -333t-377.5 -280.5t-428.5 -219.5t-461 -158z" />
<glyph unicode="*" horiz-adv-x="1157" d="M520 1135q-26 50 19 73q14 8 49 22.5t114.5 47.5t165.5 70q-86 37 -165.5 70t-115 47t-48.5 22q-46 25 -19 74q26 48 74 22q14 -8 44 -31.5t98 -76.5t143 -109q-11 92 -23 178t-17 123t-5 53q0 54 57 54q53 0 53 -54q0 -15 -5 -53t-16.5 -123t-21.5 -178q70 53 141.5 109 t100 78t43.5 30q45 26 71 -22q28 -50 -16 -74q-14 -7 -49.5 -22t-115.5 -47t-167 -70q85 -37 166.5 -70t116.5 -47t49 -23q43 -24 16 -73t-71 -23q-14 8 -44 31t-99 77t-142 109q10 -92 21.5 -177.5t16.5 -123t5 -53.5q0 -53 -53 -53q-57 0 -57 53q0 15 5.5 53.5t17 123 t22.5 179.5q-72 -55 -142.5 -111t-99.5 -78t-43 -30q-47 -26 -74 23z" />
<glyph unicode="+" horiz-adv-x="1271" d="M-72 532v70h414v422h74v-422h413v-70h-413v-430h-74v430h-414z" />
<glyph unicode="," horiz-adv-x="489" d="M-592 -332q94 42 163 91t103.5 93.5t50 80t15.5 63.5q0 10 -6 17t-15 7q-16 0 -43 -18q-38 -25 -77 -25q-50 0 -78.5 32t-28.5 81q0 55 38.5 91t94.5 36q79 0 126.5 -55.5t47.5 -122.5q0 -45 -18.5 -93.5t-59.5 -103t-118.5 -110.5t-182.5 -103z" />
<glyph unicode="-" horiz-adv-x="960" d="M-78 502l19 116h573l-18 -116h-574z" />
<glyph unicode="." horiz-adv-x="421" d="M-504 98q0 51 35 86t86 35t86 -35t35 -86t-35 -86t-86 -35t-86 35t-35 86z" />
<glyph unicode="/" horiz-adv-x="1028" d="M-760 -205l2173 1946h119l-2173 -1946h-119z" />
<glyph unicode="0" horiz-adv-x="1705" d="M-70 305q0 157 101 364t258.5 400t359.5 363t395 260q186 86 336 86q158 0 247 -88t89 -238q0 -106 -47 -237t-127 -262.5t-189.5 -266t-231 -250.5t-255.5 -213.5t-260 -156.5q-189 -89 -340 -89q-158 0 -247 88.5t-89 239.5zM88 291q0 -262 223 -262q115 0 256.5 68.5 t277.5 181t267 262t229 306t158 320t60 297.5q0 262 -224 262q-115 0 -256.5 -68.5t-277.5 -181t-266.5 -262t-228.5 -306t-158 -320t-60 -297.5z" />
<glyph unicode="1" horiz-adv-x="933" d="M-225 0l1202 1655q-155 -81 -305 -109q-35 -6 -68 -6q-34 0 -54 14.5t-20 36.5q0 57 91 60q255 6 548 98h25l-1268 -1749h-151z" />
<glyph unicode="2" horiz-adv-x="1351" d="M-578 0v29q287 155 478.5 260.5t413 234t362 221t281.5 198.5t218.5 191t126 173t48.5 168q0 116 -76.5 180.5t-218.5 64.5q-112 0 -217 -45t-171.5 -123t-66.5 -166q0 -34 12.5 -78t12.5 -63q0 -39 -19.5 -58.5t-48.5 -19.5q-27 0 -45.5 21.5t-24.5 47t-6 52.5 q0 92 51 181t136 156t205 108t249 41q174 0 279.5 -77.5t105.5 -215.5q0 -78 -45 -162t-116 -163t-205 -178.5t-263.5 -184t-343.5 -207t-392.5 -219t-460.5 -246.5h909l-31 -121h-1137z" />
<glyph unicode="3" horiz-adv-x="1296" d="M-365 186q0 42 24 67.5t60 25.5q29 0 44.5 -18t15.5 -48q0 -3 -2 -25t-2 -36q0 -49 50 -90.5t155 -41.5q142 0 299.5 75t284 191t209.5 268.5t83 295.5q0 123 -67.5 185.5t-182.5 62.5q-17 0 -33 -1.5t-28.5 -2.5t-30 -6t-27 -7t-30 -10t-27.5 -10.5t-32 -14t-31.5 -15 t-37 -18t-38.5 -18.5v52l1071 573h-735l20 121h965v-45l-1059 -557q52 12 98 12q182 0 274.5 -79.5t92.5 -223.5q0 -102 -46 -210t-123.5 -203t-182.5 -180t-220.5 -146t-240.5 -96.5t-238 -35.5q-153 0 -242.5 64t-89.5 145z" />
<glyph unicode="4" horiz-adv-x="1478" d="M-170 537v47l1710 1157h82l-791 -1088h381l-30 -116h-434l-390 -537h-151l389 537h-766zM10 653h670l641 885z" />
<glyph unicode="5" horiz-adv-x="1398" d="M-287 188q0 42 24 67.5t60 25.5q29 0 44.5 -18t15.5 -48q0 -3 -2 -25t-2 -36q0 -49 48.5 -90t151.5 -41q116 0 246.5 49.5t247.5 135t213 191t152.5 227.5t56.5 234q0 118 -67.5 178t-176.5 60q-164 0 -310 -74.5t-261 -198.5h-52l889 916h686l-30 -121h-705l-569 -582 q185 113 411 113q157 0 250.5 -79t93.5 -216q0 -99 -49.5 -206t-131.5 -202t-193 -182t-230 -149.5t-245.5 -99.5t-237.5 -37q-150 0 -239 64t-89 144z" />
<glyph unicode="6" horiz-adv-x="1505" d="M-76 313q0 95 33.5 208.5t94.5 234t152.5 243t202.5 235.5t250 211.5t289.5 171.5t326.5 115t355 42q60 0 131 -9l-4 -41q-67 9 -127 9q-196 0 -385.5 -56t-346.5 -152.5t-295 -223.5t-240.5 -271.5t-173 -294.5t-101.5 -293q62 116 155 224.5t205 196.5t244 141t258 53 q132 0 206.5 -58t74.5 -168q0 -112 -76.5 -252.5t-205 -270.5t-275.5 -216q-197 -115 -402 -115q-173 0 -259.5 92t-86.5 244zM74 217q0 -188 231 -188q124 0 243.5 53t210.5 138t161.5 188t107.5 208.5t37 192.5q0 105 -51.5 151t-132.5 46q-111 0 -254 -79t-264 -195 t-205 -258t-84 -257z" />
<glyph unicode="7" horiz-adv-x="1249" d="M-340 0l1888 1620h-995l41 121h1089v-51l-1824 -1690h-199z" />
<glyph unicode="8" horiz-adv-x="1468" d="M-213 352q0 103 48.5 194t152.5 174.5t284.5 151.5t427.5 113q-37 79 -58 158t-21 131q0 111 55.5 207.5t144.5 159t198 98t218 35.5q165 0 265 -73t100 -200q0 -34 -8 -69t-29.5 -77.5t-55 -82.5t-90 -83t-129.5 -79.5t-177.5 -71t-229.5 -59.5q32 -58 45.5 -84 t37.5 -81t34 -107t10 -109q0 -171 -102.5 -314.5t-272.5 -225t-365 -81.5q-227 0 -355 106t-128 269zM-55 350q0 -145 89.5 -234t266.5 -89q244 0 399.5 147.5t155.5 362.5q0 93 -32 184.5t-101 222.5q-175 -31 -311.5 -79.5t-223 -105.5t-142.5 -126.5t-78.5 -138 t-22.5 -144.5zM766 1323q0 -77 22 -147.5t72 -157.5q156 32 274.5 84.5t189 116.5t105.5 134t35 144q0 112 -68.5 169.5t-195.5 57.5q-185 0 -309.5 -120.5t-124.5 -280.5z" />
<glyph unicode="9" horiz-adv-x="1505" d="M-336 -14l4 41q68 -9 127 -9q196 0 385.5 56t346.5 152.5t295 223.5t240.5 271.5t173 294.5t101.5 293q-62 -116 -155 -224.5t-205 -196.5t-244 -141t-258 -53q-132 0 -206 58t-74 168q0 112 76.5 252.5t205 270.5t275.5 216q197 115 401 115q173 0 259.5 -92t86.5 -244 q0 -95 -33.5 -208.5t-94.5 -234t-152.5 -243t-202.5 -235.5t-250 -211.5t-289.5 -171.5t-326.5 -115t-355 -42q-61 0 -131 9zM358 942q0 -104 52 -150.5t133 -46.5q111 0 254 79t264 195t205 258t84 257q0 188 -232 188q-124 0 -243.5 -53t-210.5 -138t-161.5 -188 t-107.5 -208.5t-37 -192.5z" />
<glyph unicode=":" horiz-adv-x="720" d="M-354 98q0 51 35 86t86 35t85.5 -35t34.5 -86t-34.5 -86t-85.5 -35t-86 35t-35 86zM248 936q0 51 35 86t86 35t85.5 -35t34.5 -86t-34.5 -86t-85.5 -35t-86 35t-35 86z" />
<glyph unicode=";" horiz-adv-x="782" d="M-444 -332q94 42 163 91t103 93.5t49.5 80t15.5 63.5q0 24 -20 24q-16 0 -43 -18q-37 -25 -78 -25q-49 0 -77.5 32t-28.5 81q0 55 38.5 91t94.5 36q79 0 126.5 -55.5t47.5 -122.5q0 -45 -18.5 -93.5t-59.5 -103t-118.5 -110.5t-182.5 -103zM258 936q0 51 35 86t86 35 t86 -35t35 -86t-35 -86t-86 -35t-86 35t-35 86z" />
<glyph unicode="&#x3c;" horiz-adv-x="1488" d="M-90 471v107l885 409v-82l-824 -381l824 -381v-82z" />
<glyph unicode="=" horiz-adv-x="1392" d="M-23 309v70h902v-70h-902zM-23 754v69h902v-69h-902z" />
<glyph unicode="&#x3e;" horiz-adv-x="1470" d="M98 61v82l824 381l-824 381v82l885 -409v-107z" />
<glyph unicode="?" horiz-adv-x="999" d="M-373 98q0 51 35 86t86 35t86 -35t35 -86t-35 -86t-86 -35t-86 35t-35 86zM-86 401l389 551h45q-60 -100 -45 -159.5t96 -59.5q90 0 191 45t190 123.5t162 175t115.5 208.5t42.5 216q0 99 -52 162t-165 63q-130 0 -279 -88v48q163 88 326 88q150 0 236.5 -70t86.5 -195 t-82 -272t-205 -266t-279.5 -199t-293.5 -80q-71 0 -107.5 37t-25.5 90l-295 -418h-51z" />
<glyph unicode="@" horiz-adv-x="2091" d="M121 590q0 144 45.5 290.5t126 276.5t196.5 244t251 196t295.5 129.5t324.5 47.5q138 0 260 -38.5t214.5 -110t146 -180.5t53.5 -241q0 -102 -29.5 -197t-79 -168t-114.5 -136t-135 -107t-141 -75.5t-133 -46.5t-110 -15q-106 0 -168.5 33t-62.5 88q0 64 67 163h-2 q-125 -132 -248.5 -209t-224.5 -77q-94 0 -149 44t-55 117q0 69 56.5 172t154 210t213.5 201t249 154t246 60q73 0 124 -23.5t71 -58.5l39 53h135l-445 -589q-106 -141 -106 -215q0 -82 112 -82q52 0 118 23.5t135.5 66t135.5 108t118.5 142t84 175.5t31.5 202 q0 166 -76.5 285.5t-206 177t-297.5 57.5q-131 0 -265 -36.5t-257 -103.5t-230.5 -166t-186.5 -218t-125 -267.5t-46 -306.5q0 -120 33.5 -220.5t90 -169.5t132 -117t159 -70.5t171.5 -22.5q164 0 302.5 62.5t273.5 197.5l30 -25q-276 -299 -653 -299q-137 0 -253.5 39 t-205.5 114t-139.5 193.5t-50.5 268.5zM590 614q0 -112 92 -112q149 0 438 289q130 130 248 286l115 152q-14 10 -25 45q-3 8 -6 21t-6 21t-8 15q-28 39 -97 39q-99 0 -209.5 -55.5t-204 -143t-171 -188.5t-122 -200t-44.5 -169z" />
<glyph unicode="A" horiz-adv-x="1902" d="M-637 0v35q120 7 198 58.5t315 267.5q8 7 13 11t12 10.5t13 12.5l1380 1266q36 33 57.5 51t66 40t83.5 22q49 0 82 -27.5t33 -77.5q0 -45 -35 -153l-436 -1295q-25 -77 -25 -106q0 -43 45 -60t138 -20v-35h-572v35q49 3 81.5 7t59.5 15t42.5 23t31 38t25.5 51.5t26 72.5 l127 381h-888l-279 -256q-151 -140 -204.5 -196.5t-53.5 -84.5q0 -25 38 -35.5t126 -15.5v-35h-500zM285 668h856l317 948q12 38 12 57q0 31 -28 31q-18 0 -39 -14t-62 -52z" />
<glyph unicode="B" horiz-adv-x="1769" d="M-481 0v31q56 2 94.5 6t71.5 15t53 21t45 35.5t41 46t47 64.5l950 1340q46 63 46 95q1 14 -7 22q-26 28 -186 34v31h629q142 0 253.5 -35.5t180.5 -112t69 -184.5q0 -117 -102.5 -220.5t-279.5 -172.5t-392 -88v-4q181 -35 280 -122t99 -224q0 -129 -112 -255t-306 -210 q-262 -113 -626 -113h-848zM-84 41h446q345 0 594 139q136 76 211.5 190t75.5 232q0 149 -113 227t-309 78h-289zM561 948h217q163 0 316 33t275 93t195.5 153.5t73.5 206.5q0 130 -97 198t-257 68h-188z" />
<glyph unicode="C" horiz-adv-x="1972" d="M-12 512q0 134 62.5 282.5t169.5 287t256 265.5t314.5 221t353.5 150t365 56q184 0 303 -42.5t252 -142.5q24 -18 52 -18q26 0 55 21t84 85h43l-328 -467h-41q56 106 56 203q0 149 -133 235.5t-355 86.5q-146 0 -307 -53.5t-307 -144.5t-279.5 -214.5t-231 -259 t-155 -284t-57.5 -283.5q0 -96 28 -178t84 -147t151 -102.5t220 -37.5q226 0 420 90t385 268l31 -31q-201 -190 -413.5 -285.5t-461.5 -95.5q-170 0 -309 63.5t-223 187t-84 284.5z" />
<glyph unicode="D" horiz-adv-x="2134" d="M-481 0v31q56 2 94.5 6t71.5 15t53 21t45 35.5t41 46t47 64.5l950 1337q47 63 47 96q0 13 -8 22q-26 30 -186 36v31h723q191 0 321 -43q171 -57 268 -175.5t97 -283.5q0 -190 -118.5 -398.5t-329.5 -392.5t-472 -301q-328 -147 -717 -147h-927zM-84 41h514q377 0 705 174 q221 117 396 291t274.5 377.5t99.5 398.5q0 275 -213 369q-109 49 -310 49h-286z" />
<glyph unicode="E" horiz-adv-x="1734" d="M-481 0v31q56 2 94.5 6t71.5 15t53 21t45 35.5t41 46t47 64.5l950 1337q46 64 46 97q0 13 -7 21q-26 30 -186 36v31h1249l-225 -475h-39q27 74 44 125t27 98t10 76.5t-11 55.5t-31 39.5t-55.5 23.5t-79.5 13t-107 3h-360l-537 -754h690v-41h-719l-503 -708 q-54 -78 -54 -109t42 -39t143 -8h98q129 0 213 4.5t180 19.5t168.5 44t156 78.5t165.5 122.5t176 175h45l-387 -485h-1454z" />
<glyph unicode="F" horiz-adv-x="1638" d="M-481 0v31q56 2 94.5 6t71.5 15t53 21t45 35.5t41 46t47 64.5l950 1337q46 64 46 97q0 13 -7 21q-26 30 -186 36v31h1429l-225 -475h-39q27 74 44 125t27 98t10 76.5t-11 55.5t-31 39.5t-55.5 23.5t-79.5 13t-107 3h-540l-537 -754h799v-41h-828l-512 -721 q-46 -63 -46 -96q0 -13 8 -22q26 -29 186 -35v-31h-647z" />
<glyph unicode="G" horiz-adv-x="2152" d="M-12 512q0 134 62.5 282.5t169.5 287t256 265.5t314.5 221t353.5 150t365 56q184 0 303 -42.5t252 -142.5q24 -18 52 -18q26 0 55 21t84 85h43l-328 -467h-41q56 106 56 203q0 149 -133 235.5t-355 86.5q-146 0 -307 -53.5t-307 -144.5t-279.5 -214.5t-231 -259 t-155 -284t-57.5 -283.5q0 -105 25 -188.5t79.5 -150t150 -103t226.5 -36.5q233 0 462.5 117.5t366.5 310.5l60 84q22 31 35 50.5t23.5 40t12 32t-3.5 24t-18.5 18.5t-37 11.5t-56 8t-78.5 4.5v31h647v-31q-78 -3 -125 -10.5t-84.5 -28t-62 -46t-60.5 -75.5l-213 -301 q-35 -18 -112.5 -59t-124 -65t-128.5 -58t-151 -52.5t-164 -32.5t-194 -14q-184 0 -331 65.5t-231.5 188t-84.5 281.5z" />
<glyph unicode="H" horiz-adv-x="2285" d="M-481 0v31q56 2 94.5 6t71.5 15t53 21t45 35.5t41 46t47 64.5l950 1337q46 64 46 97q0 13 -7 21q-26 30 -186 36v31h647v-31q-56 -2 -94.5 -6t-71.5 -15t-53 -21t-45 -35.5t-41 -46t-47 -64.5l-441 -621h1201l464 655q46 64 46 97q0 13 -7 21q-26 30 -186 36v31h647v-31 q-56 -2 -94.5 -6t-71.5 -15t-53 -21t-45 -35.5t-41 -46t-47 -64.5l-950 -1338q-46 -64 -46 -97q-1 -13 7 -21q26 -29 186 -35v-31h-647v31q56 2 94.5 6t71.5 15t53 21t45 35.5t41 46t47 64.5l455 641h-1200l-480 -676q-46 -63 -46 -96q0 -13 8 -22q26 -29 186 -35v-31h-647z " />
<glyph unicode="I" horiz-adv-x="913" d="M-481 0v31q56 2 94.5 6t71.5 15t53 21t45 35.5t41 46t47 64.5l950 1337q46 64 46 97q0 13 -7 21q-26 30 -186 36v31h647v-31q-56 -2 -94.5 -6t-71.5 -15t-53 -21t-45 -35.5t-41 -46t-47 -64.5l-951 -1338q-46 -63 -46 -96q0 -13 8 -22q26 -29 186 -35v-31h-647z" />
<glyph unicode="J" horiz-adv-x="870" d="M-1174 -344q0 39 21 62.5t55 23.5q19 0 31.5 -7t19 -22.5t9 -27t5.5 -33.5q1 -5 1 -8q20 -160 174 -160q39 0 79.5 14.5t76.5 36.5t79.5 64t78 80t84 102.5t85 112.5t92.5 129l1088 1533q47 62 47 96q0 13 -8 22q-27 30 -187 36v31h648v-31q-67 -2 -111.5 -9.5t-76 -17.5 t-60.5 -36t-48.5 -49.5t-56.5 -75.5l-1163 -1639q-150 -212 -325.5 -327t-333.5 -115q-128 0 -216 65.5t-88 149.5z" />
<glyph unicode="K" horiz-adv-x="2172" d="M-481 0v31q56 2 94.5 6t71.5 15t53 21t45 35.5t41 46t47 64.5l950 1337q46 64 46 97q0 13 -7 21q-26 30 -186 36v31h647v-31q-56 -2 -94.5 -6t-71.5 -15t-53 -21t-45 -35.5t-41 -46t-47 -64.5l-416 -584h213l668 412q67 42 136.5 84t111 67l83 50t63 39t39.5 27.5 t24.5 21.5t6.5 16q0 25 -33.5 35.5t-121.5 15.5v35h567v-35q-116 -8 -293.5 -88.5t-527.5 -294.5l-643 -393q94 -19 166.5 -70.5t138.5 -163.5l420 -696h-193l-391 676q-29 51 -44.5 76t-36.5 55.5t-35 43t-34.5 25t-41.5 16t-50 3.5h-221l-506 -711q-46 -63 -46 -96 q0 -13 8 -22q26 -29 186 -35v-31h-647z" />
<glyph unicode="L" horiz-adv-x="1742" d="M-481 0v31q83 3 131.5 11t88.5 33t64 53t68 91l960 1354q17 25 26 41.5t11.5 33t-7 26.5t-31.5 18.5t-60 12.5t-94 5v31h645v-31q-57 -2 -95.5 -6t-71.5 -15t-52.5 -20.5t-44.5 -35.5t-40.5 -46.5t-47.5 -64.5l-942 -1325q-54 -78 -54 -109t42 -39t143 -8h153 q120 0 178.5 1t144.5 7t129 16.5t110 32.5t110 53t106.5 79.5t123.5 109t137 145.5h45l-387 -485h-1489z" />
<glyph unicode="M" horiz-adv-x="2711" d="M-483 0v31q57 2 87.5 4.5t66.5 12t56.5 22t50.5 40.5t57 62.5t67 91.5l872 1227q28 39 46 67t27.5 51t13 37.5t-5 26t-19.5 17.5t-38.5 10.5t-53 6t-70.5 3.5v31h409l-309 -1577l1927 1577h418v-31q-56 -2 -94.5 -6t-71.5 -15t-53 -21t-45 -35.5t-41 -46t-47 -64.5 l-950 -1338q-46 -63 -46 -96q-1 -14 7 -22q26 -30 186 -35v-31h-647v31q56 2 94.5 6t71.5 15t53 21t45 35.5t41 46t47 64.5l1047 1475l-2069 -1694h-53l313 1591l-889 -1249q-39 -55 -62 -88.5t-46.5 -68.5t-29 -53.5t-13.5 -37.5t4 -27.5t20 -16.5t37.5 -11t53.5 -4.5 t71 -3.5v-31h-536z" />
<glyph unicode="N" horiz-adv-x="2146" d="M-483 0v31q68 3 103.5 7.5t72.5 16t66.5 38.5t61.5 65t81 106l872 1227q27 38 44.5 65.5t27.5 50.5t13 38t-5 26.5t-19.5 17.5t-37.5 11t-52.5 6.5t-70.5 3.5v31h334l192 -1565l871 1223q39 55 62 88.5t46.5 68.5t29 53.5t13.5 37.5t-4 27.5t-20 16.5t-37.5 11t-53.5 4.5 t-71 3.5v31h536v-31q-68 -3 -103.5 -7.5t-72.5 -16t-66.5 -38.5t-61.5 -65t-81 -106l-1065 -1500h-55l-193 1569l-856 -1204q-39 -55 -62 -88.5t-46.5 -68.5t-29 -53.5t-13.5 -37.5t4 -27.5t20 -16.5t37.5 -11t53.5 -4.5t71 -3.5v-31h-536z" />
<glyph unicode="O" horiz-adv-x="2222" d="M-10 512q0 137 63.5 287.5t171.5 288.5t257 264.5t314 219t350 147.5t357 55q142 0 264 -37.5t211 -105.5t139 -169t50 -223q0 -137 -63.5 -287.5t-171.5 -288.5t-257.5 -264.5t-314.5 -219t-350 -147.5t-357 -55q-192 0 -341.5 64t-235.5 186t-86 285zM162 469 q0 -213 119.5 -332t361.5 -119q158 0 324 52.5t313.5 142.5t280 214.5t228 262.5t151 292.5t55.5 299.5q0 212 -120 331.5t-362 119.5q-158 0 -324 -52.5t-313.5 -142.5t-279.5 -214.5t-227.5 -262.5t-151 -292.5t-55.5 -299.5z" />
<glyph unicode="P" horiz-adv-x="1595" d="M-481 0v31q56 2 94.5 6t71.5 15t53 21t45 35.5t41 46t47 64.5l950 1337q46 63 46 96q1 14 -7 22q-26 30 -186 36v31h655q146 0 262 -34t187 -105t71 -168q0 -119 -84 -222t-226 -173.5t-331 -111t-397 -40.5h-293l-500 -703q-46 -63 -46 -96q0 -14 8 -22q26 -30 186 -35 v-31h-647zM547 928h258q154 0 293 28.5t243 78.5t180.5 115.5t116 141t39.5 152.5q0 117 -93.5 186.5t-272.5 69.5h-215z" />
<glyph unicode="Q" horiz-adv-x="2222" d="M-59 -98q0 24 28.5 39.5t71.5 15.5q17 0 65.5 -6t94.5 -6q105 0 346 37q-158 16 -283.5 82.5t-200.5 183t-75 264.5q0 136 63.5 286.5t172 288.5t258.5 264.5t315.5 219.5t351 148t358.5 55q188 0 335 -62t235 -188t88 -299q0 -168 -106.5 -362.5t-279.5 -364.5 t-408.5 -305t-477.5 -189q-302 -67 -655 -96v-6q72 -6 119.5 -37.5t118.5 -103.5q10 -11 16 -17q117 -117 222 -177.5t230 -60.5q239 0 430 234l35 -27q-199 -272 -545 -272q-90 0 -165.5 19t-133.5 55t-100 75t-84 91q-13 16 -38.5 49t-40 50.5t-38.5 43t-43.5 38t-46 22.5 t-53.5 10q-28 0 -67.5 -13.5t-59.5 -13.5q-53 0 -53 35zM160 471q0 -208 118 -331.5t363 -123.5q157 0 322.5 53t313 143.5t280.5 215t228.5 263.5t151.5 293.5t56 299.5q0 212 -120 330.5t-360 118.5q-157 0 -323 -52.5t-314 -142.5t-280.5 -214t-228 -262t-151.5 -292 t-56 -299z" />
<glyph unicode="R" horiz-adv-x="1927" d="M-481 0v31q56 2 94.5 6t71.5 15t53 21t45 35.5t41 46t47 64.5l950 1337q47 63 47 96q0 13 -8 22q-26 30 -186 36v31h620q147 0 261.5 -34.5t184.5 -109t70 -180.5q0 -114 -80 -210.5t-212.5 -159t-300.5 -98.5t-349 -38v-2q281 -63 281 -329q0 -72 -39 -219t-39 -214 q0 -53 22.5 -85.5t67.5 -32.5q94 0 195 145l39 -16q-120 -181 -273 -181q-94 0 -151.5 56t-57.5 155q0 68 44 219.5t44 233.5q0 130 -91 198t-265 68h-113l-514 -723q-46 -63 -46 -96q0 -14 8 -22q26 -30 186 -35v-31h-647zM561 948h209q204 0 371 38.5t275.5 105t167 154 t58.5 186.5q0 127 -92.5 197.5t-273.5 70.5h-180z" />
<glyph unicode="S" horiz-adv-x="1595" d="M-326 111l332 469h43q-67 -131 -67 -234q0 -146 126.5 -237t335.5 -91q234 0 369 123.5t135 311.5q0 62 -15 121t-48 121.5t-63.5 109t-82.5 119.5q-50 70 -64.5 90.5t-46.5 71.5t-41.5 78t-19.5 68.5t-10 84.5q0 137 80 242.5t211.5 160t290.5 54.5q57 0 111 -6.5 t100 -20t81 -25.5t71.5 -32t54 -30t46.5 -29.5t31 -20.5q31 -19 52 -19q24 0 48.5 17t71.5 69h47l-299 -424h-43q56 112 56 193q0 134 -125.5 211.5t-308.5 77.5q-192 0 -310 -98.5t-118 -256.5q0 -85 35 -158t114 -178q109 -142 144 -198q112 -178 112 -344 q0 -156 -89 -276.5t-242.5 -184.5t-346.5 -64q-92 0 -170 16t-142 47.5t-111.5 64.5t-102.5 81q-29 25 -53 25q-27 0 -56.5 -20.5t-72.5 -79.5h-50z" />
<glyph unicode="T" horiz-adv-x="1759" d="M-55 0v31q56 2 94.5 6t71.5 15t53 21t45 35.5t41 46t47 64.5l1053 1481h-195q-93 0 -165 -10t-150 -37.5t-151.5 -77t-158.5 -128.5t-182 -192h-49l365 486h1560l-184 -486h-39q19 85 28 131t13 101q2 24 2 42q0 24 -3 38q-6 25 -25.5 54.5t-50 40.5t-83 22t-116.5 13.5 t-158 2.5h-86l-1078 -1516q-46 -63 -46 -96q0 -14 8 -22q26 -30 186 -35v-31h-647z" />
<glyph unicode="U" horiz-adv-x="2164" d="M43 360q0 156 150 361l595 838q21 29 30.5 45t15.5 35t-3 29t-30.5 20t-61.5 15t-100 7v31h647v-31q-83 -3 -131.5 -11t-88.5 -33t-64 -53t-68 -91l-621 -875q-29 -40 -46.5 -69.5t-36.5 -87.5t-19 -117q0 -150 127 -230t334 -80q96 0 185.5 18.5t157 45.5t133 69.5 t108.5 79t87.5 86.5t66.5 79t50 69l631 889q111 157 129 188q22 39 22 64q0 18 -12 29q-31 26 -174 30v31h537v-31q-57 -3 -95 -7t-72 -16t-55 -24t-48.5 -40.5t-47 -53.5t-55.5 -76l-707 -995q-107 -150 -192 -234q-293 -287 -707 -287q-254 0 -412.5 101.5t-158.5 281.5z " />
<glyph unicode="V" horiz-adv-x="1890" d="M195 82q0 61 34 154l447 1284q24 74 24 110q0 40 -45 56.5t-137 19.5v35h572v-35q-50 -3 -82.5 -7t-59.5 -15.5t-42.5 -22.5t-31 -38.5t-25 -51.5t-26.5 -72l-471 -1364q-12 -37 -12 -59q0 -12 8 -20.5t21 -8.5q18 0 38 13.5t62 52.5l1384 1261q165 149 211.5 201.5 t46.5 79.5q0 25 -38 35.5t-125 15.5v35h499v-35q-118 -7 -195 -57t-306 -258q-33 -29 -50 -45l-1380 -1256q-70 -63 -116.5 -88t-90.5 -25q-49 0 -81.5 27.5t-32.5 77.5z" />
<glyph unicode="W" horiz-adv-x="2721" d="M195 82q0 61 34 154l447 1284q24 74 24 110q0 40 -45 56.5t-137 19.5v35h572v-35q-60 -3 -97 -10.5t-63.5 -18.5t-45 -38.5t-30.5 -55t-31 -84.5l-471 -1364q-12 -37 -12 -59q0 -12 8 -20.5t21 -8.5q34 0 100 66l866 856l193 551q24 74 24 110q0 40 -45 56.5t-137 19.5 v35h1010v-35q-71 -4 -116 -15.5t-108.5 -51t-135 -105.5t-191.5 -188l-318 -324l-307 -887q-12 -37 -12 -59q0 -12 8 -20.5t21 -8.5q18 0 38 13.5t62 52.5l1364 1261q166 153 212 204t46 77q0 25 -38 35.5t-126 15.5v35h500v-35q-124 -7 -205.5 -62t-335.5 -289 q-7 -6 -10 -9l-1360 -1256q-67 -63 -114 -88t-93 -25q-49 0 -81.5 27.5t-32.5 77.5q0 61 34 154l219 628l-784 -774q-65 -63 -112.5 -88t-94.5 -25q-49 0 -81.5 27.5t-32.5 77.5zM1548 1135l238 239q33 34 66 67t54.5 54t42.5 42.5t34 34t25 25t18 20t10.5 15t6 12.5t1.5 11 q0 49 -125 49q-49 0 -83 -7t-57.5 -19.5t-42 -40t-31 -56.5t-30.5 -82z" />
<glyph unicode="X" horiz-adv-x="2105" d="M-614 0v35q88 7 164.5 32t215 100t381.5 228l850 535l-61 596q-4 41 -7.5 62t-14 44.5t-26 34t-45 21.5t-69.5 15t-100 7v31h629v-31q-60 -2 -97 -4.5t-64.5 -12t-39.5 -19t-18 -34t-5 -47t6 -67.5l54 -508l569 356q91 57 178 109t129 75.5t76 45t44.5 32.5t10.5 23 q0 22 -35 32t-120 15v35h526v-35q-85 -6 -153 -26.5t-212 -97.5t-397 -236l-610 -383l78 -748q4 -41 7.5 -62t14 -44.5t26 -34t45 -21.5t69.5 -15t100 -7v-31h-629v31q60 2 95.5 4.5t63.5 11.5t40 18.5t18.5 33.5t5.5 47.5t-6 68.5l-69 659l-809 -507q-92 -58 -178.5 -109.5 t-128.5 -75t-76.5 -45t-45 -32t-10.5 -21.5q0 -23 35 -33.5t121 -15.5v-35h-526z" />
<glyph unicode="Y" horiz-adv-x="1771" d="M-66 0v31q68 3 112 10.5t76 17.5t60 35t48 49.5t57 75.5l426 598l35 709q1 28 1 46t-1 37t-6.5 30t-12.5 22.5t-21 18t-30 12t-41 9t-53 5.5t-68 4v31h625v-31q-56 -2 -92 -5.5t-65 -12.5t-44 -20t-26 -33t-15 -47t-6 -66l-37 -695l715 519q78 57 191 137q132 95 164 122 t32 46q0 25 -34 35.5t-122 15.5v35h527v-35q-126 -9 -263 -82.5t-452 -300.5l-762 -551l-420 -592q-17 -24 -26 -38t-16 -31.5t-3.5 -27t14.5 -20t34.5 -16t59.5 -10t87 -6.5v-31h-648z" />
<glyph unicode="Z" horiz-adv-x="1806" d="M-457 0v39l2274 1661h-484q-90 0 -146 -1.5t-123.5 -8.5t-111.5 -19t-101 -34.5t-102.5 -54t-105.5 -79t-120.5 -107.5t-137.5 -141h-43l387 486h1333v-39l-2279 -1661h588q129 0 213 4.5t180 19.5t168.5 44t156 78.5t165.5 122.5t176 175h45l-388 -485h-1544z" />
<glyph unicode="[" horiz-adv-x="780" d="M-860 -696l1773 2437h373v-41h-248l-1716 -2355h240v-41h-422z" />
<glyph unicode="\" horiz-adv-x="1505" d="M586 1741h80l188 -1946h-80z" />
<glyph unicode="]" horiz-adv-x="780" d="M-1085 -655h247l1717 2355h-240v41h422l-1774 -2437h-372v41z" />
<glyph unicode="^" horiz-adv-x="1169" d="M209 791l315 632h74l317 -632h-88l-268 544l-268 -544h-82z" />
<glyph unicode="_" horiz-adv-x="1431" d="M-635 -242h1036v-69h-1036v69z" />
<glyph unicode="`" d="M952 1595q0 23 15.5 38.5t38.5 15.5q48 0 67 -62q37 -117 103.5 -198.5t195.5 -178.5l-18 -24q-322 204 -391 364q-11 26 -11 45z" />
<glyph unicode="a" horiz-adv-x="1345" d="M-283 160q0 64 46.5 157t123 192t182 197.5t217.5 176t235.5 126t230.5 48.5q75 0 134.5 -25.5t84.5 -66.5l45 59h151l-454 -604q-154 -207 -154 -291q0 -46 26 -73t74 -27q37 0 76 12t85 41.5t85 58t99.5 83.5t102.5 94.5t119.5 114.5t127.5 122v-55 q-53 -49 -125 -119.5t-116 -113t-101.5 -94.5t-100 -82.5t-91 -59.5t-94.5 -41.5t-93 -12.5q-101 0 -156 45.5t-55 120.5q0 60 61 158h-4q-143 -149 -281 -236.5t-251 -87.5q-105 0 -167.5 50.5t-62.5 132.5zM-125 156q0 -53 24 -90t81 -37q174 0 493 325q152 155 279 324 l129 170q-4 2 -7.5 5.5l-6.5 6.5t-5.5 9t-4 9.5t-3.5 11.5t-2.5 11.5t-2.5 13t-3 13.5q-10 40 -45 60t-82 20q-93 0 -196.5 -44.5t-194.5 -117t-175.5 -165t-145 -186.5t-96.5 -183.5t-36 -155.5z" />
<glyph unicode="b" horiz-adv-x="1247" d="M-203 158q0 112 117 270l952 1313h152l-701 -967h5q283 283 487 283q115 0 174 -50.5t59 -132.5q0 -69 -47 -164t-125 -193.5t-183 -196t-215 -173.5t-228.5 -123t-216.5 -47q-107 0 -168.5 48.5t-61.5 132.5zM-47 145q0 -116 108 -116q100 0 218 61t222.5 158 t192.5 209.5t139.5 226t51.5 195.5q0 61 -28 94t-81 33q-80 0 -178.5 -63.5t-247.5 -197.5q-158 -142 -244 -258q-153 -207 -153 -342z" />
<glyph unicode="c" horiz-adv-x="940" d="M-219 219q0 88 55 201.5t149 223.5t207.5 203.5t243 151.5t242.5 58q89 0 136.5 -35t47.5 -88q0 -38 -23 -65t-59 -27q-24 0 -37 14t-16 29.5t-5.5 40.5t-4.5 35q-12 47 -80 47q-102 0 -227.5 -80.5t-228 -198t-172.5 -258.5t-70 -254q0 -91 45.5 -139.5t134.5 -48.5 q87 0 176 32t193.5 104t208.5 161t251 229v-55q-124 -115 -200 -182t-173 -141t-170.5 -112t-159.5 -63t-173 -25q-137 0 -214 63.5t-77 178.5z" />
<glyph unicode="d" horiz-adv-x="1458" d="M-283 160q0 64 46 156.5t122.5 191.5t182 198t217.5 176.5t236 126t231 48.5q79 0 134.5 -23.5t80.5 -60.5l555 768h151l-938 -1288q-92 -126 -134 -199t-42 -127q0 -46 30.5 -72t84.5 -26q46 0 93 11.5t87 27t94.5 51t93 63t106 86t109.5 96.5t127 116q54 49 82 75v-55 q-36 -33 -99.5 -90.5t-94.5 -85.5t-84.5 -75t-83.5 -70t-77 -58t-79 -51.5t-75 -38t-80 -31t-79.5 -16.5t-86.5 -7q-90 0 -147.5 44t-57.5 120q0 62 61 160h-4q-310 -324 -540 -324q-96 0 -159 52.5t-63 130.5zM-125 152q0 -32 7.5 -57t33 -45.5t66.5 -20.5q169 0 491 325 q167 171 279 324l125 172q-17 16 -23 49q-10 47 -25 64q-34 43 -116 43q-90 0 -192 -44.5t-192.5 -116t-175 -164t-145 -186.5t-97 -185t-36.5 -158z" />
<glyph unicode="e" horiz-adv-x="968" d="M-240 219q0 79 54.5 189.5t148 222t204.5 208t237 157.5t233 61q71 0 112.5 -30t41.5 -77q0 -65 -75 -148.5t-188.5 -156t-261 -124.5t-278.5 -58q-70 -143 -70 -246q0 -91 44 -139.5t126 -48.5q98 0 198.5 33t211.5 103.5t223 162.5t256 227v-55q-114 -105 -203.5 -180 t-186.5 -143.5t-181.5 -110t-175 -65.5t-179.5 -24q-137 0 -214 63.5t-77 178.5zM8 508q100 5 200.5 36.5t181.5 79t145.5 103.5t99.5 114.5t35 108.5q0 26 -18.5 42t-47.5 16q-97 0 -213 -74.5t-215 -187t-168 -238.5z" />
<glyph unicode="f" horiz-adv-x="561" d="M-1481 -600q0 33 22 57.5t56 24.5q20 0 33 -11.5t17.5 -23.5t10 -35t7.5 -30q18 -56 86 -56q116 0 223.5 51.5t216.5 167.5t171.5 197t176.5 244q7 9 10 14l719 1024q80 114 161.5 214.5t182.5 201.5t198.5 172.5t208 116.5t212.5 45q87 0 138.5 -35.5t51.5 -83.5 q0 -33 -22 -57.5t-56 -24.5q-20 0 -33 11.5t-17.5 23.5t-9.5 35t-7 30q-18 56 -86 56q-58 0 -118.5 -22t-115 -58t-113.5 -91t-108.5 -112t-105.5 -130t-100.5 -135.5t-97.5 -137.5q-9 -13 -13 -19l-719 -1024q-507 -719 -989 -719q-88 0 -139.5 35.5t-51.5 83.5z" />
<glyph unicode="g" horiz-adv-x="1355" d="M-635 -559q0 239 686 461l205 65l20 31l287 399h-4q-143 -149 -280.5 -236t-251.5 -87q-105 0 -167.5 50t-62.5 132q0 69 43 157.5t114.5 176.5t169.5 172.5t202.5 149.5t219.5 105t216 40q72 0 131 -24.5t86 -63.5l41 55h149l-733 -1016l740 242l-2 -43l-779 -254 q-59 -81 -104 -140t-107 -134t-114 -127.5t-117 -107t-124 -88t-126 -54.5t-133 -21q-86 0 -145.5 45.5t-59.5 114.5zM-520 -578q0 -44 28.5 -71t81.5 -27q43 0 91.5 20.5t92 51.5t95.5 82.5t91.5 96.5t91.5 113t84 112.5t79 111.5l-160 -51q-106 -34 -193 -72.5t-145 -73.5 t-102.5 -72.5t-69.5 -68t-40.5 -61.5t-20 -51.5t-4.5 -39.5zM-45 252q0 -53 23.5 -90t80.5 -37q174 0 494 326q10 10 45.5 46t54.5 56t50.5 54t58.5 67.5t53 68.5l76 105q-4 2 -7.5 5.5l-6.5 6.5t-5.5 9t-4 9.5t-3.5 11.5t-2.5 11.5t-2.5 13t-3 13.5q-10 40 -44.5 60 t-80.5 20q-90 0 -186.5 -37.5t-180.5 -99t-160.5 -141.5t-130.5 -163.5t-86 -166t-32 -148.5z" />
<glyph unicode="h" horiz-adv-x="1396" d="M-412 0l1262 1741h151l-790 -1090l4 -2q160 178 331 293t322 115q96 0 157.5 -43.5t61.5 -118.5q0 -63 -51.5 -138.5t-195.5 -234.5l-113 -125q-60 -67 -96.5 -127.5t-36.5 -124.5q0 -53 29.5 -84.5t87.5 -31.5q49 0 104.5 23.5t108 58.5t128 102.5t137 127.5t162.5 160 l54 54v-55q-37 -36 -110 -108.5t-104.5 -103.5t-91 -86t-91 -79.5t-81 -59t-85 -49t-78 -26t-84.5 -11.5q-94 0 -160.5 48.5t-66.5 132.5q0 108 141 262l168 186q174 190 174 297q0 44 -27 73.5t-82 29.5q-215 0 -583 -381q-213 -218 -410 -494l-94 -131h-152z" />
<glyph unicode="i" horiz-adv-x="798" d="M-242 131q0 57 39.5 127t139.5 203l425 563h152l-459 -604q-87 -115 -122 -178.5t-35 -114.5q0 -46 30 -72t84 -26q64 0 132 23.5t119.5 50t143.5 101t142 119t177 160.5q17 16 26.5 24.5t24.5 22t28 25.5v-57q-34 -31 -98 -88q-217 -198 -312 -269q-183 -135 -346 -158 q-41 -6 -84 -6q-90 0 -148.5 41t-58.5 113zM760 1661q0 43 29.5 72.5t72.5 29.5t73 -29.5t30 -72.5t-30 -72.5t-73 -29.5t-72.5 29.5t-29.5 72.5z" />
<glyph unicode="j" horiz-adv-x="681" d="M-1401 -600q0 33 22 57.5t56 24.5q20 0 33 -11.5t17.5 -23.5t10 -35t7.5 -30q18 -56 86 -56q44 0 88.5 12t89 38.5t84 55t85 75.5t80.5 85t82.5 98t78.5 100t81 107t78 103l784 1024h152l-743 -965l780 258l-2 -43l-819 -270q-281 -369 -511.5 -546t-428.5 -177 q-88 0 -139.5 35.5t-51.5 83.5zM760 1661q0 43 29.5 72.5t72.5 29.5t73 -29.5t30 -72.5t-30 -72.5t-73 -29.5t-72.5 29.5t-29.5 72.5z" />
<glyph unicode="k" horiz-adv-x="1327" d="M-412 0l1262 1741h151l-790 -1090l4 -2q190 206 346.5 307t292.5 101q95 0 152 -40t57 -99q0 -73 -59.5 -137.5t-160 -111.5t-218.5 -80t-248 -52q54 -10 82 -55t28 -105l-2 -213q0 -69 22.5 -102t74.5 -33q62 0 142 38.5t192.5 127.5t183.5 151t212 190q14 13 21 19v-57 q-28 -25 -94.5 -84.5t-93 -82.5t-84 -72.5t-84.5 -70.5t-76.5 -58.5t-78 -54t-71 -40t-74 -33t-68 -17.5t-70.5 -8q-95 0 -150 40.5t-55 127.5q0 45 15.5 145t15.5 152q0 39 -7.5 59.5t-33.5 28.5q-82 -10 -183 -14q-152 -164 -307 -385l-94 -131h-152zM176 553 q152 4 290 37t234.5 83.5t153.5 115t57 129.5q0 37 -23.5 62.5t-68.5 25.5q-114 0 -252.5 -92.5t-322.5 -288.5z" />
<glyph unicode="l" horiz-adv-x="796" d="M-242 131q0 56 38.5 123t140.5 207l927 1280h152l-961 -1321q-90 -123 -123.5 -183.5t-33.5 -109.5q0 -46 30 -72t84 -26q64 0 132 23.5t119.5 50t143.5 101t142 119t177 160.5q17 16 26.5 24.5t24.5 22t28 25.5v-55q-36 -32 -100 -90.5t-94.5 -86t-84.5 -74.5t-83.5 -70 t-77 -58t-79 -51.5t-75 -38t-80 -31t-79.5 -16.5t-87 -7q-90 0 -148.5 41t-58.5 113z" />
<glyph unicode="m" horiz-adv-x="2129" d="M-416 0l778 1024h152l-285 -373l4 -2q162 180 329.5 294t320.5 114q95 0 154 -44.5t59 -119.5q0 -47 -29 -101t-102 -141l4 -2q80 87 151.5 154t154.5 128t168 93.5t165 32.5q93 0 153 -43.5t60 -120.5q0 -66 -55 -142.5t-193 -228.5l-113 -125q-60 -67 -96.5 -127.5 t-36.5 -124.5q0 -53 29.5 -84.5t87.5 -31.5q49 0 104.5 23.5t108 58.5t128 102.5t137 127.5t162.5 160l18.5 18.5l16.5 16.5l19 19v-55q-37 -36 -110 -108.5t-104.5 -103.5t-91 -86t-91 -79.5t-81 -59t-85 -49t-78 -26t-84.5 -11.5q-94 0 -160.5 48.5t-66.5 132.5 q0 108 141 262l168 186q174 190 174 299q0 44 -26.5 72.5t-83.5 28.5q-99 0 -236.5 -93.5t-325.5 -287.5q-255 -262 -419 -480l-109 -145h-152l545 717q82 105 82 186q0 45 -26 74t-82 29q-111 0 -252.5 -99t-321.5 -282q-240 -246 -426 -492l-100 -133h-152z" />
<glyph unicode="n" horiz-adv-x="1415" d="M-416 0l778 1024h152l-285 -373l4 -2q373 408 658 408q95 0 155 -43.5t60 -118.5q0 -63 -51.5 -138t-196.5 -235l-113 -125q-60 -67 -96.5 -127.5t-36.5 -124.5q0 -53 29.5 -84.5t87.5 -31.5q49 0 104.5 23.5t108 58.5t128 102.5t137 127.5t162.5 160l54 54v-55 q-37 -36 -110 -108.5t-104.5 -103.5t-91 -86t-91 -79.5t-81 -59t-85 -49t-78 -26t-84.5 -11.5q-94 0 -160.5 48.5t-66.5 132.5q0 108 141 262l168 186q174 190 174 297q0 44 -26.5 73.5t-83.5 29.5q-63 0 -139.5 -33t-154.5 -91t-147.5 -120.5t-140.5 -136.5 q-250 -259 -426 -492l-100 -133h-152z" />
<glyph unicode="o" horiz-adv-x="1138" d="M-256 162q0 70 42 164.5t112 193.5t166.5 195.5t200 172t218.5 122.5t217 47q108 0 171 -49t63 -136q0 -69 -42 -164t-112 -194t-166.5 -195.5t-200.5 -172t-219 -122.5t-217 -47q-108 0 -170.5 49t-62.5 136zM-98 162q0 -72 29 -102.5t85 -30.5q104 0 217.5 62.5 t208 160.5t172 211t121 222.5t43.5 186.5q0 134 -116 134q-87 0 -181.5 -44.5t-176.5 -116.5t-157.5 -164t-128.5 -185.5t-84.5 -181.5t-31.5 -152z" />
<glyph unicode="p" horiz-adv-x="1228" d="M-918 -696l1248 1720h151l-198 -276h4q137 146 263.5 227.5t250.5 81.5q99 0 161 -47.5t62 -135.5q0 -69 -46 -165t-121.5 -194.5t-176 -196t-203.5 -172.5t-210.5 -122t-192.5 -47q-89 0 -137 36t-48 85q0 41 23 69t59 28q24 0 38 -14t16.5 -30.5t5 -41t4.5 -33.5 q13 -49 71 -49q72 0 159.5 45t170 117t161.5 165t138 187t95 185t36 157q0 123 -110 123q-160 0 -443 -287q-205 -210 -381 -451l-698 -964h-152z" />
<glyph unicode="q" horiz-adv-x="1247" d="M-281 160q0 82 66 200.5t176.5 237.5t241 223.5t275 170t261.5 65.5q107 0 168.5 -48.5t61.5 -131.5q0 -113 -117 -271l-958 -1302h-152l702 956h-4q-283 -283 -491 -283q-115 0 -172.5 50.5t-57.5 132.5zM-123 156q0 -60 26.5 -93.5t73.5 -33.5q86 0 186 63t249 197 q167 150 247 258q154 208 154 342q0 117 -108 117q-100 0 -218.5 -61t-223.5 -158t-193.5 -209.5t-140.5 -226t-52 -195.5z" />
<glyph unicode="r" horiz-adv-x="1015" d="M-416 0l778 1024h152l-285 -373l4 -2q157 176 320.5 292t292.5 116q78 0 127 -33t49 -84q0 -39 -23.5 -69.5t-58.5 -30.5q-57 0 -63 69q-2 24 -4 37.5t-8 29.5t-17 23t-29 7q-59 0 -130.5 -32.5t-148 -93t-140 -119.5t-138.5 -136q-226 -232 -426 -492l-100 -133h-152z " />
<glyph unicode="s" horiz-adv-x="798" d="M-471 160q0 42 23 75t65 33q33 0 53.5 -20t20.5 -49q0 -38 -39 -66q-35 -24 -35 -41q0 -29 46 -52.5t124 -23.5q115 0 201.5 71t131 191.5t44.5 270.5v33q0 127 38 234.5t112 174t169 66.5q79 0 130 -39.5t51 -102.5q0 -34 -21 -57.5t-53 -23.5q-24 0 -38.5 15.5 t-18.5 33.5t-8 43.5t-7 34.5q-15 49 -76 49q-135 0 -135 -305v-158q0 -126 -45.5 -235t-120 -181t-167 -113t-187.5 -41q-118 0 -188 50.5t-70 132.5z" />
<glyph unicode="t" horiz-adv-x="720" d="M-399 0l714 983h-270v41h299l252 346h149l-251 -346h309v-41h-338l-717 -983h-147z" />
<glyph unicode="u" horiz-adv-x="1431" d="M-256 137q0 53 30 105t122 172l469 610h151l-539 -707q-81 -105 -81 -186q0 -46 26.5 -74t85.5 -28q209 0 567 370q235 241 424 492l101 133h155l-460 -604q-154 -202 -154 -299q0 -41 26.5 -66.5t77.5 -25.5q37 0 76 12t85 41.5t85 58t99.5 83.5t102.5 94.5t119.5 114.5 t127.5 122v-55q-51 -47 -126 -119.5t-118.5 -113t-104 -94.5t-102.5 -83.5t-92.5 -58.5t-96.5 -41.5t-93 -12.5q-94 0 -148.5 45.5t-54.5 118.5q0 86 104 232l-4 2q-159 -177 -325.5 -287.5t-319.5 -110.5q-94 0 -154.5 43t-60.5 117z" />
<glyph unicode="v" horiz-adv-x="1218" d="M-174 135q0 77 64.5 182t178 221t243 227.5t282.5 227.5l-2 4q-121 -75 -238 -75q-31 0 -94.5 13t-99.5 13q-73 0 -120.5 -50t-59.5 -134h-37q10 137 79 215t160 78q48 0 132.5 -21.5t140.5 -21.5q98 0 215 43l20 -27q-326 -262 -519.5 -501.5t-193.5 -399.5 q0 -100 101 -100q139 0 332 155q102 84 188.5 183t165.5 244t119 304q19 77 42 109.5t62 32.5q30 0 47 -17t17 -47q0 -37 -23 -96q-94 -242 -259.5 -444t-367.5 -342q-196 -134 -366 -134q-106 0 -157.5 44.5t-51.5 113.5z" />
<glyph unicode="w" horiz-adv-x="1818" d="M-174 137q0 62 44 143.5t116 166.5t173.5 181.5t207.5 184.5t227 180l-2 4q-121 -75 -238 -75q-31 0 -94.5 13t-99.5 13q-73 0 -120.5 -50t-59.5 -134h-37q10 137 79 215t160 78q48 0 132.5 -21.5t140.5 -21.5q98 0 215 43l20 -27q-326 -262 -519.5 -501.5t-193.5 -399.5 q0 -100 91 -100q73 0 189 61.5t251 171.5q144 253 303 445q85 103 130.5 146.5t82.5 43.5q39 0 39 -37q0 -68 -156 -251t-358 -369q-11 -38 -10 -74q1 -34 11 -67q12 -34 47 -55t91 -21q176 0 377 196q128 125 245 305.5t156 341.5q28 112 52.5 151.5t66.5 39.5q28 0 46 -17 t17 -47q0 -37 -22 -96q-39 -103 -108 -223.5t-165.5 -244.5t-202 -224.5t-227.5 -164t-233 -63.5q-106 -1 -162 61q-38 42 -38 102q0 28 8 59q-276 -222 -475 -222q-95 0 -146 45.5t-51 114.5z" />
<glyph unicode="x" horiz-adv-x="1546" d="M-266 98q0 38 22.5 67.5t61.5 29.5q24 0 37 -13.5t15 -29t4.5 -41.5t4.5 -37q12 -49 70 -49q68 0 162 63t184.5 164t169.5 215.5t127.5 230t48.5 195.5q0 113 -100 113q-96 0 -226.5 -94t-228.5 -234l-37 27q117 157 258 254.5t277 97.5q100 0 157.5 -52t57.5 -131 q0 -10 -2 -28q261 211 477 211q89 0 136.5 -35t47.5 -88q0 -38 -23 -65t-59 -27q-24 0 -37 14t-16 29.5t-5.5 40.5t-4.5 35q-12 47 -80 47q-102 0 -227.5 -81.5t-228 -200.5t-172.5 -261.5t-70 -255.5q0 -180 190 -180q87 0 176 32t193.5 104t208.5 161t251 229v-55 q-124 -115 -200 -182t-173 -141t-170.5 -112t-159.5 -63t-173 -25q-142 0 -221.5 62.5t-79.5 161.5l2 30q-128 -120 -253 -187t-228 -67q-75 0 -119.5 34t-44.5 87z" />
<glyph unicode="y" horiz-adv-x="983" d="M-1311 -651q0 30 23.5 47.5t64.5 17.5q11 0 58.5 -4t66.5 -4q514 0 1114 559l35 33l-92 1026h156l10 -950q174 184 314.5 410t191.5 431q19 77 42 109.5t62 32.5q64 0 64 -64q0 -37 -23 -96q-74 -188 -207 -375q-231 -325 -526 -594q-334 -306 -673.5 -476.5 t-575.5 -170.5q-105 0 -105 68z" />
<glyph unicode="z" horiz-adv-x="1202" d="M-410 8q0 24 30.5 38t82 25t72.5 21q49 24 135 96q116 97 366 350.5t369 352.5l-2 4q-24 -4 -57 -4q-72 0 -186 19q-168 28 -207 28q-81 0 -129 -51.5t-62 -122.5h-43q14 152 82 222.5t158 69.5q56 0 117 -19t106 -42.5t103.5 -43t109.5 -19.5q75 0 139 45q3 2 28.5 20 t42.5 28.5t44 21t49 9.5q18 0 28.5 -8t10.5 -22q0 -18 -20 -32t-43.5 -21.5t-58 -16.5t-48.5 -14q-61 -21 -150 -96q-115 -97 -365.5 -349.5t-367.5 -351.5l2 -4q46 18 112 18h19q79 -3 139.5 -16t132.5 -27t111 -14q109 0 174 55t88 154h41q-10 -90 -42.5 -158t-77 -104.5 t-90.5 -54t-93 -17.5q-60 0 -135.5 19.5t-135.5 43t-126.5 43t-110.5 19.5q-58 0 -137 -47q-6 -3 -29.5 -19t-42 -27.5t-45.5 -21.5t-49 -10q-18 0 -28.5 8.5t-10.5 22.5z" />
<glyph unicode="{" horiz-adv-x="983" d="M-608 -520q0 85 106 188q47 46 122.5 109.5t140 114.5t135 115.5t120 121.5t81.5 124t32 130q0 81 -60.5 141t-158.5 60h-57v41h133q72 0 143.5 16t142.5 48.5t133.5 90.5t104.5 135q45 84 72 185.5t51.5 210.5t58.5 190q52 123 161 181.5t284 58.5h186v-41h-139 q-141 0 -216.5 -54t-133.5 -184q-33 -74 -58 -178.5t-54 -203.5t-79 -183q-181 -305 -541 -305q-20 0 -82 4q94 -33 158 -100t64 -162q0 -76 -42 -156.5t-115.5 -156.5t-146 -140t-163 -139.5t-137.5 -122.5q-101 -101 -101 -164q0 -59 39.5 -84.5t134.5 -25.5h123v-41h-143 q-80 0 -145 17t-109.5 58t-44.5 101z" />
<glyph unicode="|" horiz-adv-x="745" d="M-578 -309l1491 2050h113l-1491 -2050h-113z" />
<glyph unicode="}" horiz-adv-x="980" d="M-922 -657h140q97 0 162 25.5t107 75t81 136.5q33 74 58 178.5t53.5 203.5t78.5 183q181 306 541 306q5 0 82 -5q-94 33 -157.5 100.5t-63.5 162.5q0 76 42 156.5t115.5 156.5t146 139.5t163 139t137.5 122.5q100 100 100 164q0 59 -40 85t-134 26h-123v41h144 q80 0 145 -17t109.5 -58t44.5 -101q0 -85 -107 -189q-47 -46 -122.5 -109.5t-140 -114.5t-135 -115.5t-120 -121.5t-81.5 -124t-32 -130q0 -81 60.5 -140.5t159.5 -59.5h57v-41h-133q-72 0 -144 -16t-143 -49t-133.5 -91t-104.5 -135q-45 -84 -72 -185.5t-51.5 -210.5 t-58.5 -190q-52 -123 -160.5 -181t-283.5 -58h-187v41z" />
<glyph unicode="~" horiz-adv-x="1200" d="M-84 467q20 107 80.5 168t148.5 61q48 0 113 -25.5t118 -56.5t112.5 -56.5t97.5 -25.5q51 0 91 31t64 115l33 -6q-20 -107 -80.5 -168.5t-148.5 -61.5q-48 0 -113 25.5t-118 56.5t-112.5 56.5t-97.5 25.5q-114 0 -155 -145z" />
<glyph unicode="&#xa1;" horiz-adv-x="700" d="M-915 -696l1058 1329h47l-919 -1329h-186zM233 936q0 51 35 86t86 35t86 -35t35 -86t-35 -86t-86 -35t-86 35t-35 86z" />
<glyph unicode="&#xa2;" horiz-adv-x="1284" d="M-172 0l293 401q-98 64 -98 193q0 84 50.5 192t137.5 213.5t193 198t229 155t233 74.5l228 314h90l-226 -311q71 -7 108.5 -40.5t37.5 -80.5q0 -38 -23 -65t-59 -27q-24 0 -37.5 13.5t-16.5 29t-5.5 40.5t-4.5 35q-12 47 -79 47q-102 0 -228 -80.5t-228.5 -197.5 t-172.5 -258t-70 -254q0 -91 45.5 -140t134.5 -49q167 0 350.5 122.5t479.5 404.5v-56q-102 -94 -168.5 -153t-148.5 -126t-144.5 -105.5t-134 -73.5t-140 -49.5t-141.5 -14.5q-62 0 -125 17l-270 -369h-90z" />
<glyph unicode="&#xa3;" horiz-adv-x="1744" d="M-401 121q0 69 62.5 111t164.5 42q95 0 262 -41q103 141 168 244l244 387l59 90h-364l30 70h379q148 230 273 375q326 375 737 375q118 0 193 -36t75 -89q0 -32 -23 -53t-57 -21q-21 0 -35.5 10.5t-20 22t-11.5 31.5t-9 26q-26 59 -170 59q-75 0 -146 -20t-130.5 -54 t-118 -85.5t-106.5 -107t-99.5 -126.5t-93.5 -135.5t-92 -142.5q-12 -19 -18 -29h532l-31 -70h-546l-261 -411q-47 -74 -121 -173t-132 -161q37 -9 121 -28.5t120 -27.5t101.5 -22t104.5 -19.5t87.5 -10.5t89.5 -5q110 0 187 34.5t124.5 94.5t90.5 160l36 -10 q-70 -189 -210 -293.5t-322 -104.5q-76 0 -159.5 21t-143 46.5t-143 63.5t-132.5 56q-184 -184 -364 -184q-79 0 -130.5 38.5t-51.5 102.5zM-352 125q0 -42 33 -69t90 -27q133 0 284 168q-146 39 -233 39q-78 0 -126 -29.5t-48 -81.5z" />
<glyph unicode="&#xa4;" horiz-adv-x="1624" d="M305 453l170 168q-88 106 -88 241q0 134 88 240l-168 170l53 51l170 -170q108 80 240 80q134 0 240 -82l170 170l51 -53l-168 -168q88 -101 88 -238t-90 -244l168 -169l-53 -52l-168 170q-108 -80 -238 -80q-136 0 -242 82l-172 -170zM356 1327l4 -4l7 6zM465 862 q0 -129 89.5 -219t215.5 -90t214.5 90.5t88.5 218.5q0 126 -89 215.5t-214 89.5q-127 0 -216 -89.5t-89 -215.5zM1171 1329l9 -8l2 2zM1231 1268l6 -6l-2 10z" />
<glyph unicode="&#xa5;" horiz-adv-x="1568" d="M-225 219l30 70h433l198 274h-409l30 70h430l11 14l241 1094h121l-229 -1061l1222 1061h166l-1378 -1102l-4 -6h453l-31 -70h-473l-199 -274h451l-31 -70h-471l-160 -219h-149l159 219h-411z" />
<glyph unicode="&#xa6;" horiz-adv-x="743" d="M-608 -350l643 885h112l-643 -885h-112zM268 856l643 885h113l-643 -885h-113z" />
<glyph unicode="&#xa7;" horiz-adv-x="1853" d="M-793 -451q0 51 29.5 80.5t63.5 24.5q45 -7 49 -78q7 -126 105.5 -190t258.5 -62q143 1 276 64t220.5 179.5t87.5 256.5q0 54 -11 100.5t-42 105t-56.5 98t-85.5 126.5q-28 42 -42 65t-33 61.5t-27 78t-8 84.5q0 192 122.5 322.5t335.5 184t490 29.5q-27 76 -27 162 q0 163 83.5 285.5t223 185t312.5 62.5q114 0 223 -29.5t183.5 -88t74.5 -130.5q0 -51 -29.5 -80.5t-62.5 -24.5q-45 7 -49 78q-4 62 -37.5 109.5t-87 74t-113.5 39t-125 11.5q-128 -2 -233 -51.5t-168.5 -146t-63.5 -222.5q0 -145 113 -312q43 -64 68 -105t53 -98t40.5 -113 t12.5 -116q0 -140 -75 -257t-200 -192t-287.5 -112t-336.5 -28q12 -52 12 -109q0 -125 -63.5 -236.5t-167 -188t-237.5 -121t-273 -44.5q-214 0 -355 76.5t-141 191.5zM123 614q0 -53 32.5 -136t100.5 -175q128 -170 164 -285q149 -5 287 28.5t244 97t169.5 162t63.5 216.5 q0 27 -4 54t-8 47.5t-16 50t-19 46t-27 52.5t-29.5 52t-37 62t-39.5 66q-45 81 -46 84q-96 14 -195 9.5t-191.5 -19.5t-174.5 -51.5t-142.5 -84.5t-96 -119.5t-35.5 -156.5z" />
<glyph unicode="&#xa8;" d="M926 1448q0 35 23 60.5t59 25.5q34 0 59 -25.5t25 -60.5q0 -32 -25 -57t-59 -25q-35 0 -58.5 24.5t-23.5 57.5zM1286 1448q0 35 23 60.5t59 25.5q34 0 59 -25.5t25 -60.5q0 -32 -25 -57t-59 -25q-35 0 -58.5 24.5t-23.5 57.5z" />
<glyph unicode="&#xa9;" horiz-adv-x="2439" d="M283 877q0 184 70.5 350t191 286t288.5 190.5t355 70.5q186 0 354 -70.5t288 -190.5t190.5 -286t70.5 -350t-70.5 -350.5t-190.5 -287.5t-288 -192.5t-354 -71.5q-187 0 -355 71.5t-288.5 192.5t-191 287.5t-70.5 350.5zM360 877q0 -171 64.5 -325t174.5 -266t264 -177.5 t325 -65.5t324 65.5t262.5 177t174 266t64.5 325.5t-64.5 324.5t-174 264t-262.5 175.5t-324 65t-325 -65t-264 -175.5t-174.5 -264t-64.5 -324.5zM580 889q0 168 75.5 306t209 217t296.5 79q97 0 172 -19t176 -71q42 -21 66 -21q43 0 49 43h31l6 -356h-29q-33 157 -162 269 t-296 112q-151 0 -255 -73.5t-152 -197t-48 -288.5q0 -108 34.5 -206.5t96 -173t153 -119t197.5 -44.5q156 0 270.5 75t171.5 214l29 -8q-56 -162 -183.5 -250t-309.5 -88q-170 0 -308 80.5t-214 217.5t-76 302z" />
<glyph unicode="&#xaa;" horiz-adv-x="831" d="M51 870q0 59 56 144t139 162t190.5 131.5t200.5 54.5q99 0 129 -51l25 32h106l-426 -569h-74l80 141q-150 -153 -280 -153q-65 0 -105.5 29.5t-40.5 78.5zM160 866q0 -67 65 -67q100 0 264 172q88 92 154 180l70 92q-4 4 -7.5 11t-6 18.5t-3.5 13.5q-14 43 -75 43 q-75 0 -160.5 -51.5t-150 -124t-107.5 -152t-43 -135.5z" />
<glyph unicode="&#xab;" horiz-adv-x="1333" d="M-94 530l6 9l729 446l-4 -53l-598 -447l10 -346h-43zM418 530l6 9l729 446l-4 -53l-598 -447l10 -346h-43z" />
<glyph unicode="&#xac;" horiz-adv-x="1767" d="M100 768v70h1074v-639h-78v569h-996z" />
<glyph unicode="&#xad;" horiz-adv-x="960" d="M-78 502l19 116h573l-18 -116h-574z" />
<glyph unicode="&#xae;" horiz-adv-x="2439" d="M283 877q0 184 70.5 350t191 286t288.5 190.5t355 70.5q186 0 354 -70.5t288 -190.5t190.5 -286t70.5 -350t-70.5 -350.5t-190.5 -287.5t-288 -192.5t-354 -71.5q-187 0 -355 71.5t-288.5 192.5t-191 287.5t-70.5 350.5zM360 877q0 -171 64.5 -325t174.5 -266t264 -177.5 t325 -65.5t324 65.5t262.5 177t174 266t64.5 325.5t-64.5 324.5t-174 264t-262.5 175.5t-324 65t-325 -65t-264 -175.5t-174.5 -264t-64.5 -324.5zM717 305v31l69 3t45.5 5.5t30 8t14 15.5t7 22.5t0.5 33.5v924q0 20 -1 29.5t-3 21t-10 15.5t-17 9t-30 6.5t-42.5 3.5 t-60.5 3v30h504q169 0 278 -77t109 -207q0 -114 -85.5 -186t-226.5 -91q202 -32 238 -205q6 -32 8 -67.5t2.5 -91t1.5 -90.5q3 -61 21 -84t53 -23t62 27t51 92l32 -10q-26 -84 -69.5 -123t-108.5 -39q-164 0 -176 178q-1 18 -2 66t-3.5 92t-8.5 75q-20 95 -87.5 142 t-170.5 47h-125v-467q0 -20 1 -29.5t3 -21t10 -15.5t17 -9t30 -6.5t42.5 -3.5t60.5 -3v-31h-463zM1016 934l149 2q150 2 230 63.5t80 182.5q0 241 -314 241h-145v-489z" />
<glyph unicode="&#xaf;" d="M846 1423l33 70h663l-31 -70h-665z" />
<glyph unicode="&#xb0;" horiz-adv-x="843" d="M530 1483q0 121 87 206t212 85q124 0 210.5 -85.5t86.5 -205.5q0 -123 -86.5 -209t-210.5 -86q-126 0 -212.5 86t-86.5 209zM606 1483q0 -96 65 -163t158 -67q92 0 157 67.5t65 162.5q0 93 -65 159t-157 66q-93 0 -158 -66t-65 -159z" />
<glyph unicode="&#xb1;" horiz-adv-x="1488" d="M-135 0v70h885v-70h-885zM-131 602v70h414v356h73v-356h414v-70h-414v-373h-73v373h-414z" />
<glyph unicode="&#xb2;" d="M76 788v27q228 113 387 198t299.5 171t223 155.5t129 138.5t46.5 134q0 58 -41.5 87.5t-103.5 29.5q-102 0 -208.5 -63.5t-186.5 -152.5l-29 21q213 231 465 231q100 0 159.5 -42t59.5 -113q0 -64 -44 -130.5t-122.5 -132t-209 -144.5t-280.5 -156t-360 -177h549l-66 -82 h-667z" />
<glyph unicode="&#xb3;" d="M176 905q0 24 14.5 38.5t36.5 14.5q25 0 33 -15t12 -46q2 -17 7 -30t18.5 -28.5t42 -24.5t70.5 -9q118 0 233 67t185.5 168t70.5 197q0 141 -145 141q-70 0 -174 -49l-17 27l588 317h-451l37 68h594v-8l-600 -326q27 6 62 6q103 0 162 -48.5t59 -133.5 q0 -103 -89.5 -209.5t-234 -177t-291.5 -70.5q-113 0 -168 39.5t-55 91.5z" />
<glyph unicode="&#xb4;" d="M932 1210q119 92 182 172.5t109 190.5q33 76 80 76q22 0 35.5 -13.5t13.5 -36.5q0 -22 -17 -55q-86 -159 -385 -358z" />
<glyph unicode="&#xb5;" horiz-adv-x="1435" d="M-723 -334q173 165 619 748l469 610h151l-539 -707q-81 -105 -81 -186q0 -46 26.5 -74t85.5 -28q209 0 567 370q235 241 424 492l101 133h155l-460 -604q-154 -202 -154 -299q0 -41 26.5 -66.5t77.5 -25.5q31 0 66 11t68 28t76 49t78.5 62t89 79t93.5 87.5t105.5 101.5 t112.5 108l26 -33q-63 -59 -150.5 -143.5t-138 -133.5t-118.5 -107t-118 -88.5t-110 -51.5t-118 -21q-94 0 -148.5 45.5t-54.5 118.5q0 86 104 232l-4 2q-159 -177 -325.5 -287.5t-319.5 -110.5q-96 0 -155.5 46.5t-59.5 134.5v-2q-220 -406 -283 -490h-184z" />
<glyph unicode="&#xb6;" horiz-adv-x="1878" d="M223 1038q0 156 105 254.5t282 98.5h744v-41l-180 -2v-2044h-134v2044h-286v-2044h-133v1380h-11q-178 0 -282.5 98t-104.5 256z" />
<glyph unicode="&#xb7;" horiz-adv-x="620" d="M-88 539q0 51 35 85.5t86 34.5t86 -34.5t35 -85.5t-35 -86t-86 -35t-86 35t-35 86z" />
<glyph unicode="&#xb8;" d="M-258 -334q23 -2 53 -2q85 0 151 32t66 89q0 64 -112 70l104 145h49l-80 -111q136 -18 136 -100q0 -52 -50.5 -91.5t-118 -57t-135.5 -17.5q-38 0 -63 4v39z" />
<glyph unicode="&#xb9;" d="M236 788v39h161l578 799l-232 -18v18l402 123h26l-667 -922h158v-39h-426z" />
<glyph unicode="&#xba;" horiz-adv-x="755" d="M51 885q0 58 52 141t130 157t179 126.5t188 52.5q69 0 111.5 -30t42.5 -93q0 -58 -52 -141t-130 -157t-179 -126.5t-188 -52.5q-69 0 -111.5 30t-42.5 93zM160 872q0 -73 78 -73q65 0 140.5 51.5t132.5 123t95.5 149t38.5 128.5q0 74 -78 74q-85 0 -183.5 -85t-161 -192 t-62.5 -176z" />
<glyph unicode="&#xbb;" horiz-adv-x="1331" d="M-340 123l4 53l598 447l-10 346h43l100 -391l-6 -9zM172 123l4 53l598 447l-10 346h43l100 -391l-6 -9z" />
<glyph unicode="&#xbc;" horiz-adv-x="2531" d="M154 0l2013 1741h98l-2013 -1741h-98zM236 788v39h161l578 799l-232 -18v18l402 123h26l-667 -922h158v-39h-426zM1223 307l30 76l854 569h99l-414 -567h190l-30 -78h-215l-217 -299h-109l217 299h-405zM1323 385h363l339 467z" />
<glyph unicode="&#xbd;" horiz-adv-x="2531" d="M154 0l2013 1741h98l-2013 -1741h-98zM236 788v39h161l578 799l-232 -18v18l402 123h26l-667 -922h158v-39h-426zM1026 0v27q190 94 329 166.5t268 147t215 135t151 121t95 116.5t30 110q0 58 -42 87.5t-104 29.5q-102 0 -208.5 -63t-186.5 -152l-29 20q214 232 465 232 q100 0 159.5 -42.5t59.5 -113.5q0 -64 -44 -130t-122 -132t-209 -144.5t-280.5 -155.5t-360.5 -177h549l-65 -82h-670z" />
<glyph unicode="&#xbe;" horiz-adv-x="2531" d="M154 0l2013 1741h98l-2013 -1741h-98zM176 905q0 24 14.5 38.5t36.5 14.5q25 0 33 -15t12 -46q2 -17 7 -30t18.5 -28.5t42 -24.5t70.5 -9q118 0 233 67t185.5 168t70.5 197q0 141 -145 141q-70 0 -174 -49l-17 27l588 317h-451l37 68h594v-8l-600 -326q27 6 62 6 q103 0 162 -48.5t59 -133.5q0 -103 -89.5 -209.5t-234 -177t-291.5 -70.5q-113 0 -168 39.5t-55 91.5zM1223 307l30 76l854 569h99l-414 -567h190l-30 -78h-215l-217 -299h-109l217 299h-405zM1323 385h363l339 467z" />
<glyph unicode="&#xbf;" horiz-adv-x="1187" d="M-670 -465q0 125 82 272t205 266t279.5 199t293.5 80q71 0 108 -37t26 -90l294 418h52l-389 -551h-45q60 100 44.5 159.5t-96.5 59.5q-76 0 -159 -32.5t-160 -87.5t-147 -131t-121.5 -159.5t-82 -177t-30.5 -180.5q0 -99 52 -162t165 -63q130 0 279 88v-47 q-163 -88 -326 -88q-151 0 -237.5 69.5t-86.5 194.5zM709 934q0 51 34.5 86t85.5 35t86 -35t35 -86t-35 -86t-86 -35t-85.5 35t-34.5 86z" />
<glyph unicode="&#xc0;" horiz-adv-x="1992" d="M-573 0v35q123 7 203 60.5t330 284.5q11 10 17 15l1371 1266q28 26 42 37.5t44.5 33.5t60 32t59.5 10q49 0 82 -27.5t33 -77.5q0 -45 -35 -153l-426 -1295q-24 -74 -24 -106q0 -43 44.5 -60t137.5 -20v-35h-571v35q74 4 114.5 12.5t70 34.5t44.5 58.5t37 101.5l125 381 h-889l-277 -256q-151 -140 -204.5 -196.5t-53.5 -84.5q0 -25 38 -35.5t126 -15.5v-35h-499zM346 668h854l311 948q13 41 13 57q0 14 -8 22.5t-21 8.5q-18 0 -38 -13.5t-62 -52.5zM1198 2181q0 19 12.5 34t38.5 15q16 0 36 -14t30 -25t35 -40q5 -6 8 -9q59 -72 146 -123 t247 -98l-6 -33q-241 53 -394 138.5t-153 154.5z" />
<glyph unicode="&#xc1;" horiz-adv-x="1992" d="M-573 0v35q123 7 203 60.5t330 284.5q11 10 17 15l1371 1266q28 26 42 37.5t44.5 33.5t60 32t59.5 10q49 0 82 -27.5t33 -77.5q0 -45 -35 -153l-426 -1295q-24 -74 -24 -106q0 -43 44.5 -60t137.5 -20v-35h-571v35q74 4 114.5 12.5t70 34.5t44.5 58.5t37 101.5l125 381 h-889l-277 -256q-151 -140 -204.5 -196.5t-53.5 -84.5q0 -25 38 -35.5t126 -15.5v-35h-499zM346 668h854l311 948q13 41 13 57q0 14 -8 22.5t-21 8.5q-18 0 -38 -13.5t-62 -52.5zM1421 1892q114 30 192.5 67t118 70t83.5 85q3 3 11.5 13.5t12 14.5t11.5 13t12.5 13 t11.5 10.5t12.5 10t12 7t12.5 5t12 1.5q26 0 38.5 -15.5t12.5 -34.5q0 -69 -152.5 -153.5t-394.5 -138.5z" />
<glyph unicode="&#xc2;" horiz-adv-x="1992" d="M-573 0v35q123 7 203 60.5t330 284.5q11 10 17 15l1371 1266q28 26 42 37.5t44.5 33.5t60 32t59.5 10q49 0 82 -27.5t33 -77.5q0 -45 -35 -153l-426 -1295q-24 -74 -24 -106q0 -43 44.5 -60t137.5 -20v-35h-571v35q74 4 114.5 12.5t70 34.5t44.5 58.5t37 101.5l125 381 h-889l-277 -256q-151 -140 -204.5 -196.5t-53.5 -84.5q0 -25 38 -35.5t126 -15.5v-35h-499zM346 668h854l311 948q13 41 13 57q0 14 -8 22.5t-21 8.5q-18 0 -38 -13.5t-62 -52.5zM1284 1917q276 135 508 315h6q62 -193 213 -321l-22 -27q-120 77 -236 201q-46 -19 -201 -90 t-254 -111z" />
<glyph unicode="&#xc3;" horiz-adv-x="1992" d="M-573 0v35q123 7 203 60.5t330 284.5q11 10 17 15l1371 1266q28 26 42 37.5t44.5 33.5t60 32t59.5 10q49 0 82 -27.5t33 -77.5q0 -45 -35 -153l-426 -1295q-24 -74 -24 -106q0 -43 44.5 -60t137.5 -20v-35h-571v35q74 4 114.5 12.5t70 34.5t44.5 58.5t37 101.5l125 381 h-889l-277 -256q-151 -140 -204.5 -196.5t-53.5 -84.5q0 -25 38 -35.5t126 -15.5v-35h-499zM346 668h854l311 948q13 41 13 57q0 14 -8 22.5t-21 8.5q-18 0 -38 -13.5t-62 -52.5zM1219 1927q46 110 118 167.5t154 57.5q51 0 91.5 -17.5t121.5 -66.5q8 -5 30.5 -19 t31.5 -19.5t28.5 -16t32 -14.5t30 -8t33.5 -4q53 0 99 30t92 121l33 -10q-46 -110 -118.5 -167.5t-154.5 -57.5q-51 0 -91.5 17.5t-121.5 66.5q-8 5 -30.5 19t-31.5 19.5t-28.5 16t-32 14.5t-30 8t-33.5 4q-53 0 -99 -30t-92 -121z" />
<glyph unicode="&#xc4;" horiz-adv-x="1992" d="M-573 0v35q123 7 203 60.5t330 284.5q11 10 17 15l1371 1266q28 26 42 37.5t44.5 33.5t60 32t59.5 10q49 0 82 -27.5t33 -77.5q0 -45 -35 -153l-426 -1295q-24 -74 -24 -106q0 -43 44.5 -60t137.5 -20v-35h-571v35q74 4 114.5 12.5t70 34.5t44.5 58.5t37 101.5l125 381 h-889l-277 -256q-151 -140 -204.5 -196.5t-53.5 -84.5q0 -25 38 -35.5t126 -15.5v-35h-499zM346 668h854l311 948q13 41 13 57q0 14 -8 22.5t-21 8.5q-18 0 -38 -13.5t-62 -52.5zM1341 1980q0 35 24.5 58.5t59.5 23.5t58.5 -23.5t23.5 -58.5t-23.5 -59.5t-58.5 -24.5 t-59.5 24.5t-24.5 59.5zM1702 1980q0 35 24.5 58.5t59.5 23.5t58.5 -23.5t23.5 -58.5t-23.5 -59.5t-58.5 -24.5t-59.5 24.5t-24.5 59.5z" />
<glyph unicode="&#xc5;" horiz-adv-x="1992" d="M-573 0v35q123 7 203 60.5t330 284.5q11 10 17 15l1371 1266q28 26 42 37.5t44.5 33.5t60 32t59.5 10q49 0 82 -27.5t33 -77.5q0 -45 -35 -153l-426 -1295q-24 -74 -24 -106q0 -43 44.5 -60t137.5 -20v-35h-571v35q74 4 114.5 12.5t70 34.5t44.5 58.5t37 101.5l125 381 h-889l-277 -256q-151 -140 -204.5 -196.5t-53.5 -84.5q0 -25 38 -35.5t126 -15.5v-35h-499zM346 668h854l311 948q13 41 13 57q0 14 -8 22.5t-21 8.5q-18 0 -38 -13.5t-62 -52.5zM1468 2142q0 94 68 161t166 67q96 0 163.5 -67t67.5 -161t-67.5 -160.5t-163.5 -66.5 q-98 0 -166 66.5t-68 160.5zM1542 2142q0 -66 47 -114t113 -48q64 0 111 48t47 114t-47 114t-111 48q-66 0 -113 -48t-47 -114z" />
<glyph unicode="&#xc6;" horiz-adv-x="2967" d="M-637 0v37l31 2q94 4 229 76t357 215l2174 1411h1002l-225 -475h-39q27 74 44 125t27 98t10 76.5t-11 55.5t-31 39.5t-55.5 23.5t-79.5 13t-107 3h-360l-537 -754h690v-41h-719l-503 -708q-54 -78 -54 -109t42 -39t143 -8h98q129 0 213 4.5t180 19.5t168.5 44t156 78.5 t165.5 122.5t176 175h45l-387 -485h-1454v31q56 2 94.5 6t71.5 15t53 21t45 35.5t41 46t47 64.5l315 445h-839l-557 -363q-82 -54 -134 -91.5t-74 -59.5t-28 -33.5t-6 -22.5q0 -25 23 -37.5t75 -15.5l78 -4v-37h-594zM649 709h803l690 970l-10 -6z" />
<glyph unicode="&#xc7;" horiz-adv-x="2015" d="M-12 512q0 134 62.5 282.5t169.5 287t256 265.5t314.5 221t353.5 150t365 56q184 0 303 -42.5t252 -142.5q24 -18 52 -18q26 0 55 21t84 85h43l-328 -467h-41q56 106 56 203q0 149 -133 235.5t-355 86.5q-146 0 -307 -53.5t-307 -144.5t-279.5 -214.5t-231 -259 t-155 -284t-57.5 -283.5q0 -96 28 -178t84 -147t151 -102.5t220 -37.5q226 0 420 90t385 268l31 -31q-194 -183 -397 -278.5t-439 -102.5l-61 -88q133 -18 133 -100q0 -52 -50 -91.5t-116.5 -57t-134.5 -17.5q-39 0 -64 4v39q23 -2 53 -2q85 0 150 32t65 89q0 64 -110 70 l86 122q-125 1 -235.5 39.5t-193 106t-130 168.5t-47.5 221z" />
<glyph unicode="&#xc8;" horiz-adv-x="1777" d="M-481 0v31q56 2 94.5 6t71.5 15t53 21t45 35.5t41 46t47 64.5l950 1337q65 89 39 118.5t-186 35.5v31h1249l-225 -475h-39q27 74 44 125t27 98t10 76.5t-11 55.5t-31 39.5t-55.5 23.5t-79.5 13t-107 3h-360l-537 -754h690v-41h-719l-503 -708q-54 -78 -54 -109t42 -39 t143 -8h98q129 0 213 4.5t180 19.5t168.5 44t156 78.5t165.5 122.5t176 175h45l-387 -485h-1454zM1022 2181q0 19 12.5 34t38.5 15q16 0 36 -14t30 -25t35 -40q5 -6 8 -9q59 -72 146 -123t247 -98l-6 -33q-241 53 -394 138.5t-153 154.5z" />
<glyph unicode="&#xc9;" horiz-adv-x="1777" d="M-481 0v31q56 2 94.5 6t71.5 15t53 21t45 35.5t41 46t47 64.5l950 1337q65 89 39 118.5t-186 35.5v31h1249l-225 -475h-39q27 74 44 125t27 98t10 76.5t-11 55.5t-31 39.5t-55.5 23.5t-79.5 13t-107 3h-360l-537 -754h690v-41h-719l-503 -708q-54 -78 -54 -109t42 -39 t143 -8h98q129 0 213 4.5t180 19.5t168.5 44t156 78.5t165.5 122.5t176 175h45l-387 -485h-1454zM1245 1892q165 43 246 93t147 129q52 61 73 75q19 13 36 13q26 0 38.5 -15.5t12.5 -34.5q0 -69 -152.5 -153.5t-394.5 -138.5z" />
<glyph unicode="&#xca;" horiz-adv-x="1777" d="M-481 0v31q56 2 94.5 6t71.5 15t53 21t45 35.5t41 46t47 64.5l950 1337q65 89 39 118.5t-186 35.5v31h1249l-225 -475h-39q27 74 44 125t27 98t10 76.5t-11 55.5t-31 39.5t-55.5 23.5t-79.5 13t-107 3h-360l-537 -754h690v-41h-719l-503 -708q-54 -78 -54 -109t42 -39 t143 -8h98q129 0 213 4.5t180 19.5t168.5 44t156 78.5t165.5 122.5t176 175h45l-387 -485h-1454zM1108 1917q276 135 508 315h6q62 -193 213 -321l-23 -27q-117 75 -235 201q-46 -19 -201 -90t-254 -111z" />
<glyph unicode="&#xcb;" horiz-adv-x="1777" d="M-481 0v31q56 2 94.5 6t71.5 15t53 21t45 35.5t41 46t47 64.5l950 1337q65 89 39 118.5t-186 35.5v31h1249l-225 -475h-39q27 74 44 125t27 98t10 76.5t-11 55.5t-31 39.5t-55.5 23.5t-79.5 13t-107 3h-360l-537 -754h690v-41h-719l-503 -708q-54 -78 -54 -109t42 -39 t143 -8h98q129 0 213 4.5t180 19.5t168.5 44t156 78.5t165.5 122.5t176 175h45l-387 -485h-1454zM1165 1980q0 35 24.5 58.5t59.5 23.5t58.5 -23.5t23.5 -58.5t-23.5 -59.5t-58.5 -24.5t-59.5 24.5t-24.5 59.5zM1526 1980q0 35 24.5 58.5t59.5 23.5t58.5 -23.5t23.5 -58.5 t-23.5 -59.5t-58.5 -24.5t-59.5 24.5t-24.5 59.5z" />
<glyph unicode="&#xcc;" horiz-adv-x="911" d="M-481 0v31q56 2 94.5 6t71.5 15t53 21t45 35.5t41 46t47 64.5l950 1337q65 89 39 118.5t-186 35.5v31h647v-31q-56 -2 -94.5 -6t-71.5 -15t-53 -21t-45 -35.5t-41 -46t-47 -64.5l-951 -1338q-64 -89 -38 -118t186 -35v-31h-647zM684 2181q0 19 12.5 34t38.5 15 q16 0 36 -14t30 -25t35 -40l3 -3t2.5 -3t2.5 -3q59 -72 146 -123t247 -98l-6 -33q-241 53 -394 138.5t-153 154.5z" />
<glyph unicode="&#xcd;" horiz-adv-x="911" d="M-481 0v31q56 2 94.5 6t71.5 15t53 21t45 35.5t41 46t47 64.5l950 1337q65 89 39 118.5t-186 35.5v31h647v-31q-56 -2 -94.5 -6t-71.5 -15t-53 -21t-45 -35.5t-41 -46t-47 -64.5l-951 -1338q-64 -89 -38 -118t186 -35v-31h-647zM907 1892q165 43 246 93t147 129 q52 61 73 75q19 13 36 13q26 0 38.5 -15.5t12.5 -34.5q0 -69 -152.5 -153.5t-394.5 -138.5z" />
<glyph unicode="&#xce;" horiz-adv-x="911" d="M-481 0v31q56 2 94.5 6t71.5 15t53 21t45 35.5t41 46t47 64.5l950 1337q65 89 39 118.5t-186 35.5v31h647v-31q-56 -2 -94.5 -6t-71.5 -15t-53 -21t-45 -35.5t-41 -46t-47 -64.5l-951 -1338q-64 -89 -38 -118t186 -35v-31h-647zM770 1917q276 135 508 315h6 q62 -193 213 -321l-22 -27q-120 77 -236 201q-46 -19 -201 -90t-254 -111z" />
<glyph unicode="&#xcf;" horiz-adv-x="911" d="M-481 0v31q56 2 94.5 6t71.5 15t53 21t45 35.5t41 46t47 64.5l950 1337q65 89 39 118.5t-186 35.5v31h647v-31q-56 -2 -94.5 -6t-71.5 -15t-53 -21t-45 -35.5t-41 -46t-47 -64.5l-951 -1338q-64 -89 -38 -118t186 -35v-31h-647zM827 1980q0 35 24.5 58.5t59.5 23.5 t58.5 -23.5t23.5 -58.5t-23.5 -59.5t-58.5 -24.5t-59.5 24.5t-24.5 59.5zM1188 1980q0 35 24.5 58.5t59.5 23.5t58.5 -23.5t23.5 -58.5t-23.5 -59.5t-58.5 -24.5t-59.5 24.5t-24.5 59.5z" />
<glyph unicode="&#xd0;" horiz-adv-x="2134" d="M-481 0v31q56 2 94.5 6t71.5 15t53 21t45 35.5t41 46t47 64.5l438 617h-248l31 69h266l463 651q66 88 39.5 118t-186.5 36v31h723q191 0 321 -43q171 -57 268 -175.5t97 -283.5q0 -190 -118.5 -398.5t-329.5 -392.5t-472 -301q-328 -147 -717 -147h-927zM-84 41h514 q377 0 705 174q221 117 396 291t274.5 377.5t99.5 398.5q0 275 -213 369q-109 49 -310 49h-286l-566 -795h267l-31 -69h-285z" />
<glyph unicode="&#xd1;" horiz-adv-x="2152" d="M-481 0v31q68 3 103.5 7.5t72.5 16t66.5 38.5t61.5 65t81 106l872 1227q27 38 44.5 65.5t27.5 50.5t13 38t-5 26.5t-19.5 17.5t-37.5 11t-52.5 6.5t-70.5 3.5v31h334l192 -1565l871 1223q39 55 62 88.5t46.5 68.5t29 53.5t13.5 37.5t-4 27.5t-20 16.5t-37.5 11t-53.5 4.5 t-71 3.5v31h536v-31q-68 -3 -103.5 -7.5t-72.5 -16t-66.5 -38.5t-61.5 -65t-81 -106l-1065 -1500h-55l-192 1569l-857 -1204q-39 -55 -62 -88.5t-46.5 -68.5t-29 -53.5t-13.5 -37.5t4 -27.5t20 -16.5t37.5 -11t53.5 -4.5t71 -3.5v-31h-536zM1272 1927q46 110 118 167.5 t154 57.5q51 0 91.5 -17.5t121.5 -66.5q6 -4 30 -19t32.5 -20t28.5 -15.5t32.5 -14.5t30 -8t33.5 -4q53 0 98.5 30t91.5 121l33 -10q-46 -110 -118.5 -167.5t-154.5 -57.5q-51 0 -91.5 17.5t-121.5 66.5q-8 5 -30.5 19t-31.5 19.5t-28.5 16t-32 14.5t-30 8t-33.5 4 q-53 0 -98.5 -30t-91.5 -121z" />
<glyph unicode="&#xd2;" horiz-adv-x="2213" d="M-10 512q0 137 63.5 287.5t171.5 288.5t257 264.5t314 219t350 147.5t357 55q142 0 264 -37.5t211 -105.5t139 -169t50 -223q0 -137 -63.5 -287.5t-171.5 -288.5t-257.5 -264.5t-314.5 -219t-350 -147.5t-357 -55q-192 0 -341.5 64t-235.5 186t-86 285zM162 469 q0 -213 119.5 -332t361.5 -119q158 0 324 52.5t313.5 142.5t280 214.5t228 262.5t151 292.5t55.5 299.5q0 212 -120 331.5t-362 119.5q-158 0 -324 -52.5t-313.5 -142.5t-279.5 -214.5t-227.5 -262.5t-151 -292.5t-55.5 -299.5zM1329 2181q0 19 12.5 34t38.5 15q16 0 36 -14 t30 -25t35 -40q5 -6 8 -9q59 -72 146 -123t247 -98l-6 -33q-241 53 -394 138.5t-153 154.5z" />
<glyph unicode="&#xd3;" horiz-adv-x="2213" d="M-10 512q0 137 63.5 287.5t171.5 288.5t257 264.5t314 219t350 147.5t357 55q142 0 264 -37.5t211 -105.5t139 -169t50 -223q0 -137 -63.5 -287.5t-171.5 -288.5t-257.5 -264.5t-314.5 -219t-350 -147.5t-357 -55q-192 0 -341.5 64t-235.5 186t-86 285zM162 469 q0 -213 119.5 -332t361.5 -119q158 0 324 52.5t313.5 142.5t280 214.5t228 262.5t151 292.5t55.5 299.5q0 212 -120 331.5t-362 119.5q-158 0 -324 -52.5t-313.5 -142.5t-279.5 -214.5t-227.5 -262.5t-151 -292.5t-55.5 -299.5zM1552 1892q114 30 192.5 67t118 70t83.5 85 q3 3 11.5 13.5t12 14.5t11.5 13t12.5 13t11.5 10.5t12.5 10t12 7t12.5 5t12 1.5q26 0 38.5 -15.5t12.5 -34.5q0 -69 -152 -153.5t-394 -138.5z" />
<glyph unicode="&#xd4;" horiz-adv-x="2213" d="M-10 512q0 137 63.5 287.5t171.5 288.5t257 264.5t314 219t350 147.5t357 55q142 0 264 -37.5t211 -105.5t139 -169t50 -223q0 -137 -63.5 -287.5t-171.5 -288.5t-257.5 -264.5t-314.5 -219t-350 -147.5t-357 -55q-192 0 -341.5 64t-235.5 186t-86 285zM162 469 q0 -213 119.5 -332t361.5 -119q158 0 324 52.5t313.5 142.5t280 214.5t228 262.5t151 292.5t55.5 299.5q0 212 -120 331.5t-362 119.5q-158 0 -324 -52.5t-313.5 -142.5t-279.5 -214.5t-227.5 -262.5t-151 -292.5t-55.5 -299.5zM1415 1917q276 135 508 315h6 q62 -193 213 -321l-22 -27q-120 77 -236 201q-46 -19 -200.5 -90t-253.5 -111z" />
<glyph unicode="&#xd5;" horiz-adv-x="2193" d="M-10 512q0 137 63.5 287.5t171.5 288.5t257 264.5t314 219t350 147.5t357 55q142 0 264 -37.5t211 -105.5t139 -169t50 -223q0 -137 -63.5 -287.5t-171.5 -288.5t-257.5 -264.5t-314.5 -219t-350 -147.5t-357 -55q-192 0 -341.5 64t-235.5 186t-86 285zM162 469 q0 -213 119.5 -332t361.5 -119q158 0 324 52.5t313.5 142.5t280 214.5t228 262.5t151 292.5t55.5 299.5q0 212 -120 331.5t-362 119.5q-158 0 -324 -52.5t-313.5 -142.5t-279.5 -214.5t-227.5 -262.5t-151 -292.5t-55.5 -299.5zM1350 1927q46 110 118 167.5t154 57.5 q51 0 91.5 -17.5t121.5 -66.5q8 -5 30.5 -19t31.5 -19.5t28.5 -16t32 -14.5t30 -8t33.5 -4q53 0 99 30t92 121l33 -10q-46 -110 -118.5 -167.5t-154.5 -57.5q-51 0 -91.5 17.5t-121.5 66.5q-8 5 -30.5 19t-31.5 19.5t-28.5 16t-32 14.5t-30 8t-33.5 4q-53 0 -99 -30 t-92 -121z" />
<glyph unicode="&#xd6;" horiz-adv-x="2213" d="M-10 512q0 137 63.5 287.5t171.5 288.5t257 264.5t314 219t350 147.5t357 55q142 0 264 -37.5t211 -105.5t139 -169t50 -223q0 -137 -63.5 -287.5t-171.5 -288.5t-257.5 -264.5t-314.5 -219t-350 -147.5t-357 -55q-192 0 -341.5 64t-235.5 186t-86 285zM162 469 q0 -213 119.5 -332t361.5 -119q158 0 324 52.5t313.5 142.5t280 214.5t228 262.5t151 292.5t55.5 299.5q0 212 -120 331.5t-362 119.5q-158 0 -324 -52.5t-313.5 -142.5t-279.5 -214.5t-227.5 -262.5t-151 -292.5t-55.5 -299.5zM1473 1980q0 35 24 58.5t59 23.5t58.5 -23.5 t23.5 -58.5t-23.5 -59.5t-58.5 -24.5t-59 24.5t-24 59.5zM1833 1980q0 35 24.5 58.5t59.5 23.5t58.5 -23.5t23.5 -58.5t-23.5 -59.5t-58.5 -24.5t-59.5 24.5t-24.5 59.5z" />
<glyph unicode="&#xd7;" horiz-adv-x="1388" d="M35 223l342 340l-340 342l49 49l340 -342l340 338l43 -45l-338 -338l342 -344l-49 -49l-342 344l-342 -340z" />
<glyph unicode="&#xd8;" horiz-adv-x="2222" d="M-10 512q0 137 63.5 287.5t171.5 288.5t257 264.5t314 219t350 147.5t357 55q163 0 305 -52l123 136h97l-150 -164q135 -68 212 -185t77 -270q0 -137 -63.5 -287.5t-171.5 -288.5t-257.5 -264.5t-314.5 -219t-350 -147.5t-357 -55q-166 0 -299 50l-131 -144h-96l158 172 q-140 67 -217.5 184.5t-77.5 272.5zM162 469q0 -254 164 -369l1446 1583q-103 50 -259 50q-158 0 -324 -52.5t-313.5 -142.5t-279.5 -214.5t-227.5 -262.5t-151 -292.5t-55.5 -299.5zM389 66q108 -48 254 -48q158 0 324 52.5t313.5 142.5t280 214.5t228 262.5t151 292.5 t55.5 299.5q0 251 -160 365z" />
<glyph unicode="&#xd9;" horiz-adv-x="2174" d="M43 360q0 156 150 361l595 838q21 29 30.5 45t15.5 35t-3 29t-30.5 20t-61.5 15t-100 7v31h647v-31q-83 -3 -131.5 -11t-88.5 -33t-64 -53t-68 -91l-621 -875q-29 -40 -46.5 -69.5t-36.5 -87.5t-19 -117q0 -150 127 -230t334 -80q96 0 185.5 18.5t157 45.5t133 69.5 t108.5 79t87.5 86.5t66.5 79t50 69l631 889q111 157 129 188q38 68 10 93q-31 26 -174 30v31h537v-31q-57 -3 -95 -7t-72 -16t-55 -24t-48.5 -40.5t-47 -53.5t-55.5 -76l-707 -995q-107 -150 -192 -234q-293 -287 -707 -287q-254 0 -412.5 101.5t-158.5 281.5zM1305 2181 q0 19 12.5 34t38.5 15q6 0 12 -1.5t12.5 -5t12 -7t12.5 -10t11.5 -10.5t12.5 -13t11.5 -13t12 -14.5t11.5 -13.5q59 -72 146.5 -123t247.5 -98l-7 -33q-241 53 -393.5 138.5t-152.5 154.5z" />
<glyph unicode="&#xda;" horiz-adv-x="2174" d="M43 360q0 156 150 361l595 838q21 29 30.5 45t15.5 35t-3 29t-30.5 20t-61.5 15t-100 7v31h647v-31q-83 -3 -131.5 -11t-88.5 -33t-64 -53t-68 -91l-621 -875q-29 -40 -46.5 -69.5t-36.5 -87.5t-19 -117q0 -150 127 -230t334 -80q96 0 185.5 18.5t157 45.5t133 69.5 t108.5 79t87.5 86.5t66.5 79t50 69l631 889q111 157 129 188q38 68 10 93q-31 26 -174 30v31h537v-31q-57 -3 -95 -7t-72 -16t-55 -24t-48.5 -40.5t-47 -53.5t-55.5 -76l-707 -995q-107 -150 -192 -234q-293 -287 -707 -287q-254 0 -412.5 101.5t-158.5 281.5zM1528 1892 q165 43 246 93t147 129q52 61 73 75q19 13 36 13q26 0 38.5 -15.5t12.5 -34.5q0 -69 -152.5 -153.5t-394.5 -138.5z" />
<glyph unicode="&#xdb;" horiz-adv-x="2174" d="M43 360q0 156 150 361l595 838q21 29 30.5 45t15.5 35t-3 29t-30.5 20t-61.5 15t-100 7v31h647v-31q-83 -3 -131.5 -11t-88.5 -33t-64 -53t-68 -91l-621 -875q-29 -40 -46.5 -69.5t-36.5 -87.5t-19 -117q0 -150 127 -230t334 -80q96 0 185.5 18.5t157 45.5t133 69.5 t108.5 79t87.5 86.5t66.5 79t50 69l631 889q111 157 129 188q38 68 10 93q-31 26 -174 30v31h537v-31q-57 -3 -95 -7t-72 -16t-55 -24t-48.5 -40.5t-47 -53.5t-55.5 -76l-707 -995q-107 -150 -192 -234q-293 -287 -707 -287q-254 0 -412.5 101.5t-158.5 281.5zM1391 1917 q273 133 507 315h7q62 -193 213 -321l-23 -27q-117 75 -235 201q-46 -19 -201 -90t-254 -111z" />
<glyph unicode="&#xdc;" horiz-adv-x="2174" d="M43 360q0 156 150 361l595 838q21 29 30.5 45t15.5 35t-3 29t-30.5 20t-61.5 15t-100 7v31h647v-31q-83 -3 -131.5 -11t-88.5 -33t-64 -53t-68 -91l-621 -875q-29 -40 -46.5 -69.5t-36.5 -87.5t-19 -117q0 -150 127 -230t334 -80q96 0 185.5 18.5t157 45.5t133 69.5 t108.5 79t87.5 86.5t66.5 79t50 69l631 889q111 157 129 188q38 68 10 93q-31 26 -174 30v31h537v-31q-57 -3 -95 -7t-72 -16t-55 -24t-48.5 -40.5t-47 -53.5t-55.5 -76l-707 -995q-107 -150 -192 -234q-293 -287 -707 -287q-254 0 -412.5 101.5t-158.5 281.5zM1448 1980 q0 35 24.5 58.5t59.5 23.5t58.5 -23.5t23.5 -58.5t-23.5 -59.5t-58.5 -24.5t-59.5 24.5t-24.5 59.5zM1808 1980q0 35 24.5 58.5t59.5 23.5t58.5 -23.5t23.5 -58.5t-23.5 -59.5t-58.5 -24.5t-59.5 24.5t-24.5 59.5z" />
<glyph unicode="&#xdd;" horiz-adv-x="1894" d="M-4 0v31q84 4 132 12t88 33t63.5 52.5t68.5 90.5l426 598l35 709q-1 29 1.5 51.5t-2.5 40t-9 30.5t-18 23t-29 16.5t-42 11t-57 7t-75 4.5v31h624v-31q-56 -2 -92 -5.5t-65 -12.5t-44 -20t-26 -33t-15 -47t-6 -66l-36 -695l714 519q78 57 191 137q132 95 164 122t32 46 q0 25 -33.5 35.5t-121.5 15.5v35h526v-35q-126 -9 -263 -82.5t-452 -300.5l-762 -551l-419 -592q-20 -29 -29.5 -44.5t-15 -34.5t3.5 -28.5t30 -19.5t60.5 -15t99.5 -7v-31h-647zM1417 1892q165 43 246 93t147 129q52 61 73 75q19 13 36 13q26 0 38.5 -15.5t12.5 -34.5 q0 -69 -152.5 -153.5t-394.5 -138.5z" />
<glyph unicode="&#xde;" horiz-adv-x="1599" d="M-481 0v31q56 2 94.5 6t71.5 15t53 21t45 35.5t41 46t47 64.5l950 1337q65 88 38.5 118t-185.5 36v31h647v-31q-56 -2 -94.5 -6t-71.5 -15t-53 -21t-45 -35.5t-41 -46t-47 -64.5l-135 -191h202q146 0 262 -34t187 -105t71 -168q0 -119 -84 -222t-226 -173.5t-331 -111 t-397 -40.5h-291l-209 -293q-65 -88 -38.5 -117.5t186.5 -35.5v-31h-647zM256 518h256q154 0 293 28.5t243 78.5t180.5 115.5t116 141t39.5 152.5q0 117 -93.5 186.5t-272.5 69.5h-213z" />
<glyph unicode="&#xdf;" horiz-adv-x="1249" d="M-416 0l748 1024q100 137 180.5 237.5t178 203t183 166t182.5 103.5t191 40q111 0 178.5 -46t67.5 -129q0 -109 -172 -249t-528 -303l2 -3q113 17 179 -33.5t66 -136.5q0 -83 -56.5 -201.5t-152 -237.5t-208.5 -223t-239 -169.5t-230 -65.5q-81 0 -130 33.5t-49 85.5 q0 40 22 69.5t60 29.5q34 0 46.5 -20t13.5 -56t4 -45q15 -49 63 -49q96 0 221 90.5t229 220t176.5 281.5t72.5 266q0 62 -31.5 94.5t-89.5 32.5q-70 0 -156 -64l-18 33q39 31 96 57q189 90 323.5 171.5t210.5 151.5t110 129t34 116q0 60 -37.5 92.5t-105.5 32.5 q-49 0 -95.5 -13.5t-89 -38t-89.5 -67t-91 -91t-99.5 -120t-109.5 -144.5t-127 -174q-9 -12 -14 -19t-12.5 -18t-14.5 -20l-741 -1024h-152z" />
<glyph unicode="&#xe0;" horiz-adv-x="1345" d="M-283 160q0 64 46.5 157t123 192t182 197.5t217.5 176t235.5 126t230.5 48.5q75 0 134.5 -25.5t84.5 -66.5l45 59h151l-454 -604q-154 -207 -154 -291q0 -46 26 -73t74 -27q37 0 76 12t85 41.5t85 58t99.5 83.5t102.5 94.5t119.5 114.5t127.5 122v-55 q-53 -49 -125 -119.5t-116 -113t-101.5 -94.5t-100 -82.5t-91 -59.5t-94.5 -41.5t-93 -12.5q-101 0 -156 45.5t-55 120.5q0 60 61 158h-4q-143 -149 -281 -236.5t-251 -87.5q-105 0 -167.5 50.5t-62.5 132.5zM-125 156q0 -53 24 -90t81 -37q174 0 493 325q152 155 279 324 l129 170q-4 2 -7.5 5.5l-6.5 6.5t-5.5 9t-4 9.5t-3.5 11.5t-2.5 11.5t-2.5 13t-3 13.5q-10 40 -45 60t-82 20q-93 0 -196.5 -44.5t-194.5 -117t-175.5 -165t-145 -186.5t-96.5 -183.5t-36 -155.5zM551 1595q0 23 15 38.5t38 15.5q49 0 68 -62q37 -117 103.5 -198.5 t195.5 -178.5l-19 -24q-322 204 -391 364q-10 23 -10 45z" />
<glyph unicode="&#xe1;" horiz-adv-x="1345" d="M-283 160q0 64 46.5 157t123 192t182 197.5t217.5 176t235.5 126t230.5 48.5q75 0 134.5 -25.5t84.5 -66.5l45 59h151l-454 -604q-154 -207 -154 -291q0 -46 26 -73t74 -27q37 0 76 12t85 41.5t85 58t99.5 83.5t102.5 94.5t119.5 114.5t127.5 122v-55 q-53 -49 -125 -119.5t-116 -113t-101.5 -94.5t-100 -82.5t-91 -59.5t-94.5 -41.5t-93 -12.5q-101 0 -156 45.5t-55 120.5q0 60 61 158h-4q-143 -149 -281 -236.5t-251 -87.5q-105 0 -167.5 50.5t-62.5 132.5zM-125 156q0 -53 24 -90t81 -37q174 0 493 325q152 155 279 324 l129 170q-4 2 -7.5 5.5l-6.5 6.5t-5.5 9t-4 9.5t-3.5 11.5t-2.5 11.5t-2.5 13t-3 13.5q-10 40 -45 60t-82 20q-93 0 -196.5 -44.5t-194.5 -117t-175.5 -165t-145 -186.5t-96.5 -183.5t-36 -155.5zM844 1210q119 92 182 172.5t109 190.5q33 76 79 76q22 0 36 -13.5t14 -36.5 q0 -22 -17 -55q-86 -159 -385 -358z" />
<glyph unicode="&#xe2;" horiz-adv-x="1345" d="M-283 160q0 64 46.5 157t123 192t182 197.5t217.5 176t235.5 126t230.5 48.5q75 0 134.5 -25.5t84.5 -66.5l45 59h151l-454 -604q-154 -207 -154 -291q0 -46 26 -73t74 -27q37 0 76 12t85 41.5t85 58t99.5 83.5t102.5 94.5t119.5 114.5t127.5 122v-55 q-53 -49 -125 -119.5t-116 -113t-101.5 -94.5t-100 -82.5t-91 -59.5t-94.5 -41.5t-93 -12.5q-101 0 -156 45.5t-55 120.5q0 60 61 158h-4q-143 -149 -281 -236.5t-251 -87.5q-105 0 -167.5 50.5t-62.5 132.5zM-125 156q0 -53 24 -90t81 -37q174 0 493 325q152 155 279 324 l129 170q-4 2 -7.5 5.5l-6.5 6.5t-5.5 9t-4 9.5t-3.5 11.5t-2.5 11.5t-2.5 13t-3 13.5q-10 40 -45 60t-82 20q-93 0 -196.5 -44.5t-194.5 -117t-175.5 -165t-145 -186.5t-96.5 -183.5t-36 -155.5zM516 1217q319 210 526 432h7q56 -211 211 -441l-27 -18q-106 118 -232 278 q-126 -87 -469 -280z" />
<glyph unicode="&#xe3;" horiz-adv-x="1345" d="M-283 160q0 64 46.5 157t123 192t182 197.5t217.5 176t235.5 126t230.5 48.5q75 0 134.5 -25.5t84.5 -66.5l45 59h151l-454 -604q-154 -207 -154 -291q0 -46 26 -73t74 -27q37 0 76 12t85 41.5t85 58t99.5 83.5t102.5 94.5t119.5 114.5t127.5 122v-55 q-53 -49 -125 -119.5t-116 -113t-101.5 -94.5t-100 -82.5t-91 -59.5t-94.5 -41.5t-93 -12.5q-101 0 -156 45.5t-55 120.5q0 60 61 158h-4q-143 -149 -281 -236.5t-251 -87.5q-105 0 -167.5 50.5t-62.5 132.5zM-125 156q0 -53 24 -90t81 -37q174 0 493 325q152 155 279 324 l129 170q-4 2 -7.5 5.5l-6.5 6.5t-5.5 9t-4 9.5t-3.5 11.5t-2.5 11.5t-2.5 13t-3 13.5q-10 40 -45 60t-82 20q-93 0 -196.5 -44.5t-194.5 -117t-175.5 -165t-145 -186.5t-96.5 -183.5t-36 -155.5zM559 1321q20 107 80.5 168t148.5 61q48 0 113 -25.5t118 -56.5t112.5 -56.5 t97.5 -25.5q51 0 91 31t64 115l33 -6q-20 -107 -80.5 -168.5t-148.5 -61.5q-48 0 -113 25.5t-118 56.5t-112 56.5t-97 25.5q-115 0 -156 -145z" />
<glyph unicode="&#xe4;" horiz-adv-x="1345" d="M-283 160q0 64 46.5 157t123 192t182 197.5t217.5 176t235.5 126t230.5 48.5q75 0 134.5 -25.5t84.5 -66.5l45 59h151l-454 -604q-154 -207 -154 -291q0 -46 26 -73t74 -27q37 0 76 12t85 41.5t85 58t99.5 83.5t102.5 94.5t119.5 114.5t127.5 122v-55 q-53 -49 -125 -119.5t-116 -113t-101.5 -94.5t-100 -82.5t-91 -59.5t-94.5 -41.5t-93 -12.5q-101 0 -156 45.5t-55 120.5q0 60 61 158h-4q-143 -149 -281 -236.5t-251 -87.5q-105 0 -167.5 50.5t-62.5 132.5zM-125 156q0 -53 24 -90t81 -37q174 0 493 325q152 155 279 324 l129 170q-4 2 -7.5 5.5l-6.5 6.5t-5.5 9t-4 9.5t-3.5 11.5t-2.5 11.5t-2.5 13t-3 13.5q-10 40 -45 60t-82 20q-93 0 -196.5 -44.5t-194.5 -117t-175.5 -165t-145 -186.5t-96.5 -183.5t-36 -155.5zM756 1452q0 35 24.5 58.5t59.5 23.5t58.5 -23.5t23.5 -58.5t-23.5 -59.5 t-58.5 -24.5t-59.5 24.5t-24.5 59.5zM1116 1452q0 35 24.5 58.5t59.5 23.5t58.5 -23.5t23.5 -58.5t-23.5 -59.5t-58.5 -24.5t-59.5 24.5t-24.5 59.5z" />
<glyph unicode="&#xe5;" horiz-adv-x="1345" d="M-283 160q0 64 46.5 157t123 192t182 197.5t217.5 176t235.5 126t230.5 48.5q75 0 134.5 -25.5t84.5 -66.5l45 59h151l-454 -604q-154 -207 -154 -291q0 -46 26 -73t74 -27q37 0 76 12t85 41.5t85 58t99.5 83.5t102.5 94.5t119.5 114.5t127.5 122v-55 q-53 -49 -125 -119.5t-116 -113t-101.5 -94.5t-100 -82.5t-91 -59.5t-94.5 -41.5t-93 -12.5q-101 0 -156 45.5t-55 120.5q0 60 61 158h-4q-143 -149 -281 -236.5t-251 -87.5q-105 0 -167.5 50.5t-62.5 132.5zM-125 156q0 -53 24 -90t81 -37q174 0 493 325q152 155 279 324 l129 170q-4 2 -7.5 5.5l-6.5 6.5t-5.5 9t-4 9.5t-3.5 11.5t-2.5 11.5t-2.5 13t-3 13.5q-10 40 -45 60t-82 20q-93 0 -196.5 -44.5t-194.5 -117t-175.5 -165t-145 -186.5t-96.5 -183.5t-36 -155.5zM684 1423q0 94 68 161t166 67q96 0 163.5 -67t67.5 -161t-67.5 -160.5 t-163.5 -66.5q-98 0 -166 66.5t-68 160.5zM758 1423q0 -66 47 -113.5t113 -47.5q64 0 110.5 47.5t46.5 113.5t-46.5 114t-110.5 48q-66 0 -113 -48t-47 -114z" />
<glyph unicode="&#xe6;" horiz-adv-x="1742" d="M-283 156q0 66 46 160t122.5 193.5t181.5 198t216.5 176t234 125.5t227.5 48q101 0 170.5 -40t69.5 -99q0 -38 -24 -62l2 -2q111 94 226 148.5t216 54.5q76 0 118 -30t42 -79q0 -66 -75 -149t-189 -154.5t-260.5 -123.5t-278.5 -58q-70 -143 -70 -246q0 -91 44 -139.5 t126 -48.5q78 0 160.5 24t161.5 65t174 110t184 144.5t207 182.5v-57q-149 -133 -253.5 -216t-223.5 -159t-228 -111t-219 -35q-136 0 -213 63.5t-77 176.5q0 83 57 197q-218 -236 -373 -336.5t-280 -100.5q-99 0 -160.5 50t-61.5 129zM-125 152q0 -51 24 -87t81 -36 q87 0 218 87t275 238l34 36q34 36 53 58t54.5 62t70 82t67.5 86l129 170q-12 7 -19 20.5t-11.5 36t-4.5 23.5q-20 80 -137 80q-89 0 -189.5 -44.5t-191 -116.5t-174.5 -165t-145 -187t-97.5 -185t-36.5 -158zM782 508q123 6 247.5 53t213.5 111.5t145 138t56 133.5 q0 64 -76 64q-91 0 -207 -77.5t-215.5 -191t-163.5 -231.5z" />
<glyph unicode="&#xe7;" horiz-adv-x="940" d="M-219 219q0 88 55 201.5t149 223.5t207.5 203.5t243 151.5t242.5 58q89 0 136.5 -35t47.5 -88q0 -38 -23 -65t-59 -27q-24 0 -37 14t-16 29.5t-5.5 40.5t-4.5 35q-12 47 -80 47q-102 0 -227.5 -80.5t-228 -198t-172.5 -258.5t-70 -254q0 -91 45.5 -139.5t134.5 -48.5 q87 0 176 32t193.5 104t208.5 161t251 229v-55q-99 -92 -165.5 -151t-147 -125t-142.5 -105t-132 -74t-138 -51t-139 -17l-61 -88q133 -18 133 -100q0 -52 -50 -91.5t-116.5 -57t-134.5 -17.5q-39 0 -64 4v39q23 -2 53 -2q85 0 150 32t65 89q0 64 -110 70l88 125 q-122 8 -189 70t-67 169z" />
<glyph unicode="&#xe8;" horiz-adv-x="968" d="M-240 219q0 79 54.5 189.5t148 222t204.5 208t237 157.5t233 61q71 0 112.5 -30t41.5 -77q0 -65 -75 -148.5t-188.5 -156t-261 -124.5t-278.5 -58q-70 -143 -70 -246q0 -91 44 -139.5t126 -48.5q98 0 198.5 33t211.5 103.5t223 162.5t256 227v-55q-114 -105 -203.5 -180 t-186.5 -143.5t-181.5 -110t-175 -65.5t-179.5 -24q-137 0 -214 63.5t-77 178.5zM8 508q100 5 200.5 36.5t181.5 79t145.5 103.5t99.5 114.5t35 108.5q0 26 -18.5 42t-47.5 16q-97 0 -213 -74.5t-215 -187t-168 -238.5zM311 1595q0 23 15.5 38.5t38.5 15.5q48 0 67 -62 q37 -117 103.5 -198.5t195.5 -178.5l-18 -24q-322 204 -391 364q-11 26 -11 45z" />
<glyph unicode="&#xe9;" horiz-adv-x="968" d="M-240 219q0 79 54.5 189.5t148 222t204.5 208t237 157.5t233 61q71 0 112.5 -30t41.5 -77q0 -65 -75 -148.5t-188.5 -156t-261 -124.5t-278.5 -58q-70 -143 -70 -246q0 -91 44 -139.5t126 -48.5q98 0 198.5 33t211.5 103.5t223 162.5t256 227v-55q-114 -105 -203.5 -180 t-186.5 -143.5t-181.5 -110t-175 -65.5t-179.5 -24q-137 0 -214 63.5t-77 178.5zM8 508q100 5 200.5 36.5t181.5 79t145.5 103.5t99.5 114.5t35 108.5q0 26 -18.5 42t-47.5 16q-97 0 -213 -74.5t-215 -187t-168 -238.5zM604 1210q119 92 182 172.5t109 190.5q33 76 80 76 q22 0 35.5 -13.5t13.5 -36.5q0 -24 -16 -55q-86 -159 -385 -358z" />
<glyph unicode="&#xea;" horiz-adv-x="968" d="M-240 219q0 79 54.5 189.5t148 222t204.5 208t237 157.5t233 61q71 0 112.5 -30t41.5 -77q0 -65 -75 -148.5t-188.5 -156t-261 -124.5t-278.5 -58q-70 -143 -70 -246q0 -91 44 -139.5t126 -48.5q98 0 198.5 33t211.5 103.5t223 162.5t256 227v-55q-114 -105 -203.5 -180 t-186.5 -143.5t-181.5 -110t-175 -65.5t-179.5 -24q-137 0 -214 63.5t-77 178.5zM8 508q100 5 200.5 36.5t181.5 79t145.5 103.5t99.5 114.5t35 108.5q0 26 -18.5 42t-47.5 16q-97 0 -213 -74.5t-215 -187t-168 -238.5zM276 1217q322 212 527 432h6q56 -211 211 -441 l-27 -18q-98 109 -231 278q-126 -87 -469 -280z" />
<glyph unicode="&#xeb;" horiz-adv-x="968" d="M-240 219q0 79 54.5 189.5t148 222t204.5 208t237 157.5t233 61q71 0 112.5 -30t41.5 -77q0 -65 -75 -148.5t-188.5 -156t-261 -124.5t-278.5 -58q-70 -143 -70 -246q0 -91 44 -139.5t126 -48.5q98 0 198.5 33t211.5 103.5t223 162.5t256 227v-55q-114 -105 -203.5 -180 t-186.5 -143.5t-181.5 -110t-175 -65.5t-179.5 -24q-137 0 -214 63.5t-77 178.5zM8 508q100 5 200.5 36.5t181.5 79t145.5 103.5t99.5 114.5t35 108.5q0 26 -18.5 42t-47.5 16q-97 0 -213 -74.5t-215 -187t-168 -238.5zM516 1452q0 35 24.5 58.5t59.5 23.5t58.5 -23.5 t23.5 -58.5t-23.5 -59.5t-58.5 -24.5t-59.5 24.5t-24.5 59.5zM877 1452q0 35 24.5 58.5t59.5 23.5t58 -23.5t23 -58.5q0 -36 -23 -60t-58 -24t-59.5 24.5t-24.5 59.5z" />
<glyph unicode="&#xec;" horiz-adv-x="798" d="M-242 131q0 57 39.5 127t139.5 203l425 563h152l-459 -604q-87 -115 -122 -178.5t-35 -114.5q0 -46 30 -72t84 -26q64 0 132 23.5t119.5 50t143.5 101t142 119t177 160.5q17 16 26.5 24.5t24.5 22t28 25.5v-57q-34 -31 -98 -88q-217 -198 -312 -269q-183 -135 -346 -158 q-41 -6 -84 -6q-90 0 -148.5 41t-58.5 113zM190 1595q0 23 15.5 38.5t38.5 15.5q48 0 67 -62q37 -117 103.5 -198.5t195.5 -178.5l-18 -24q-322 204 -391 364q-11 26 -11 45z" />
<glyph unicode="&#xed;" horiz-adv-x="798" d="M-242 131q0 57 39.5 127t139.5 203l425 563h152l-459 -604q-87 -115 -122 -178.5t-35 -114.5q0 -46 30 -72t84 -26q64 0 132 23.5t119.5 50t143.5 101t142 119t177 160.5q17 16 26.5 24.5t24.5 22t28 25.5v-57q-34 -31 -98 -88q-217 -198 -312 -269q-183 -135 -346 -158 q-41 -6 -84 -6q-90 0 -148.5 41t-58.5 113zM483 1210q119 92 182 172.5t109 190.5q33 76 80 76q22 0 35.5 -13.5t13.5 -36.5q0 -24 -16 -55q-86 -159 -385 -358z" />
<glyph unicode="&#xee;" horiz-adv-x="798" d="M-242 131q0 57 39.5 127t139.5 203l425 563h152l-459 -604q-87 -115 -122 -178.5t-35 -114.5q0 -46 30 -72t84 -26q64 0 132 23.5t119.5 50t143.5 101t142 119t177 160.5q17 16 26.5 24.5t24.5 22t28 25.5v-57q-34 -31 -98 -88q-217 -198 -312 -269q-183 -135 -346 -158 q-41 -6 -84 -6q-90 0 -148.5 41t-58.5 113zM156 1217q319 210 526 432h6q56 -211 211 -441l-27 -18q-98 109 -231 278q-126 -87 -469 -280z" />
<glyph unicode="&#xef;" horiz-adv-x="798" d="M-242 131q0 57 39.5 127t139.5 203l425 563h152l-459 -604q-87 -115 -122 -178.5t-35 -114.5q0 -46 30 -72t84 -26q64 0 132 23.5t119.5 50t143.5 101t142 119t177 160.5q17 16 26.5 24.5t24.5 22t28 25.5v-57q-34 -31 -98 -88q-217 -198 -312 -269q-183 -135 -346 -158 q-41 -6 -84 -6q-90 0 -148.5 41t-58.5 113zM395 1452q0 35 24.5 58.5t59.5 23.5t58.5 -23.5t23.5 -58.5t-23.5 -59.5t-58.5 -24.5t-59.5 24.5t-24.5 59.5zM756 1452q0 35 24.5 58.5t59.5 23.5t58.5 -23.5t23.5 -58.5t-23.5 -59.5t-58.5 -24.5t-59.5 24.5t-24.5 59.5z" />
<glyph unicode="&#xf0;" horiz-adv-x="1138" d="M-256 162q0 70 42 164.5t112 193.5t166.5 195.5t200 172t218.5 122.5t217 47q56 0 109 -17v306l-485 -322h-84l571 377v311h121v-231l350 231h80l-430 -285l-2 -403h-82q86 -48 86 -152q0 -69 -42 -164t-112 -194t-166.5 -195.5t-200.5 -172t-219 -122.5t-217 -47 q-108 0 -170.5 49t-62.5 136zM-98 162q0 -72 29 -102.5t85 -30.5q104 0 217.5 62.5t208 160.5t172 211t121 222.5t43.5 186.5q0 134 -116 134q-87 0 -181.5 -44.5t-176.5 -116.5t-157.5 -164t-128.5 -185.5t-84.5 -181.5t-31.5 -152z" />
<glyph unicode="&#xf1;" horiz-adv-x="1415" d="M-416 0l778 1024h152l-285 -373l4 -2q373 408 658 408q95 0 155 -43.5t60 -118.5q0 -63 -51.5 -138t-196.5 -235l-113 -125q-60 -67 -96.5 -127.5t-36.5 -124.5q0 -53 29.5 -84.5t87.5 -31.5q49 0 104.5 23.5t108 58.5t128 102.5t137 127.5t162.5 160l54 54v-55 q-37 -36 -110 -108.5t-104.5 -103.5t-91 -86t-91 -79.5t-81 -59t-85 -49t-78 -26t-84.5 -11.5q-94 0 -160.5 48.5t-66.5 132.5q0 108 141 262l168 186q174 190 174 297q0 44 -26.5 73.5t-83.5 29.5q-63 0 -139.5 -33t-154.5 -91t-147.5 -120.5t-140.5 -136.5 q-250 -259 -426 -492l-100 -133h-152zM641 1321q20 107 80.5 168t148.5 61q48 0 113 -25.5t118 -56.5t112.5 -56.5t97.5 -25.5q51 0 91 31t64 115l33 -6q-20 -107 -80.5 -168.5t-148.5 -61.5q-48 0 -113 25.5t-118 56.5t-112.5 56.5t-97.5 25.5q-114 0 -155 -145z" />
<glyph unicode="&#xf2;" horiz-adv-x="1138" d="M-256 162q0 70 42 164.5t112 193.5t166.5 195.5t200 172t218.5 122.5t217 47q108 0 171 -49t63 -136q0 -69 -42 -164t-112 -194t-166.5 -195.5t-200.5 -172t-219 -122.5t-217 -47q-108 0 -170.5 49t-62.5 136zM-98 162q0 -72 29 -102.5t85 -30.5q104 0 217.5 62.5 t208 160.5t172 211t121 222.5t43.5 186.5q0 134 -116 134q-87 0 -181.5 -44.5t-176.5 -116.5t-157.5 -164t-128.5 -185.5t-84.5 -181.5t-31.5 -152zM391 1595q0 23 15 38.5t38 15.5q49 0 68 -62q37 -117 103.5 -198.5t195.5 -178.5l-18 -24q-323 205 -392 364q-10 23 -10 45 z" />
<glyph unicode="&#xf3;" horiz-adv-x="1138" d="M-256 162q0 70 42 164.5t112 193.5t166.5 195.5t200 172t218.5 122.5t217 47q108 0 171 -49t63 -136q0 -69 -42 -164t-112 -194t-166.5 -195.5t-200.5 -172t-219 -122.5t-217 -47q-108 0 -170.5 49t-62.5 136zM-98 162q0 -72 29 -102.5t85 -30.5q104 0 217.5 62.5 t208 160.5t172 211t121 222.5t43.5 186.5q0 134 -116 134q-87 0 -181.5 -44.5t-176.5 -116.5t-157.5 -164t-128.5 -185.5t-84.5 -181.5t-31.5 -152zM684 1210q119 92 182 172.5t109 190.5q33 76 80 76q22 0 35.5 -13.5t13.5 -36.5q0 -22 -17 -55q-86 -159 -385 -358z" />
<glyph unicode="&#xf4;" horiz-adv-x="1138" d="M-256 162q0 70 42 164.5t112 193.5t166.5 195.5t200 172t218.5 122.5t217 47q108 0 171 -49t63 -136q0 -69 -42 -164t-112 -194t-166.5 -195.5t-200.5 -172t-219 -122.5t-217 -47q-108 0 -170.5 49t-62.5 136zM-98 162q0 -72 29 -102.5t85 -30.5q104 0 217.5 62.5 t208 160.5t172 211t121 222.5t43.5 186.5q0 134 -116 134q-87 0 -181.5 -44.5t-176.5 -116.5t-157.5 -164t-128.5 -185.5t-84.5 -181.5t-31.5 -152zM356 1217q322 212 527 432h6q56 -211 211 -441l-27 -18q-98 109 -231 278q-126 -87 -469 -280z" />
<glyph unicode="&#xf5;" horiz-adv-x="1138" d="M-256 162q0 70 42 164.5t112 193.5t166.5 195.5t200 172t218.5 122.5t217 47q108 0 171 -49t63 -136q0 -69 -42 -164t-112 -194t-166.5 -195.5t-200.5 -172t-219 -122.5t-217 -47q-108 0 -170.5 49t-62.5 136zM-98 162q0 -72 29 -102.5t85 -30.5q104 0 217.5 62.5 t208 160.5t172 211t121 222.5t43.5 186.5q0 134 -116 134q-87 0 -181.5 -44.5t-176.5 -116.5t-157.5 -164t-128.5 -185.5t-84.5 -181.5t-31.5 -152zM399 1321q20 107 81 168t149 61q48 0 113 -25.5t118 -56.5t112 -56.5t97 -25.5q114 0 156 146l32 -6q-20 -107 -80.5 -168.5 t-148.5 -61.5q-48 0 -113 25.5t-118 56.5t-112 56.5t-97 25.5q-115 0 -156 -145z" />
<glyph unicode="&#xf6;" horiz-adv-x="1138" d="M-256 162q0 70 42 164.5t112 193.5t166.5 195.5t200 172t218.5 122.5t217 47q108 0 171 -49t63 -136q0 -69 -42 -164t-112 -194t-166.5 -195.5t-200.5 -172t-219 -122.5t-217 -47q-108 0 -170.5 49t-62.5 136zM-98 162q0 -72 29 -102.5t85 -30.5q104 0 217.5 62.5 t208 160.5t172 211t121 222.5t43.5 186.5q0 134 -116 134q-87 0 -181.5 -44.5t-176.5 -116.5t-157.5 -164t-128.5 -185.5t-84.5 -181.5t-31.5 -152zM596 1452q0 35 24.5 58.5t59.5 23.5t58.5 -23.5t23.5 -58.5t-23.5 -59.5t-58.5 -24.5t-59.5 24.5t-24.5 59.5zM956 1452 q0 35 24.5 58.5t59.5 23.5t58.5 -23.5t23.5 -58.5t-23.5 -59.5t-58.5 -24.5t-59.5 24.5t-24.5 59.5z" />
<glyph unicode="&#xf7;" horiz-adv-x="1271" d="M-72 532v70h901v-70h-901zM231 217q0 51 35 86t86 35t86 -35t35 -86t-35 -86t-86 -35t-86 35t-35 86zM231 915q0 51 35 86t86 35t86 -35t35 -86t-35 -85.5t-86 -34.5t-86 34.5t-35 85.5z" />
<glyph unicode="&#xf8;" horiz-adv-x="1138" d="M-352 -111l149 146q-53 47 -53 127q0 70 42 164.5t112 193.5t166.5 195.5t200 172t218.5 122.5t217 47q69 0 119 -21l115 113h96l-151 -148q55 -46 55 -129q0 -69 -42 -164t-112 -194t-166.5 -195.5t-200.5 -172t-219 -122.5t-217 -47q-65 0 -122 23l-113 -111h-94z M-98 139l850 832q-28 35 -90 35q-87 0 -181.5 -44.5t-176.5 -116.5t-157.5 -164t-128.5 -185.5t-84.5 -181.5t-31.5 -152v-23zM-76 68q27 -39 92 -39q104 0 217.5 62.5t208 160.5t172 211t121 222.5t43.5 186.5q0 21 -2 29z" />
<glyph unicode="&#xf9;" horiz-adv-x="1431" d="M-256 137q0 53 30 105t122 172l469 610h151l-539 -707q-81 -105 -81 -186q0 -46 26.5 -74t85.5 -28q209 0 567 370q235 241 424 492l101 133h155l-460 -604q-154 -202 -154 -299q0 -41 26.5 -66.5t77.5 -25.5q37 0 76 12t85 41.5t85 58t99.5 83.5t102.5 94.5t119.5 114.5 t127.5 122v-55q-51 -47 -126 -119.5t-118.5 -113t-104 -94.5t-102.5 -83.5t-92.5 -58.5t-96.5 -41.5t-93 -12.5q-94 0 -148.5 45.5t-54.5 118.5q0 86 104 232l-4 2q-159 -177 -325.5 -287.5t-319.5 -110.5q-94 0 -154.5 43t-60.5 117zM496 1595q0 23 15 38.5t38 15.5 q48 0 67 -62q37 -117 103.5 -198.5t195.5 -178.5l-18 -24q-322 204 -391 364q-10 23 -10 45z" />
<glyph unicode="&#xfa;" horiz-adv-x="1431" d="M-256 137q0 53 30 105t122 172l469 610h151l-539 -707q-81 -105 -81 -186q0 -46 26.5 -74t85.5 -28q209 0 567 370q235 241 424 492l101 133h155l-460 -604q-154 -202 -154 -299q0 -41 26.5 -66.5t77.5 -25.5q37 0 76 12t85 41.5t85 58t99.5 83.5t102.5 94.5t119.5 114.5 t127.5 122v-55q-51 -47 -126 -119.5t-118.5 -113t-104 -94.5t-102.5 -83.5t-92.5 -58.5t-96.5 -41.5t-93 -12.5q-94 0 -148.5 45.5t-54.5 118.5q0 86 104 232l-4 2q-159 -177 -325.5 -287.5t-319.5 -110.5q-94 0 -154.5 43t-60.5 117zM788 1210q119 92 182 172.5t109 190.5 q33 76 80 76q22 0 35.5 -13.5t13.5 -36.5q0 -24 -16 -55q-86 -159 -385 -358z" />
<glyph unicode="&#xfb;" horiz-adv-x="1431" d="M-256 137q0 53 30 105t122 172l469 610h151l-539 -707q-81 -105 -81 -186q0 -46 26.5 -74t85.5 -28q209 0 567 370q235 241 424 492l101 133h155l-460 -604q-154 -202 -154 -299q0 -41 26.5 -66.5t77.5 -25.5q37 0 76 12t85 41.5t85 58t99.5 83.5t102.5 94.5t119.5 114.5 t127.5 122v-55q-51 -47 -126 -119.5t-118.5 -113t-104 -94.5t-102.5 -83.5t-92.5 -58.5t-96.5 -41.5t-93 -12.5q-94 0 -148.5 45.5t-54.5 118.5q0 86 104 232l-4 2q-159 -177 -325.5 -287.5t-319.5 -110.5q-94 0 -154.5 43t-60.5 117zM461 1217q319 210 526 432h6 q56 -211 211 -441l-26 -18q-106 118 -232 278q-126 -87 -469 -280z" />
<glyph unicode="&#xfc;" horiz-adv-x="1431" d="M-256 137q0 53 30 105t122 172l469 610h151l-539 -707q-81 -105 -81 -186q0 -46 26.5 -74t85.5 -28q209 0 567 370q235 241 424 492l101 133h155l-460 -604q-154 -202 -154 -299q0 -41 26.5 -66.5t77.5 -25.5q37 0 76 12t85 41.5t85 58t99.5 83.5t102.5 94.5t119.5 114.5 t127.5 122v-55q-51 -47 -126 -119.5t-118.5 -113t-104 -94.5t-102.5 -83.5t-92.5 -58.5t-96.5 -41.5t-93 -12.5q-94 0 -148.5 45.5t-54.5 118.5q0 86 104 232l-4 2q-159 -177 -325.5 -287.5t-319.5 -110.5q-94 0 -154.5 43t-60.5 117zM700 1452q0 35 24.5 58.5t59.5 23.5 t58.5 -23.5t23.5 -58.5t-23.5 -59.5t-58.5 -24.5t-59.5 24.5t-24.5 59.5zM1061 1452q0 35 24.5 58.5t59.5 23.5t58.5 -23.5t23.5 -58.5t-23.5 -59.5t-58.5 -24.5t-59.5 24.5t-24.5 59.5z" />
<glyph unicode="&#xfd;" horiz-adv-x="983" d="M-1311 -651q0 30 23.5 47.5t64.5 17.5q11 0 58.5 -4t66.5 -4q514 0 1114 559l35 33l-92 1026h156l10 -950q174 184 314.5 410t191.5 431q19 77 42 109.5t62 32.5q64 0 64 -64q0 -37 -23 -96q-74 -188 -207 -375q-231 -325 -526 -594q-334 -306 -673.5 -476.5 t-575.5 -170.5q-105 0 -105 68zM340 1204q119 92 182 172.5t109 190.5q32 75 80 75q22 0 35.5 -13t13.5 -36q0 -22 -17 -55q-86 -159 -385 -358z" />
<glyph unicode="&#xfe;" horiz-adv-x="1226" d="M-920 -696l1770 2437h151l-720 -993h4q137 146 263.5 227.5t250.5 81.5q99 0 161 -47.5t62 -135.5q0 -69 -46 -165t-121.5 -194.5t-176 -196t-203.5 -172.5t-210.5 -122t-192.5 -47q-89 0 -137 36t-48 85q0 41 23 69t59 28q24 0 38 -14t16.5 -30.5t5 -41t4.5 -33.5 q13 -49 71 -49q72 0 159.5 45t170 117t161.5 165t138 187t95 185t36 157q0 123 -110 123q-160 0 -443 -287q-205 -210 -381 -451l-698 -964h-152z" />
<glyph unicode="&#xff;" horiz-adv-x="983" d="M-1311 -651q0 30 23.5 47.5t64.5 17.5q11 0 58.5 -4t66.5 -4q514 0 1114 559l35 33l-92 1026h156l10 -950q174 184 314.5 410t191.5 431q19 77 42 109.5t62 32.5q64 0 64 -64q0 -37 -23 -96q-74 -188 -207 -375q-231 -325 -526 -594q-334 -306 -673.5 -476.5 t-575.5 -170.5q-105 0 -105 68zM254 1452q0 35 24.5 58.5t59.5 23.5t58.5 -23.5t23.5 -58.5t-23.5 -59.5t-58.5 -24.5t-59.5 24.5t-24.5 59.5zM614 1452q0 35 24.5 58.5t59.5 23.5t58.5 -23.5t23.5 -58.5t-23.5 -59.5t-58.5 -24.5t-59.5 24.5t-24.5 59.5z" />
<glyph unicode="&#x152;" horiz-adv-x="3311" d="M-10 512q0 137 63.5 287.5t171.5 288.5t257 264.5t314 219t350 147.5t357 55q142 0 264 -37.5t211 -105.5t139 -169t50 -223v-10l362 512h971l-225 -475h-39q27 74 44 125t27 98t10 76.5t-11 55.5t-31 39.5t-55.5 23.5t-79.5 13t-107 3h-360l-537 -754h690v-41h-719 l-503 -708q-54 -78 -54 -109t42 -39t143 -8h98q129 0 213 4.5t180 19.5t168.5 44t156 78.5t165.5 122.5t176 175h45l-387 -485h-1258l174 244q-195 -125 -405 -196t-408 -71q-192 0 -341.5 64t-235.5 186t-86 285zM162 469q0 -213 119.5 -332t361.5 -119q158 0 324 52.5 t313.5 142.5t280 214.5t228 262.5t151 292.5t55.5 299.5q0 212 -120 331.5t-362 119.5q-158 0 -324 -52.5t-313.5 -142.5t-279.5 -214.5t-227.5 -262.5t-151 -292.5t-55.5 -299.5z" />
<glyph unicode="&#x153;" horiz-adv-x="1740" d="M-256 162q0 70 42 164.5t112 193.5t166.5 195.5t200 172t218.5 122.5t217 47q108 0 171 -49t63 -136q0 -13 -4 -41q266 226 475 226q75 0 116.5 -30t41.5 -79q0 -65 -75 -148.5t-188.5 -155t-260.5 -123.5t-279 -58q-70 -143 -70 -246q0 -91 44 -139.5t126 -48.5 q78 0 160.5 24t161.5 65t174 110t184 144.5t207 182.5v-57q-149 -133 -253.5 -216t-223.5 -159t-228 -111t-219 -35q-135 0 -213 64t-78 172q1 13 3 31q-136 -122 -281.5 -194.5t-276.5 -72.5q-108 0 -170.5 49t-62.5 136zM-98 162q0 -72 29 -102.5t85 -30.5 q104 0 217.5 62.5t208 160.5t172 211t121 222.5t43.5 186.5q0 134 -116 134q-87 0 -181.5 -44.5t-176.5 -116.5t-157.5 -164t-128.5 -185.5t-84.5 -181.5t-31.5 -152zM780 508q123 6 247.5 53t213.5 111.5t145 138t56 133.5q0 64 -74 64q-114 0 -268.5 -119t-270.5 -299 q-44 -71 -49 -82z" />
<glyph unicode="&#x178;" horiz-adv-x="1894" d="M-4 0v31q84 4 132 12t88 33t63.5 52.5t68.5 90.5l426 598l35 709q-1 29 1.5 51.5t-2.5 40t-9 30.5t-18 23t-29 16.5t-42 11t-57 7t-75 4.5v31h624v-31q-56 -2 -92 -5.5t-65 -12.5t-44 -20t-26 -33t-15 -47t-6 -66l-36 -695l714 519q78 57 191 137q132 95 164 122t32 46 q0 25 -33.5 35.5t-121.5 15.5v35h526v-35q-126 -9 -263 -82.5t-452 -300.5l-762 -551l-419 -592q-20 -29 -29.5 -44.5t-15 -34.5t3.5 -28.5t30 -19.5t60.5 -15t99.5 -7v-31h-647zM1337 1980q0 35 24.5 58.5t59.5 23.5t58.5 -23.5t23.5 -58.5t-23.5 -59.5t-58.5 -24.5 t-59.5 24.5t-24.5 59.5zM1698 1980q0 35 24.5 58.5t59.5 23.5t58.5 -23.5t23.5 -58.5t-23.5 -59.5t-58.5 -24.5t-59.5 24.5t-24.5 59.5z" />
<glyph unicode="&#x2c6;" d="M645 1217q319 210 526 432h7q56 -211 211 -441l-27 -18q-106 118 -232 278q-130 -90 -468 -280z" />
<glyph unicode="&#x2dc;" d="M741 1321q20 107 81 168t149 61q48 0 113 -25.5t118 -56.5t112 -56.5t97 -25.5q114 0 156 146l32 -6q-20 -107 -80.5 -168.5t-148.5 -61.5q-48 0 -113 25.5t-118 56.5t-112 56.5t-97 25.5q-115 0 -156 -145z" />
<glyph unicode="&#x2000;" horiz-adv-x="1185" />
<glyph unicode="&#x2001;" horiz-adv-x="2370" />
<glyph unicode="&#x2002;" horiz-adv-x="1185" />
<glyph unicode="&#x2003;" horiz-adv-x="2370" />
<glyph unicode="&#x2004;" horiz-adv-x="790" />
<glyph unicode="&#x2005;" horiz-adv-x="592" />
<glyph unicode="&#x2006;" horiz-adv-x="395" />
<glyph unicode="&#x2007;" horiz-adv-x="395" />
<glyph unicode="&#x2008;" horiz-adv-x="296" />
<glyph unicode="&#x2009;" horiz-adv-x="474" />
<glyph unicode="&#x200a;" horiz-adv-x="131" />
<glyph unicode="&#x2010;" horiz-adv-x="960" d="M-78 502l19 116h573l-18 -116h-574z" />
<glyph unicode="&#x2011;" horiz-adv-x="960" d="M-78 502l19 116h573l-18 -116h-574z" />
<glyph unicode="&#x2012;" horiz-adv-x="960" d="M-78 502l19 116h573l-18 -116h-574z" />
<glyph unicode="&#x2013;" horiz-adv-x="1372" d="M-82 518v70h1002v-70h-1002z" />
<glyph unicode="&#x2014;" horiz-adv-x="1902" d="M-82 518v70h1532v-70h-1532z" />
<glyph unicode="&#x2018;" horiz-adv-x="595" d="M311 1102q0 45 18.5 93.5t59.5 103t118 110t183 102.5l12 -38q-94 -42 -163 -91t-103 -93.5t-49.5 -80t-15.5 -63.5q0 -25 20 -25q15 0 43 19q36 24 78 24q50 0 78 -31.5t28 -80.5q0 -55 -38.5 -91t-94.5 -36q-79 0 -126.5 55.5t-47.5 122.5z" />
<glyph unicode="&#x2019;" horiz-adv-x="593" d="M324 963q94 42 163 91t103 93.5t49.5 79.5t15.5 63q0 25 -20 25q-15 0 -43 -19q-36 -24 -78 -24q-50 0 -78 31.5t-28 80.5q0 55 38.5 91t94.5 36q79 0 126.5 -55.5t47.5 -122.5q0 -45 -18.5 -93.5t-59.5 -103t-118 -110t-183 -102.5z" />
<glyph unicode="&#x201a;" horiz-adv-x="489" d="M-592 -332q94 42 163 91t103.5 93.5t50 80t15.5 63.5q0 10 -6 17t-15 7q-16 0 -43 -18q-38 -25 -77 -25q-50 0 -78.5 32t-28.5 81q0 55 38.5 91t94.5 36q79 0 126.5 -55.5t47.5 -122.5q0 -45 -18.5 -93.5t-59.5 -103t-118.5 -110.5t-182.5 -103z" />
<glyph unicode="&#x201c;" horiz-adv-x="962" d="M309 1100q0 45 18.5 93.5t59.5 103t118 110t183 102.5l12 -39q-94 -42 -163 -91t-103 -93.5t-49.5 -79.5t-15.5 -63q0 -25 20 -25q15 0 43 19q36 24 78 24q50 0 78 -31.5t28 -80.5q0 -55 -38.5 -91t-94.5 -36q-79 0 -126.5 55.5t-47.5 122.5zM678 1100q0 45 18.5 93.5 t59.5 103t118 110t183 102.5l12 -39q-94 -42 -163 -91t-103.5 -93.5t-50 -79.5t-15.5 -63q0 -11 6 -18t15 -7q14 0 43 19q36 24 78 24q50 0 78 -31.5t28 -80.5q0 -55 -38.5 -91t-94.5 -36q-79 0 -126.5 55.5t-47.5 122.5z" />
<glyph unicode="&#x201d;" horiz-adv-x="962" d="M322 961q94 42 163 91t103 93.5t49.5 79.5t15.5 63q0 25 -20 25q-15 0 -43 -19q-36 -24 -78 -24q-50 0 -78 31.5t-28 80.5q0 55 38.5 91t94.5 36q79 0 126.5 -55.5t47.5 -122.5q0 -45 -18.5 -93.5t-59.5 -103t-118 -110t-183 -102.5zM690 961q94 42 163 91t103.5 93.5 t50 79.5t15.5 63q0 11 -6 18t-15 7q-15 0 -43 -19q-36 -24 -77 -24q-50 0 -78.5 31.5t-28.5 80.5q0 55 38.5 91t94.5 36q79 0 126.5 -55.5t47.5 -122.5q0 -45 -18.5 -93.5t-59.5 -103t-118 -110t-183 -102.5z" />
<glyph unicode="&#x201e;" horiz-adv-x="858" d="M-592 -332q94 42 163 91t103.5 93.5t50 80t15.5 63.5q0 10 -6 17t-15 7q-16 0 -43 -18q-38 -25 -77 -25q-50 0 -78.5 32t-28.5 81q0 55 38.5 91t94.5 36q79 0 126.5 -55.5t47.5 -122.5q0 -45 -18.5 -93.5t-59.5 -103t-118.5 -110.5t-182.5 -103zM-223 -332q94 42 163 91 t103.5 93.5t50 80t15.5 63.5q0 10 -6 17t-15 7q-16 0 -43 -18q-37 -25 -78 -25q-49 0 -77.5 32t-28.5 81q0 55 38.5 91t94.5 36q79 0 126.5 -55.5t47.5 -122.5q0 -45 -18.5 -93.5t-59.5 -103t-118.5 -110.5t-182.5 -103z" />
<glyph unicode="&#x2022;" horiz-adv-x="1044" d="M-8 594q0 122 86 207.5t207 85.5t207 -85.5t86 -207.5t-86 -207.5t-207 -85.5t-207 85.5t-86 207.5z" />
<glyph unicode="&#x2026;" horiz-adv-x="1478" d="M-504 98q0 51 35 86t86 35t86 -35t35 -86t-35 -86t-86 -35t-86 35t-35 86zM25 98q0 51 34.5 86t85.5 35t86 -35t35 -86t-35 -86t-86 -35t-85.5 35t-34.5 86zM553 98q0 51 35 86t86 35t86 -35t35 -86t-35 -86t-86 -35t-86 35t-35 86z" />
<glyph unicode="&#x202f;" horiz-adv-x="474" />
<glyph unicode="&#x2039;" horiz-adv-x="819" d="M-94 532l6 9l729 446l-4 -53l-598 -447l10 -346h-43z" />
<glyph unicode="&#x203a;" horiz-adv-x="819" d="M-340 123l4 53l598 447l-10 346h43l100 -391l-6 -9z" />
<glyph unicode="&#x205f;" horiz-adv-x="592" />
<glyph unicode="&#x20ac;" horiz-adv-x="1644" d="M47 823l41 70h209q61 103 125 184h-240l41 70h256q236 274 561 450.5t613 176.5q124 0 183.5 -33.5t59.5 -85.5q0 -34 -20.5 -57t-54.5 -23q-17 0 -29.5 6t-19 18t-10 22t-6.5 26t-5 22q-8 28 -39.5 41.5t-103.5 13.5q-245 0 -516.5 -161t-475.5 -416h553l-53 -70h-553 q-63 -86 -114 -184h471l-52 -70h-454q-105 -227 -105 -434q0 -174 76 -266t217 -92q140 0 270 80.5t218 226.5h47q-94 -170 -252.5 -267.5t-335.5 -93.5q-99 2 -175.5 35t-124.5 90t-72.5 132t-24.5 165q0 210 108 424h-213z" />
<glyph unicode="&#x2122;" horiz-adv-x="3246" d="M559 1366l37 375h932l37 -375h-25l-57 190q-24 78 -58.5 110t-105.5 32h-191v-996q0 -20 1 -29.5t3 -21t10 -15.5t17 -9t30 -6.5t42.5 -3.5t60.5 -3v-30h-463v30l69 3t45.5 5.5t30 8t14 15.5t7 22.5t0.5 33.5v996h-190q-71 0 -105.5 -32t-58.5 -110l-57 -190h-25z M1606 584v30l69 3t45.5 5.5t30 8t14 15.5t7 22.5t0.5 33.5v920q0 20 -1 29.5t-3 21t-10 15.5t-17 9t-30 6.5t-42.5 3.5t-60.5 3v31h288l383 -684l361 684h297v-31q-39 -1 -60.5 -3t-42.5 -3.5t-30 -6.5t-17 -9t-10 -15.5t-3 -21t-1 -29.5v-920q0 -23 0.5 -33.5t7 -22.5 t14 -15.5t30 -8t45.5 -5.5l69 -3v-30h-463v30q39 1 60.5 3t42.5 3.5t30 6.5t17 9t10 15.5t3 21t1 29.5v938l-397 -745h-13l-413 709v-902v-26t3 -19.5t5.5 -15.5t12.5 -10t19 -7.5t29.5 -4t40 -3.5t53.5 -2v-30h-374z" />
<glyph unicode="&#x25fc;" horiz-adv-x="1054" d="M0 0v1055h1055v-1055h-1055z" />
</font>
</defs>
</svg>
