<svg width="644" height="344" viewBox="0 0 644 344" fill="none" xmlns="http://www.w3.org/2000/svg">
<path d="M185.8 3.69999C190.4 4 193.8 4.7 197.5 9.9L226.1 50.2V76.3C226.1 84.6 224.9 84.7 215 85.3V87H244.5V85.3C234.6 84.7 233.4 84.6 233.4 76.3V48.9L256 16.1C263.9 4.7 264.8 4 272 3.69999V2H250.2V3.69999C260.2 4 260.9 4.9 252 17.8L232.4 46.4L208.5 12.6C206.4 9.6 205.1 7.79999 205.1 6.39999C205.1 4.59999 207.4 3.9 213.8 3.69999V2H185.8V3.69999Z" fill="#FFFBF0"/>
<path d="M305.1 88.2C331 88.2 351.1 69.7 351.1 44.3C351.1 18.9 331 0.399994 305.1 0.399994C279.2 0.399994 259.1 18.9 259.1 44.3C259.1 69.7 279.2 88.2 305.1 88.2ZM305.1 86.2C281.2 86.2 267.5 67.7 267.5 44.3C267.5 20.9 281.2 2.4 305.1 2.4C329 2.4 342.7 20.9 342.7 44.3C342.7 67.7 329 86.2 305.1 86.2Z" fill="#FFFBF0"/>
<path d="M352.34 3.69999C362.24 4.3 363.44 4.4 363.44 12.7V16.9L363.54 52.9C363.64 76.7 377.64 88.2 397.14 88.2C418.54 88.2 430.04 76.9 430.04 52.5V12.7C430.04 4.4 431.24 4.3 441.14 3.69999V2H416.64V3.69999C426.54 4.3 427.74 4.4 427.74 12.7V52.5C427.74 76 417.24 83.9 398.44 83.9C381.14 83.9 370.74 74 370.74 50.5V12.7C370.74 4.4 371.94 4.3 381.84 3.69999V2H352.34V3.69999Z" fill="#FFFBF0"/>
<path d="M186 197H208.9V195.3C198.9 194.8 198.2 194.1 204 178.8L208.6 166.6H251.4L259.2 187.1C261.6 193.5 260.5 195.1 250.7 195.3V197H278.6V195.3C270.3 194.9 269.8 194.2 266.8 186.6L239.6 116.4C238.2 112.8 235.9 110.4 232.1 110.4C227.1 110.4 225.6 114.6 225 116.2L200.8 180C195.4 194.2 194.6 194.9 186 195.3V197ZM209.4 164.4L227.5 116.7C228.1 115.1 228.7 114.2 229.9 114.2C231.4 114.2 231.8 115.6 232.3 116.8L250.5 164.4H209.4Z" fill="#FFFBF0"/>
<path d="M278.408 197H307.908V195.3C298.008 194.7 296.808 194.6 296.808 186.3V153.7H312.208C323.808 153.7 329.608 159.4 330.408 170.9C330.808 176.3 330.408 182 330.708 186.3C331.308 195.5 337.108 198.1 342.508 198.1C348.108 198.1 352.608 194.9 354.708 187.2L352.808 186.7C350.708 193.3 347.608 195.3 344.608 195.3C341.108 195.3 338.708 193.4 338.308 185.8C338.108 181.3 338.008 175.6 337.508 170.1C336.608 160.6 332.108 154.6 321.308 153.3V153.1C334.108 151.1 343.008 144 343.008 132.9C343.008 119.8 330.608 112 314.508 112H278.408V113.7C288.308 114.3 289.508 114.4 289.508 122.7V186.3C289.508 194.6 288.308 194.7 278.408 195.3V197ZM296.808 114H311.708C326.408 114 334.608 121 334.608 132.9C334.608 144.8 326.208 151.5 312.008 151.6L296.808 151.7V114Z" fill="#FFFBF0"/>
<path d="M355 197H419.1L422.5 171.8H420.7C416 194.1 412.2 195 383.1 195H381.8C374.1 195 373.4 193.2 373.4 186.3V152.8H404.2V150.8H373.4V114H395.6C409 114 412.4 119.5 415.8 135.2H417.6L414.5 112H355V113.7C364.9 114.3 366.1 114.4 366.1 122.7V186.3C366.1 194.6 364.9 194.7 355 195.3V197Z" fill="#FFFBF0"/>
<path d="M0.100098 266.1C0.100098 291.4 17.9001 310 43.7001 310C62.2001 310 74.7 300.8 80.5 285.5L79.3401 282.5C73.8401 296.4 62.2001 307 45.3001 307C21.4001 307 8.50009 287.6 8.50009 266.1C8.50009 242.6 20.3001 224.2 43.0001 224.2C61.8001 224.2 75.7001 236.3 78.3001 250.2H80.0001L79.3001 225.4H77.5001C77.1001 229.1 75.8001 230.7 73.9001 230.7C72.2001 230.7 70.9001 230 69.0001 229C64.0001 226.4 55.4001 222.2 43.2001 222.2C18.6001 222.2 0.100098 240.5 0.100098 266.1Z" fill="#FFFBF0"/>
<path d="M241.852 306.6V308.6C241.852 326.5 231.552 340.9 215.152 340.9C198.452 340.9 191.752 326.5 186.752 310.4L177.752 281.8C175.552 274.8 172.952 269.1 170.052 264.7C183.252 262.4 197.452 255.7 197.452 243.1C197.452 237.7 194.152 232.7 188.552 228.9C192.652 226.5 196.5 224.5 202.752 223.8L202.5 222C195.5 222.5 191.252 225.3 186.952 227.9C180.752 224.2 172.352 222 162.852 222C121.852 222 79.0517 255.7 79.0517 287C79.0517 301.2 87.4517 309.7 101.252 309.7C113.652 309.7 128.252 304.2 147.052 278.4L156.452 265.5C157.452 265.6 158.552 265.6 159.652 265.6C161.952 265.6 164.452 265.4 166.952 265.1C168.852 268.4 170.452 272.4 171.752 277.3L181.052 314.2C185.852 333.2 196.052 343.7 213.152 343.7C232.352 343.7 244.252 328.9 244.252 308.6V306.6H241.852ZM145.052 277.6C125.852 303.8 111.952 307.7 101.652 307.7C88.9517 307.7 81.9517 300.3 81.9517 287.7C81.9517 258.7 121.852 228.2 161.052 228.2C169.852 228.2 176.752 229.4 181.852 231.3C176.452 235.5 171.652 241.2 166.152 248.8L161.152 255.6C157.252 253.2 152.952 252 148.152 252C143.352 252 140.552 254.3 140.552 256.6C140.552 260.9 146.052 264.2 154.052 265.2L145.052 277.6ZM193.652 244.6C193.652 255.7 180.452 261.1 168.752 262.9C166.852 260.4 164.952 258.4 162.752 256.8L167.652 250.1C173.552 241.9 178.452 236.2 183.752 232.1C190.452 235.1 193.652 239.7 193.652 244.6ZM159.952 257.3L155.552 263.3C148.252 262.4 144.552 259.7 144.552 257.3C144.552 255.5 146.352 254.3 149.752 254.3C153.452 254.3 156.852 255.3 159.952 257.3ZM160.252 263.5C159.452 263.5 158.652 263.5 157.952 263.4L161.552 258.5C163.052 259.8 164.452 261.3 165.752 263.2C163.852 263.4 161.952 263.5 160.252 263.5Z" fill="#FFFBF0"/>
<path d="M202.5 307H266.6L270 281.8H268.2C263.5 304.1 259.7 305 230.6 305H229.3C221.6 305 220.9 303.2 220.9 296.3V262.8H251.7V260.8H220.9V224H243.1C256.5 224 259.9 229.5 263.3 245.2H265.1L262 222H202.5L202.752 223.8C212.5 223.8 213.6 224.4 213.6 232.7V296.3C213.6 304.6 212.4 304.7 202.5 305.3V307Z" fill="#FFFBF0"/>
<path d="M270.9 307H293.8V305.3C283.8 304.8 283.1 304.1 288.9 288.8L293.5 276.6H336.3L344.1 297.1C346.5 303.5 345.4 305.1 335.6 305.3V307H363.5V305.3C355.2 304.9 354.7 304.2 351.7 296.6L324.5 226.4C323.1 222.8 320.8 220.4 317 220.4C312 220.4 310.5 224.6 309.9 226.2L285.7 290C280.3 304.2 279.5 304.9 270.9 305.3V307ZM294.3 274.4L312.4 226.7C313 225.1 313.6 224.2 314.8 224.2C316.3 224.2 316.7 225.6 317.2 226.8L335.4 274.4H294.3Z" fill="#FFFBF0"/>
<path d="M348.7 245.2H350.5C353.9 229.5 357.3 224 370.7 224H384.7V296.3C384.7 304.6 383.5 304.7 373.6 305.3V307H403.1V305.3C393.2 304.7 392 304.6 392 296.3V224H406C419.4 224 422.8 229.5 426.2 245.2H428L424.9 222H351.8L348.7 245.2Z" fill="#FFFBF0"/>
<path d="M431.5 307H461V305.3C451.1 304.7 449.9 304.6 449.9 296.3V232.7C449.9 224.4 451.1 224.3 461 223.7V222H431.5V223.7C441.4 224.3 442.6 224.4 442.6 232.7V296.3C442.6 304.6 441.4 304.7 431.5 305.3V307Z" fill="#FFFBF0"/>
<path d="M538.4 239C543.7 224.8 544.6 224.1 553.2 223.7V222H530.3V223.7C540.3 224.2 540.9 224.9 535.2 240.2L512.4 301.9C511.8 303.5 511.2 304.4 510 304.4C508.8 304.4 508.3 303.6 507.6 301.8L481.4 231.9C478.6 224.5 481.3 224 489.9 223.7V222H462V223.7C470.3 224.1 470.9 224.8 473.8 232.4L500.3 302.2C501.8 306.2 504.3 308.2 507.9 308.2C511.5 308.2 513.5 306.1 514.9 302.4L538.4 239Z" fill="#FFFBF0"/>
<path d="M554 307H618.1L621.5 281.8H619.7C615 304.1 611.2 305 582.1 305H580.8C573.1 305 572.4 303.2 572.4 296.3V262.8H603.2V260.8H572.4V224H594.6C608 224 611.4 229.5 614.8 245.2H616.6L613.5 222H554V223.7C563.9 224.3 565.1 224.4 565.1 232.7V296.3C565.1 304.6 563.9 304.7 554 305.3V307Z" fill="#FFFBF0"/>
<path d="M631.6 302.3C631.6 305.6 634.2 308.2 637.5 308.2C640.8 308.2 643.4 305.6 643.4 302.3C643.4 299 640.8 296.4 637.5 296.4C634.2 296.4 631.6 299 631.6 302.3Z" fill="#FFFBF0"/>
</svg>
