<svg width="1259" height="337" viewBox="0 0 1259 337" fill="none" xmlns="http://www.w3.org/2000/svg">
<path d="M299.5 135H340.11V132.675C322.13 132.055 321.51 131.435 337.475 109.115L402.265 17.975L416.835 136.705H421.02L501.62 23.245C513.09 7.12502 515.725 6.19502 530.76 5.57502V3.25002H490.15V5.57502C508.13 6.19502 508.75 6.81503 492.785 29.135L426.91 121.67L412.34 3.25002H387.075V5.57502C402.885 6.19502 405.21 7.28002 394.67 22.16L328.64 115.005C317.17 131.125 314.535 132.055 299.5 132.675V135Z" fill="#FFFBF0"/>
<path d="M573.517 136.86C613.662 136.86 644.817 108.185 644.817 68.815C644.817 29.445 613.662 0.77002 573.517 0.77002C533.372 0.77002 502.217 29.445 502.217 68.815C502.217 108.185 533.372 136.86 573.517 136.86ZM573.517 133.76C536.472 133.76 515.237 105.085 515.237 68.815C515.237 32.545 536.472 3.87003 573.517 3.87003C610.562 3.87003 631.797 32.545 631.797 68.815C631.797 105.085 610.562 133.76 573.517 133.76Z" fill="#FFFBF0"/>
<path d="M751.196 29.6C759.411 7.59002 760.806 6.50502 774.136 5.88502V3.25002H738.641V5.88502C754.141 6.66002 755.071 7.74502 746.236 31.46L710.896 127.095C709.966 129.575 709.036 130.97 707.176 130.97C705.316 130.97 704.541 129.73 703.456 126.94L662.846 18.595C658.506 7.12502 662.691 6.35002 676.021 5.88502V3.25002H632.776V5.88502C645.641 6.50502 646.571 7.59002 651.066 19.37L692.141 127.56C694.466 133.76 698.341 136.86 703.921 136.86C709.501 136.86 712.601 133.605 714.771 127.87L751.196 29.6Z" fill="#FFFBF0"/>
<path d="M830.199 136.86C870.344 136.86 901.499 108.185 901.499 68.815C901.499 29.445 870.344 0.77002 830.199 0.77002C790.054 0.77002 758.899 29.445 758.899 68.815C758.899 108.185 790.054 136.86 830.199 136.86ZM830.199 133.76C793.154 133.76 771.919 105.085 771.919 68.815C771.919 32.545 793.154 3.87003 830.199 3.87003C867.244 3.87003 888.479 32.545 888.479 68.815C888.479 105.085 867.244 133.76 830.199 133.76Z" fill="#FFFBF0"/>
<path d="M48.4978 173.345C63.8428 187.295 86.1628 195.82 110.963 195.82C137.313 195.82 155.603 185.28 155.603 172.105C155.603 158.775 140.413 147.77 111.738 147.77C88.6428 147.77 65.5478 154.59 46.6378 165.595C37.9578 154.9 32.9978 142.035 32.9978 128.24C32.9978 108.71 43.3828 98.015 57.9528 98.015C71.9028 98.015 85.8528 105.145 96.5478 124.52L99.4928 122.97C88.9528 103.905 73.9178 94.76 57.7978 94.76C39.1978 94.76 27.4178 108.555 27.4178 127C27.4178 142.5 33.1528 156.45 43.0728 167.765C19.3578 182.645 2.92781 204.19 2.92781 227.13C2.92781 251.31 19.5128 268.205 49.8928 268.205C69.1128 268.205 89.5728 260.61 104.453 249.76L88.1778 272.545L52.6828 284.79C21.6828 295.485 0.757812 304.63 0.757812 319.2C0.757812 329.43 10.8328 336.405 22.4578 336.405C55.3178 336.405 76.3978 307.575 94.5328 282L125.068 239.065H112.048C96.5478 253.635 72.8328 265.105 50.2028 265.105C21.9928 265.105 8.50781 248.985 8.50781 228.68C8.50781 206.67 24.9378 186.52 48.4978 173.345ZM150.023 173.965C150.023 184.815 131.733 192.72 111.273 192.72C86.6278 192.72 66.0128 184.505 52.2178 171.33C69.2678 162.65 89.5728 157.38 110.033 157.38C134.988 157.38 150.023 164.51 150.023 173.965ZM21.0628 328.81C12.5378 328.81 6.02781 324.16 6.02781 318.115C6.02781 306.335 24.4728 297.965 56.0928 286.96L85.0778 276.885L81.5128 282C68.1828 300.6 46.3278 328.81 21.0628 328.81Z" fill="#FFFBF0"/>
<path d="M155.806 282H201.531V279.365C186.186 278.435 184.326 278.28 184.326 265.415V214.885H208.196C226.176 214.885 235.166 223.72 236.406 241.545C237.026 249.915 236.406 258.75 236.871 265.415C237.801 279.675 246.791 283.705 255.161 283.705C263.841 283.705 270.816 278.745 274.071 266.81L271.126 266.035C267.871 276.265 263.066 279.365 258.416 279.365C252.991 279.365 249.271 276.42 248.651 264.64C248.341 257.665 248.186 248.83 247.411 240.305C246.016 225.58 239.041 216.28 222.301 214.265V213.955C242.141 210.855 255.936 199.85 255.936 182.645C255.936 162.34 236.716 150.25 211.761 150.25H155.806V152.885C171.151 153.815 173.011 153.97 173.011 166.835V265.415C173.011 278.28 171.151 278.435 155.806 279.365V282ZM184.326 153.35H207.421C230.206 153.35 242.916 164.2 242.916 182.645C242.916 201.09 229.896 211.475 207.886 211.63L184.326 211.785V153.35Z" fill="#FFFBF0"/>
<path d="M275.998 282H375.353L380.623 242.94H377.833C370.548 277.505 364.658 278.9 319.553 278.9H317.538C305.603 278.9 304.518 276.11 304.518 265.415V213.49H352.258V210.39H304.518V153.35H338.928C359.698 153.35 364.968 161.875 370.238 186.21H373.028L368.223 150.25H275.998V152.885C291.343 153.815 293.203 153.97 293.203 166.835V265.415C293.203 278.28 291.343 278.435 275.998 279.365V282Z" fill="#FFFBF0"/>
<path d="M387.762 215.97C387.762 253.945 416.437 283.86 455.342 283.86C484.482 283.86 500.602 267.895 515.637 260.92V242.01C515.637 229.145 517.497 228.99 532.842 228.06V225.425H487.117V228.06C502.462 228.99 504.322 229.145 504.322 242.01C504.322 246.66 504.012 250.225 502.462 254.565C497.657 268.05 476.112 280.605 456.582 280.605C421.862 280.605 400.782 250.69 400.782 215.97C400.782 179.545 419.227 150.87 454.257 150.87C483.397 150.87 504.942 169.625 508.972 191.17H511.607L510.522 152.73H507.732C507.112 158.465 505.097 160.945 502.152 160.945C499.517 160.945 497.502 159.86 494.557 158.31C486.807 154.28 473.477 147.77 454.567 147.77C416.282 147.77 387.762 175.98 387.762 215.97Z" fill="#FFFBF0"/>
<path d="M513.781 282H549.276V279.365C533.776 278.59 532.691 277.505 541.681 253.79L548.811 234.88H615.151L627.241 266.655C630.961 276.575 629.256 279.055 614.066 279.365V282H657.311V279.365C644.446 278.745 643.671 277.66 639.021 265.88L596.861 157.07C594.691 151.49 591.126 147.77 585.236 147.77C577.486 147.77 575.161 154.28 574.231 156.76L536.721 255.65C528.351 277.66 527.111 278.745 513.781 279.365V282ZM550.051 231.47L578.106 157.535C579.036 155.055 579.966 153.66 581.826 153.66C584.151 153.66 584.771 155.83 585.546 157.69L613.756 231.47H550.051Z" fill="#FFFBF0"/>
<path d="M910.479 278.9V282C910.479 309.745 894.514 332.065 869.094 332.065C843.209 332.065 832.824 309.745 825.074 284.79L811.124 240.46C807.714 229.61 803.684 220.775 799.189 213.955C819.649 210.39 841.659 200.005 841.659 180.475C841.659 172.105 836.544 164.355 827.864 158.465C834.219 154.745 844.5 152.885 853.688 152.885V150.25C841.659 150.25 832.049 152.885 825.384 156.915C815.774 151.18 802.754 147.77 788.029 147.77C724.479 147.77 658.139 200.005 658.139 248.52C658.139 270.53 671.159 283.705 692.549 283.705C711.769 283.705 734.399 275.18 763.539 235.19L778.109 215.195C779.659 215.35 781.364 215.35 783.069 215.35C786.634 215.35 790.509 215.04 794.384 214.575C797.329 219.69 799.809 225.89 801.824 233.485L816.239 290.68C823.679 320.13 839.489 336.405 865.994 336.405C895.754 336.405 914.199 313.465 914.199 282V278.9H910.479ZM760.439 233.95C730.679 274.56 709.134 280.605 693.169 280.605C673.484 280.605 662.634 269.135 662.634 249.605C662.634 204.655 724.479 157.38 785.239 157.38C798.879 157.38 809.574 159.24 817.479 162.185C809.109 168.695 801.669 177.53 793.144 189.31L785.394 199.85C779.349 196.13 772.684 194.27 765.244 194.27C757.804 194.27 753.464 197.835 753.464 201.4C753.464 208.065 761.989 213.18 774.389 214.73L760.439 233.95ZM835.769 182.8C835.769 200.005 815.309 208.375 797.174 211.165C794.229 207.29 791.284 204.19 787.874 201.71L795.469 191.325C804.614 178.615 812.209 169.78 820.424 163.425C830.809 168.075 835.769 175.205 835.769 182.8ZM783.534 202.485L776.714 211.785C765.399 210.39 759.664 206.205 759.664 202.485C759.664 199.695 762.454 197.835 767.724 197.835C773.459 197.835 778.729 199.385 783.534 202.485ZM783.999 212.095C782.759 212.095 781.519 212.095 780.434 211.94L786.014 204.345C788.339 206.36 790.509 208.685 792.524 211.63C789.579 211.94 786.634 212.095 783.999 212.095Z" fill="#FFFBF0"/>
<path d="M853.688 282H899.413V279.365C884.068 278.435 882.208 278.28 882.208 265.415V166.835C882.208 153.97 884.068 153.815 899.413 152.885V150.25H853.688V152.885C869.033 153.815 870.893 153.97 870.893 166.835V265.415C870.893 278.28 869.033 278.435 853.688 279.365V282Z" fill="#FFFBF0"/>
<path d="M971.043 283.86C1011.19 283.86 1042.34 255.185 1042.34 215.815C1042.34 176.445 1011.19 147.77 971.043 147.77C930.898 147.77 899.743 176.445 899.743 215.815C899.743 255.185 930.898 283.86 971.043 283.86ZM971.043 280.76C933.998 280.76 912.763 252.085 912.763 215.815C912.763 179.545 933.998 150.87 971.043 150.87C1008.09 150.87 1029.32 179.545 1029.32 215.815C1029.32 252.085 1008.09 280.76 971.043 280.76Z" fill="#FFFBF0"/>
<path d="M1037.3 152.885C1052.65 153.815 1054.51 153.97 1054.51 166.835V173.345L1054.66 229.145C1054.82 266.035 1076.52 283.86 1106.74 283.86C1139.91 283.86 1157.74 266.345 1157.74 228.525V166.835C1157.74 153.97 1159.6 153.815 1174.94 152.885V150.25H1136.97V152.885C1152.31 153.815 1154.17 153.97 1154.17 166.835V228.525C1154.17 264.95 1137.9 277.195 1108.76 277.195C1081.94 277.195 1065.82 261.85 1065.82 225.425V166.835C1065.82 153.97 1067.68 153.815 1083.03 152.885V150.25H1037.3V152.885Z" fill="#FFFBF0"/>
<path d="M1175.22 239.53H1172.43L1173.36 280.605H1176.15C1176.3 274.87 1177.85 273.63 1179.71 273.63C1185.91 273.63 1193.51 283.86 1214.9 283.86C1237.22 283.86 1258.3 270.375 1258.3 248.675C1258.3 227.905 1241.71 217.83 1224.2 209.615L1211.18 203.57C1194.44 195.82 1185.14 187.14 1185.14 173.655C1185.14 160.325 1196.3 150.87 1213.19 150.87C1231.48 150.87 1248.07 163.27 1251.48 184.97L1254.11 184.815L1253.34 150.87H1250.86C1250.08 156.915 1248.69 157.535 1246.52 157.535C1245.12 157.535 1242.8 156.605 1239.39 154.9C1233.5 151.955 1225.44 147.77 1213.5 147.77C1192.42 147.77 1175.99 160.48 1175.99 178.46C1175.99 195.2 1187 204.655 1205.91 213.955L1218.15 220C1233.5 227.595 1248.22 236.275 1248.22 253.79C1248.22 270.995 1232.41 280.76 1214.59 280.76C1192.11 280.76 1176.3 262.935 1175.22 239.53Z" fill="#FFFBF0"/>
<path d="M229.048 55.864C240.424 55.864 249.352 47.368 249.352 36.784C249.352 26.344 240.424 17.848 229.048 17.848C217.6 17.848 208.672 26.344 208.672 36.784C208.672 47.368 217.6 55.864 229.048 55.864ZM229.048 54.424C220.264 54.424 214.144 47.152 214.144 36.784C214.144 26.56 220.264 19.288 229.048 19.288C237.76 19.288 243.88 26.56 243.88 36.784C243.88 47.152 237.76 54.424 229.048 54.424Z" fill="#FFFBF0"/>
<path d="M274.551 40.744C269.943 40.744 265.767 42.4 263.463 44.56C264.975 40.24 265.551 35.2 266.055 29.656L266.631 23.248H291.111L291.687 19H265.191L264.183 31.096C263.607 37.36 262.671 43.768 261.519 45.64C260.727 46.936 259.287 47.656 259.287 48.808C259.287 49.456 259.863 49.888 260.439 49.888C260.943 49.888 261.519 49.672 261.951 49.024C262.527 48.16 262.527 46.648 263.751 45.712C265.191 44.488 268.143 43.12 272.463 43.12C281.031 43.12 288.591 49.6 288.591 60.544C288.591 70.192 282.543 78.832 273.039 78.832C265.047 78.832 261.447 73.576 261.159 65.44C260.727 65.296 260.295 65.296 259.863 65.296C257.991 65.296 256.767 66.736 256.767 68.392C256.767 73.576 262.383 80.344 272.751 80.344C284.271 80.344 293.991 71.128 293.991 59.248C293.991 47.728 285.351 40.744 274.551 40.744Z" fill="#FFFBF0"/>
</svg>
