<svg width="1020" height="347" viewBox="0 0 1020 347" fill="none" xmlns="http://www.w3.org/2000/svg">
<path d="M119.048 45.864C130.424 45.864 139.352 37.368 139.352 26.784C139.352 16.344 130.424 7.84802 119.048 7.84802C107.6 7.84802 98.6719 16.344 98.6719 26.784C98.6719 37.368 107.6 45.864 119.048 45.864ZM119.048 44.424C110.264 44.424 104.144 37.152 104.144 26.784C104.144 16.56 110.264 9.28802 119.048 9.28802C127.76 9.28802 133.88 16.56 133.88 26.784C133.88 37.152 127.76 44.424 119.048 44.424Z" fill="#FFFBF0"/>
<path d="M148.279 69.336C148.855 70.416 149.935 71.064 151.159 71.064C152.311 71.064 153.535 70.488 154.471 68.544L182.191 9.43202V9.00002H148.711L147.127 13.248H179.023L148.279 69.336Z" fill="#FFFBF0"/>
<path fill-rule="evenodd" clip-rule="evenodd" d="M860.902 83.4C860.902 131.7 822.702 166.8 773.502 166.8C724.302 166.8 686.102 131.6 686.102 83.4C686.102 35.2 724.302 0 773.502 0C822.702 0 860.902 35.1 860.902 83.4ZM845.002 83.4C845.002 39 818.902 3.8 773.502 3.8C728.102 3.8 702.102 39 702.202 83.4C702.202 127.8 728.202 163 773.602 163C819.002 163 845.002 127.9 845.002 83.4Z" fill="#FFFBF0"/>
<path d="M293.102 99C293.102 139.2 258.202 166.6 219.402 166.6C185.702 166.6 166.902 146.3 165.102 111.9H169.502C171.202 143.2 187.802 162.8 219.302 162.8C252.002 162.8 278.202 138 278.202 104.8C278.202 96.3748 276.785 88.0491 275.364 79.6989C273.935 71.2996 272.502 62.875 272.502 54.3C272.502 14.4 298.902 3 335.402 3H395.102V6.8H335.402C304.302 6.8 286.402 13.7 286.402 45.4C286.402 53.4807 287.97 61.8423 289.589 70.4735C291.317 79.6801 293.102 89.1937 293.102 99Z" fill="#FFFBF0"/>
<path d="M283.5 183V185.9C265 186.7 261.8 187.8 247.8 207.5L149 346.6H143.9L126 201.1L46.6 312.8C27 340.2 27.8 340.9 49.8 341.7V344.6H0V341.7C18.4 340.9 21.7 339.8 35.7 320L116.6 206.1C129.5 187.9 126.7 186.6 107.3 185.8V183H138.3L156.1 328.1L236.9 214.7C256.5 187.3 255.7 186.6 233.7 185.8V183H283.5Z" fill="#FFFBF0"/>
<path d="M682.099 116.7H678.699C669.799 159.1 662.499 160.8 607.299 160.8H593.199C578.599 160.8 577.199 157.4 577.199 144.3V23.4C577.199 7.60001 579.499 7.39999 598.299 6.3V3H542.199V6.2C560.999 7.3 563.299 7.5 563.299 23.3V144.1C563.299 159.9 560.999 160.1 542.199 161.2V164.4H675.599L682.099 116.7Z" fill="#FFFBF0"/>
<path fill-rule="evenodd" clip-rule="evenodd" d="M599.898 183V183.2C592.498 181.1 583.598 180 573.298 180C544.398 180 516.698 188.4 493.698 201.9C484.398 190.6 478.598 177.3 477.098 163C498.998 156.6 516.798 142.5 527.198 123.5C527.498 122.95 527.798 122.375 528.098 121.8C528.398 121.225 528.698 120.65 528.998 120.1C534.298 109.2 537.198 96.9 537.198 83.5C537.198 35.2 498.998 0 449.798 0C400.598 0 362.398 35.2 362.398 83.4C362.398 131.6 400.598 166.8 449.798 166.8C456.998 166.8 463.898 166 470.598 164.6C472.698 179.7 479.298 193.3 489.098 204.5C455.298 225.8 432.298 258.1 432.298 290.6C432.298 320.2 452.598 346.6 499.398 346.6C540.798 346.6 583.398 321.5 583.398 288.7C583.398 266.7 563.598 256 543.898 256C521.698 256 492.598 268.4 475.098 302L478.698 303.7C496.398 269.5 524.098 260 543.698 260C560.798 260 578.698 268.7 578.698 288.9C578.698 319.9 537.898 342.9 499.898 342.9C455.798 342.9 439.298 317.4 439.298 292.6C439.298 262.2 462.098 231.2 496.298 211.7C515.098 228.8 542.298 239.1 572.498 239.1C604.798 239.1 627.198 226.2 627.198 210C627.198 202.7 623.498 196 616.298 190.8C621.298 188.2 627.598 187 635.998 187H662.598V324.4C662.598 340.2 660.298 340.4 641.498 341.5V344.7H697.498V341.5C678.698 340.4 676.398 340.2 676.398 324.4V186.8H702.998C728.498 186.8 734.898 197.3 741.398 227.1H744.798L738.898 183H599.898ZM476.798 158.2V156C476.798 132.1 489.498 119 507.398 119C509.798 119 512.298 119.2 514.698 119.6C507.398 137.5 494.598 151.3 476.798 158.2ZM449.798 163C404.398 163 378.398 127.8 378.398 83.4C378.398 38.9 404.398 3.8 449.798 3.8C495.198 3.8 521.198 39 521.198 83.4C521.198 95 519.398 105.9 515.998 115.8C513.098 115.3 510.098 115 507.098 115C484.298 115 469.898 131.9 469.898 154.5C469.898 156.408 469.99 158.225 470.085 160.124L470.098 160.4C463.798 162.1 457.098 163 449.798 163ZM620.198 212.1C620.198 225.4 597.798 235.1 572.698 235.1C542.698 235.1 517.598 225 500.498 209.3C520.998 198.5 545.298 191.8 571.198 191.8C581.798 191.8 590.998 192.9 598.398 194.7C601.998 195.6 605.098 196.7 607.898 197.9C615.798 201.5 620.198 206.5 620.198 212.1Z" fill="#FFFBF0"/>
<path d="M961.8 248.4L977.8 255.8C999.3 265.9 1019.6 278.2 1019.7 303.8C1019.7 330.4 993.9 346.9 966.5 346.9C949.471 346.9 939.582 341.62 932.658 337.923C928.929 335.932 926.06 334.4 923.4 334.4C921.1 334.4 919.2 335.9 919 342.9H915.6L914.5 292.6H917.9C919.3 321.3 938.7 343.1 966.2 343.1C988 343.1 1007.4 331.1 1007.4 310C1007.4 288.6 989.3 277.9 970.5 268.6L955.5 261.2C932.3 249.8 918.8 238.2 918.8 217.7C918.8 195.7 939 180.1 964.8 180.1C979.114 180.1 988.911 185.002 996.074 188.587L996.5 188.8C1000.6 190.9 1003.5 192 1005.2 192C1007.8 192 1009.5 191.2 1010.5 183.8H1013.5L1014.4 225.4L1011.2 225.6C1007.1 199 986.7 183.8 964.3 183.8C943.6 183.8 929.9 195.4 929.9 211.7C929.9 228.3 941.3 238.9 961.8 248.4Z" fill="#FFFBF0"/>
<path d="M868.901 183V186.2C887.701 187.3 890.001 187.5 890.001 203.3V279C890.001 323.6 870.101 338.7 834.301 338.7C801.401 338.7 781.701 319.9 781.701 275.2V203.4C781.701 187.6 784.001 187.4 802.801 186.3V183H746.801V186.2C765.601 187.3 767.901 187.5 767.901 203.3V211.3L768.101 279.7C768.301 324.9 794.901 346.8 831.901 346.8C872.601 346.8 894.401 325.3 894.401 279V203.4C894.401 187.6 896.701 187.4 915.501 186.3V183H868.901Z" fill="#FFFBF0"/>
<path fill-rule="evenodd" clip-rule="evenodd" d="M247.699 263.4C247.699 215.2 285.899 180 335.099 180C384.299 180 422.499 215.1 422.499 263.4C422.499 311.7 384.299 346.8 335.099 346.8C285.899 346.8 247.699 311.6 247.699 263.4ZM263.699 263.4C263.699 307.8 289.699 343 335.099 343C380.499 343 406.499 307.9 406.499 263.4C406.499 219 380.499 183.8 335.099 183.8C289.699 183.8 263.699 218.9 263.699 263.4Z" fill="#FFFBF0"/>
</svg>
