<svg width="985" height="415" viewBox="0 0 985 415" fill="none" xmlns="http://www.w3.org/2000/svg">
<path d="M301.093 115.94H297.673L298.813 166.29H302.233C302.423 159.26 304.323 157.74 306.603 157.74C314.203 157.74 323.513 170.28 349.733 170.28C377.093 170.28 402.933 153.75 402.933 127.15C402.933 101.69 382.603 89.34 361.133 79.27L345.173 71.86C324.653 62.36 313.253 51.72 313.253 35.19C313.253 18.85 326.933 7.25997 347.643 7.25997C370.063 7.25997 390.393 22.46 394.573 49.06L397.803 48.87L396.853 7.25997H393.813C392.863 14.67 391.153 15.43 388.493 15.43C386.783 15.43 383.933 14.29 379.753 12.2C372.533 8.58996 362.653 3.45996 348.023 3.45996C322.183 3.45996 302.043 19.04 302.043 41.08C302.043 61.6 315.533 73.19 338.713 84.59L353.723 92C372.533 101.31 390.583 111.95 390.583 133.42C390.583 154.51 371.203 166.48 349.353 166.48C321.803 166.48 302.423 144.63 301.093 115.94Z" fill="#FFFBF0"/>
<path d="M418.387 134.56C418.387 157.36 440.807 170.09 471.397 170.09C520.797 170.09 543.977 137.03 554.807 121.83L620.357 29.49C631.757 13.53 634.607 10.3 654.937 9.34996V6.49997H605.157V9.34996C630.047 10.11 625.487 14.1 608.387 38.23L549.867 120.69C540.937 133.42 519.847 162.11 476.717 162.11C452.017 162.11 433.967 152.61 433.967 133.42C433.967 121.45 439.667 113.28 443.467 107.96L501.037 26.83C510.537 13.34 513.577 10.11 533.717 9.34996V6.49997H473.677V9.34996C496.097 10.3 494.007 14.29 487.547 23.41L432.257 101.12C425.227 110.81 418.387 122.02 418.387 134.56Z" fill="#FFFBF0"/>
<path d="M555.809 168H615.849V165.15C595.709 164.39 594.569 161.92 602.169 150.9L690.329 26.83C700.019 13.34 702.679 10.11 723.009 9.34996V6.49997H662.969V9.34996C683.109 10.11 684.249 12.58 676.649 23.6L588.489 147.67C578.799 161.16 576.139 164.39 555.809 165.15V168Z" fill="#FFFBF0"/>
<path d="M0.699219 348H60.7392V345.15C40.5992 344.39 39.4592 341.92 47.0592 330.9L135.219 206.83C144.909 193.34 147.569 190.11 167.899 189.35V186.5H107.859V189.35C127.999 190.11 129.139 192.58 121.539 203.6L33.3792 327.67C23.6892 341.16 21.0292 344.39 0.699219 345.15V348Z" fill="#FFFBF0"/>
<path d="M79.6041 348H129.384V345.15C107.344 344.39 106.584 343.63 126.154 316.27L205.574 204.55L223.434 350.09H228.564L327.364 211.01C341.424 191.25 344.654 190.11 363.084 189.35V186.5H313.304V189.35C335.344 190.11 336.104 190.87 316.534 218.23L235.784 331.66L217.924 186.5H186.954V189.35C206.334 190.11 209.184 191.44 196.264 209.68L115.324 323.49C101.264 343.25 98.0341 344.39 79.6041 345.15V348Z" fill="#FFFBF0"/>
<path d="M266.916 295.37H262.546C264.256 329.76 283.066 350.09 316.696 350.09C355.456 350.09 390.416 322.73 390.416 282.45C390.416 263.45 383.766 245.59 383.766 228.87C383.766 197.14 401.626 190.3 432.786 190.3H492.446V186.5H432.786C396.306 186.5 369.896 197.9 369.896 237.8C369.896 254.9 375.596 271.43 375.596 288.34C375.596 321.59 349.376 346.29 316.696 346.29C285.156 346.29 268.626 326.72 266.916 295.37Z" fill="#FFFBF0"/>
<path d="M421.111 348H477.161V344.77C458.351 343.63 456.071 343.44 456.071 327.67V265.73H488.181C519.721 265.73 543.851 251.29 543.851 226.21C543.851 201.32 520.101 186.5 489.701 186.5H432.786L421.111 189.73C439.921 190.87 442.201 191.06 442.201 206.83V327.67C442.201 343.44 439.921 343.63 421.111 344.77V348ZM456.071 190.3H484.761C512.691 190.3 527.891 203.6 527.891 226.21C527.891 248.82 512.311 261.55 485.331 261.74L456.071 261.93V190.3Z" fill="#FFFBF0"/>
<path d="M541.972 348H598.022V344.77C579.212 343.63 576.932 343.44 576.932 327.67V206.83C576.932 191.06 579.212 190.87 598.022 189.73V186.5H541.972V189.73C560.782 190.87 563.062 191.06 563.062 206.83V327.67C563.062 343.44 560.782 343.63 541.972 344.77V348Z" fill="#FFFBF0"/>
<path d="M904.617 344.2V348C904.617 382.01 885.047 409.37 853.887 409.37C822.157 409.37 809.427 382.01 799.927 351.42L782.827 297.08C778.647 283.78 773.707 272.95 768.197 264.59C793.277 260.22 820.257 247.49 820.257 223.55C820.257 213.29 813.987 203.79 803.347 196.57C811.137 192.01 819.877 188.97 830.327 186.88L829.187 183.84C817.787 186.31 808.477 189.73 800.307 194.67C788.527 187.64 772.567 183.46 754.517 183.46C676.617 183.46 595.297 247.49 595.297 306.96C595.297 333.94 611.257 350.09 637.477 350.09C661.037 350.09 688.777 339.64 724.497 290.62L742.357 266.11C744.257 266.3 746.347 266.3 748.437 266.3C752.807 266.3 757.557 265.92 762.307 265.35C765.917 271.62 768.957 279.22 771.427 288.53L789.097 358.64C798.217 394.74 817.597 414.69 850.087 414.69C886.567 414.69 909.177 386.57 909.177 348V344.2H904.617ZM720.697 289.1C684.217 338.88 657.807 346.29 638.237 346.29C614.107 346.29 600.807 332.23 600.807 308.29C600.807 253.19 676.617 195.24 751.097 195.24C767.817 195.24 780.927 197.52 790.617 201.13C780.357 209.11 771.237 219.94 760.787 234.38L751.287 247.3C743.877 242.74 735.707 240.46 726.587 240.46C717.467 240.46 712.147 244.83 712.147 249.2C712.147 257.37 722.597 263.64 737.797 265.54L720.697 289.1ZM813.037 226.4C813.037 247.49 787.957 257.75 765.727 261.17C762.117 256.42 758.507 252.62 754.327 249.58L763.637 236.85C774.847 221.27 784.157 210.44 794.227 202.65C806.957 208.35 813.037 217.09 813.037 226.4ZM749.007 250.53L740.647 261.93C726.777 260.22 719.747 255.09 719.747 250.53C719.747 247.11 723.167 244.83 729.627 244.83C736.657 244.83 743.117 246.73 749.007 250.53ZM749.577 262.31C748.057 262.31 746.537 262.31 745.207 262.12L752.047 252.81C754.897 255.28 757.557 258.13 760.027 261.74C756.417 262.12 752.807 262.31 749.577 262.31Z" fill="#FFFBF0"/>
<path d="M808.924 348H852.434V344.77C833.434 343.82 832.104 342.49 843.124 313.42L851.864 290.24H933.184L948.004 329.19C952.564 341.35 950.474 344.39 931.854 344.77V348H984.864V344.77C969.094 344.01 968.144 342.68 962.444 328.24L910.764 194.86C908.104 188.02 903.734 183.46 896.514 183.46C887.014 183.46 884.164 191.44 883.024 194.48L837.044 315.7C826.784 342.68 825.264 344.01 808.924 344.77V348ZM853.384 286.06L887.774 195.43C888.914 192.39 890.054 190.68 892.334 190.68C895.184 190.68 895.944 193.34 896.894 195.62L931.474 286.06H853.384Z" fill="#FFFBF0"/>
<path d="M178.048 63.864C189.424 63.864 198.352 55.368 198.352 44.784C198.352 34.344 189.424 25.8479 178.048 25.8479C166.6 25.8479 157.672 34.344 157.672 44.784C157.672 55.368 166.6 63.864 178.048 63.864ZM178.048 62.424C169.264 62.424 163.144 55.152 163.144 44.784C163.144 34.56 169.264 27.288 178.048 27.288C186.76 27.288 192.88 34.56 192.88 44.784C192.88 55.152 186.76 62.424 178.048 62.424Z" fill="#FFFBF0"/>
<path d="M227.943 27.216C220.167 27.216 214.047 31.6799 211.599 37.728C213.543 20.2319 224.199 6.47995 241.695 1.72795L241.407 0.647949C221.535 5.18395 206.559 23.04 206.559 41.328C206.559 55.296 215.055 63.864 225.927 63.864C237.087 63.864 245.583 55.296 245.583 44.568C245.583 34.128 237.663 27.216 227.943 27.216ZM225.927 62.352C219.015 62.352 211.815 57.312 211.815 44.784C211.815 35.64 218.079 29.88 226.215 29.88C234.711 29.88 240.255 36.648 240.255 46.008C240.255 54.432 235.647 62.352 225.927 62.352Z" fill="#FFFBF0"/>
</svg>
