<svg width="913" height="256" viewBox="0 0 913 256" fill="none" xmlns="http://www.w3.org/2000/svg">
<path d="M63.2289 54.2674C63.2289 85.5422 85.2731 108.535 117.225 108.535C140.136 108.535 154.625 97.5329 161.808 78.6197L159.331 77.878C152.52 95.0606 140.136 104.826 119.206 104.826C89.6076 104.826 73.6318 80.8448 73.6318 54.2674C73.6318 25.2176 88.2453 2.47232 116.358 2.47232C139.64 2.47232 156.855 17.4298 160.075 34.6124H162.18L161.313 3.95571H159.084C158.588 8.5295 156.978 10.5074 154.625 10.5074C152.52 10.5074 150.91 9.64204 148.557 8.40588C142.365 5.19187 131.714 0 116.605 0C86.14 0 63.2289 22.6217 63.2289 54.2674Z" fill="#FFFBF0"/>
<path d="M360.281 106.557V109.029C360.281 131.156 347.525 148.957 327.215 148.957C306.533 148.957 298.236 131.156 292.043 111.254L280.897 75.9001C278.173 67.247 274.953 60.2009 271.361 54.7618C287.709 51.9187 305.295 43.6364 305.295 28.0608C305.295 21.3855 301.208 15.2048 294.273 10.5074C299.35 7.54058 305.047 5.56273 311.858 4.20295L311.115 2.2251C303.685 3.83211 297.616 6.05719 292.291 9.2712C284.613 4.69742 274.21 1.97786 262.445 1.97786C211.669 1.97786 158.664 43.6364 158.664 82.3282C158.664 99.8816 169.067 110.389 186.157 110.389C201.514 110.389 219.595 103.59 242.877 71.6972L254.519 55.7508C255.757 55.8744 257.119 55.8744 258.482 55.8744C261.33 55.8744 264.426 55.6271 267.522 55.2563C269.875 59.3356 271.857 64.2803 273.467 70.3374L279.226 93.1446L284.984 115.952C290.929 139.439 303.561 152.418 324.738 152.418C348.516 152.418 363.253 134.123 363.253 109.029V106.557H360.281ZM240.401 70.7083C216.623 103.096 199.408 107.917 186.653 107.917C170.924 107.917 162.255 98.7691 162.255 83.1935C162.255 47.3449 211.669 9.64205 260.216 9.64205C271.114 9.64205 279.659 11.1254 285.975 13.4741C279.287 18.666 273.343 25.7121 266.532 35.1069L260.339 43.5128C255.509 40.546 250.184 39.0626 244.24 39.0626C238.295 39.0626 234.828 41.9058 234.828 44.7489C234.828 50.0644 241.639 54.1438 251.546 55.3799L240.401 70.7083ZM300.589 29.915C300.589 43.6364 284.241 50.3117 269.751 52.5367C267.398 49.4464 265.045 46.974 262.321 44.9962L268.389 36.7139C275.696 26.5774 281.764 19.5313 288.328 14.4631C296.626 18.1715 300.589 23.8579 300.589 29.915ZM258.853 45.6143L253.404 53.0312C244.364 51.9187 239.781 48.581 239.781 45.6143C239.781 43.3892 242.01 41.9058 246.221 41.9058C250.803 41.9058 255.014 43.1419 258.853 45.6143ZM259.225 53.2784C258.234 53.2784 257.243 53.2784 256.376 53.1548L260.835 47.0977C262.692 48.7047 264.426 50.5589 266.036 52.9076C263.683 53.1548 261.33 53.2784 259.225 53.2784Z" fill="#FFFBF0"/>
<path d="M322.416 107.051H401.8L406.01 75.9001H403.781C397.961 103.466 393.254 104.579 357.216 104.579H355.606C346.07 104.579 345.203 102.354 345.203 93.8244V52.4131H383.347V49.9408H345.203V4.45017H372.696C389.291 4.45017 393.502 11.2491 397.713 30.6567H399.942L396.103 1.97786H322.416V4.07932C334.677 4.82102 336.163 4.94465 336.163 15.2048V93.8244C336.163 104.085 334.677 104.208 322.416 104.95V107.051Z" fill="#FFFBF0"/>
<path d="M406.542 107.051H434.902V104.95C422.517 104.332 421.651 103.466 428.833 84.5532L434.53 69.4721H487.535L497.195 94.8134C500.167 102.725 498.805 104.703 486.668 104.95V107.051H521.221V104.95C510.942 104.455 510.322 103.59 506.607 94.1953L472.922 7.41695C471.188 2.96678 468.339 0 463.633 0C457.441 0 455.584 5.19187 454.841 7.16973L424.87 86.0366C418.183 103.59 417.192 104.455 406.542 104.95V107.051ZM435.521 66.7526L457.937 7.7878C458.68 5.80994 459.423 4.6974 460.909 4.6974C462.767 4.6974 463.262 6.42803 463.881 7.91141L475.151 37.332L486.421 66.7526H435.521Z" fill="#FFFBF0"/>
<path d="M502.506 30.6567H504.735C508.945 11.2491 513.156 4.45017 529.751 4.45017H547.089V49.1373V93.8244C547.089 104.085 545.603 104.208 533.343 104.95V107.051H569.876V104.95C557.616 104.208 556.13 104.085 556.13 93.8244V4.45017H573.468C590.063 4.45017 594.273 11.2491 598.484 30.6567H600.713L596.874 1.97786H506.345L502.506 30.6567Z" fill="#FFFBF0"/>
<path d="M608.477 107.051H645.011V104.95C632.751 104.208 631.264 104.085 631.264 93.8244V15.2048C631.264 4.94465 632.751 4.82102 645.011 4.07932V1.97786H608.477V4.07932C620.738 4.82102 622.224 4.94465 622.224 15.2048V54.5146V93.8244C622.224 104.085 620.738 104.208 608.477 104.95V107.051Z" fill="#FFFBF0"/>
<path d="M745.608 22.9926C752.172 5.43911 753.286 4.57379 763.937 4.07932V1.97786H735.577V4.07932C747.961 4.6974 748.704 5.56271 741.645 24.4759L713.409 100.747C712.666 102.725 711.923 103.837 710.437 103.837C708.951 103.837 708.331 102.848 707.464 100.623L675.017 14.2158C671.55 5.06825 674.894 4.45017 685.544 4.07932V1.97786H650.992V4.07932C661.271 4.57379 662.014 5.4391 665.605 14.8339L698.424 101.118C700.281 106.062 703.378 108.535 707.836 108.535C712.294 108.535 714.771 105.939 716.505 101.365L745.608 22.9926Z" fill="#FFFBF0"/>
<path d="M770.839 107.051H850.223L854.434 75.9001H852.205C846.384 103.466 841.678 104.579 805.639 104.579H804.029C794.494 104.579 793.627 102.354 793.627 93.8244V52.4131H831.77V49.9408H793.627V4.45017H821.12C837.715 4.45017 841.926 11.2491 846.136 30.6567H848.365L844.526 1.97786H770.839V4.07932C783.1 4.82102 784.586 4.94465 784.586 15.2048V54.5146V93.8244C784.586 104.085 783.1 104.208 770.839 104.95V107.051Z" fill="#FFFBF0"/>
<path d="M70.7207 254.878H99.0809V252.776C86.6966 252.158 85.8296 251.293 93.0126 232.38L98.7094 217.299H151.714L161.374 242.64C164.346 250.551 162.984 252.529 150.847 252.776V254.878H185.4V252.776C175.121 252.282 174.502 251.416 170.786 242.022L137.101 155.243C135.367 150.793 132.519 147.826 127.813 147.826C121.62 147.826 119.763 153.018 119.02 154.996L89.0496 233.863C82.362 251.416 81.3713 252.282 70.7207 252.776V254.878ZM99.7001 214.579L122.116 155.614C122.859 153.636 123.602 152.524 125.088 152.524C126.946 152.524 127.441 154.254 128.06 155.738L150.6 214.579H99.7001Z" fill="#FFFBF0"/>
<path d="M195.472 254.878H225.814V252.776C213.553 252.035 212.067 251.911 212.067 241.651V159.941L288.85 254.878H291.699V163.031C291.699 152.771 293.185 152.647 305.445 151.906V149.804H275.103V151.906C287.364 152.647 288.85 152.771 288.85 163.031V239.797L216.03 149.804H195.472V151.906C207.733 152.647 209.219 152.771 209.219 163.031V241.651C209.219 251.911 207.733 252.035 195.472 252.776V254.878Z" fill="#FFFBF0"/>
<path d="M313.419 254.878H360.356C393.793 254.878 418.81 233.245 418.81 202.341C418.81 171.561 393.793 149.804 360.356 149.804H313.419V151.906C325.679 152.647 327.165 152.771 327.165 163.031V241.651C327.165 251.911 325.679 252.035 313.419 252.776V254.878ZM336.206 252.405V152.277H359.736C389.211 152.277 408.407 172.92 408.407 202.341C408.407 231.762 389.211 252.405 359.736 252.405H336.206Z" fill="#FFFBF0"/>
<path d="M430.599 220.646H428.37L429.113 253.404H431.342C431.466 248.83 432.704 247.841 434.191 247.841C439.144 247.841 445.213 256 462.303 256C480.136 256 496.979 245.245 496.979 227.939C496.979 211.375 483.728 203.34 469.734 196.788L459.331 191.967C445.956 185.786 438.525 178.864 438.525 168.109C438.525 157.478 447.442 149.938 460.941 149.938C475.554 149.938 488.806 159.827 491.53 177.133L493.635 177.009L493.016 149.938H491.035C490.415 154.759 489.301 155.253 487.567 155.253C486.453 155.253 484.595 154.511 481.87 153.152C477.164 150.803 470.724 147.465 461.188 147.465C444.346 147.465 431.218 157.602 431.218 171.941C431.218 185.292 440.011 192.832 455.12 200.249L464.904 205.07C477.164 211.127 488.929 218.05 488.929 232.019C488.929 245.74 476.297 253.528 462.055 253.528C444.098 253.528 431.466 239.312 430.599 220.646Z" fill="#FFFBF0"/>
<path d="M555.42 167.986C567.681 179.111 585.391 185.786 605.082 185.786C626.135 185.786 640.749 177.38 640.749 166.873C640.749 156.242 628.612 147.465 605.701 147.465C586.877 147.465 568.796 152.904 553.81 161.681C546.751 153.152 542.788 142.892 542.788 131.89C542.788 116.314 555.108 107.785 566.749 107.785C577.895 107.785 585.019 113.471 593.564 128.923L595.917 127.687C587.496 112.482 579.505 105.189 566.625 105.189C551.764 105.189 538.33 116.19 538.33 130.901C538.33 143.386 543.036 154.511 550.838 163.412C528.794 177.257 513.809 198.271 513.809 219.41C513.809 238.694 527.06 255.876 557.526 255.876C584.524 255.876 612.265 239.559 612.265 218.174C612.265 203.834 599.385 196.912 586.505 196.912C572.016 196.912 553.068 204.947 541.674 226.827L544.027 227.939C555.544 205.688 573.625 199.508 586.381 199.508C597.527 199.508 609.168 205.194 609.168 218.297C609.168 238.447 582.542 253.404 557.773 253.404C529.042 253.404 518.268 236.84 518.268 220.646C518.268 200.867 533.129 180.718 555.42 167.986ZM636.29 168.356C636.29 177.009 621.677 183.314 605.329 183.314C585.762 183.314 569.415 176.762 558.269 166.502C571.644 159.456 587.496 155.129 604.339 155.129C624.277 155.129 636.29 160.816 636.29 168.356Z" fill="#FFFBF0"/>
<path d="M621.405 254.878H649.765V252.776C637.38 252.158 636.513 251.293 643.696 232.38L649.393 217.299H702.398L712.058 242.64C715.03 250.551 713.668 252.529 701.531 252.776V254.878H736.084V252.776C725.805 252.282 725.186 251.416 721.47 242.022L705.633 198.633L687.785 155.243C686.051 150.793 683.203 147.826 678.496 147.826C672.304 147.826 670.447 153.018 669.704 154.996L639.733 233.863C633.046 251.416 632.055 252.282 621.405 252.776V254.878ZM650.384 214.579L672.8 155.614C673.543 153.636 674.286 152.524 675.772 152.524C677.63 152.524 678.125 154.254 678.744 155.738L701.284 214.579H650.384Z" fill="#FFFBF0"/>
<path d="M744.348 254.878H780.882V252.776C768.622 252.035 767.136 251.911 767.136 241.651V201.352H788.065C808.623 201.352 824.351 191.957 824.351 175.64C824.351 159.446 808.871 149.804 789.056 149.804H744.348V151.906C756.609 152.647 758.095 152.771 758.095 163.031V241.651C758.095 251.911 756.609 252.035 744.348 252.776V254.878ZM767.136 152.277H785.836C804.041 152.277 813.948 160.93 813.948 175.64C813.948 190.35 803.793 198.633 786.208 198.756L767.136 198.88V152.277Z" fill="#FFFBF0"/>
<path d="M829.406 254.878H908.789L913 223.727H910.771C904.95 251.293 900.244 252.405 864.206 252.405H862.596C853.06 252.405 852.193 250.18 852.193 241.651V200.24H890.336V197.767H852.193V152.277H879.686C896.281 152.277 900.492 159.075 904.702 178.483H906.932L903.092 149.804H829.406V151.906C841.666 152.647 843.152 152.771 843.152 163.031V241.651C843.152 251.911 841.666 252.035 829.406 252.776V254.878Z" fill="#FFFBF0"/>
<path d="M0 254.878H80.5128L96.096 223.264H92.8495C81.8114 253.577 80.414 252.369 43.4464 252.369H34.0458C24.264 252.369 23.3747 250.111 23.3747 241.455V161.668C23.3747 151.256 24.8991 151.131 37.4757 150.378V148.245H0V150.378C12.5766 151.131 14.101 151.256 14.101 161.668V241.455C14.101 251.867 12.5766 251.992 0 252.745V254.878Z" fill="#FFFBF0"/>
</svg>
