<?xml version="1.0" standalone="no"?>
<!DOCTYPE svg PUBLIC "-//W3C//DTD SVG 1.1//EN" "http://www.w3.org/Graphics/SVG/1.1/DTD/svg11.dtd" >
<svg xmlns="http://www.w3.org/2000/svg" xmlns:xlink="http://www.w3.org/1999/xlink" version="1.1">
<metadata></metadata>
<defs>
<font id="millionaireroman" horiz-adv-x="2105" >
<font-face units-per-em="2048" ascent="1638" descent="-410" />
<missing-glyph horiz-adv-x="585" />
<glyph horiz-adv-x="0" />
<glyph horiz-adv-x="682" />
<glyph unicode=" "  horiz-adv-x="585" />
<glyph unicode="&#x09;" horiz-adv-x="585" />
<glyph unicode="&#xa0;" horiz-adv-x="585" />
<glyph unicode="!" horiz-adv-x="573" d="M166 96q0 51 35 86t86 35t86 -35t35 -86t-35 -86t-86 -35t-86 35t-35 86zM217 1741h162l-66 -1313h-30z" />
<glyph unicode="&#x22;" horiz-adv-x="716" d="M139 1501h162l-68 -579h-26zM416 1501h162l-68 -579h-27z" />
<glyph unicode="#" horiz-adv-x="1468" d="M119 555l24 70h230l168 491h-228l25 70h227l191 555h78l-191 -555h422l190 555h78l-190 -555h243l-24 -70h-244l-168 -491h242l-25 -70h-241l-197 -575h-78l197 575h-422l-197 -575h-77l196 575h-229zM451 625h421l168 491h-422z" />
<glyph unicode="$" horiz-adv-x="983" d="M125 555q0 36 23 60t61 24q21 0 33 -4q10 -129 80.5 -195.5t187.5 -66.5q100 0 164.5 54.5t64.5 135.5q0 46 -16.5 84t-48.5 66t-62.5 46.5t-72.5 37.5l-105 47q-134 61 -198 135t-64 172q0 103 82.5 177.5t210.5 84.5v328h74v-328q132 -7 219.5 -68t87.5 -133 q0 -33 -21.5 -55t-56.5 -22q-21 0 -33 4q-9 121 -72 179t-171 58q-87 0 -145 -47.5t-58 -128.5q0 -76 48.5 -133t164.5 -102l35 -15q162 -63 239.5 -134.5t77.5 -192.5q0 -123 -93.5 -200t-221.5 -87v-348h-74v348q-143 9 -241.5 76t-98.5 143z" />
<glyph unicode="%" horiz-adv-x="2095" d="M111 1257q0 226 99.5 362t266.5 136t267 -136t100 -362q0 -228 -99.5 -364.5t-267.5 -136.5t-267 136t-99 365zM225 1257q0 -225 63 -348t189 -123t189 123t63 348q0 224 -63 345.5t-189 121.5t-189 -121.5t-63 -345.5zM375 0l1263 1741h82l-1263 -1741h-82zM1253 477 q0 226 100 362t267 136t267 -136t100 -362q0 -228 -99.5 -365t-267.5 -137t-267.5 136.5t-99.5 365.5zM1368 477q0 -225 63 -348t189 -123t189 123t63 348q0 224 -63 345.5t-189 121.5t-189 -121.5t-63 -345.5z" />
<glyph unicode="&#x26;" horiz-adv-x="2064" d="M137 655q0 159 59 302.5t157 245t227.5 161t267.5 59.5q89 0 159.5 -25t104.5 -57q143 107 143 222q0 27 -6 68t-6 61q0 39 21.5 60.5t52.5 21.5q37 0 56.5 -25.5t19.5 -69.5q0 -21 -7 -53q-22 -97 -95.5 -179.5t-192.5 -164.5l-826 -559v-4q0 -184 76.5 -334.5t217 -239 t317.5 -88.5q149 0 270.5 55.5t201.5 151.5t123.5 224t43.5 274q0 72 -17 166l-184 110q-43 26 -75.5 37.5t-76.5 11.5q-54 0 -86 -28.5t-32 -77.5q0 -28 16.5 -53.5t36.5 -41.5t36.5 -39t16.5 -48q0 -33 -21 -52.5t-51 -19.5q-50 0 -81 45t-31 121q0 111 76.5 188.5 t212.5 77.5q112 0 231 -72l170 -102q43 -26 75.5 -37.5t76.5 -11.5q54 0 86 28.5t32 77.5q0 23 -11 43.5t-26.5 36t-31 30.5t-26.5 34t-11 39q0 33 20.5 52t50.5 19q50 0 81.5 -45t31.5 -121q0 -111 -76.5 -188.5t-212.5 -77.5q-86 0 -172 41q13 -76 13 -143 q0 -158 -48 -299.5t-137.5 -250.5t-228.5 -173t-309 -64q-154 0 -287 55.5t-223.5 148.5t-141.5 217t-51 259zM274 772l715 485q-28 64 -72 92.5t-118 28.5q-134 0 -250.5 -79.5t-190 -219t-84.5 -307.5z" />
<glyph unicode="'" horiz-adv-x="440" d="M139 1501h162l-68 -579h-26z" />
<glyph unicode="(" horiz-adv-x="817" d="M145 526q0 319 156.5 645t448.5 607l26 -25q-239 -245 -360 -564.5t-121 -662.5q0 -340 119.5 -652t361.5 -574l-26 -25q-296 299 -450.5 617t-154.5 634z" />
<glyph unicode=")" horiz-adv-x="817" d="M41 -700q239 245 360 564t121 662q0 340 -120 652.5t-361 574.5l27 25q296 -299 450 -617t154 -635q0 -319 -156 -645t-448 -606z" />
<glyph unicode="*" horiz-adv-x="933" d="M98 1135q-26 50 19 73q14 8 49 22.5t114.5 47.5t165.5 70q-86 37 -165.5 70t-115 47t-48.5 22q-46 25 -19 74q26 48 74 22q14 -8 44 -31.5t98 -76.5t143 -109q-11 92 -23 178t-17 123t-5 53q0 54 57 54q53 0 53 -54q0 -15 -5 -53t-16.5 -123t-21.5 -178q70 53 141.5 109 t100 78t43.5 30q47 29 72 -22q27 -50 -17 -74q-14 -7 -49.5 -22t-115.5 -47t-167 -70q85 -37 166.5 -70t116.5 -47t49 -23q44 -24 17 -73t-72 -23q-14 8 -44 31t-99 77t-142 109q10 -92 21.5 -177.5t16.5 -123t5 -53.5q0 -53 -53 -53q-57 0 -57 53q0 15 5.5 53.5t17 123 t22.5 179.5q-72 -55 -142.5 -111t-99.5 -78t-43 -30q-47 -26 -74 23z" />
<glyph unicode="+" horiz-adv-x="1220" d="M160 532v70h413v422h74v-422h414v-70h-414v-430h-74v430h-413z" />
<glyph unicode="," horiz-adv-x="518" d="M111 -344q192 113 192 240q0 60 -41 87t-86 27h-16q-37 32 -37 86q0 51 35 86t86 35q72 0 112.5 -67t40.5 -156q0 -108 -70.5 -204.5t-197.5 -166.5z" />
<glyph unicode="-" horiz-adv-x="911" d="M160 481l18 117h574l-19 -117h-573z" />
<glyph unicode="." horiz-adv-x="487" d="M123 96q0 51 35 86t86 35t86 -35t35 -86t-35 -86t-86 -35t-86 35t-35 86z" />
<glyph unicode="/" horiz-adv-x="1132" d="M43 -205l954 1946h84l-954 -1946h-84z" />
<glyph unicode="0" horiz-adv-x="1427" d="M135 877q0 215 44.5 386.5t123.5 282.5t184 169.5t228 58.5q122 0 227 -58.5t183 -169.5t122.5 -282.5t44.5 -386.5q0 -216 -44.5 -389t-122.5 -284t-183 -170t-227 -59q-123 0 -228 59t-184 170t-123.5 284t-44.5 389zM291 877q0 -424 108.5 -641.5t315.5 -217.5 q205 0 313.5 217.5t108.5 641.5q0 421 -108.5 637.5t-313.5 216.5q-207 0 -315.5 -216.5t-108.5 -637.5z" />
<glyph unicode="1" horiz-adv-x="819" d="M72 1622q0 28 12 43q110 -17 235 16t207 93h6v-1733l222 -2v-39h-576v39l221 2v1626q-78 -54 -132.5 -80t-110.5 -26q-40 0 -62 18t-22 43z" />
<glyph unicode="2" horiz-adv-x="1232" d="M104 0l2 10q183 195 309.5 339t234.5 284t170.5 252t97 219t34.5 207q0 183 -92 301.5t-260 118.5q-75 0 -136.5 -20t-102 -54t-68 -78t-39 -94.5t-10.5 -101.5t14 -99q-24 -37 -70 -37q-27 0 -47 16t-28 42q-11 28 -7.5 62.5t12 72.5t31.5 78t51.5 77t71.5 69.5t91.5 57 t112.5 38.5t134 14q101 0 190.5 -28.5t159 -83.5t110 -143t40.5 -198q0 -68 -22 -143.5t-60.5 -149t-94.5 -155t-119 -158.5t-140.5 -162.5t-152.5 -164.5t-160 -167q-65 -67 -97 -100h866l-53 -121h-973z" />
<glyph unicode="3" horiz-adv-x="1259" d="M92 319q0 36 24.5 62.5t63.5 26.5q22 0 37 -5q13 -387 334 -387q129 0 234.5 74.5t164 201t58.5 277.5q0 234 -124 373t-321 139q-67 0 -108.5 -15t-77.5 -46q-15 -13 -36 -46t-34 -44q-20 -17 -37 -17t-27 8.5t-10 22.5q0 19 25 38t78.5 57t99.5 87l465 494h-735l45 121 h856v-12l-598 -623q67 37 164 37q230 0 379 -152t149 -389q0 -127 -51 -244t-135 -200.5t-196.5 -133t-231.5 -49.5q-108 0 -197.5 32.5t-144 83.5t-84 110.5t-29.5 117.5z" />
<glyph unicode="4" horiz-adv-x="1386" d="M33 537v14l915 1223h13l-3 -1121h336l-51 -116h-285v-537h-129l2 537h-798zM172 653h659v877z" />
<glyph unicode="5" horiz-adv-x="1255" d="M106 319q0 36 25 62.5t64 26.5q21 0 36 -5q6 -184 89.5 -285.5t248.5 -101.5q131 0 233.5 74t156 194t53.5 261q0 115 -37.5 211t-100.5 159t-146 97.5t-175 34.5q-161 0 -248 -74q-21 -17 -34.5 -54.5t-16.5 -41.5q-17 -25 -43 -25q-13 0 -23 9t-10 22q0 19 28 49t36 43 q44 71 75 418l29 348h754l-17 -121h-696l-16 -184q-21 -275 -74 -430q53 47 137 76.5t178 29.5q115 0 216 -36.5t176 -103.5t118 -167.5t43 -222.5q0 -126 -48.5 -239t-130 -193.5t-193 -127.5t-232.5 -47q-106 0 -195 32.5t-144 83.5t-85.5 110.5t-30.5 117.5z" />
<glyph unicode="6" horiz-adv-x="1331" d="M129 616q0 192 76 381.5t207 344t315.5 269.5t392.5 163l8 -31q-368 -100 -591 -372t-265 -652q54 133 178.5 216t286.5 83q138 0 252 -60.5t182 -174.5t68 -259q0 -113 -43 -214.5t-117 -175t-178 -116.5t-221 -43q-116 0 -216.5 45t-175 126t-117 202.5t-42.5 267.5z M279 518q0 -128 34.5 -227.5t92.5 -157t127.5 -86.5t146.5 -29q100 0 179.5 38.5t128 104.5t74 148t25.5 174q0 202 -109.5 330.5t-289.5 128.5q-177 0 -293 -116.5t-116 -307.5z" />
<glyph unicode="7" horiz-adv-x="1118" d="M92 1620l45 121h953v-12l-748 -1682q-33 -72 -94 -72q-27 0 -49.5 14t-32.5 38l833 1593h-907z" />
<glyph unicode="8" horiz-adv-x="1331" d="M100 502q0 183 121 325t309 185q-132 39 -213 137t-81 229q0 165 125 280.5t307 115.5q180 0 305 -116t125 -280q0 -132 -82 -232t-213 -134q188 -43 309 -185t121 -325q0 -144 -75.5 -265.5t-205.5 -191.5t-284 -70q-155 0 -285.5 70t-206.5 191.5t-76 265.5zM256 502 q0 -216 113.5 -351t298.5 -135q184 0 296.5 135t112.5 351q0 215 -112.5 349t-296.5 134q-185 0 -298.5 -134t-113.5 -349zM393 1378q0 -161 72.5 -256.5t202.5 -95.5q129 0 200.5 95.5t71.5 256.5q0 158 -72 256.5t-200 98.5t-201.5 -99t-73.5 -256z" />
<glyph unicode="9" horiz-adv-x="1331" d="M92 1225q0 113 43 214.5t117 175t178 116.5t221 43q116 0 216.5 -45t175 -126t117 -202.5t42.5 -267.5q0 -192 -76 -381.5t-207 -344t-315.5 -269.5t-392.5 -163l-8 31q368 100 591 372t265 652q-54 -133 -178.5 -216t-286.5 -83q-138 0 -252 60.5t-182 174.5t-68 259z M244 1266q0 -202 109.5 -330.5t289.5 -128.5q177 0 293.5 116.5t116.5 307.5q0 103 -23 188t-61.5 142t-91 96t-109 56.5t-117.5 17.5q-100 0 -179.5 -38.5t-128 -104.5t-74 -148t-25.5 -174z" />
<glyph unicode=":" horiz-adv-x="610" d="M184 96q0 51 35 86t86 35t86 -35t35 -86t-35 -86t-86 -35t-86 35t-35 86zM184 936q0 51 35 86t86 35t86 -35t35 -86t-35 -86t-86 -35t-86 35t-35 86z" />
<glyph unicode=";" horiz-adv-x="641" d="M172 -344q193 114 193 240q0 60 -41 87t-86 27h-17q-37 32 -37 86q0 51 35 86t86 35q72 0 113 -67t41 -156q0 -108 -71 -204.5t-198 -166.5zM184 936q0 51 35 86t86 35t86 -35t35 -86t-35 -86t-86 -35t-86 35t-35 86z" />
<glyph unicode="&#x3c;" horiz-adv-x="1218" d="M160 471v107l884 409v-82l-823 -381l823 -381v-82z" />
<glyph unicode="=" horiz-adv-x="1249" d="M174 309v70h901v-70h-901zM174 754v69h901v-69h-901z" />
<glyph unicode="&#x3e;" horiz-adv-x="1218" d="M174 61v82l823 381l-823 381v82l885 -409v-107z" />
<glyph unicode="?" horiz-adv-x="937" d="M68 1530q0 89 104.5 165.5t265.5 76.5q189 0 316 -135t127 -357q0 -108 -32 -203t-84 -159t-119.5 -101t-137.5 -37q-63 0 -113.5 25.5t-77.5 66.5v-444h-47v551h29q23 -61 71.5 -99t116.5 -38q109 0 179.5 124t70.5 308q0 212 -79.5 334.5t-223.5 122.5 q-113 0 -178.5 -73.5t-69.5 -209.5q-12 -4 -34 -4q-39 0 -61.5 24.5t-22.5 61.5zM182 96q0 51 35 86t86 35t86 -35t35 -86t-35 -86t-86 -35t-86 35t-35 86z" />
<glyph unicode="@" horiz-adv-x="2134" d="M145 590q0 144 45.5 290.5t126 276.5t196.5 244t251 196t295.5 129.5t324.5 47.5q138 0 260 -38.5t214.5 -110t146 -180.5t53.5 -241q0 -119 -39.5 -227t-104 -187t-144.5 -144t-163.5 -104.5t-158 -61t-131.5 -21.5q-106 0 -169 33.5t-63 87.5q0 63 68 163h-2 q-125 -132 -248.5 -209t-224.5 -77q-94 0 -149.5 44t-55.5 117q0 57 41 139.5t109.5 170.5t162 175.5t193 156.5t209.5 112t205 43q73 0 123.5 -23.5t70.5 -58.5l39 53h135l-444 -589q-107 -142 -107 -215q0 -82 113 -82q52 0 118 23.5t135.5 66t135.5 108t118.5 142 t84 175.5t31.5 202q0 166 -76.5 285.5t-206 177t-297.5 57.5q-131 0 -265 -36.5t-257 -103.5t-230.5 -166t-186.5 -218t-125 -267.5t-46 -306.5q0 -120 33.5 -220.5t90 -169.5t132 -117t159 -70.5t171.5 -22.5q164 0 302 62.5t273 197.5l31 -25q-276 -299 -653 -299 q-137 0 -254 39t-206 114t-139.5 193.5t-50.5 268.5zM614 614q0 -112 93 -112q149 0 438 289q130 130 248 286l114 152q-13 9 -24 45q-2 7 -5 17t-4.5 15.5t-4.5 12t-7 12.5q-28 39 -96 39q-99 0 -209.5 -55.5t-204.5 -143t-171.5 -188.5t-122 -200t-44.5 -169z" />
<glyph unicode="A" horiz-adv-x="1847" d="M-25 0v35q38 2 59.5 3.5t46.5 8t38.5 13.5t32 25.5t29.5 37t28.5 55t32 73t37.5 97.5l495 1307q43 119 146 119q105 0 153 -123l557 -1438q18 -45 27.5 -67.5t25 -46t27.5 -32t37.5 -17t51.5 -11t73 -4.5v-35h-572v35q148 3 181 37q15 15 15 44q0 34 -21 87l-160 420 h-877l-94 -250q-24 -64 -38.5 -104.5t-24 -78.5t-12.5 -59t4 -40t17.5 -27.5t35.5 -15.5t49.5 -9t68.5 -4v-35h-469zM455 668h841l-372 974q-1 2 -2 5q-5 12 -8 18.5t-8.5 14.5t-13.5 12t-18 4q-18 0 -28.5 -12t-20.5 -39z" />
<glyph unicode="B" horiz-adv-x="1640" d="M119 0v35q47 3 68.5 4.5t52 5.5t41.5 8.5t27 14.5t20 21t10 31t7 42.5t1 56.5v1303q0 34 -1 56.5t-7 42.5t-10 31t-20 21t-27 14.5t-41.5 8.5t-52 5.5t-68.5 4.5v35h739q165 0 300 -50t216.5 -149t81.5 -229q0 -151 -112.5 -257t-303.5 -147q213 -36 336 -152t123 -292 q0 -143 -90.5 -250t-241.5 -161t-338 -54h-710zM496 39l325 2q254 1 380 111t126 313t-121.5 312.5t-363.5 109.5h-346v-848zM496 928l350 2q216 1 327 99.5t111 283.5q0 184 -111.5 285.5t-332.5 101.5h-344v-772z" />
<glyph unicode="C" horiz-adv-x="1900" d="M111 874q0 258 115 464t316.5 321t450.5 115q88 0 170.5 -13.5t152.5 -38t112.5 -43t93.5 -45.5q60 -31 85 -34q7 -1 15 -1q63 0 74 109h37l14 -508h-35q-20 107 -82 203.5t-154.5 170t-219 116.5t-267.5 43q-170 0 -305.5 -66.5t-222.5 -183t-132.5 -272t-45.5 -337.5 q0 -133 31 -256t94 -229t151.5 -184.5t211 -123t265.5 -44.5q253 0 415 113t249 333l41 -12q-189 -496 -737 -496q-195 0 -362 68t-283 187t-182 285.5t-66 358.5z" />
<glyph unicode="D" horiz-adv-x="1972" d="M119 0v35q47 3 68.5 4.5t52 5.5t41.5 8.5t27 14.5t20 21t10 31t7 42.5t1 56.5v1303q0 34 -1 56.5t-7 42.5t-10 31t-20 21t-27 14.5t-41.5 8.5t-52 5.5t-68.5 4.5v35h776q274 0 494.5 -110.5t346.5 -310t126 -450.5q0 -252 -126 -451t-346.5 -309t-494.5 -110h-776z M496 41h389q240 0 423.5 105.5t282.5 293.5t99 430t-99 430.5t-282.5 294t-423.5 105.5h-389v-1659z" />
<glyph unicode="E" horiz-adv-x="1585" d="M119 0v35q47 3 68.5 4.5t52 5.5t41.5 8.5t27 14.5t20 21t10 31t7 42.5t1 56.5v1303q0 34 -1 56.5t-7 42.5t-10 31t-20 21t-27 14.5t-41.5 8.5t-52 5.5t-68.5 4.5v35h1218l64 -475h-37q-19 86 -36 144.5t-41.5 110.5t-53 83.5t-69.5 54t-93 32t-121 9.5h-454v-754h630v-41 h-630v-686q0 -59 4.5 -88.5t22.5 -52.5t51.5 -30t93.5 -7h26q103 0 164.5 0.5t134.5 5t113 10.5t88.5 20t73 30t55 44.5t46 60t35 80t32.5 100t28 124.5h37l-69 -516h-1313z" />
<glyph unicode="F" horiz-adv-x="1599" d="M113 0v35q47 3 68.5 4.5t52 5.5t41.5 8.5t27 14.5t20 21t10 31t7 42.5t1 56.5v1303q0 34 -1 56.5t-7 42.5t-10 31t-20 21t-27 14.5t-41.5 8.5t-52 5.5t-68.5 4.5v35h1368l63 -475h-37q-19 86 -36 144.5t-41 110.5t-53 83.5t-70 54t-92.5 32t-120.5 9.5h-605v-754h793v-41 h-793v-686q0 -123 35 -149t193 -35v-35h-604z" />
<glyph unicode="G" horiz-adv-x="2045" d="M111 872q0 195 67 363t184 286.5t280.5 185.5t350.5 67q88 0 170.5 -13.5t152.5 -38t112.5 -43t93.5 -45.5q60 -31 85 -34q7 -1 15 -1q63 0 74 109h37l14 -508h-35q-20 107 -82 203.5t-154.5 170t-219 116.5t-267.5 43q-169 0 -304.5 -66.5t-222.5 -184t-133 -273 t-46 -337.5q0 -172 51.5 -327t144.5 -272t233 -186t308 -69q192 0 375 105t231 239q25 71 25 166q0 27 -0.5 46t-4 37t-6 29.5t-12 22.5t-15 17t-23 11.5t-28.5 8t-37.5 5.5t-45 4.5t-56.5 3.5v35h605v-35q-38 -2 -56.5 -3.5t-45 -4.5t-37.5 -5.5t-28.5 -8t-23 -11.5 t-15 -17t-12 -22.5t-6 -29.5t-4 -37t-0.5 -46v-249q-47 -22 -120 -66t-138 -81.5t-146.5 -75t-182 -59.5t-209.5 -22q-189 0 -355.5 70t-284 190t-185.5 285.5t-68 351.5z" />
<glyph unicode="H" horiz-adv-x="2179" d="M119 0v35q47 3 68.5 4.5t52 5.5t41.5 8.5t27 14.5t20 21t10 31t7 42.5t1 56.5v1303q0 34 -1 56.5t-7 42.5t-10 31t-20 21t-27 14.5t-41.5 8.5t-52 5.5t-68.5 4.5v35h604v-35q-47 -3 -68.5 -4.5t-52 -5.5t-41.5 -8.5t-27 -14.5t-20 -21t-10 -31t-7 -42.5t-1 -56.5v-615 h1187v615q0 34 -1 56.5t-7 42.5t-10 31t-20 21t-27 14.5t-41.5 8.5t-52 5.5t-68.5 4.5v35h604v-35q-47 -3 -68.5 -4.5t-52 -5.5t-41.5 -8.5t-27 -14.5t-20 -21t-10 -31t-7 -42.5t-1 -56.5v-1303q0 -34 1 -56.5t7 -42.5t10 -31t20 -21t27 -14.5t41.5 -8.5t52 -5.5t68.5 -4.5 v-35h-604v35q47 3 68.5 4.5t52 5.5t41.5 8.5t27 14.5t20 21t10 31t7 42.5t1 56.5v647h-1187v-647q0 -34 1 -56.5t7 -42.5t10 -31t20 -21t27 -14.5t41.5 -8.5t52 -5.5t68.5 -4.5v-35h-604z" />
<glyph unicode="I" horiz-adv-x="841" d="M119 0v35q47 3 68.5 4.5t52 5.5t41.5 8.5t27 14.5t20 21t10 31t7 42.5t1 56.5v1303q0 34 -1 56.5t-7 42.5t-10 31t-20 21t-27 14.5t-41.5 8.5t-52 5.5t-68.5 4.5v35h604v-35q-47 -3 -68.5 -4.5t-52 -5.5t-41.5 -8.5t-27 -14.5t-20 -21t-10 -31t-7 -42.5t-1 -56.5v-1303 q0 -34 1 -56.5t7 -42.5t10 -31t20 -21t27 -14.5t41.5 -8.5t52 -5.5t68.5 -4.5v-35h-604z" />
<glyph unicode="J" horiz-adv-x="817" d="M-346 -264l145 6q3 -126 72 -191t172 -65q141 0 216 105.5t75 320.5v1610q0 123 -35 149t-193 35v35h605v-35q-158 -9 -193 -35t-35 -149v-1596q0 -125 -39 -221t-104 -151t-142 -82t-161 -27q-71 0 -136.5 16.5t-122 49.5t-90.5 91t-34 134z" />
<glyph unicode="K" horiz-adv-x="1906" d="M113 0v35q47 3 68.5 4.5t52 5.5t41.5 8.5t27 14.5t20 21t10 31t7 42.5t1 56.5v1303q0 34 -1 56.5t-7 42.5t-10 31t-20 21t-27 14.5t-41.5 8.5t-52 5.5t-68.5 4.5v35h604v-35q-158 -9 -193 -35t-35 -149v-584h230l465 492q89 93 116 135.5t27 72.5q0 37 -41.5 51 t-130.5 17v35h512v-35q-75 -3 -122 -21t-104 -66t-163 -161l-500 -530q103 -15 196 -67t206 -156l757 -705h-221l-745 700q-59 55 -86.5 79.5t-63.5 53.5t-59.5 38.5t-53 16.5t-65.5 7h-154v-676q0 -123 35 -149t193 -35v-35h-604z" />
<glyph unicode="L" horiz-adv-x="1675" d="M113 0v35q47 3 68.5 4.5t52 5.5t41.5 8.5t27 14.5t20 21t10 31t7 42.5t1 56.5v1303q0 34 -1 56.5t-7 42.5t-10 31t-20 21t-27 14.5t-41.5 8.5t-52 5.5t-68.5 4.5v35h604v-35q-158 -9 -193 -35t-35 -149v-1303q0 -58 4.5 -88t23 -53t52 -30t93.5 -7h151q103 0 164.5 0.5 t134.5 5t113 10.5t88.5 20t73 30t55 44.5t46 60t35 80t32.5 100t28 124.5h37l-70 -516h-1437z" />
<glyph unicode="M" horiz-adv-x="2490" d="M119 0v35q47 3 68.5 4.5t52 5.5t41.5 8.5t27 14.5t20 21t10 31t7 42.5t1 56.5v1303q0 34 -1 56.5t-7 42.5t-10 31t-20 21t-27 14.5t-41.5 8.5t-52 5.5t-68.5 4.5v35h338l798 -1548l740 1548h377v-35q-158 -9 -193 -35t-35 -149v-1303q0 -123 35 -149t193 -35v-35h-605v35 q158 9 193 35t35 149v1411l-778 -1630h-31l-793 1526v-1307q0 -123 35 -149t193 -35v-35h-502z" />
<glyph unicode="N" horiz-adv-x="2035" d="M119 0v35q47 3 68.5 4.5t52 5.5t41.5 8.5t27 14.5t20 21t10 31t7 42.5t1 56.5v1303q0 34 -1 56.5t-7 42.5t-10 31t-20 21t-27 14.5t-41.5 8.5t-52 5.5t-68.5 4.5v35h340l1204 -1491v1272q0 34 -1 56.5t-7 42.5t-10 31t-20 21t-27 14.5t-41.5 8.5t-52 5.5t-68.5 4.5v35 h501v-35q-47 -3 -68.5 -4.5t-52 -5.5t-41.5 -8.5t-27 -14.5t-20 -21t-10 -31t-7 -42.5t-1 -56.5v-1522h-47l-1270 1573v-1354q0 -123 35 -149t193 -35v-35h-502z" />
<glyph unicode="O" d="M111 874q0 192 73 359.5t198.5 286t300 186.5t370.5 68t370.5 -68t300 -186.5t198.5 -286t73 -359.5q0 -255 -124.5 -461.5t-340 -322t-477.5 -115.5t-477.5 115.5t-340 322t-124.5 461.5zM283 874q0 -180 52.5 -336t148.5 -272.5t243 -183t326 -66.5t326 66.5t243 183 t148.5 272.5t52.5 336t-52.5 336.5t-148.5 272.5t-243 183t-326 67t-326 -67t-243 -183t-148.5 -272.5t-52.5 -336.5z" />
<glyph unicode="P" horiz-adv-x="1482" d="M113 0v35q47 3 68.5 4.5t52 5.5t41.5 8.5t27 14.5t20 21t10 31t7 42.5t1 56.5v1303q0 34 -1 56.5t-7 42.5t-10 31t-20 21t-27 14.5t-41.5 8.5t-52 5.5t-68.5 4.5v35h739q165 0 296.5 -50.5t209.5 -148.5t78 -229q0 -132 -79.5 -229.5t-214.5 -147t-306 -49.5h-347v-668 q0 -123 35 -149t193 -35v-35h-604zM489 928l316 2q219 2 339 101.5t120 281.5q0 184 -120.5 285.5t-344.5 101.5h-310v-772z" />
<glyph unicode="Q" d="M111 874q0 192 73 359.5t198.5 286t300 186.5t370.5 68t370.5 -68t300 -186.5t198.5 -286t73 -359.5q0 -262 -141 -475t-373 -329q-138 -68 -377.5 -155.5t-407.5 -129.5q37 5 70 5q54 0 98 -14q70 -21 154 -81q236 -168 424 -168q113 0 190.5 59t104.5 181l43 -7 q-25 -156 -139 -235.5t-281 -79.5q-234 0 -461 184q-109 90 -147.5 112.5t-94.5 22.5q-38 0 -70 -17t-58.5 -33.5t-51.5 -16.5q-18 0 -27.5 9t-9.5 22q0 15 11.5 25t34 16.5t46 11t57 11t56.5 13.5q70 19 237 73.5t292 103.5q-11 -1 -54 -4t-67 -3q-262 0 -477.5 115.5 t-340 322t-124.5 461.5zM283 874q0 -180 52.5 -336t149 -272.5t243.5 -183t325 -66.5q179 0 325 65.5t243 181t149.5 272t52.5 339.5q0 180 -52.5 336.5t-149 272.5t-243.5 183t-325 67t-325 -67t-243.5 -183t-149 -272.5t-52.5 -336.5z" />
<glyph unicode="R" horiz-adv-x="1669" d="M119 0v35q47 3 68.5 4.5t52 5.5t41.5 8.5t27 14.5t20 21t10 31t7 42.5t1 56.5v1303q0 34 -1 56.5t-7 42.5t-10 31t-20 21t-27 14.5t-41.5 8.5t-52 5.5t-68.5 4.5v35h739q166 0 297.5 -50.5t209 -148.5t77.5 -229q0 -166 -121.5 -274t-323.5 -140v-4q161 -20 239.5 -106 t92.5 -238q6 -67 17 -322q6 -110 38 -152t91 -42q111 0 167 176l39 -10q-61 -224 -249 -224q-45 0 -83.5 12t-74 38t-58 75t-26.5 117q-3 34 -3 119q1 14 1 30v24q0 92 -4 143q-12 178 -103.5 265t-269.5 87h-315v-668q0 -34 1 -56.5t7 -42.5t10 -31t20 -21t27 -14.5 t41.5 -8.5t52 -5.5t68.5 -4.5v-35h-604zM496 928l311 2q219 2 341 101.5t122 281.5q0 184 -122 285.5t-347 101.5h-305v-772z" />
<glyph unicode="S" horiz-adv-x="1386" d="M131 561h37q11 -235 155.5 -390t364.5 -155q120 0 220 41t162.5 123.5t62.5 192.5q0 67 -23 126t-57.5 101.5t-91 85t-106 70.5t-120.5 63l-162 80q-202 99 -298.5 205.5t-96.5 263.5q0 177 142.5 291.5t353.5 114.5q73 0 145.5 -18t104.5 -32.5t92 -44.5q67 -34 94 -34 q25 0 37.5 16t19.5 72h33l10 -449l-34 -2q-33 209 -175.5 330t-330.5 121q-166 0 -268.5 -84t-102.5 -217q0 -129 85.5 -222.5t258.5 -173.5l172 -80q65 -31 114 -57.5t104.5 -63t94.5 -76t72 -87.5t49.5 -106.5t16.5 -125.5q0 -104 -48 -193t-128.5 -147.5t-183.5 -91.5 t-214 -33q-96 0 -179.5 21.5t-129 46.5t-88.5 46.5t-68 21.5q-45 0 -47 -93h-37z" />
<glyph unicode="T" horiz-adv-x="1734" d="M55 1266l64 475h1497l63 -475h-37q-19 86 -36 144.5t-41 110.5t-53 83.5t-70 54t-92.5 32t-120.5 9.5h-287v-1481q0 -34 1 -56.5t7 -42.5t10 -31t20 -21t27 -14.5t41.5 -8.5t52 -5.5t68.5 -4.5v-35h-604v35q158 9 193 35t35 149v1481h-287q-69 0 -121 -9.5t-93 -32 t-69.5 -54t-53 -83.5t-41.5 -110.5t-36 -144.5h-37z" />
<glyph unicode="U" horiz-adv-x="1982" d="M82 1706v35h604v-35q-47 -3 -68.5 -4.5t-52 -5.5t-41.5 -8.5t-27 -14.5t-20 -21t-10 -31t-7 -42.5t-1 -56.5v-774q0 -685 567 -685q149 0 257 33.5t186.5 108t117.5 199.5t39 303v815q0 34 -1 56.5t-7 42.5t-10 31t-20 21t-27 14.5t-41.5 8.5t-52 5.5t-68.5 4.5v35h502 v-35q-158 -9 -193 -35t-35 -149v-815q0 -732 -674 -732q-151 0 -275.5 45t-217 133t-143.5 227t-52 318l-2 738v86q0 34 -1 56.5t-7 42.5t-10 31t-20 21t-27 14.5t-41.5 8.5t-52 5.5t-68.5 4.5z" />
<glyph unicode="V" horiz-adv-x="1818" d="M-25 1706v35h572v-35q-38 -1 -61 -2.5t-48.5 -5t-38.5 -8.5t-26 -13.5t-16.5 -20t-4.5 -29t4.5 -39t16.5 -50.5l536 -1432q11 -30 21 -41.5t28 -11.5t29 12.5t21 38.5l467 1264q19 51 31.5 85.5t22.5 68.5t15 55t4.5 42t-3 32t-14 21.5t-23 15t-34.5 9t-44 6t-56 3.5v35 h469v-35q-50 -2 -76 -5t-56 -16t-45 -28.5t-38 -55.5t-40.5 -83.5t-47.5 -124.5l-481 -1299q-23 -60 -57 -89.5t-87 -29.5q-109 0 -155 123l-543 1430q-17 45 -26.5 67.5t-25 45.5t-28 32t-37.5 17.5t-51.5 11t-73.5 4.5z" />
<glyph unicode="W" horiz-adv-x="2590" d="M-25 1706v35h572v-35q-43 -1 -68 -3t-52 -6t-39.5 -11.5t-23.5 -19t-11 -29.5t4 -42t16 -57l493 -1429q18 -56 52 -56q35 0 51 53l295 875l-193 547q-18 52 -31 78.5t-28.5 48.5t-41 30.5t-55.5 13t-86 7.5v35h959v-35q-39 -2 -60 -3.5t-47.5 -7.5t-40.5 -13.5 t-32.5 -24.5t-30 -37.5t-28 -54.5t-31 -74t-33.5 -98l-103 -306l338 -978q18 -56 52 -56q35 0 51 53l424 1262q19 56 29 87t20.5 68.5t14.5 55.5t4.5 41.5t-2 32t-13 21t-21.5 15.5t-34 8t-43.5 6t-55.5 3v35h469v-35q-39 -2 -60 -3.5t-47.5 -7.5t-40 -13.5t-32.5 -24.5 t-30 -37t-27.5 -55t-31 -74t-34.5 -98l-438 -1297q-43 -121 -145 -121q-113 0 -156 123l-281 803l-272 -805q-40 -121 -146 -121q-112 0 -155 123l-502 1430q-18 52 -31 78.5t-28.5 48.5t-41 30.5t-55.5 13t-86 7.5zM1207.5 1622.5q1.5 -32.5 19.5 -84.5l127 -367l100 304 q25 73 31 118q2 13 2 24q0 27 -11 45q-15 24 -44.5 33t-83.5 9q-50 0 -79 -6.5t-46 -24.5t-15.5 -50.5z" />
<glyph unicode="X" horiz-adv-x="2056" d="M41 0v35q77 3 122.5 19t104.5 66t162 163l531 581l-547 658q-91 111 -153 145t-167 39v35h619v-35q-96 -3 -136 -16t-40 -45q0 -30 38 -76l490 -590l412 451q90 98 116.5 138.5t26.5 69.5q0 37 -41.5 51t-130.5 17v35h510v-35q-77 -3 -122.5 -19t-104.5 -66t-162 -163 l-473 -518l600 -721q91 -111 152.5 -145t166.5 -39v-35h-618v35q96 3 136 16t40 45q0 29 -39 76l-543 653l-469 -514q-89 -98 -116 -139t-27 -70q0 -37 41.5 -50.5t130.5 -16.5v-35h-510z" />
<glyph unicode="Y" horiz-adv-x="1716" d="M-25 1706v35h574v-35q-99 -3 -138.5 -15t-39.5 -40q0 -20 15 -46t54 -81l490 -693l401 586q36 53 59.5 88.5t40 67t23.5 50.5t3.5 35t-13 23.5t-33 13.5t-49 8t-68.5 3v35h447v-35q-41 -2 -64 -4t-50.5 -13.5t-44 -24t-45.5 -45t-54 -67.5t-70 -100l-463 -672v-561 q0 -123 35 -149t193 -35v-35h-605v35q158 9 193 35t35 149v535l-586 825q-52 73 -105.5 97.5t-134.5 29.5z" />
<glyph unicode="Z" horiz-adv-x="1705" d="M119 0v31l1212 1669h-760q-103 0 -170 -21t-113.5 -75.5t-74 -129t-55.5 -202.5l-37 2l63 467h1336v-31l-1211 -1669h541q102 0 162.5 0.5t131 5t108.5 10t83.5 20t67.5 29t50 44.5t40.5 59t30 78.5t28.5 98t25 122.5l37 -2l-68 -506h-1427z" />
<glyph unicode="[" horiz-adv-x="638" d="M231 -696v2437h367v-41h-238v-2355h238v-41h-367z" />
<glyph unicode="\" horiz-adv-x="1132" d="M51 1741h84l955 -1946h-84z" />
<glyph unicode="]" horiz-adv-x="638" d="M41 -655h238v2355h-238v41h367v-2437h-367v41z" />
<glyph unicode="^" horiz-adv-x="1026" d="M160 791l315 632h74l317 -632h-88l-268 544l-268 -544h-82z" />
<glyph unicode="_" horiz-adv-x="1329" d="M225 -141h879v-70h-879v70z" />
<glyph unicode="`" horiz-adv-x="921" d="M252 1595q0 23 15 38.5t38 15.5q49 0 68 -62q37 -117 103.5 -198.5t195.5 -178.5l-19 -24q-322 204 -391 364q-10 23 -10 45z" />
<glyph unicode="a" horiz-adv-x="1095" d="M104 197q0 123 128 214t352 142l168 39v135q0 142 -48 214.5t-159 72.5q-41 0 -79.5 -12.5t-65 -27.5t-60 -46.5t-50 -50t-48.5 -56.5h-8q-32 1 -55 21q-25 24 -25 57q0 56 75 96q118 62 318 62q176 0 259 -70q81 -68 81 -197v-6l-6 -575v-10q-1 -67 25 -96 q23 -26 79 -26q11 0 23 1l-21 -80q-36 -7 -65 -7q-60 1 -96 27q-54 40 -68 113q-117 -81 -205 -118.5t-178 -37.5q-117 0 -194 63.5t-77 158.5zM254 211q0 -69 45.5 -118.5t136.5 -49.5q41 0 78.5 8.5t83.5 32t70 38t84 52.5v373l-123 -29q-85 -19 -149.5 -44.5t-117 -61.5 t-80.5 -87t-28 -114z" />
<glyph unicode="b" horiz-adv-x="1273" d="M12 1686v32l314 49v-960q61 119 164.5 184.5t228.5 65.5q199 0 333 -148t134 -374q0 -238 -143.5 -399t-356.5 -161q-127 0 -220.5 57t-143.5 152l-101 -184h-28v1573q0 74 -31.5 92t-149.5 21zM303 483q0 -219 102.5 -338.5t258.5 -119.5q115 0 199.5 66.5t125.5 176.5 t41 248q0 202 -96 333.5t-254 131.5q-179 0 -278 -132t-99 -366z" />
<glyph unicode="c" horiz-adv-x="1075" d="M88 510q0 242 142.5 394.5t369.5 152.5q168 0 276.5 -76.5t108.5 -165.5q0 -36 -23.5 -61t-62.5 -25q-23 0 -35 4q-11 137 -82.5 210t-195.5 73q-116 0 -195 -64t-114 -167t-35 -238q0 -220 111 -364t288 -144q98 0 175.5 50t146.5 159l34 -21q-70 -123 -175 -187.5 t-230 -64.5q-112 0 -208.5 45t-160 119.5t-99.5 170.5t-36 200z" />
<glyph unicode="d" horiz-adv-x="1314" d="M88 498q0 155 65 283.5t180 202t255 73.5q130 0 225 -60t143 -159v735q0 74 -31 92t-149 21v32l314 49v-1587q0 -74 30.5 -91.5t149.5 -20.5v-33l-314 -49v254q-60 -127 -165.5 -196t-235.5 -69q-199 0 -333 148t-134 375zM244 516q0 -203 95.5 -334t254.5 -131 q179 0 278 131t99 365q0 111 -28.5 200t-78 145.5t-114.5 86t-140 29.5q-115 0 -199.5 -67.5t-125.5 -177.5t-41 -247z" />
<glyph unicode="e" horiz-adv-x="1118" d="M88 516q0 238 143 389.5t361 151.5q181 0 304 -107.5t132 -304.5h-780q-4 -50 -4 -76q0 -234 113 -382t294 -148q101 0 180 51.5t148 157.5l35 -21q-69 -120 -177 -186t-235 -66q-92 0 -174 29t-143.5 80t-106 119t-67.5 148t-23 165zM254 686h532q84 0 84 84 q0 104 -76.5 175t-205.5 71q-143 0 -227 -91.5t-107 -238.5z" />
<glyph unicode="f" horiz-adv-x="661" d="M61 0v39l181 2v942l-181 2v39h181q0 436 112 655q49 95 129 95q41 0 70 -29t29 -72q0 -62 -62 -92l-22 12q-31 17 -60 17q-45 0 -77.5 -35t-32.5 -115q0 -31 4 -78t8.5 -85t16 -128.5t18.5 -144.5h180v-39l-180 -2v-942l180 -2v-39h-494z" />
<glyph unicode="g" horiz-adv-x="1181" d="M111 74q0 75 62 132.5t185 92.5q-103 48 -163 142.5t-60 213.5q0 173 116 287.5t298 114.5q171 0 291 -107q79 189 194 189q45 0 75 -26t30 -64q0 -58 -54 -84q-38 49 -100 49q-42 0 -69.5 -21.5t-49.5 -70.5q97 -111 97 -265q0 -170 -116 -284.5t-298 -114.5 q-64 0 -139 21q-107 -30 -155 -72.5t-48 -100.5q0 -125 251 -125q22 0 46 1l135 4q21 1 42 1q419 0 419 -294q0 -122 -83.5 -219t-209 -146t-262.5 -49q-188 0 -309 84.5t-121 214.5q0 61 37 96q32 31 86 31h12q-2 -26 -2 -50q0 -148 80 -228q93 -93 266 -93q168 0 283.5 84 t115.5 220q0 217 -353 217h-13l-131 -2h-18q-179 0 -271 59q-96 61 -96 162zM276 657q0 -159 74.5 -258.5t198.5 -99.5q123 0 196.5 99.5t73.5 258.5t-73.5 259t-196.5 100q-124 0 -198.5 -100t-74.5 -259z" />
<glyph unicode="h" horiz-adv-x="1239" d="M51 0v39l180 2v1532q0 74 -31 92t-149 21v32l314 49v-952q84 121 172.5 181.5t207.5 60.5q63 0 118.5 -23.5t90.5 -66.5t51.5 -104.5t16.5 -186.5v-635l180 -2v-39h-495v39l180 2v592q0 201 -39 268q-48 86 -162 86q-86 0 -160.5 -55.5t-160.5 -188.5v-702l180 -2v-39 h-494z" />
<glyph unicode="i" horiz-adv-x="618" d="M74 0v39l180 2v811q0 74 -31 92t-149 21v32l313 50v-1006l180 -2v-39h-493zM213 1671q0 43 29.5 73t72.5 30t73 -30t30 -73t-30 -72.5t-73 -29.5t-72.5 29.5t-29.5 72.5z" />
<glyph unicode="j" horiz-adv-x="600" d="M41 -621q0 63 61 93l23 -13q29 -16 59 -16q46 0 78.5 34.5t32.5 114.5q0 31 -4 78.5t-8.5 85t-16.5 129t-18 144.5v823q0 74 -31 92t-149 21v32l313 50v-1018q0 -435 -113 -656q-48 -94 -129 -94q-41 0 -69.5 28.5t-28.5 71.5zM207 1671q0 43 29.5 73t72.5 30t73 -30 t30 -73t-30 -72.5t-73 -29.5t-72.5 29.5t-29.5 72.5z" />
<glyph unicode="k" horiz-adv-x="1245" d="M51 0v39l180 2v1530q0 74 -30.5 91.5t-149.5 20.5v33l314 49v-1163h10q20 0 43 9t33.5 15t40.5 27t32 23l295 209q60 43 60 63q0 43 -146 45v31h455v-31q-110 -3 -158.5 -22.5t-173.5 -108.5l-301 -215q-62 -42 -82 -53q89 0 159 -32.5t142 -110.5l422 -451h-176 l-424 459q-54 59 -100 79.5t-107 20.5h-24v-518l180 -2v-39h-494z" />
<glyph unicode="l" horiz-adv-x="595" d="M51 0v39l180 2v1530q0 74 -30.5 91.5t-149.5 20.5v33l314 49v-1724l180 -2v-39h-494z" />
<glyph unicode="m" horiz-adv-x="1878" d="M74 0v39l180 2v811q0 74 -31 92t-149 21v32l313 50v-230q78 120 165 180t204 60q61 0 115 -23.5t87 -66.5q24 -31 38.5 -66t21.5 -94q80 125 168 187.5t207 62.5q60 0 113.5 -23.5t88.5 -66.5q34 -43 50 -104t16 -187v-635l180 -2v-39h-493v39l180 2v592q0 204 -37 268 q-48 86 -158 86q-82 0 -155 -56.5t-156 -189.5q2 -20 2 -65v-635l180 -2v-39h-493v39l180 2v592q0 204 -37 268q-48 86 -158 86q-82 0 -154 -55.5t-155 -188.5v-702l180 -2v-39h-493z" />
<glyph unicode="n" horiz-adv-x="1259" d="M74 0v39l180 2v811q0 74 -31 92t-149 21v32l313 50v-238q82 126 168 187t207 61q148 0 217 -88q34 -45 48.5 -105.5t14.5 -187.5v-635l181 -2v-39h-494v39l180 2v592q0 201 -39 268q-48 86 -161 86q-87 0 -161.5 -55.5t-160.5 -190.5v-700l180 -2v-39h-493z" />
<glyph unicode="o" horiz-adv-x="1214" d="M88 518q0 150 70 274t189 194.5t261 70.5q105 0 200.5 -41.5t165.5 -113t111 -172t41 -212.5q0 -113 -41 -214t-110.5 -173t-165.5 -114t-201 -42q-142 0 -261 70.5t-189 195.5t-70 277zM244 518q0 -223 97 -362.5t267 -139.5q168 0 265.5 139.5t97.5 362.5 q0 220 -97.5 359t-265.5 139t-266 -139t-98 -359z" />
<glyph unicode="p" horiz-adv-x="1325" d="M61 -657l181 2v1507q0 74 -31.5 92t-149.5 21v32l314 50v-244q61 121 165.5 187.5t229.5 66.5q199 0 333 -147.5t134 -372.5q0 -241 -143 -401.5t-357 -160.5q-126 0 -219.5 56t-142.5 149v-835l180 -2v-39h-494v39zM354 483q0 -219 102.5 -338.5t258.5 -119.5 q115 0 199.5 66t125.5 175.5t41 247.5q0 203 -95.5 335t-254.5 132q-179 0 -278 -132t-99 -366z" />
<glyph unicode="q" horiz-adv-x="1284" d="M88 494q0 240 143.5 401.5t356.5 161.5q128 0 221 -58t143 -155l105 184h28v-1683l181 -2v-39h-494v39l180 2l-2 882q-61 -121 -164.5 -186.5t-230.5 -65.5q-199 0 -333 147.5t-134 371.5zM244 516q0 -203 95.5 -334t254.5 -131q179 0 278 131t99 365q0 111 -28.5 200 t-78 145.5t-114.5 86t-140 29.5q-115 0 -199.5 -67.5t-125.5 -177.5t-41 -247z" />
<glyph unicode="r" horiz-adv-x="878" d="M74 0v39l180 2v811q0 74 -31 92t-149 21v32l313 50v-248q22 38 42.5 66.5t53.5 63.5t68.5 57.5t85.5 38t106 15.5q42 0 70 -8l-8 -129q-75 29 -146 29q-90 0 -152 -47t-120 -154v-690l180 -2v-39h-493z" />
<glyph unicode="s" horiz-adv-x="962" d="M125 4v309h41q14 -135 108.5 -217t214.5 -82q100 0 165 55t65 136q0 46 -17 84t-48.5 65.5t-62.5 46t-73 37.5l-104 47q-134 61 -198 135t-64 173q0 111 92.5 187.5t228.5 76.5q57 0 106 -14t81 -28t47 -14q34 0 45 37h32v-288h-41q-19 133 -94 200.5t-178 67.5 q-87 0 -145 -47.5t-58 -128.5q0 -76 48.5 -133.5t164.5 -102.5l35 -14q162 -63 240 -135t78 -193q0 -88 -53 -155.5t-132 -100.5t-166 -33q-59 0 -117.5 19t-99.5 38t-57 19q-43 0 -53 -47h-31z" />
<glyph unicode="t" horiz-adv-x="788" d="M88 936l240 272v-184h444l-39 -88h-405v-682q0 -106 51.5 -162.5t130.5 -56.5q58 0 95.5 23t70.5 71l26 -16q-79 -138 -247 -138q-104 0 -181 67t-77 194v700h-109z" />
<glyph unicode="u" horiz-adv-x="1265" d="M61 965v32l314 50v-648q0 -199 37 -268q52 -86 161 -86q86 0 160 55.5t158 190.5v561q0 74 -31 92t-149 21v32l313 50v-867q0 -75 32 -92t165 -20v-33l-330 -47v235q-80 -125 -165.5 -186.5t-205.5 -61.5q-151 0 -215 88q-34 45 -48.5 105.5t-14.5 187.5v496 q0 74 -31.5 92t-149.5 21z" />
<glyph unicode="v" horiz-adv-x="1146" d="M0 993v31h475v-31q-125 -5 -159 -26q-18 -11 -17 -36q0 -22 14 -54l297 -707l236 575q58 134 58 185q0 10 -3 18q-15 40 -166 45v31h412v-31q-41 -2 -64.5 -5t-47.5 -14.5t-36 -22.5t-30.5 -42.5t-30.5 -60t-37 -88.5l-313 -760h-27l-381 866q-14 32 -19.5 44.5t-17.5 31 t-21 24t-27 13.5t-40 10t-55 4z" />
<glyph unicode="w" horiz-adv-x="1703" d="M0 993v31h473v-31q-123 -5 -156 -27q-19 -12 -19 -39q0 -21 11 -50l254 -684l305 831h33l326 -831l188 555q46 137 48 171v6q0 40 -39 54q-33 11 -132 14v31h412v-31q-41 -2 -64.5 -5t-47 -14t-35 -22t-28 -42t-27.5 -60.5t-32 -89.5l-262 -760h-26l-336 823l-307 -823 h-27l-332 864q-17 44 -26.5 62.5t-29.5 36t-47 23t-77 7.5z" />
<glyph unicode="x" horiz-adv-x="1245" d="M18 0v31q101 5 147.5 26.5t108.5 96.5l295 360l-260 356q-49 69 -94 93t-147 30v31h518v-31q-95 -4 -127.5 -16t-32.5 -37q0 -16 33 -63l190 -263l215 263q33 42 33 63q0 26 -35 38t-139 15v31h453v-31q-101 -5 -147.5 -26.5t-108.5 -96.5l-240 -297l305 -419 q49 -69 94.5 -93t147.5 -30v-31h-518v31q95 4 127 16t32 37q0 17 -32 63l-238 328l-266 -328q-33 -42 -33 -63q0 -26 35 -38t139 -15v-31h-455z" />
<glyph unicode="y" horiz-adv-x="1146" d="M0 993v31h473v-31q-124 -5 -156 -25q-17 -11 -17 -36q0 -22 13 -55l291 -707l242 575q20 47 30.5 73t19.5 56t10 43.5t-4 30t-16.5 22t-33.5 12t-48.5 8.5t-68.5 3v31h412v-31q-40 -2 -64 -5t-47.5 -15t-35 -22t-31 -43t-31 -59.5t-37.5 -88.5l-457 -1075 q-99 -228 -131 -283q-68 -123 -149 -123q-77 0 -84 80q142 113 216 202.5t144 245.5l101 228l-361 831q-14 32 -19.5 44.5t-17.5 31t-21 24t-27 13.5t-40 10t-55 4z" />
<glyph unicode="z" horiz-adv-x="1060" d="M104 0v23l674 960h-264q-51 0 -81 -0.5t-63 -5t-50.5 -10t-39 -19t-32.5 -29t-26.5 -43.5t-26.5 -58t-27 -77h-33l25 283h776v-23l-674 -960h316q49 0 81 1.5t64.5 7.5t51.5 14t39.5 26t32.5 39t26 57t24.5 75.5t24.5 98.5h32l-36 -360h-814z" />
<glyph unicode="{" horiz-adv-x="665" d="M100 508l19 -2q72 -8 116 -69.5t44 -166.5q0 -107 -49.5 -367.5t-49.5 -348.5q0 -124 79 -187t226 -63h86v41h-71q-90 0 -128 48t-38 158q0 78 40 301.5t40 360.5q0 112 -57.5 192.5t-176.5 114.5v4q119 34 176.5 114.5t57.5 192.5q0 137 -40 361.5t-40 302.5 q0 110 38 157.5t128 47.5h71v41h-86q-147 0 -226 -62t-79 -186q0 -88 49.5 -350t49.5 -369q0 -105 -44 -166t-116 -69l-19 -2v-29z" />
<glyph unicode="|" horiz-adv-x="536" d="M223 -350v2091h90v-2091h-90z" />
<glyph unicode="}" horiz-adv-x="669" d="M98 -655v-41h86q147 0 226 63t79 187q0 88 -49 348.5t-49 367.5q0 105 44 166.5t116 69.5l18 2v29l-18 2q-72 8 -116 69t-44 166q0 107 49 369t49 350q0 124 -79 186t-226 62h-86v-41h72q90 0 128 -47.5t38 -157.5q0 -78 -40 -302.5t-40 -361.5q0 -112 57 -192.5 t176 -114.5v-4q-119 -34 -176 -114.5t-57 -192.5q0 -137 40 -360.5t40 -301.5q0 -110 -38 -158t-128 -48h-72z" />
<glyph unicode="~" horiz-adv-x="1202" d="M172 487q20 107 80.5 168.5t148.5 61.5q48 0 113 -25.5t118 -56.5t112.5 -56.5t97.5 -25.5q114 0 155 145l33 -6q-20 -107 -80.5 -168t-148.5 -61q-48 0 -113 25.5t-118 56.5t-112.5 56.5t-97.5 25.5q-51 0 -91 -31t-64 -115z" />
<glyph unicode="&#xa1;" horiz-adv-x="573" d="M166 936q0 51 35 86t86 35t86 -35t35 -86t-35 -86t-86 -35t-86 35t-35 86zM195 -696l65 1310h31l65 -1310h-161z" />
<glyph unicode="&#xa2;" horiz-adv-x="1075" d="M88 874q0 224 123.5 372.5t325.5 170.5v324h73v-320q163 -3 269 -79t106 -162q0 -36 -23.5 -61t-62.5 -25q-23 0 -35 4q-11 137 -82.5 209.5t-195.5 72.5q-116 0 -195 -64t-114 -167t-35 -238q0 -220 111 -364t288 -144q98 0 175.5 50t146.5 159l34 -20 q-67 -118 -167.5 -182.5t-219.5 -69.5v-352h-73v354q-101 11 -186 59t-142 120.5t-89 164t-32 188.5z" />
<glyph unicode="&#xa3;" horiz-adv-x="1310" d="M80 12q0 19 16 30t49 19l76 19q33 8 53 15.5t41 22.5t31.5 38t17.5 60.5t7 90.5q0 92 -52 412h-231l31 69h188q-5 31 -15.5 90t-16 91.5t-13.5 81.5t-12.5 79t-9.5 64t-7 58t-2 40q0 121 41.5 215.5t112.5 151.5t159.5 86t188.5 29q202 0 326.5 -84.5t124.5 -196.5 q0 -36 -24.5 -62t-63.5 -26q-25 0 -37 4q-27 324 -334 324q-165 0 -260.5 -93.5t-95.5 -261.5q0 -29 3.5 -75.5t10.5 -112t13.5 -121t17 -143.5t16.5 -138h522l-30 -69h-486q23 -192 23 -297q0 -100 -24 -184.5t-70 -128.5q136 20 223 20q61 0 182.5 -12.5t169.5 -12.5 q188 0 238 189l30 -6q-56 -307 -309 -307q-76 0 -178.5 24t-188.5 48t-124 24q-60 0 -110 -16t-76 -34.5t-51.5 -34.5t-43.5 -16q-22 0 -34.5 10t-12.5 27z" />
<glyph unicode="&#xa4;" horiz-adv-x="1136" d="M102 453l170 168q-88 106 -88 241q0 134 88 240l-168 170l54 51l170 -170q108 80 239 80q134 0 240 -82l170 170l51 -53l-168 -168q88 -101 88 -238t-90 -244l168 -169l-53 -52l-168 170q-108 -80 -238 -80q-135 0 -241 82l-172 -170zM154 1327l4 -4l6 6zM262 862 q0 -129 89.5 -219t215.5 -90t214.5 90.5t88.5 218.5q0 126 -89 215.5t-214 89.5q-127 0 -216 -89.5t-89 -215.5zM969 1329l8 -8l2 2zM1028 1268l6 -6l-2 10z" />
<glyph unicode="&#xa5;" horiz-adv-x="1245" d="M41 1741h152l473 -1043l387 1006q27 72 88 72q26 0 48.5 -14.5t33.5 -37.5l-537 -1079v-12h465l-31 -70h-434v-274h465l-31 -70h-434v-219h-133v219h-465l31 70h434v274h-465l31 70h434v12z" />
<glyph unicode="&#xa6;" horiz-adv-x="536" d="M223 -350v882h90v-882h-90zM223 858v883h90v-883h-90z" />
<glyph unicode="&#xa7;" horiz-adv-x="1196" d="M88 596q0 87 34 162.5t91 130t126 92t146 57.5q-297 182 -297 394q0 108 56 187t145.5 117t198.5 38q163 0 283 -90t126 -224l-151 -6q-17 277 -268 277q-109 0 -181.5 -63t-72.5 -179q0 -106 64.5 -187t195.5 -157l102 -60q76 -44 130.5 -81t113 -90t95 -107.5 t60 -126.5t23.5 -154q0 -90 -34.5 -168.5t-93 -133t-130 -92t-150.5 -54.5l5 -2q149 -95 221.5 -193.5t72.5 -224.5q0 -90 -37 -163.5t-98.5 -119.5t-139.5 -71t-163 -25q-181 0 -306 104.5t-124 262.5l152 6q2 -153 73 -243.5t211 -90.5q129 0 212 73t83 203 q0 116 -63.5 201.5t-196.5 173.5l-80 54q-182 122 -251 184q-141 126 -172 278q-11 52 -11 111zM227 641q0 -155 90 -266t297 -242l45 -29q145 34 227.5 132t82.5 245q0 153 -94.5 269t-274.5 221l-70 41q-139 -39 -221 -135.5t-82 -235.5z" />
<glyph unicode="&#xa8;" horiz-adv-x="921" d="M199 1448q0 35 23 60.5t59 25.5q34 0 59 -25.5t25 -60.5q0 -32 -25 -57t-59 -25q-35 0 -58.5 24.5t-23.5 57.5zM559 1448q0 35 23 60.5t59 25.5q34 0 59 -25.5t25 -60.5q0 -32 -25 -57t-59 -25q-35 0 -58.5 24.5t-23.5 57.5z" />
<glyph unicode="&#xa9;" horiz-adv-x="2029" d="M111 877q0 184 70.5 350t191 286t288.5 190.5t355 70.5q186 0 354 -70.5t288 -190.5t190.5 -286t70.5 -350t-70.5 -350.5t-190.5 -287.5t-288 -192.5t-354 -71.5q-187 0 -355 71.5t-288.5 192.5t-191 287.5t-70.5 350.5zM188 877q0 -171 64.5 -325t174.5 -266t264 -177.5 t325 -65.5t324 65.5t262.5 177t174 266t64.5 325.5t-64.5 324.5t-174 264t-262.5 175.5t-324 65t-325 -65t-264 -175.5t-174.5 -264t-64.5 -324.5zM408 889q0 168 75.5 306t209 217t296.5 79q97 0 172 -19t176 -71q42 -21 66 -21q43 0 49 43h31l6 -356h-29 q-33 157 -162.5 269t-296.5 112q-114 0 -201.5 -41.5t-142.5 -117.5t-82.5 -176.5t-27.5 -223.5q0 -108 34.5 -206.5t96 -173t153 -119t197.5 -44.5q156 0 270.5 75t171.5 214l29 -8q-56 -162 -183.5 -250t-309.5 -88q-170 0 -308 80.5t-214 217.5t-76 302z" />
<glyph unicode="&#xaa;" horiz-adv-x="952" d="M205 1032q0 63 70.5 113t242.5 117l64 24v51q-1 73 -28 111.5t-71 38.5q-21 0 -39 -7t-67 -32q-73 -37 -105 -37q-41 0 -41 29q0 31 72.5 51t147.5 20q232 0 229 -174l-4 -288q0 -39 15.5 -51t58.5 -9l-27 -65q-134 -18 -143 84q-112 -97 -215 -97q-68 0 -114 32.5 t-46 88.5zM315 1049q0 -38 24 -61t69 -23q76 0 172 79l2 205l-64 -24q-102 -39 -152.5 -79t-50.5 -97z" />
<glyph unicode="&#xab;" horiz-adv-x="942" d="M92 535v8l400 393l28 -21l-280 -374l280 -379l-28 -21zM412 535v8l399 393l29 -21l-281 -374l281 -379l-29 -21z" />
<glyph unicode="&#xac;" horiz-adv-x="1464" d="M160 768v70h1073v-639h-78v569h-995z" />
<glyph unicode="&#xad;" horiz-adv-x="911" d="M160 481l18 117h574l-19 -117h-573z" />
<glyph unicode="&#xae;" horiz-adv-x="2029" d="M111 877q0 184 70.5 350t191 286t288.5 190.5t355 70.5q186 0 354 -70.5t288 -190.5t190.5 -286t70.5 -350t-70.5 -350.5t-190.5 -287.5t-288 -192.5t-354 -71.5q-187 0 -355 71.5t-288.5 192.5t-191 287.5t-70.5 350.5zM188 877q0 -171 64.5 -325t174.5 -266t264 -177.5 t325 -65.5t324 65.5t262.5 177t174 266t64.5 325.5t-64.5 324.5t-174 264t-262.5 175.5t-324 65t-325 -65t-264 -175.5t-174.5 -264t-64.5 -324.5zM545 305v31l69 3t45.5 5.5t30 8t14 15.5t7 22.5t0.5 33.5v924q0 20 -1 29.5t-3 21t-10 15.5t-17 9t-30 6.5t-42.5 3.5 t-60.5 3v30h504q169 0 278 -77t109 -207q0 -114 -85.5 -186t-226.5 -91q202 -32 238 -205q6 -32 8 -67.5t2.5 -91t1.5 -90.5q3 -61 21 -84t53 -23t62 27t51 92l32 -10q-26 -84 -69.5 -123t-108.5 -39q-164 0 -176 178q-1 18 -2 66t-3.5 92t-8.5 75q-20 95 -87.5 142 t-170.5 47h-125v-467q0 -20 1 -29.5t3 -21t10 -15.5t17 -9t30 -6.5t42.5 -3.5t60.5 -3v-31h-463zM844 934l149 2q150 2 230 63.5t80 182.5q0 241 -314 241h-145v-489z" />
<glyph unicode="&#xaf;" horiz-adv-x="921" d="M109 1407l38 86h666l-39 -86h-665z" />
<glyph unicode="&#xb0;" horiz-adv-x="772" d="M88 1483q0 121 87 206t212 85q124 0 210.5 -85.5t86.5 -205.5q0 -123 -86.5 -209t-210.5 -86q-126 0 -212.5 86t-86.5 209zM164 1483q0 -96 65 -163t158 -67q92 0 156.5 67.5t64.5 162.5q0 93 -64.5 159t-156.5 66q-93 0 -158 -66t-65 -159z" />
<glyph unicode="&#xb1;" horiz-adv-x="1253" d="M174 0v70h885v-70h-885zM178 602v70h414v356h74v-356h413v-70h-413v-373h-74v373h-414z" />
<glyph unicode="&#xb2;" horiz-adv-x="952" d="M160 782v27q143 137 227 225.5t148.5 172.5t90 150.5t25.5 135.5q0 110 -46 171.5t-134 61.5q-105 0 -154.5 -70t-44.5 -181l-92 -11q-9 123 74 208t221 85q131 0 210 -72.5t79 -187.5q0 -40 -11 -79.5t-25.5 -72.5t-46.5 -75t-57 -71t-75 -77t-83 -77.5t-97.5 -87.5 t-102.5 -93h504l-12 -82h-598z" />
<glyph unicode="&#xb3;" horiz-adv-x="952" d="M145 987l111 4q7 -80 59.5 -141.5t141.5 -61.5q105 0 172 82t67 199q0 128 -75 201t-185 73q-84 0 -151 -34l-13 18l359 332h-447l15 82h549v-19l-338 -313q30 6 67 6q145 0 235.5 -86.5t90.5 -222.5q0 -142 -105 -245t-247 -103q-136 0 -217 65t-89 164z" />
<glyph unicode="&#xb4;" horiz-adv-x="921" d="M252 1210q119 92 182 172.5t109 190.5q33 76 80 76q22 0 35.5 -13.5t13.5 -36.5q0 -22 -17 -55q-86 -159 -385 -358z" />
<glyph unicode="&#xb5;" horiz-adv-x="1282" d="M61 965v32l330 47v-223l2 -545q0 -107 51.5 -169t143.5 -62q85 0 161 53t158 178v576q0 75 -32 92.5t-164 20.5v32l329 47v-866q0 -75 32 -92t165 -20v-33l-330 -47v221q-166 -232 -375 -232q-84 0 -146.5 35.5t-96.5 102.5q63 -409 76 -643h-160q53 386 53 587v795 q0 75 -32.5 92.5t-164.5 20.5z" />
<glyph unicode="&#xb6;" horiz-adv-x="1345" d="M102 1038q0 156 105 254.5t282 98.5h744v-41l-180 -2v-2044h-133v2044h-287v-2044h-133v1380h-11q-178 0 -282.5 98t-104.5 256z" />
<glyph unicode="&#xb7;" horiz-adv-x="524" d="M141 528q0 51 35 86t86 35t86 -35t35 -86t-35 -85.5t-86 -34.5t-86 34.5t-35 85.5z" />
<glyph unicode="&#xb8;" horiz-adv-x="921" d="M303 -330q89 -6 156 21t67 80q0 79 -120 90v145h43v-108q73 -3 122.5 -34.5t49.5 -88.5q0 -70 -80.5 -110t-182.5 -40q-19 0 -55 4v41z" />
<glyph unicode="&#xb9;" horiz-adv-x="952" d="M244 1620v25q137 27 278 108h23v-934l164 -2v-35h-428v35l165 2v813q-116 -17 -202 -12z" />
<glyph unicode="&#xba;" horiz-adv-x="952" d="M166 1212q0 126 91 212.5t220 86.5q131 0 221 -86.5t90 -212.5t-91 -213.5t-220 -87.5q-131 0 -221 87t-90 214zM276 1221q0 -126 55 -202.5t146 -76.5t146 76.5t55 202.5q0 118 -55 189t-146 71q-90 0 -145.5 -71t-55.5 -189z" />
<glyph unicode="&#xbb;" horiz-adv-x="942" d="M102 162l281 379l-281 374l29 21l399 -393v-8l-399 -394zM422 162l280 379l-280 374l29 21l399 -393v-8l-399 -394z" />
<glyph unicode="&#xbc;" horiz-adv-x="2095" d="M244 1618v24q134 26 278 109h23v-934l164 -2v-35h-428v35l165 2v813q-116 -17 -202 -12zM375 0l1263 1741h82l-1263 -1741h-82zM1257 270v23l500 682h17l-2 -623h186l-12 -82h-174v-270h-99l2 270h-418zM1348 352h327v447z" />
<glyph unicode="&#xbd;" horiz-adv-x="2095" d="M244 1618v24q134 26 278 109h23v-934l164 -2v-35h-428v35l165 2v813q-116 -17 -202 -12zM375 0l1263 1741h82l-1263 -1741h-82zM1303 2v27q143 137 227 225.5t148.5 172.5t90 150.5t25.5 135.5q0 110 -46 171.5t-134 61.5q-105 0 -154.5 -70.5t-44.5 -181.5l-92 -10 q-9 123 74 208t221 85q131 0 210 -72.5t79 -187.5q0 -40 -11 -79.5t-25.5 -72.5t-46.5 -75t-57 -71t-75 -77t-83 -77.5t-97.5 -87.5t-102.5 -93h504l-12 -82h-598z" />
<glyph unicode="&#xbe;" horiz-adv-x="2095" d="M145 985l111 4q7 -80 59.5 -141.5t141.5 -61.5q105 0 172 82t67 199q0 128 -75 201t-185 73q-84 0 -151 -34l-13 18l359 332h-447l15 82h549v-19l-338 -313q30 6 67 6q145 0 235.5 -86.5t90.5 -222.5q0 -142 -105 -245t-247 -103q-136 0 -217 65t-89 164zM375 0 l1263 1741h82l-1263 -1741h-82zM1257 270v23l500 682h17l-2 -623h186l-12 -82h-174v-270h-99l2 270h-418zM1348 352h327v447z" />
<glyph unicode="&#xbf;" horiz-adv-x="923" d="M45 -229q0 108 32 202.5t84 158.5t119.5 101t137.5 37q62 0 112.5 -25.5t77.5 -66.5v445h47v-551h-28q-23 61 -71.5 99t-117.5 38q-109 0 -179.5 -124t-70.5 -308q0 -212 79 -334.5t222 -122.5q115 0 180.5 73.5t69.5 209.5q12 4 35 4q39 0 61.5 -24.5t22.5 -61.5 q0 -88 -107.5 -165t-265.5 -77q-188 0 -314 135t-126 357zM502 936q0 51 35 86t86 35t85.5 -35t34.5 -86t-34.5 -86t-85.5 -35t-86 35t-35 86z" />
<glyph unicode="&#xc0;" horiz-adv-x="1847" d="M-25 0v35q38 2 59.5 3.5t46.5 8t38.5 13.5t32 25.5t29.5 37t28.5 55t32 73t37.5 97.5l495 1307q43 119 146 119q105 0 153 -123l557 -1438q18 -45 27.5 -67.5t25 -46t27.5 -32t37.5 -17t51.5 -11t73 -4.5v-35h-572v35q148 3 181 36.5t-6 131.5l-160 420h-877l-94 -250 q-24 -64 -38.5 -104.5t-24 -78.5t-12.5 -59t4 -40t17.5 -27.5t35.5 -15.5t49.5 -9t68.5 -4v-35h-469zM455 668h841l-372 974q-1 2 -2 5q-5 12 -8 18.5t-8.5 14.5t-13.5 12t-18 4q-18 0 -28.5 -12t-20.5 -39zM492 2181q0 19 12.5 34t38.5 15q6 0 12 -1.5t12.5 -5t12 -7 t12.5 -10t11.5 -10.5t12.5 -13t11.5 -13t12 -14.5t11.5 -13.5q59 -72 146 -123t247 -98l-6 -33q-241 53 -393.5 138.5t-152.5 154.5z" />
<glyph unicode="&#xc1;" horiz-adv-x="1847" d="M-25 0v35q38 2 59.5 3.5t46.5 8t38.5 13.5t32 25.5t29.5 37t28.5 55t32 73t37.5 97.5l495 1307q43 119 146 119q105 0 153 -123l557 -1438q18 -45 27.5 -67.5t25 -46t27.5 -32t37.5 -17t51.5 -11t73 -4.5v-35h-572v35q148 3 181 36.5t-6 131.5l-160 420h-877l-94 -250 q-24 -64 -38.5 -104.5t-24 -78.5t-12.5 -59t4 -40t17.5 -27.5t35.5 -15.5t49.5 -9t68.5 -4v-35h-469zM455 668h841l-372 974q-1 2 -2 5q-5 12 -8 18.5t-8.5 14.5t-13.5 12t-18 4q-18 0 -28.5 -12t-20.5 -39zM762 1892q165 43 246 93t147 129q52 61 73 75q19 13 36 13 q26 0 38.5 -15.5t12.5 -34.5q0 -69 -152.5 -153.5t-394.5 -138.5z" />
<glyph unicode="&#xc2;" horiz-adv-x="1847" d="M-25 0v35q38 2 59.5 3.5t46.5 8t38.5 13.5t32 25.5t29.5 37t28.5 55t32 73t37.5 97.5l495 1307q43 119 146 119q105 0 153 -123l557 -1438q18 -45 27.5 -67.5t25 -46t27.5 -32t37.5 -17t51.5 -11t73 -4.5v-35h-572v35q148 3 181 36.5t-6 131.5l-160 420h-877l-94 -250 q-24 -64 -38.5 -104.5t-24 -78.5t-12.5 -59t4 -40t17.5 -27.5t35.5 -15.5t49.5 -9t68.5 -4v-35h-469zM455 668h841l-372 974q-1 2 -2 5q-5 12 -8 18.5t-8.5 14.5t-13.5 12t-18 4q-18 0 -28.5 -12t-20.5 -39zM547 1913q206 117 360 319h6q143 -189 363 -317l-19 -33 q-187 90 -346 201q-187 -128 -348 -201z" />
<glyph unicode="&#xc3;" horiz-adv-x="1847" d="M-25 0v35q38 2 59.5 3.5t46.5 8t38.5 13.5t32 25.5t29.5 37t28.5 55t32 73t37.5 97.5l495 1307q43 119 146 119q105 0 153 -123l557 -1438q18 -45 27.5 -67.5t25 -46t27.5 -32t37.5 -17t51.5 -11t73 -4.5v-35h-572v35q148 3 181 36.5t-6 131.5l-160 420h-877l-94 -250 q-24 -64 -38.5 -104.5t-24 -78.5t-12.5 -59t4 -40t17.5 -27.5t35.5 -15.5t49.5 -9t68.5 -4v-35h-469zM455 668h841l-372 974q-1 2 -2 5q-5 12 -8 18.5t-8.5 14.5t-13.5 12t-18 4q-18 0 -28.5 -12t-20.5 -39zM489 1925q20 107 81 168t149 61q48 0 113 -25.5t118 -56t112 -56 t97 -25.5q115 0 156 145l33 -6q-20 -107 -81 -168t-149 -61q-48 0 -113 25.5t-118 56t-112 56t-97 25.5q-115 0 -156 -145z" />
<glyph unicode="&#xc4;" horiz-adv-x="1847" d="M-25 0v35q38 2 59.5 3.5t46.5 8t38.5 13.5t32 25.5t29.5 37t28.5 55t32 73t37.5 97.5l495 1307q43 119 146 119q105 0 153 -123l557 -1438q18 -45 27.5 -67.5t25 -46t27.5 -32t37.5 -17t51.5 -11t73 -4.5v-35h-572v35q148 3 181 36.5t-6 131.5l-160 420h-877l-94 -250 q-24 -64 -38.5 -104.5t-24 -78.5t-12.5 -59t4 -40t17.5 -27.5t35.5 -15.5t49.5 -9t68.5 -4v-35h-469zM455 668h841l-372 974q-1 2 -2 5q-5 12 -8 18.5t-8.5 14.5t-13.5 12t-18 4q-18 0 -28.5 -12t-20.5 -39zM655 1976q0 35 23 60.5t59 25.5q34 0 59 -25.5t25 -60.5 q0 -32 -25 -57t-59 -25q-35 0 -58.5 24.5t-23.5 57.5zM1016 1976q0 35 23 60.5t59 25.5q34 0 59 -25.5t25 -60.5q0 -32 -25 -57t-59 -25q-35 0 -58.5 24.5t-23.5 57.5z" />
<glyph unicode="&#xc5;" horiz-adv-x="1847" d="M-25 0v35q38 2 59.5 3.5t46.5 8t38.5 13.5t32 25.5t29.5 37t28.5 55t32 73t37.5 97.5l495 1307q43 119 146 119q105 0 153 -123l557 -1438q18 -45 27.5 -67.5t25 -46t27.5 -32t37.5 -17t51.5 -11t73 -4.5v-35h-572v35q148 3 181 36.5t-6 131.5l-160 420h-877l-94 -250 q-24 -64 -38.5 -104.5t-24 -78.5t-12.5 -59t4 -40t17.5 -27.5t35.5 -15.5t49.5 -9t68.5 -4v-35h-469zM455 668h841l-372 974q-1 2 -2 5q-5 12 -8 18.5t-8.5 14.5t-13.5 12t-18 4q-18 0 -28.5 -12t-20.5 -39zM733 2046q0 71 51.5 121.5t128.5 50.5q76 0 127.5 -50.5 t51.5 -121.5t-51.5 -121.5t-127.5 -50.5q-77 0 -128.5 50.5t-51.5 121.5zM809 2046q0 -43 31 -75t73 -32q41 0 72 32t31 75q0 42 -31 73t-72 31q-43 0 -73.5 -30.5t-30.5 -73.5z" />
<glyph unicode="&#xc6;" horiz-adv-x="2748" d="M-25 0v35q60 3 98 12t89.5 41t110.5 94.5t143 169.5l1089 1389h996l63 -475h-37q-19 86 -36 144.5t-41 110.5t-53 83.5t-70 54t-92.5 32t-120.5 9.5h-455v-754h631v-41h-631v-686q0 -59 4.5 -88.5t22.5 -52.5t51.5 -30t93.5 -7h27q103 0 164.5 0.5t134.5 5t113 10.5 t88.5 20t73 30t55 44.5t46 60t35 80t32.5 100t28 124.5h36l-69 -516h-1313v35q47 3 68.5 4.5t52 5.5t41.5 8.5t27 14.5t20 21t10 31t7 42.5t1 56.5v404h-817l-243 -312q-87 -110 -110.5 -146.5t-23.5 -62.5q0 -37 41.5 -50.5t130.5 -16.5v-35h-512zM729 668h780v995z" />
<glyph unicode="&#xc7;" horiz-adv-x="1878" d="M111 874q0 258 115 464t316.5 321t450.5 115q88 0 170.5 -13.5t152.5 -38t112.5 -43t93.5 -45.5q60 -31 85 -34q7 -1 15 -1q63 0 74 109h37l14 -508h-35q-20 107 -82 203.5t-154.5 170t-219 116.5t-267.5 43q-170 0 -305.5 -66.5t-222.5 -183t-132.5 -272t-45.5 -337.5 q0 -133 31 -256t94 -229t151.5 -184.5t211 -123t265.5 -44.5q253 0 415 113t249 333l41 -12q-189 -496 -737 -496h-15v-77q73 -3 122.5 -34.5t49.5 -88.5q0 -70 -80 -110t-182 -40q-19 0 -55 4v41q89 -6 156 21t67 80q0 79 -121 90v116q-184 10 -340 81.5t-264.5 189.5 t-169.5 279.5t-61 346.5z" />
<glyph unicode="&#xc8;" horiz-adv-x="1585" d="M119 0v35q47 3 68.5 4.5t52 5.5t41.5 8.5t27 14.5t20 21t10 31t7 42.5t1 56.5v1303q0 34 -1 56.5t-7 42.5t-10 31t-20 21t-27 14.5t-41.5 8.5t-52 5.5t-68.5 4.5v35h1218l64 -475h-37q-19 86 -36 144.5t-41.5 110.5t-53 83.5t-69.5 54t-93 32t-121 9.5h-454v-754h630v-41 h-630v-686q0 -59 4.5 -88.5t22.5 -52.5t51.5 -30t93.5 -7h26q103 0 164.5 0.5t134.5 5t113 10.5t88.5 20t73 30t55 44.5t46 60t35 80t32.5 100t28 124.5h37l-69 -516h-1313zM401 2181q0 18 13 33.5t39 15.5q6 0 12 -1.5t12.5 -5t12 -7t12.5 -10t11.5 -10.5t12.5 -13 t11.5 -13t12 -14.5t11.5 -13.5q59 -72 146 -123t247 -98l-6 -33q-241 53 -394 138.5t-153 154.5z" />
<glyph unicode="&#xc9;" horiz-adv-x="1585" d="M119 0v35q47 3 68.5 4.5t52 5.5t41.5 8.5t27 14.5t20 21t10 31t7 42.5t1 56.5v1303q0 34 -1 56.5t-7 42.5t-10 31t-20 21t-27 14.5t-41.5 8.5t-52 5.5t-68.5 4.5v35h1218l64 -475h-37q-19 86 -36 144.5t-41.5 110.5t-53 83.5t-69.5 54t-93 32t-121 9.5h-454v-754h630v-41 h-630v-686q0 -59 4.5 -88.5t22.5 -52.5t51.5 -30t93.5 -7h26q103 0 164.5 0.5t134.5 5t113 10.5t88.5 20t73 30t55 44.5t46 60t35 80t32.5 100t28 124.5h37l-69 -516h-1313zM672 1892q165 43 246 93t147 129q52 61 73 75q19 13 36 13q26 0 38.5 -15.5t12.5 -34.5 q0 -69 -152.5 -153.5t-394.5 -138.5z" />
<glyph unicode="&#xca;" horiz-adv-x="1585" d="M119 0v35q47 3 68.5 4.5t52 5.5t41.5 8.5t27 14.5t20 21t10 31t7 42.5t1 56.5v1303q0 34 -1 56.5t-7 42.5t-10 31t-20 21t-27 14.5t-41.5 8.5t-52 5.5t-68.5 4.5v35h1218l64 -475h-37q-19 86 -36 144.5t-41.5 110.5t-53 83.5t-69.5 54t-93 32t-121 9.5h-454v-754h630v-41 h-630v-686q0 -59 4.5 -88.5t22.5 -52.5t51.5 -30t93.5 -7h26q103 0 164.5 0.5t134.5 5t113 10.5t88.5 20t73 30t55 44.5t46 60t35 80t32.5 100t28 124.5h37l-69 -516h-1313zM457 1913q206 117 360 319h6q143 -189 363 -317l-19 -33q-187 90 -346 201q-187 -128 -348 -201z " />
<glyph unicode="&#xcb;" horiz-adv-x="1585" d="M119 0v35q47 3 68.5 4.5t52 5.5t41.5 8.5t27 14.5t20 21t10 31t7 42.5t1 56.5v1303q0 34 -1 56.5t-7 42.5t-10 31t-20 21t-27 14.5t-41.5 8.5t-52 5.5t-68.5 4.5v35h1218l64 -475h-37q-19 86 -36 144.5t-41.5 110.5t-53 83.5t-69.5 54t-93 32t-121 9.5h-454v-754h630v-41 h-630v-686q0 -59 4.5 -88.5t22.5 -52.5t51.5 -30t93.5 -7h26q103 0 164.5 0.5t134.5 5t113 10.5t88.5 20t73 30t55 44.5t46 60t35 80t32.5 100t28 124.5h37l-69 -516h-1313zM565 1976q0 35 23 60.5t59 25.5q34 0 59 -25.5t25 -60.5q0 -32 -25 -57t-59 -25q-35 0 -58.5 24.5 t-23.5 57.5zM926 1976q0 35 23 60.5t59 25.5q34 0 59 -25.5t25 -60.5q0 -32 -25 -57t-59 -25q-35 0 -58.5 24.5t-23.5 57.5z" />
<glyph unicode="&#xcc;" horiz-adv-x="841" d="M-2 2181q0 19 12.5 34t38.5 15q16 0 36 -14t30 -25t35 -40q5 -6 8 -9q59 -72 146 -123t247 -98l-6 -33q-241 53 -394 138.5t-153 154.5zM119 0v35q47 3 68.5 4.5t52 5.5t41.5 8.5t27 14.5t20 21t10 31t7 42.5t1 56.5v1303q0 34 -1 56.5t-7 42.5t-10 31t-20 21t-27 14.5 t-41.5 8.5t-52 5.5t-68.5 4.5v35h604v-35q-47 -3 -68.5 -4.5t-52 -5.5t-41.5 -8.5t-27 -14.5t-20 -21t-10 -31t-7 -42.5t-1 -56.5v-1303q0 -34 1 -56.5t7 -42.5t10 -31t20 -21t27 -14.5t41.5 -8.5t52 -5.5t68.5 -4.5v-35h-604z" />
<glyph unicode="&#xcd;" horiz-adv-x="841" d="M119 0v35q47 3 68.5 4.5t52 5.5t41.5 8.5t27 14.5t20 21t10 31t7 42.5t1 56.5v1303q0 34 -1 56.5t-7 42.5t-10 31t-20 21t-27 14.5t-41.5 8.5t-52 5.5t-68.5 4.5v35h604v-35q-47 -3 -68.5 -4.5t-52 -5.5t-41.5 -8.5t-27 -14.5t-20 -21t-10 -31t-7 -42.5t-1 -56.5v-1303 q0 -34 1 -56.5t7 -42.5t10 -31t20 -21t27 -14.5t41.5 -8.5t52 -5.5t68.5 -4.5v-35h-604zM268 1892q114 30 192.5 67t118 70t83.5 85q3 3 11.5 13.5t12 14.5t11.5 13t12.5 13t11.5 10.5t12.5 10t12 7t12.5 5t12 1.5q26 0 38.5 -15.5t12.5 -34.5q0 -69 -152.5 -153.5 t-394.5 -138.5z" />
<glyph unicode="&#xce;" horiz-adv-x="841" d="M53 1913q208 118 361 319h6q144 -190 362 -317l-18 -33q-187 90 -346 201q-187 -128 -348 -201zM119 0v35q47 3 68.5 4.5t52 5.5t41.5 8.5t27 14.5t20 21t10 31t7 42.5t1 56.5v1303q0 34 -1 56.5t-7 42.5t-10 31t-20 21t-27 14.5t-41.5 8.5t-52 5.5t-68.5 4.5v35h604v-35 q-47 -3 -68.5 -4.5t-52 -5.5t-41.5 -8.5t-27 -14.5t-20 -21t-10 -31t-7 -42.5t-1 -56.5v-1303q0 -34 1 -56.5t7 -42.5t10 -31t20 -21t27 -14.5t41.5 -8.5t52 -5.5t68.5 -4.5v-35h-604z" />
<glyph unicode="&#xcf;" horiz-adv-x="841" d="M119 0v35q47 3 68.5 4.5t52 5.5t41.5 8.5t27 14.5t20 21t10 31t7 42.5t1 56.5v1303q0 34 -1 56.5t-7 42.5t-10 31t-20 21t-27 14.5t-41.5 8.5t-52 5.5t-68.5 4.5v35h604v-35q-47 -3 -68.5 -4.5t-52 -5.5t-41.5 -8.5t-27 -14.5t-20 -21t-10 -31t-7 -42.5t-1 -56.5v-1303 q0 -34 1 -56.5t7 -42.5t10 -31t20 -21t27 -14.5t41.5 -8.5t52 -5.5t68.5 -4.5v-35h-604zM162 1976q0 35 23 60.5t59 25.5q34 0 59 -25.5t25 -60.5q0 -32 -25 -57t-59 -25q-35 0 -58.5 24.5t-23.5 57.5zM522 1976q0 35 23 60.5t59 25.5q34 0 59 -25.5t25 -60.5q0 -32 -25 -57 t-59 -25q-35 0 -58.5 24.5t-23.5 57.5z" />
<glyph unicode="&#xd0;" horiz-adv-x="1972" d="M78 836l31 69h237v617q0 34 -1 56.5t-7 42.5t-10 31t-20 21t-27 14.5t-41.5 8.5t-52 5.5t-68.5 4.5v35h776q274 0 494.5 -110.5t346.5 -310t126 -450.5q0 -252 -126 -451t-346.5 -309t-494.5 -110h-776v35q47 3 68.5 4.5t52 5.5t41.5 8.5t27 14.5t20 21t10 31t7 42.5 t1 56.5v617h-268zM496 41h389q240 0 423.5 105.5t282.5 293.5t99 430t-99 430.5t-282.5 294t-423.5 105.5h-389v-795h276l-31 -69h-245v-795z" />
<glyph unicode="&#xd1;" horiz-adv-x="2035" d="M119 0v35q47 3 68.5 4.5t52 5.5t41.5 8.5t27 14.5t20 21t10 31t7 42.5t1 56.5v1303q0 34 -1 56.5t-7 42.5t-10 31t-20 21t-27 14.5t-41.5 8.5t-52 5.5t-68.5 4.5v35h340l1204 -1491v1272q0 34 -1 56.5t-7 42.5t-10 31t-20 21t-27 14.5t-41.5 8.5t-52 5.5t-68.5 4.5v35 h501v-35q-47 -3 -68.5 -4.5t-52 -5.5t-41.5 -8.5t-27 -14.5t-20 -21t-10 -31t-7 -42.5t-1 -56.5v-1522h-47l-1270 1573v-1354q0 -123 35 -149t193 -35v-35h-502zM604 1925q20 107 81 168t149 61q48 0 113 -25.5t118 -56t112 -56t97 -25.5q115 0 156 145l32 -6 q-20 -107 -80.5 -168t-148.5 -61q-48 0 -113 25.5t-118 56t-112 56t-97 25.5q-115 0 -156 -145z" />
<glyph unicode="&#xd2;" d="M111 874q0 192 73 359.5t198.5 286t300 186.5t370.5 68t370.5 -68t300 -186.5t198.5 -286t73 -359.5q0 -255 -124.5 -461.5t-340 -322t-477.5 -115.5t-477.5 115.5t-340 322t-124.5 461.5zM283 874q0 -180 52.5 -336t148.5 -272.5t243 -183t326 -66.5t326 66.5t243 183 t148.5 272.5t52.5 336t-52.5 336.5t-148.5 272.5t-243 183t-326 67t-326 -67t-243 -183t-148.5 -272.5t-52.5 -336.5zM631 2181q0 19 12.5 34t38.5 15q16 0 36 -14t30 -25t35 -40l3 -3t2.5 -3t2.5 -3q59 -72 146 -123t247 -98l-6 -33q-241 53 -394 138.5t-153 154.5z" />
<glyph unicode="&#xd3;" d="M111 874q0 192 73 359.5t198.5 286t300 186.5t370.5 68t370.5 -68t300 -186.5t198.5 -286t73 -359.5q0 -255 -124.5 -461.5t-340 -322t-477.5 -115.5t-477.5 115.5t-340 322t-124.5 461.5zM283 874q0 -180 52.5 -336t148.5 -272.5t243 -183t326 -66.5t326 66.5t243 183 t148.5 272.5t52.5 336t-52.5 336.5t-148.5 272.5t-243 183t-326 67t-326 -67t-243 -183t-148.5 -272.5t-52.5 -336.5zM901 1892q165 43 246 93t147 129q52 61 73 75q19 13 36 13q26 0 38.5 -15.5t12.5 -34.5q0 -69 -152.5 -153.5t-394.5 -138.5z" />
<glyph unicode="&#xd4;" d="M111 874q0 192 73 359.5t198.5 286t300 186.5t370.5 68t370.5 -68t300 -186.5t198.5 -286t73 -359.5q0 -255 -124.5 -461.5t-340 -322t-477.5 -115.5t-477.5 115.5t-340 322t-124.5 461.5zM283 874q0 -180 52.5 -336t148.5 -272.5t243 -183t326 -66.5t326 66.5t243 183 t148.5 272.5t52.5 336t-52.5 336.5t-148.5 272.5t-243 183t-326 67t-326 -67t-243 -183t-148.5 -272.5t-52.5 -336.5zM686 1913q208 118 361 319h6q144 -190 362 -317l-18 -33q-187 90 -346 201q-185 -127 -349 -201z" />
<glyph unicode="&#xd5;" d="M111 874q0 192 73 359.5t198.5 286t300 186.5t370.5 68t370.5 -68t300 -186.5t198.5 -286t73 -359.5q0 -255 -124.5 -461.5t-340 -322t-477.5 -115.5t-477.5 115.5t-340 322t-124.5 461.5zM283 874q0 -180 52.5 -336t148.5 -272.5t243 -183t326 -66.5t326 66.5t243 183 t148.5 272.5t52.5 336t-52.5 336.5t-148.5 272.5t-243 183t-326 67t-326 -67t-243 -183t-148.5 -272.5t-52.5 -336.5zM629 1925q20 107 80.5 168t148.5 61q48 0 113 -25.5t118 -56t112 -56t97 -25.5q115 0 156 145l33 -6q-20 -107 -81 -168t-149 -61q-48 0 -113 25.5 t-118 56t-112 56t-97 25.5q-114 0 -155 -145z" />
<glyph unicode="&#xd6;" d="M111 874q0 192 73 359.5t198.5 286t300 186.5t370.5 68t370.5 -68t300 -186.5t198.5 -286t73 -359.5q0 -255 -124.5 -461.5t-340 -322t-477.5 -115.5t-477.5 115.5t-340 322t-124.5 461.5zM283 874q0 -180 52.5 -336t148.5 -272.5t243 -183t326 -66.5t326 66.5t243 183 t148.5 272.5t52.5 336t-52.5 336.5t-148.5 272.5t-243 183t-326 67t-326 -67t-243 -183t-148.5 -272.5t-52.5 -336.5zM795 1976q0 35 23 60.5t59 25.5q34 0 59 -25.5t25 -60.5q0 -32 -25 -57t-59 -25q-35 0 -58.5 24.5t-23.5 57.5zM1155 1976q0 35 23 60.5t59 25.5 q34 0 59 -25.5t25 -60.5q0 -32 -25 -57t-59 -25q-35 0 -58.5 24.5t-23.5 57.5z" />
<glyph unicode="&#xd7;" horiz-adv-x="1126" d="M174 223l342 340l-340 342l49 49l340 -342l340 338l43 -45l-338 -338l342 -344l-49 -49l-342 344l-342 -340z" />
<glyph unicode="&#xd8;" d="M111 874q0 192 73 359.5t198.5 286t300 186.5t370.5 68q117 0 243 -29l39 113h78l-45 -132q282 -89 454.5 -318.5t172.5 -533.5q0 -255 -124.5 -461.5t-340 -322t-477.5 -115.5q-151 0 -281 37l-45 -129h-78l53 152q-267 97 -429 321.5t-162 517.5zM283 874 q0 -271 114 -481t322 -307l563 1616q-112 31 -229 31q-179 0 -326 -67t-243 -183t-148.5 -272.5t-52.5 -336.5zM788 59q119 -43 265 -43q179 0 326 66.5t243 183t148.5 272.5t52.5 336q0 186 -54 345.5t-161 278.5t-256 179z" />
<glyph unicode="&#xd9;" horiz-adv-x="1982" d="M82 1706v35h604v-35q-47 -3 -68.5 -4.5t-52 -5.5t-41.5 -8.5t-27 -14.5t-20 -21t-10 -31t-7 -42.5t-1 -56.5v-774q0 -685 567 -685q149 0 257 33.5t186.5 108t117.5 199.5t39 303v815q0 34 -1 56.5t-7 42.5t-10 31t-20 21t-27 14.5t-41.5 8.5t-52 5.5t-68.5 4.5v35h502 v-35q-158 -9 -193 -35t-35 -149v-815q0 -732 -674 -732q-151 0 -275.5 45t-217 133t-143.5 227t-52 318l-2 738v86q0 34 -1 56.5t-7 42.5t-10 31t-20 21t-27 14.5t-41.5 8.5t-52 5.5t-68.5 4.5zM569 2181q0 18 13 33.5t39 15.5q6 0 12 -1.5t12.5 -5t12 -7t12.5 -10 t11.5 -10.5t12.5 -13t11.5 -13t12 -14.5t11.5 -13.5q59 -72 146 -123t247 -98l-6 -33q-241 53 -394 138.5t-153 154.5z" />
<glyph unicode="&#xda;" horiz-adv-x="1982" d="M82 1706v35h604v-35q-47 -3 -68.5 -4.5t-52 -5.5t-41.5 -8.5t-27 -14.5t-20 -21t-10 -31t-7 -42.5t-1 -56.5v-774q0 -685 567 -685q149 0 257 33.5t186.5 108t117.5 199.5t39 303v815q0 34 -1 56.5t-7 42.5t-10 31t-20 21t-27 14.5t-41.5 8.5t-52 5.5t-68.5 4.5v35h502 v-35q-158 -9 -193 -35t-35 -149v-815q0 -732 -674 -732q-151 0 -275.5 45t-217 133t-143.5 227t-52 318l-2 738v86q0 34 -1 56.5t-7 42.5t-10 31t-20 21t-27 14.5t-41.5 8.5t-52 5.5t-68.5 4.5zM840 1892q165 43 246 93t147 129q3 3 11.5 13.5t12 14.5t11.5 13t12.5 13 t11.5 10.5t12.5 10t12 7t12.5 5t12 1.5q26 0 39 -16t13 -34q0 -69 -152.5 -153.5t-394.5 -138.5z" />
<glyph unicode="&#xdb;" horiz-adv-x="1982" d="M82 1706v35h604v-35q-47 -3 -68.5 -4.5t-52 -5.5t-41.5 -8.5t-27 -14.5t-20 -21t-10 -31t-7 -42.5t-1 -56.5v-774q0 -685 567 -685q149 0 257 33.5t186.5 108t117.5 199.5t39 303v815q0 34 -1 56.5t-7 42.5t-10 31t-20 21t-27 14.5t-41.5 8.5t-52 5.5t-68.5 4.5v35h502 v-35q-158 -9 -193 -35t-35 -149v-815q0 -732 -674 -732q-151 0 -275.5 45t-217 133t-143.5 227t-52 318l-2 738v86q0 34 -1 56.5t-7 42.5t-10 31t-20 21t-27 14.5t-41.5 8.5t-52 5.5t-68.5 4.5zM625 1913q206 117 360 319h6q143 -189 363 -317l-19 -33q-187 90 -346 201 q-187 -128 -348 -201z" />
<glyph unicode="&#xdc;" horiz-adv-x="1982" d="M82 1706v35h604v-35q-47 -3 -68.5 -4.5t-52 -5.5t-41.5 -8.5t-27 -14.5t-20 -21t-10 -31t-7 -42.5t-1 -56.5v-774q0 -685 567 -685q149 0 257 33.5t186.5 108t117.5 199.5t39 303v815q0 34 -1 56.5t-7 42.5t-10 31t-20 21t-27 14.5t-41.5 8.5t-52 5.5t-68.5 4.5v35h502 v-35q-158 -9 -193 -35t-35 -149v-815q0 -732 -674 -732q-151 0 -275.5 45t-217 133t-143.5 227t-52 318l-2 738v86q0 34 -1 56.5t-7 42.5t-10 31t-20 21t-27 14.5t-41.5 8.5t-52 5.5t-68.5 4.5zM733 1976q0 35 23 60.5t59 25.5q34 0 59 -25.5t25 -60.5q0 -32 -25 -57 t-59 -25q-35 0 -58.5 24.5t-23.5 57.5zM1094 1976q0 35 23 60.5t59 25.5q34 0 59 -25.5t25 -60.5q0 -32 -25 -57t-59 -25q-35 0 -58.5 24.5t-23.5 57.5z" />
<glyph unicode="&#xdd;" horiz-adv-x="1716" d="M-25 1706v35h574v-35q-99 -3 -138.5 -15t-39.5 -40q0 -20 15 -46t54 -81l490 -693l401 586q36 53 59.5 88.5t40 67t23.5 50.5t3.5 35t-13 23.5t-33 13.5t-49 8t-68.5 3v35h447v-35q-41 -2 -64 -4t-50.5 -13.5t-44 -24t-45.5 -45t-54 -67.5t-70 -100l-463 -672v-561 q0 -123 35 -149t193 -35v-35h-605v35q158 9 193 35t35 149v535l-586 825q-52 73 -105.5 97.5t-134.5 29.5zM707 1892q165 43 246 93t147 129q3 3 11.5 13.5t12 14.5t11.5 13t12.5 13t11.5 10.5t12.5 10t12 7t12.5 5t12 1.5q26 0 39 -16t13 -34q0 -69 -152.5 -153.5 t-394.5 -138.5z" />
<glyph unicode="&#xde;" horiz-adv-x="1476" d="M113 0v35q47 3 68.5 4.5t52 5.5t41.5 8.5t27 14.5t20 21t10 31t7 42.5t1 56.5v1303q0 34 -1 56.5t-7 42.5t-10 31t-20 21t-27 14.5t-41.5 8.5t-52 5.5t-68.5 4.5v35h604v-35q-47 -3 -68.5 -4.5t-52 -5.5t-41 -8.5t-27 -14.5t-20.5 -21t-10.5 -31t-7.5 -42.5t-1 -56.5 l-2 -219h363q164 0 294.5 -50.5t208 -149t77.5 -229.5q0 -132 -79 -229.5t-213 -146.5t-304 -49h-347l2 -230q0 -34 1 -56.5t7.5 -42.5t10.5 -31t20.5 -21t27 -14.5t41 -8.5t52 -5.5t68.5 -4.5v-35h-604zM487 489l316 3q222 2 342.5 100.5t120.5 281.5q0 185 -121 286.5 t-348 101.5h-310v-773z" />
<glyph unicode="&#xdf;" horiz-adv-x="1433" d="M51 0v41h187v1182q0 78 14 148t49.5 139t89.5 119t141 81t197 31h502v-12l-522 -588q64 37 153 37q136 0 245 -76t171.5 -213t62.5 -309q0 -264 -154.5 -434.5t-387.5 -170.5q-163 0 -262 43q-50 22 -50 60q0 25 17.5 39t42.5 14q40 0 125 -45q55 -29 92.5 -42t50 -14 t41.5 -1q101 0 176 69t113.5 186.5t38.5 266.5q0 268 -105 420.5t-268 152.5q-101 0 -152 -59q-18 -21 -28.5 -51t-20.5 -43q-20 -27 -43 -27q-15 0 -23.5 10.5t-8.5 26.5q0 22 23 48.5t58 58t50 53.5l376 561h-354q-173 0 -245 -111.5t-72 -367.5v-1223h-320z" />
<glyph unicode="&#xe0;" horiz-adv-x="1095" d="M104 197q0 123 128 214t352 142l168 39v135q0 142 -48 214.5t-159 72.5q-41 0 -79.5 -12.5t-65 -27.5t-60 -46.5t-50 -50t-48.5 -56.5q-38 -3 -63 20.5t-25 57.5q0 56 75 96q118 62 318 62q176 0 259 -70t81 -203l-6 -575q-2 -75 25.5 -106t101.5 -25l-21 -80 q-106 -20 -160.5 19.5t-68.5 113.5q-117 -81 -205 -118.5t-178 -37.5q-117 0 -194 63.5t-77 158.5zM246 1595q0 23 15 38.5t38 15.5q49 0 68 -62q37 -117 103.5 -198.5t195.5 -178.5l-19 -24q-322 204 -391 364q-10 23 -10 45zM254 211q0 -69 45.5 -118.5t136.5 -49.5 q41 0 78.5 8.5t83.5 32t70 38t84 52.5v373l-123 -29q-85 -19 -149.5 -44.5t-117 -61.5t-80.5 -87t-28 -114z" />
<glyph unicode="&#xe1;" horiz-adv-x="1095" d="M104 197q0 123 128 214t352 142l168 39v135q0 142 -48 214.5t-159 72.5q-41 0 -79.5 -12.5t-65 -27.5t-60 -46.5t-50 -50t-48.5 -56.5q-38 -3 -63 20.5t-25 57.5q0 56 75 96q118 62 318 62q176 0 259 -70t81 -203l-6 -575q-2 -75 25.5 -106t101.5 -25l-21 -80 q-106 -20 -160.5 19.5t-68.5 113.5q-117 -81 -205 -118.5t-178 -37.5q-117 0 -194 63.5t-77 158.5zM254 211q0 -69 45.5 -118.5t136.5 -49.5q41 0 78.5 8.5t83.5 32t70 38t84 52.5v373l-123 -29q-85 -19 -149.5 -44.5t-117 -61.5t-80.5 -87t-28 -114zM473 1210 q119 92 182 172.5t109 190.5q33 76 80 76q22 0 35.5 -13.5t13.5 -36.5q0 -24 -16 -55q-86 -159 -385 -358z" />
<glyph unicode="&#xe2;" horiz-adv-x="1095" d="M104 197q0 123 128 214t352 142l168 39v135q0 142 -48 214.5t-159 72.5q-41 0 -79.5 -12.5t-65 -27.5t-60 -46.5t-50 -50t-48.5 -56.5q-38 -3 -63 20.5t-25 57.5q0 56 75 96q118 62 318 62q176 0 259 -70t81 -203l-6 -575q-2 -75 25.5 -106t101.5 -25l-21 -80 q-106 -20 -160.5 19.5t-68.5 113.5q-117 -81 -205 -118.5t-178 -37.5q-117 0 -194 63.5t-77 158.5zM195 1219q234 204 364 430h6q129 -224 365 -430l-23 -27q-196 141 -344 289q-156 -152 -346 -289zM254 211q0 -69 45.5 -118.5t136.5 -49.5q41 0 78.5 8.5t83.5 32t70 38 t84 52.5v373l-123 -29q-85 -19 -149.5 -44.5t-117 -61.5t-80.5 -87t-28 -114z" />
<glyph unicode="&#xe3;" horiz-adv-x="1095" d="M104 197q0 123 128 214t352 142l168 39v135q0 142 -48 214.5t-159 72.5q-41 0 -79.5 -12.5t-65 -27.5t-60 -46.5t-50 -50t-48.5 -56.5q-38 -3 -63 20.5t-25 57.5q0 56 75 96q118 62 318 62q176 0 259 -70t81 -203l-6 -575q-2 -75 25.5 -106t101.5 -25l-21 -80 q-106 -20 -160.5 19.5t-68.5 113.5q-117 -81 -205 -118.5t-178 -37.5q-117 0 -194 63.5t-77 158.5zM141 1321q20 107 81 168t149 61q48 0 113 -25.5t118 -56.5t112 -56.5t97 -25.5q114 0 156 146l32 -6q-20 -107 -80.5 -168.5t-148.5 -61.5q-48 0 -113 25.5t-118 56.5 t-112 56.5t-97 25.5q-115 0 -156 -145zM254 211q0 -69 45.5 -118.5t136.5 -49.5q41 0 78.5 8.5t83.5 32t70 38t84 52.5v373l-123 -29q-85 -19 -149.5 -44.5t-117 -61.5t-80.5 -87t-28 -114z" />
<glyph unicode="&#xe4;" horiz-adv-x="1095" d="M104 197q0 123 128 214t352 142l168 39v135q0 142 -48 214.5t-159 72.5q-41 0 -79.5 -12.5t-65 -27.5t-60 -46.5t-50 -50t-48.5 -56.5q-38 -3 -63 20.5t-25 57.5q0 56 75 96q118 62 318 62q176 0 259 -70t81 -203l-6 -575q-2 -75 25.5 -106t101.5 -25l-21 -80 q-106 -20 -160.5 19.5t-68.5 113.5q-117 -81 -205 -118.5t-178 -37.5q-117 0 -194 63.5t-77 158.5zM254 211q0 -69 45.5 -118.5t136.5 -49.5q41 0 78.5 8.5t83.5 32t70 38t84 52.5v373l-123 -29q-85 -19 -149.5 -44.5t-117 -61.5t-80.5 -87t-28 -114zM307 1448q0 35 23 60.5 t59 25.5q34 0 59 -25.5t25 -60.5q0 -32 -25 -57t-59 -25q-35 0 -58.5 24.5t-23.5 57.5zM668 1448q0 35 23 60.5t59 25.5q34 0 59 -25.5t25 -60.5q0 -32 -25 -57t-59 -25q-35 0 -58.5 24.5t-23.5 57.5z" />
<glyph unicode="&#xe5;" horiz-adv-x="1095" d="M104 197q0 123 128 214t352 142l168 39v135q0 142 -48 214.5t-159 72.5q-41 0 -79.5 -12.5t-65 -27.5t-60 -46.5t-50 -50t-48.5 -56.5q-38 -3 -63 20.5t-25 57.5q0 56 75 96q118 62 318 62q176 0 259 -70t81 -203l-6 -575q-2 -75 25.5 -106t101.5 -25l-21 -80 q-106 -20 -160.5 19.5t-68.5 113.5q-117 -81 -205 -118.5t-178 -37.5q-117 0 -194 63.5t-77 158.5zM254 211q0 -69 45.5 -118.5t136.5 -49.5q41 0 78.5 8.5t83.5 32t70 38t84 52.5v373l-123 -29q-85 -19 -149.5 -44.5t-117 -61.5t-80.5 -87t-28 -114zM332 1423 q0 94 67.5 161t165.5 67q96 0 164 -67t68 -161t-67.5 -160.5t-164.5 -66.5q-98 0 -165.5 66.5t-67.5 160.5zM406 1423q0 -66 46.5 -113.5t112.5 -47.5q65 0 111.5 47.5t46.5 113.5t-47 114t-111 48q-66 0 -112.5 -48t-46.5 -114z" />
<glyph unicode="&#xe6;" horiz-adv-x="1802" d="M104 201q0 60 41.5 114t117 97.5t158 76t187.5 64.5l166 49q8 86 8 117q0 140 -49 214.5t-139 74.5q-31 0 -66 -11.5t-125 -50.5q-80 -35 -114 -47t-62 -12q-29 0 -47 14t-18 39q0 19 14.5 34.5t34.5 24.5q58 26 152 42t165 16q291 0 357 -187q69 88 169 137.5t212 49.5 q186 0 313 -110.5t133 -301.5h-784q-4 -50 -4 -76q0 -244 116.5 -388t290.5 -144q105 0 185 44.5t151 145.5l29 -20q-142 -232 -410 -232q-131 0 -238.5 55t-179.5 154q-162 -108 -272.5 -158.5t-208.5 -50.5q-119 0 -201 62.5t-82 163.5zM258 219q0 -70 52 -119t153 -49 q19 0 38 2.5t34.5 5t37 11t34 12.5t37.5 17.5t36 18.5t40 22.5t38.5 23.5t43.5 27.5t44 27.5q-82 147 -76 338l-162 -49q-60 -18 -104 -34.5t-93.5 -42.5t-80.5 -54t-51.5 -69t-20.5 -89zM934 686h536q86 0 86 84q0 100 -86 173t-202 73q-130 0 -218.5 -92t-115.5 -238z" />
<glyph unicode="&#xe7;" horiz-adv-x="1075" d="M88 510q0 242 142.5 394.5t369.5 152.5q168 0 276.5 -76.5t108.5 -165.5q0 -36 -23.5 -61t-62.5 -25q-23 0 -35 4q-11 137 -82.5 210t-195.5 73q-116 0 -195 -64t-114 -167t-35 -238q0 -220 111 -364t288 -144q98 0 175.5 50t146.5 159l34 -21q-70 -123 -175 -187.5 t-230 -64.5h-10v-77q73 -3 122.5 -34.5t49.5 -88.5q0 -70 -80 -110t-182 -40q-20 0 -56 4v41q89 -6 156 21t67 80q0 79 -120 90v116q-135 14 -239.5 92.5t-158 194t-53.5 246.5z" />
<glyph unicode="&#xe8;" horiz-adv-x="1118" d="M88 516q0 238 143 389.5t361 151.5q181 0 304 -107.5t132 -304.5h-780q-4 -50 -4 -76q0 -234 113 -382t294 -148q101 0 180 51.5t148 157.5l35 -21q-69 -120 -177 -186t-235 -66q-92 0 -174 29t-143.5 80t-106 119t-67.5 148t-23 165zM254 686h532q84 0 84 84 q0 104 -76.5 175t-205.5 71q-143 0 -227 -91.5t-107 -238.5zM260 1595q0 23 15 38.5t38 15.5q49 0 68 -62q37 -117 103.5 -198.5t195.5 -178.5l-18 -24q-323 205 -392 364q-10 23 -10 45z" />
<glyph unicode="&#xe9;" horiz-adv-x="1118" d="M88 516q0 238 143 389.5t361 151.5q181 0 304 -107.5t132 -304.5h-780q-4 -50 -4 -76q0 -234 113 -382t294 -148q101 0 180 51.5t148 157.5l35 -21q-69 -120 -177 -186t-235 -66q-92 0 -174 29t-143.5 80t-106 119t-67.5 148t-23 165zM254 686h532q84 0 84 84 q0 104 -76.5 175t-205.5 71q-143 0 -227 -91.5t-107 -238.5zM487 1210q119 92 182 172.5t109 190.5q33 76 80 76q22 0 35.5 -13.5t13.5 -36.5q0 -24 -16 -55q-86 -159 -385 -358z" />
<glyph unicode="&#xea;" horiz-adv-x="1118" d="M88 516q0 238 143 389.5t361 151.5q181 0 304 -107.5t132 -304.5h-780q-4 -50 -4 -76q0 -234 113 -382t294 -148q101 0 180 51.5t148 157.5l35 -21q-69 -120 -177 -186t-235 -66q-92 0 -174 29t-143.5 80t-106 119t-67.5 148t-23 165zM209 1219q234 204 364 430h7 q130 -226 364 -430l-22 -27q-196 141 -344 289q-153 -150 -347 -289zM254 686h532q84 0 84 84q0 104 -76.5 175t-205.5 71q-143 0 -227 -91.5t-107 -238.5z" />
<glyph unicode="&#xeb;" horiz-adv-x="1118" d="M88 516q0 238 143 389.5t361 151.5q181 0 304 -107.5t132 -304.5h-780q-4 -50 -4 -76q0 -234 113 -382t294 -148q101 0 180 51.5t148 157.5l35 -21q-69 -120 -177 -186t-235 -66q-92 0 -174 29t-143.5 80t-106 119t-67.5 148t-23 165zM254 686h532q84 0 84 84 q0 104 -76.5 175t-205.5 71q-143 0 -227 -91.5t-107 -238.5zM322 1448q0 35 22.5 60.5t58.5 25.5q34 0 59 -25.5t25 -60.5q0 -32 -25 -57t-59 -25t-57.5 24.5t-23.5 57.5zM682 1448q0 35 23 60.5t59 25.5q34 0 59 -25.5t25 -60.5q0 -32 -25 -57t-59 -25q-35 0 -58.5 24.5 t-23.5 57.5z" />
<glyph unicode="&#xec;" horiz-adv-x="620" d="M-14 1595q0 23 15 38.5t38 15.5q48 0 67 -62q37 -117 104 -198.5t196 -178.5l-19 -24q-322 204 -391 364q-10 23 -10 45zM61 0v39l181 2v811q0 74 -31.5 92t-149.5 21v32l314 50v-1006l180 -2v-39h-494z" />
<glyph unicode="&#xed;" horiz-adv-x="620" d="M61 0v39l181 2v811q0 74 -31.5 92t-149.5 21v32l314 50v-1006l180 -2v-39h-494zM213 1210q119 92 182 172.5t109 190.5q33 76 80 76q22 0 35.5 -13.5t13.5 -36.5q0 -22 -17 -55q-86 -159 -385 -358z" />
<glyph unicode="&#xee;" horiz-adv-x="620" d="M-66 1219q236 206 365 430h6q129 -224 365 -430l-23 -27q-196 141 -344 289q-156 -152 -346 -289zM61 0v39l181 2v811q0 74 -31.5 92t-149.5 21v32l314 50v-1006l180 -2v-39h-494z" />
<glyph unicode="&#xef;" horiz-adv-x="620" d="M47 1448q0 35 23 60.5t59 25.5q34 0 59 -25.5t25 -60.5q0 -32 -25 -57t-59 -25q-35 0 -58.5 24.5t-23.5 57.5zM61 0v39l181 2v811q0 74 -31.5 92t-149.5 21v32l314 50v-1006l180 -2v-39h-494zM408 1448q0 35 22.5 60.5t58.5 25.5q34 0 59 -25.5t25 -60.5q0 -32 -25 -57 t-59 -25t-57.5 24.5t-23.5 57.5z" />
<glyph unicode="&#xf0;" horiz-adv-x="1214" d="M88 518q0 150 70 274t189 194.5t261 70.5q53 0 113 -13l-207 285l-248 -305h-63l282 344l-247 344h157l174 -239l197 239h59l-227 -280l412 -570q116 -148 116 -344q0 -113 -41 -214t-110.5 -173t-165.5 -114t-201 -42q-142 0 -261 70.5t-189 195.5t-70 277zM244 518 q0 -223 97 -362.5t267 -139.5q168 0 265.5 139.5t97.5 362.5q0 220 -97.5 359t-265.5 139t-266 -139t-98 -359z" />
<glyph unicode="&#xf1;" horiz-adv-x="1259" d="M74 0v39l180 2v811q0 74 -31 92t-149 21v32l313 50v-238q82 126 168 187t207 61q148 0 217 -88q34 -45 48.5 -105.5t14.5 -187.5v-635l181 -2v-39h-494v39l180 2v592q0 201 -39 268q-48 86 -161 86q-87 0 -161.5 -55.5t-160.5 -190.5v-700l180 -2v-39h-493zM242 1321 q20 107 80.5 168t148.5 61q48 0 113 -25.5t118 -56.5t112 -56.5t97 -25.5q114 0 156 146l33 -6q-20 -107 -81 -168.5t-149 -61.5q-48 0 -113 25.5t-118 56.5t-112 56.5t-97 25.5q-115 0 -156 -145z" />
<glyph unicode="&#xf2;" horiz-adv-x="1214" d="M88 518q0 150 70 274t189 194.5t261 70.5q105 0 200.5 -41.5t165.5 -113t111 -172t41 -212.5q0 -113 -41 -214t-110.5 -173t-165.5 -114t-201 -42q-142 0 -261 70.5t-189 195.5t-70 277zM244 518q0 -223 97 -362.5t267 -139.5q168 0 265.5 139.5t97.5 362.5 q0 220 -97.5 359t-265.5 139t-266 -139t-98 -359zM289 1595q0 23 15 38.5t38 15.5q49 0 68 -62q37 -117 103.5 -198.5t195.5 -178.5l-19 -24q-322 204 -391 364q-10 23 -10 45z" />
<glyph unicode="&#xf3;" horiz-adv-x="1214" d="M88 518q0 150 70 274t189 194.5t261 70.5q105 0 200.5 -41.5t165.5 -113t111 -172t41 -212.5q0 -113 -41 -214t-110.5 -173t-165.5 -114t-201 -42q-142 0 -261 70.5t-189 195.5t-70 277zM244 518q0 -223 97 -362.5t267 -139.5q168 0 265.5 139.5t97.5 362.5 q0 220 -97.5 359t-265.5 139t-266 -139t-98 -359zM516 1210q119 92 182 172.5t109 190.5q33 76 80 76q22 0 35.5 -13.5t13.5 -36.5q0 -24 -16 -55q-86 -159 -385 -358z" />
<glyph unicode="&#xf4;" horiz-adv-x="1214" d="M88 518q0 150 70 274t189 194.5t261 70.5q105 0 200.5 -41.5t165.5 -113t111 -172t41 -212.5q0 -113 -41 -214t-110.5 -173t-165.5 -114t-201 -42q-142 0 -261 70.5t-189 195.5t-70 277zM238 1219q234 204 364 430h6q129 -224 365 -430l-23 -27q-196 141 -344 289 q-156 -152 -346 -289zM244 518q0 -223 97 -362.5t267 -139.5q168 0 265.5 139.5t97.5 362.5q0 220 -97.5 359t-265.5 139t-266 -139t-98 -359z" />
<glyph unicode="&#xf5;" horiz-adv-x="1214" d="M88 518q0 150 70 274t189 194.5t261 70.5q105 0 200.5 -41.5t165.5 -113t111 -172t41 -212.5q0 -113 -41 -214t-110.5 -173t-165.5 -114t-201 -42q-142 0 -261 70.5t-189 195.5t-70 277zM184 1321q20 107 81 168t149 61q48 0 113 -25.5t118 -56.5t112 -56.5t97 -25.5 q114 0 156 146l32 -6q-20 -107 -80.5 -168.5t-148.5 -61.5q-48 0 -113 25.5t-118 56.5t-112 56.5t-97 25.5q-115 0 -156 -145zM244 518q0 -223 97 -362.5t267 -139.5q168 0 265.5 139.5t97.5 362.5q0 220 -97.5 359t-265.5 139t-266 -139t-98 -359z" />
<glyph unicode="&#xf6;" horiz-adv-x="1214" d="M88 518q0 150 70 274t189 194.5t261 70.5q105 0 200.5 -41.5t165.5 -113t111 -172t41 -212.5q0 -113 -41 -214t-110.5 -173t-165.5 -114t-201 -42q-142 0 -261 70.5t-189 195.5t-70 277zM244 518q0 -223 97 -362.5t267 -139.5q168 0 265.5 139.5t97.5 362.5 q0 220 -97.5 359t-265.5 139t-266 -139t-98 -359zM350 1448q0 35 23 60.5t59 25.5q34 0 59 -25.5t25 -60.5q0 -32 -25 -57t-59 -25q-35 0 -58.5 24.5t-23.5 57.5zM711 1448q0 35 23 60.5t59 25.5q34 0 59 -25.5t25 -60.5q0 -32 -25 -57t-59 -25q-35 0 -58.5 24.5t-23.5 57.5 z" />
<glyph unicode="&#xf7;" horiz-adv-x="1220" d="M160 532v70h901v-70h-901zM500 215q0 51 35 86t86 35t85.5 -35t34.5 -86t-34.5 -86t-85.5 -35t-86 35t-35 86zM500 913q0 51 35 86t86 35t85.5 -35t34.5 -86t-34.5 -85.5t-85.5 -34.5t-86 34.5t-35 85.5z" />
<glyph unicode="&#xf8;" horiz-adv-x="1214" d="M88 518q0 150 70 274t189 194.5t261 70.5q69 0 137 -19l43 123h78l-51 -147q140 -63 225.5 -196t85.5 -300q0 -113 -41 -214t-110.5 -173t-165.5 -114t-201 -42q-65 0 -147 21l-39 -113h-78l49 140q-138 64 -221.5 196t-83.5 299zM244 518q0 -147 43.5 -261t124.5 -177 l317 913q-61 23 -121 23q-168 0 -266 -139t-98 -359zM477 43q59 -27 131 -27q168 0 265.5 139.5t97.5 362.5q0 149 -45 263t-131 175z" />
<glyph unicode="&#xf9;" horiz-adv-x="1265" d="M61 965v32l314 50v-648q0 -199 37 -268q52 -86 161 -86q86 0 160 55.5t158 190.5v561q0 74 -31 92t-149 21v32l313 50v-867q0 -75 32 -92t165 -20v-33l-330 -47v235q-80 -125 -165.5 -186.5t-205.5 -61.5q-151 0 -215 88q-34 45 -48.5 105.5t-14.5 187.5v496 q0 74 -31.5 92t-149.5 21zM330 1595q0 23 15 38.5t38 15.5q49 0 68 -62q37 -117 103.5 -198.5t195.5 -178.5l-19 -24q-322 204 -391 364q-10 23 -10 45z" />
<glyph unicode="&#xfa;" horiz-adv-x="1265" d="M61 965v32l314 50v-648q0 -199 37 -268q52 -86 161 -86q86 0 160 55.5t158 190.5v561q0 74 -31 92t-149 21v32l313 50v-867q0 -75 32 -92t165 -20v-33l-330 -47v235q-80 -125 -165.5 -186.5t-205.5 -61.5q-151 0 -215 88q-34 45 -48.5 105.5t-14.5 187.5v496 q0 74 -31.5 92t-149.5 21zM557 1210q119 92 182 172.5t109 190.5q33 76 80 76q22 0 35.5 -13.5t13.5 -36.5q0 -24 -16 -55q-85 -158 -386 -358z" />
<glyph unicode="&#xfb;" horiz-adv-x="1265" d="M61 965v32l314 50v-648q0 -199 37 -268q52 -86 161 -86q86 0 160 55.5t158 190.5v561q0 74 -31 92t-149 21v32l313 50v-867q0 -75 32 -92t165 -20v-33l-330 -47v235q-80 -125 -165.5 -186.5t-205.5 -61.5q-151 0 -215 88q-34 45 -48.5 105.5t-14.5 187.5v496 q0 74 -31.5 92t-149.5 21zM279 1219q234 204 364 430h6q129 -224 365 -430l-23 -27q-196 141 -344 289q-156 -152 -346 -289z" />
<glyph unicode="&#xfc;" horiz-adv-x="1265" d="M61 965v32l314 50v-648q0 -199 37 -268q52 -86 161 -86q86 0 160 55.5t158 190.5v561q0 74 -31 92t-149 21v32l313 50v-867q0 -75 32 -92t165 -20v-33l-330 -47v235q-80 -125 -165.5 -186.5t-205.5 -61.5q-151 0 -215 88q-34 45 -48.5 105.5t-14.5 187.5v496 q0 74 -31.5 92t-149.5 21zM391 1448q0 35 23 60.5t59 25.5q34 0 59 -25.5t25 -60.5q0 -32 -25 -57t-59 -25q-35 0 -58.5 24.5t-23.5 57.5zM752 1448q0 35 23 60.5t59 25.5q34 0 59 -25.5t25 -60.5q0 -32 -25 -57t-59 -25q-35 0 -58.5 24.5t-23.5 57.5z" />
<glyph unicode="&#xfd;" horiz-adv-x="1146" d="M0 993v31h473v-31q-124 -5 -156 -25.5t-4 -90.5l291 -707l242 575q20 47 30.5 73t19.5 56t10 43.5t-4 30t-16.5 22t-33.5 12t-48.5 8.5t-68.5 3v31h412v-31q-40 -2 -64 -5t-47.5 -15t-35 -22t-31 -43t-31 -59.5t-37.5 -88.5l-457 -1075q-99 -228 -131 -283 q-68 -123 -149 -123q-77 0 -84 80q142 113 216 202.5t144 245.5l101 228l-361 831q-14 32 -19.5 44.5t-17.5 31t-21 24t-27 13.5t-40 10t-55 4zM485 1210q119 92 182 172.5t109 190.5q33 76 80 76q22 0 35.5 -13.5t13.5 -36.5q0 -24 -16 -55q-86 -159 -385 -358z" />
<glyph unicode="&#xfe;" horiz-adv-x="1292" d="M12 1688v28l330 51v-964q61 121 165.5 187.5t229.5 66.5q199 0 333 -147.5t134 -372.5q0 -241 -142.5 -401.5t-356.5 -160.5q-126 0 -220 56t-143 149v-835l180 -2v-39h-493v39l180 2v2263q0 41 -16.5 59.5t-59.5 18.5zM322 483q0 -219 102 -338.5t258 -119.5 q116 0 200 66t125.5 175.5t41.5 247.5q0 203 -96 335t-255 132q-179 0 -277.5 -131.5t-98.5 -366.5z" />
<glyph unicode="&#xff;" horiz-adv-x="1146" d="M0 993v31h473v-31q-124 -5 -156 -25.5t-4 -90.5l291 -707l242 575q20 47 30.5 73t19.5 56t10 43.5t-4 30t-16.5 22t-33.5 12t-48.5 8.5t-68.5 3v31h412v-31q-40 -2 -64 -5t-47.5 -15t-35 -22t-31 -43t-31 -59.5t-37.5 -88.5l-457 -1075q-99 -228 -131 -283 q-68 -123 -149 -123q-77 0 -84 80q142 113 216 202.5t144 245.5l101 228l-361 831q-14 32 -19.5 44.5t-17.5 31t-21 24t-27 13.5t-40 10t-55 4zM319 1448q0 35 23 60.5t59 25.5q34 0 59 -25.5t25 -60.5q0 -32 -25 -57t-59 -25q-35 0 -58.5 24.5t-23.5 57.5zM680 1448 q0 35 23 60.5t59 25.5q34 0 59 -25.5t25 -60.5q0 -32 -25 -57t-59 -25q-35 0 -58.5 24.5t-23.5 57.5z" />
<glyph unicode="&#x152;" horiz-adv-x="2715" d="M111 870q0 188 73.5 350.5t201 276.5t306 179t381.5 65h1395l63 -475h-37q-19 86 -36 144.5t-41 110.5t-53 83.5t-70 54t-92.5 32t-120.5 9.5h-455v-754h631v-41h-631v-686q0 -59 4.5 -88.5t22.5 -52.5t51.5 -30t93.5 -7h27q103 0 164.5 0.5t134.5 5t113 10.5t88.5 20 t73 30t55 44.5t46 60t35 80t32.5 100t28 124.5h37l-70 -516h-1489q-272 0 -491.5 110t-345 309t-125.5 451zM274 870q0 -242 99 -430t283.5 -293.5t426.5 -105.5h222q60 0 93 7t51.5 30t23 53t4.5 88v1303q0 59 -4.5 88.5t-22.5 52.5t-51.5 30t-93.5 7h-222 q-242 0 -426.5 -105.5t-283.5 -294t-99 -430.5z" />
<glyph unicode="&#x153;" horiz-adv-x="2002" d="M88 518q0 150 70 274t189 194.5t261 70.5q136 0 253 -66.5t186 -181.5q65 117 177.5 182.5t252.5 65.5q181 0 304 -107.5t132 -304.5h-780q-5 -63 -5 -76q0 -234 113.5 -382t294.5 -148q101 0 180 51.5t148 157.5l34 -21q-69 -120 -176.5 -186t-234.5 -66 q-146 0 -259 68.5t-179 183.5q-70 -117 -187 -184.5t-254 -67.5q-142 0 -261 70.5t-189 195.5t-70 277zM244 518q0 -223 97 -362.5t267 -139.5q168 0 265.5 139.5t97.5 362.5q0 220 -97.5 359t-265.5 139t-266 -139t-98 -359zM1139 686h532q84 0 84 84q0 104 -76.5 175 t-205.5 71q-143 0 -227 -91.5t-107 -238.5z" />
<glyph unicode="&#x178;" horiz-adv-x="1716" d="M-25 1706v35h574v-35q-99 -3 -138.5 -15t-39.5 -40q0 -20 15 -46t54 -81l490 -693l401 586q36 53 59.5 88.5t40 67t23.5 50.5t3.5 35t-13 23.5t-33 13.5t-49 8t-68.5 3v35h447v-35q-41 -2 -64 -4t-50.5 -13.5t-44 -24t-45.5 -45t-54 -67.5t-70 -100l-463 -672v-561 q0 -123 35 -149t193 -35v-35h-605v35q158 9 193 35t35 149v535l-586 825q-52 73 -105.5 97.5t-134.5 29.5zM600 1976q0 35 23 60.5t59 25.5q34 0 59 -25.5t25 -60.5q0 -32 -25 -57t-59 -25q-35 0 -58.5 24.5t-23.5 57.5zM961 1976q0 35 22.5 60.5t58.5 25.5q34 0 59 -25.5 t25 -60.5q0 -32 -25 -57t-59 -25t-57.5 24.5t-23.5 57.5z" />
<glyph unicode="&#x2c6;" horiz-adv-x="921" d="M94 1219q236 206 365 430h6q130 -226 364 -430l-22 -27q-196 141 -344 289q-156 -152 -346 -289z" />
<glyph unicode="&#x2dc;" horiz-adv-x="921" d="M33 1321q20 107 80.5 168t148.5 61q48 0 113 -25.5t118 -56.5t112 -56.5t97 -25.5q114 0 156 146l33 -6q-20 -107 -80.5 -168.5t-148.5 -61.5q-48 0 -113 25.5t-118 56.5t-112.5 56.5t-97.5 25.5q-114 0 -155 -145z" />
<glyph unicode="&#x2000;" horiz-adv-x="1116" />
<glyph unicode="&#x2001;" horiz-adv-x="2232" />
<glyph unicode="&#x2002;" horiz-adv-x="1116" />
<glyph unicode="&#x2003;" horiz-adv-x="2232" />
<glyph unicode="&#x2004;" horiz-adv-x="744" />
<glyph unicode="&#x2005;" horiz-adv-x="558" />
<glyph unicode="&#x2006;" horiz-adv-x="372" />
<glyph unicode="&#x2007;" horiz-adv-x="372" />
<glyph unicode="&#x2008;" horiz-adv-x="279" />
<glyph unicode="&#x2009;" horiz-adv-x="446" />
<glyph unicode="&#x200a;" horiz-adv-x="124" />
<glyph unicode="&#x2010;" horiz-adv-x="911" d="M160 481l18 117h574l-19 -117h-573z" />
<glyph unicode="&#x2011;" horiz-adv-x="911" d="M160 481l18 117h574l-19 -117h-573z" />
<glyph unicode="&#x2012;" horiz-adv-x="911" d="M160 481l18 117h574l-19 -117h-573z" />
<glyph unicode="&#x2013;" horiz-adv-x="1320" d="M160 496v69h1001v-69h-1001z" />
<glyph unicode="&#x2014;" horiz-adv-x="1851" d="M160 496v69h1532v-69h-1532z" />
<glyph unicode="&#x2018;" horiz-adv-x="503" d="M98 1149q0 108 71 204.5t198 166.5l18 -33q-192 -113 -192 -240q0 -60 40.5 -87t85.5 -27h17q37 -32 37 -86q0 -51 -35 -86t-86 -35q-72 0 -113 67t-41 156z" />
<glyph unicode="&#x2019;" horiz-adv-x="512" d="M127 948q192 113 192 240q0 60 -40.5 87.5t-85.5 27.5h-17q-37 32 -37 86q0 51 35 85.5t86 34.5q72 0 113 -67t41 -156q0 -108 -71 -204.5t-198 -166.5z" />
<glyph unicode="&#x201a;" horiz-adv-x="518" d="M111 -346q192 113 192 240q0 60 -41 87t-86 27h-16q-37 32 -37 86q0 51 35 86t86 35q72 0 112.5 -67t40.5 -156q0 -108 -70.5 -204.5t-197.5 -166.5z" />
<glyph unicode="&#x201c;" horiz-adv-x="872" d="M98 1149q0 108 71 204.5t198 166.5l18 -33q-192 -113 -192 -240q0 -60 40.5 -87t85.5 -27h17q37 -32 37 -86q0 -51 -35 -86t-86 -35q-72 0 -113 67t-41 156zM467 1149q0 108 70.5 204.5t197.5 166.5l19 -33q-193 -114 -193 -240q0 -60 41 -87t86 -27h17q36 -31 36 -86 q0 -51 -34.5 -86t-85.5 -35q-72 0 -113 67t-41 156z" />
<glyph unicode="&#x201d;" horiz-adv-x="880" d="M119 948q192 113 192 240q0 60 -41 87.5t-86 27.5h-16q-37 32 -37 86q0 51 35 85.5t86 34.5q72 0 113 -67t41 -156q0 -108 -71 -204.5t-198 -166.5zM487 948q193 114 193 240q0 60 -41 87.5t-86 27.5h-16q-37 32 -37 86q0 51 35 85.5t86 34.5q72 0 112.5 -67t40.5 -156 q0 -108 -70.5 -204.5t-197.5 -166.5z" />
<glyph unicode="&#x201e;" horiz-adv-x="886" d="M111 -346q192 113 192 240q0 60 -41 87t-86 27h-16q-37 32 -37 86q0 51 35 86t86 35q72 0 112.5 -67t40.5 -156q0 -108 -70.5 -204.5t-197.5 -166.5zM479 -346q193 114 193 240q0 60 -41 87t-86 27h-17q-36 31 -36 86q0 51 34.5 86t85.5 35q72 0 113 -67t41 -156 q0 -108 -70.5 -204.5t-197.5 -166.5z" />
<glyph unicode="&#x2022;" horiz-adv-x="901" d="M158 616q0 122 86 207.5t207 85.5t206.5 -85.5t85.5 -207.5t-85.5 -207t-206.5 -85q-122 0 -207.5 85.5t-85.5 206.5z" />
<glyph unicode="&#x2026;" horiz-adv-x="1544" d="M123 96q0 51 35 86t86 35t86 -35t35 -86t-35 -86t-86 -35t-86 35t-35 86zM651 96q0 51 35 86t86 35t86 -35t35 -86t-35 -86t-86 -35t-86 35t-35 86zM1180 96q0 51 34.5 86t85.5 35t86 -35t35 -86t-35 -86t-86 -35t-85.5 35t-34.5 86z" />
<glyph unicode="&#x202f;" horiz-adv-x="446" />
<glyph unicode="&#x2039;" horiz-adv-x="622" d="M92 535v8l400 393l28 -21l-280 -374l280 -379l-28 -21z" />
<glyph unicode="&#x203a;" horiz-adv-x="622" d="M102 162l281 379l-281 374l29 21l399 -393v-8l-399 -394z" />
<glyph unicode="&#x205f;" horiz-adv-x="558" />
<glyph unicode="&#x20ac;" horiz-adv-x="1378" d="M61 702l31 70h176q-2 31 -2 96q0 103 8 179h-213l31 69h193q22 143 69.5 260.5t120 207t177.5 139t233 49.5q184 0 299.5 -84.5t115.5 -196.5q0 -36 -24.5 -62t-63.5 -26q-24 0 -36 4q-27 324 -302 324q-103 0 -183 -46.5t-132.5 -131.5t-84.5 -193t-46 -244h676l-31 -69 h-649q-6 -79 -6 -164q0 -76 2 -111h553l-31 -70h-516q27 -327 153.5 -495t333.5 -168q117 0 194 49.5t148 161.5l35 -21q-143 -252 -426 -252q-245 0 -401.5 191.5t-188.5 533.5h-213z" />
<glyph unicode="&#x2122;" horiz-adv-x="2553" d="M55 1366l37 375h932l37 -375h-25l-57 190q-24 78 -58.5 110t-105.5 32h-190v-996v-26t3 -19.5t5.5 -15.5t12.5 -10t19 -7.5t29.5 -4t40 -3.5t53.5 -2v-30h-462v30l69 3t45.5 5.5t30 8t14 15.5t7 22.5t0.5 33.5v996h-191q-71 0 -105.5 -32t-58.5 -110l-57 -190h-25z M1102 584v30l69 3t45.5 5.5t30 8t14 15.5t7 22.5t0.5 33.5v920q0 20 -1 29.5t-3 21t-10 15.5t-17 9t-30 6.5t-42.5 3.5t-60.5 3v31h289l383 -684l360 684h297v-31q-39 -1 -60.5 -3t-42.5 -3.5t-30 -6.5t-17 -9t-10 -15.5t-3 -21t-1 -29.5v-920q0 -23 0.5 -33.5t7 -22.5 t14 -15.5t30 -8t45.5 -5.5l69 -3v-30h-463v30q39 1 60.5 3t42.5 3.5t30 6.5t17 9t10 15.5t3 21t1 29.5v938l-397 -745h-13l-413 709v-902q0 -20 1 -29.5t3 -21t10 -15.5t17 -9t30 -6.5t42.5 -3.5t60.5 -3v-30h-375z" />
<glyph unicode="&#x25fc;" horiz-adv-x="1024" d="M0 0v1024h1024v-1024h-1024z" />
</font>
</defs>
</svg>
