<svg width="1278" height="247" viewBox="0 0 1278 247" fill="none" xmlns="http://www.w3.org/2000/svg">
<path d="M248.048 40.864C259.424 40.864 268.352 32.368 268.352 21.784C268.352 11.344 259.424 2.848 248.048 2.848C236.6 2.848 227.672 11.344 227.672 21.784C227.672 32.368 236.6 40.864 248.048 40.864ZM248.048 39.424C239.264 39.424 233.144 32.152 233.144 21.784C233.144 11.56 239.264 4.288 248.048 4.288C256.76 4.288 262.88 11.56 262.88 21.784C262.88 32.152 256.76 39.424 248.048 39.424Z" fill="#FFFBF0"/>
<path d="M315.367 36.472H304.207L304.279 14.944C304.279 12.352 304.639 11.2 305.719 9.544C307.231 7.168 311.407 5.512 311.407 3.928C311.407 3.208 310.975 2.776 310.183 2.776C309.823 2.776 309.319 2.92 308.815 3.352C308.095 3.928 307.591 5.944 302.407 10.984L273.103 39.568V40H299.743L299.671 64.48H304.207V40H313.783L315.367 36.472ZM299.743 29.92V36.472H278.647L302.623 13.216C299.815 18.472 299.743 26.464 299.743 29.92Z" fill="#FFFBF0"/>
<path d="M307.177 117H349.837V114.975C335.527 114.435 334.717 112.68 340.117 104.85L373.867 57.33H428.407V54.63H375.757L411.127 4.94997H446.767C467.962 4.94997 469.177 9.26997 460.132 33.57H462.697L477.547 2.24997H383.317V4.27497C397.627 4.81497 398.437 6.56997 393.037 14.4L330.397 102.555C323.512 112.14 321.622 114.435 307.177 114.975V117Z" fill="#FFFBF0"/>
<path d="M527.766 118.62C562.731 118.62 589.866 93.645 589.866 59.355C589.866 25.065 562.731 0.0899658 527.766 0.0899658C492.801 0.0899658 465.666 25.065 465.666 59.355C465.666 93.645 492.801 118.62 527.766 118.62ZM527.766 115.92C495.5 115.92 477.005 90.945 477.005 59.355C477.005 27.765 495.5 2.78997 527.766 2.78997C560.031 2.78997 578.526 27.765 578.526 59.355C578.526 90.945 560.031 115.92 527.766 115.92Z" fill="#FFFBF0"/>
<path d="M597.798 59.355C597.798 93.51 621.828 118.62 656.658 118.62C681.633 118.62 697.428 106.605 705.258 85.95L702.558 85.14C695.133 103.905 681.633 114.57 658.818 114.57C626.553 114.57 609.138 88.38 609.138 59.355C609.138 27.63 625.068 2.78997 655.713 2.78997C681.093 2.78997 699.858 19.125 703.368 37.89H705.663L704.718 4.40997H702.288C701.748 9.40497 699.993 11.565 697.428 11.565C695.133 11.565 693.378 10.62 690.813 9.26997C684.063 5.75996 672.453 0.0899658 655.983 0.0899658C622.773 0.0899658 597.798 24.795 597.798 59.355Z" fill="#FFFBF0"/>
<path d="M709.693 4.54496C723.058 5.35497 724.678 5.48997 724.678 16.695V22.365L724.813 70.965C724.948 103.095 743.848 118.62 770.173 118.62C799.063 118.62 814.588 103.365 814.588 70.425V16.695C814.588 5.48997 816.208 5.35497 829.573 4.54496V2.24997H796.498V4.54496C809.863 5.35497 811.483 5.48997 811.483 16.695V70.425C811.483 102.15 797.308 112.815 771.928 112.815C748.573 112.815 734.533 99.45 734.533 67.725V16.695C734.533 5.48997 736.153 5.35497 749.518 4.54496V2.24997H709.693V4.54496Z" fill="#FFFBF0"/>
<path d="M822.713 79.605H819.608C820.823 104.04 834.188 118.485 858.083 118.485C885.622 118.485 910.463 99.045 910.463 70.425C910.463 56.925 905.737 44.235 905.737 32.355C905.737 9.80997 918.427 4.94997 940.568 4.94997H982.958V2.24997H940.568C914.648 2.24997 895.883 10.35 895.883 38.7C895.883 50.85 899.932 62.595 899.932 74.61C899.932 98.235 881.302 115.785 858.083 115.785C835.673 115.785 823.928 101.88 822.713 79.605Z" fill="#FFFBF0"/>
<path d="M0.636719 245H36.0067V242.975C20.3467 242.435 19.8067 241.895 33.7117 222.455L92.3017 140.105L71.6467 245H75.1567L211.507 133.355L142.522 230.555C135.637 240.14 133.747 242.435 119.302 242.975V245H161.962V242.975C147.652 242.435 146.842 240.545 152.242 232.85L214.882 144.695C221.767 135.11 223.657 132.815 238.102 132.275V130.25H210.562L83.5267 234.2L103.912 130.25H76.9117V132.275C90.6817 132.815 92.9767 133.49 83.5267 146.72L26.0167 227.585C16.0267 241.76 13.7317 242.435 0.636719 242.975V245Z" fill="#FFFBF0"/>
<path d="M279.306 246.62C314.271 246.62 341.406 221.645 341.406 187.355C341.406 153.065 314.271 128.09 279.306 128.09C244.341 128.09 217.206 153.065 217.206 187.355C217.206 221.645 244.341 246.62 279.306 246.62ZM279.306 243.92C247.041 243.92 228.546 218.945 228.546 187.355C228.546 155.765 247.041 130.79 279.306 130.79C311.571 130.79 330.066 155.765 330.066 187.355C330.066 218.945 311.571 243.92 279.306 243.92Z" fill="#FFFBF0"/>
<path d="M257.479 245H292.849V242.975C277.189 242.435 276.65 241.895 290.555 222.455L346.984 143.075L359.674 246.485H363.32L433.52 147.665C443.51 133.625 445.804 132.815 458.899 132.275V130.25H423.529V132.275C439.189 132.815 439.73 133.355 425.825 152.795L368.45 233.39L355.76 130.25H333.755V132.275C347.525 132.815 349.549 133.76 340.37 146.72L282.859 227.585C272.87 241.625 270.574 242.435 257.479 242.975V245Z" fill="#FFFBF0"/>
<path d="M495.9 246.62C530.865 246.62 558 221.645 558 187.355C558 153.065 530.865 128.09 495.9 128.09C460.935 128.09 433.8 153.065 433.8 187.355C433.8 221.645 460.935 246.62 495.9 246.62ZM495.9 243.92C463.635 243.92 445.14 218.945 445.14 187.355C445.14 155.765 463.635 130.79 495.9 130.79C528.165 130.79 546.66 155.765 546.66 187.355C546.66 218.945 528.165 243.92 495.9 243.92Z" fill="#FFFBF0"/>
<path d="M483.763 245H519.133V242.975C503.473 242.435 502.933 241.895 516.838 222.455L573.268 143.075L585.958 246.485H589.603L659.803 147.665C669.793 133.625 672.088 132.815 685.183 132.275V130.25H649.813V132.275C665.473 132.815 666.013 133.355 652.108 152.795L594.733 233.39L582.043 130.25H560.038V132.275C573.808 132.815 575.833 133.76 566.653 146.72L509.143 227.585C499.153 241.625 496.858 242.435 483.763 242.975V245Z" fill="#FFFBF0"/>
<path d="M715.673 246.62C750.638 246.62 777.773 221.645 777.773 187.355C777.773 153.065 750.638 128.09 715.673 128.09C680.708 128.09 653.573 153.065 653.573 187.355C653.573 221.645 680.708 246.62 715.673 246.62ZM715.673 243.92C683.408 243.92 664.913 218.945 664.913 187.355C664.913 155.765 683.408 130.79 715.673 130.79C747.938 130.79 766.433 155.765 766.433 187.355C766.433 218.945 747.938 243.92 715.673 243.92Z" fill="#FFFBF0"/>
<path d="M867.64 153.2C874.795 134.03 876.01 133.085 887.62 132.545V130.25H856.705V132.545C870.205 133.22 871.015 134.165 863.32 154.82L832.54 238.115C831.73 240.275 830.92 241.49 829.3 241.49C827.68 241.49 827.005 240.41 826.06 237.98L790.69 143.615C786.91 133.625 790.555 132.95 802.165 132.545V130.25H764.5V132.545C775.705 133.085 776.515 134.03 780.43 144.29L816.205 238.52C818.23 243.92 821.605 246.62 826.465 246.62C831.325 246.62 834.025 243.785 835.915 238.79L867.64 153.2Z" fill="#FFFBF0"/>
<path d="M936.4 246.62C971.365 246.62 998.5 221.645 998.5 187.355C998.5 153.065 971.365 128.09 936.4 128.09C901.435 128.09 874.3 153.065 874.3 187.355C874.3 221.645 901.435 246.62 936.4 246.62ZM936.4 243.92C904.135 243.92 885.64 218.945 885.64 187.355C885.64 155.765 904.135 130.79 936.4 130.79C968.665 130.79 987.16 155.765 987.16 187.355C987.16 218.945 968.665 243.92 936.4 243.92Z" fill="#FFFBF0"/>
<path d="M995.12 132.545C1008.48 133.355 1010.1 133.49 1010.1 144.695V150.365L1010.24 198.965C1010.38 231.095 1029.28 246.62 1055.6 246.62C1084.49 246.62 1100.02 231.365 1100.02 198.425V144.695C1100.02 133.49 1101.64 133.355 1115 132.545V130.25H1081.92V132.545C1095.29 133.355 1096.91 133.49 1096.91 144.695V198.425C1096.91 230.15 1082.73 240.815 1057.35 240.815C1034 240.815 1019.96 227.45 1019.96 195.725V144.695C1019.96 133.49 1021.58 133.355 1034.94 132.545V130.25H995.12V132.545Z" fill="#FFFBF0"/>
<path d="M1117.32 207.605H1114.21C1115.43 232.04 1128.79 246.485 1152.69 246.485C1180.23 246.485 1205.07 227.045 1205.07 198.425C1205.07 184.925 1200.34 172.235 1200.34 160.355C1200.34 137.81 1213.03 132.95 1235.17 132.95H1277.56V130.25H1235.17C1209.25 130.25 1190.49 138.35 1190.49 166.7C1190.49 178.85 1194.54 190.595 1194.54 202.61C1194.54 226.235 1175.91 243.785 1152.69 243.785C1130.28 243.785 1118.53 229.88 1117.32 207.605Z" fill="#FFFBF0"/>
</svg>
