<svg width="1166" height="400" viewBox="0 0 1166 400" fill="none" xmlns="http://www.w3.org/2000/svg">
<path d="M175.048 38.864C186.424 38.864 195.352 30.368 195.352 19.784C195.352 9.34402 186.424 0.848022 175.048 0.848022C163.6 0.848022 154.672 9.34402 154.672 19.784C154.672 30.368 163.6 38.864 175.048 38.864ZM175.048 37.424C166.264 37.424 160.144 30.152 160.144 19.784C160.144 9.56002 166.264 2.28802 175.048 2.28802C183.76 2.28802 189.88 9.56002 189.88 19.784C189.88 30.152 183.76 37.424 175.048 37.424Z" fill="#FFFBF0"/>
<path d="M208.167 33.896C208.167 36.344 206.655 36.704 200.967 36.92V38H220.047V36.92C214.359 36.704 212.847 36.344 212.847 33.896V6.10402C212.847 3.65602 214.359 3.29602 220.047 3.08002V2.00002H200.967V3.08002C206.655 3.29602 208.167 3.65602 208.167 6.10402V33.896Z" fill="#FFFBF0"/>
<path d="M206.219 164.846H253.635V162.129C232.642 161.405 231.918 160.68 250.559 134.6L329.103 24.1193L301.413 164.846H306.118L488.905 15.0635L396.426 145.466C387.196 158.326 384.662 161.405 365.298 162.129V164.846H422.487V162.129C403.303 161.405 402.217 158.869 409.456 148.545L493.43 30.2772C502.659 17.418 505.193 14.339 524.557 13.6146V10.8978H487.638L317.339 150.357L344.667 10.8978H308.471V13.6146C326.931 14.339 330.007 15.2446 317.339 32.9939L240.243 141.482C226.851 160.499 223.774 161.405 206.219 162.129V164.846Z" fill="#FFFBF0"/>
<path d="M583.319 167.019C630.192 167.019 666.569 133.513 666.569 87.5096C666.569 41.5063 630.192 8 583.319 8C536.446 8 500.07 41.5063 500.07 87.5096C500.07 133.513 536.446 167.019 583.319 167.019ZM583.319 163.397C540.066 163.397 515.272 129.891 515.272 87.5096C515.272 45.1286 540.066 11.6223 583.319 11.6223C626.573 11.6223 651.367 45.1286 651.367 87.5096C651.367 129.891 626.573 163.397 583.319 163.397Z" fill="#FFFBF0"/>
<path d="M667.655 164.846H711.995V161.767C694.078 160.68 691.906 160.499 691.906 145.466V25.7493L804.112 164.846H808.274V30.2772C808.274 15.2446 810.446 15.0635 828.363 13.9768V10.8978H784.023V13.9768C801.94 15.0635 804.112 15.2446 804.112 30.2772V142.75L697.698 10.8978H667.655V13.9768C685.572 15.0635 687.744 15.2446 687.744 30.2772V145.466C687.744 160.499 685.572 160.68 667.655 161.767V164.846Z" fill="#FFFBF0"/>
<path d="M914.667 167.019C961.54 167.019 997.916 133.513 997.916 87.5096C997.916 41.5063 961.54 8 914.667 8C867.794 8 831.417 41.5063 831.417 87.5096C831.417 133.513 867.794 167.019 914.667 167.019ZM914.667 163.397C871.413 163.397 846.619 129.891 846.619 87.5096C846.619 45.1286 871.413 11.6223 914.667 11.6223C957.92 11.6223 982.714 45.1286 982.714 87.5096C982.714 129.891 957.92 163.397 914.667 163.397Z" fill="#FFFBF0"/>
<path d="M294.262 335.475L294.63 336.429C294.63 368.848 275.99 394.929 246.31 394.929C216.086 394.929 203.961 368.848 194.912 339.689L178.624 287.89C174.643 275.212 169.937 264.888 164.689 256.919C188.578 252.753 214.277 240.619 214.277 217.798C214.277 208.018 208.304 198.962 198.17 192.08C205.59 187.733 213.915 184.835 223.868 182.843L222.783 179.945C211.924 182.3 203.056 185.56 195.274 190.269C184.053 183.567 168.851 179.583 151.659 179.583C77.4581 179.583 0 240.619 0 297.308C0 323.026 15.2021 338.421 40.1769 338.421C62.618 338.421 89.0406 328.46 123.064 281.732L140.076 258.368C141.886 258.549 143.877 258.549 145.867 258.549C150.03 258.549 154.554 258.187 159.079 257.643C162.517 263.62 165.413 270.865 167.766 279.74L184.596 346.571C193.283 380.983 211.743 400 242.69 400C277.438 400 298.974 373.195 298.974 336.429L298.606 335.475H294.262ZM119.445 280.283C84.6972 327.735 59.5414 334.799 40.9008 334.799C17.9167 334.799 5.24833 321.396 5.24833 298.576C5.24833 246.052 77.4581 190.812 148.401 190.812C164.327 190.812 176.814 192.985 186.044 196.427C176.271 204.033 167.585 214.357 157.631 228.122L148.582 240.438C141.524 236.091 133.742 233.917 125.055 233.917C116.368 233.917 111.301 238.083 111.301 242.249C111.301 250.037 121.254 256.013 135.733 257.825L119.445 280.283ZM207.399 220.515C207.399 240.619 183.511 250.399 162.336 253.659C158.898 249.131 155.459 245.509 151.478 242.611L160.345 230.476C171.023 215.625 179.891 205.301 189.483 197.875C201.608 203.309 207.399 211.64 207.399 220.515ZM146.41 243.516L138.447 254.383C125.236 252.753 118.54 247.863 118.54 243.516C118.54 240.256 121.797 238.083 127.951 238.083C134.647 238.083 140.8 239.894 146.41 243.516ZM146.953 254.746C145.505 254.746 144.058 254.746 142.791 254.564L149.306 245.69C152.021 248.044 154.554 250.761 156.907 254.202C153.468 254.565 150.03 254.746 146.953 254.746Z" fill="#FFFBF0"/>
<path d="M305.629 338.602C352.502 338.602 388.879 305.096 388.879 259.092C388.879 213.089 352.502 179.583 305.629 179.583C258.756 179.583 222.38 213.089 222.38 259.092C222.38 305.096 258.756 338.602 305.629 338.602ZM305.629 334.98C262.376 334.98 237.582 301.473 237.582 259.092C237.582 216.711 262.376 183.205 305.629 183.205C348.883 183.205 373.677 216.711 373.677 259.092C373.677 301.473 348.883 334.98 305.629 334.98Z" fill="#FFFBF0"/>
<path d="M387.376 185.56C405.292 186.646 407.464 186.827 407.464 201.86V209.467L407.645 274.668C407.826 317.774 433.163 338.602 468.453 338.602C507.182 338.602 527.995 318.136 527.995 273.944V201.86C527.995 186.827 530.166 186.646 548.083 185.56V182.481H503.744V185.56C521.661 186.646 523.832 186.827 523.832 201.86V273.944C523.832 316.506 504.83 330.814 470.806 330.814C439.497 330.814 420.675 312.884 420.675 270.322V201.86C420.675 186.827 422.847 186.646 440.764 185.56V182.481H387.376V185.56Z" fill="#FFFBF0"/>
<path d="M548.547 224.499H551.805C557.958 196.064 564.111 186.103 588.362 186.103H613.699V317.049C613.699 332.082 611.527 332.263 593.61 333.35V336.429H646.998V333.35C629.082 332.263 626.91 332.082 626.91 317.049V186.103H652.247C676.498 186.103 682.651 196.064 688.804 224.499H692.062L686.451 182.481H554.157L548.547 224.499Z" fill="#FFFBF0"/>
<path d="M692.909 336.429H746.297V333.35C728.38 332.263 726.208 332.082 726.208 317.049V201.86C726.208 186.827 728.38 186.646 746.297 185.56V182.481H692.909V185.56C710.825 186.646 712.997 186.827 712.997 201.86V317.049C712.997 332.082 710.825 332.263 692.909 333.35V336.429Z" fill="#FFFBF0"/>
<path d="M745.216 336.429H789.555V333.35C771.638 332.263 769.467 332.082 769.467 317.049V197.332L881.672 336.429H885.835V201.86C885.835 186.827 888.007 186.646 905.923 185.56V182.481H861.584V185.56C879.501 186.646 881.672 186.827 881.672 201.86V314.333L775.258 182.481H745.216V185.56C763.133 186.646 765.304 186.827 765.304 201.86V317.049C765.304 332.082 763.133 332.263 745.216 333.35V336.429Z" fill="#FFFBF0"/>
<path d="M903.586 185.56C921.503 186.646 923.675 186.827 923.675 201.86V209.467L923.856 274.668C924.037 317.774 949.374 338.602 984.664 338.602C1023.39 338.602 1044.21 318.136 1044.21 273.944V201.86C1044.21 186.827 1046.38 186.646 1064.29 185.56V182.481H1019.95V185.56C1037.87 186.646 1040.04 186.827 1040.04 201.86V273.944C1040.04 316.506 1021.04 330.814 987.017 330.814C955.708 330.814 936.886 312.884 936.886 270.322V201.86C936.886 186.827 939.058 186.646 956.975 185.56V182.481H903.586V185.56Z" fill="#FFFBF0"/>
<path d="M1069 286.803H1065.74L1066.82 334.799H1070.08C1070.26 328.097 1072.07 326.648 1074.24 326.648C1081.48 326.648 1090.35 338.602 1115.33 338.602C1141.39 338.602 1166 322.845 1166 297.489C1166 273.219 1146.64 261.447 1126.19 251.848L1110.98 244.784C1091.44 235.729 1080.58 225.586 1080.58 209.829C1080.58 194.253 1093.61 183.205 1113.34 183.205C1134.69 183.205 1154.06 197.694 1158.04 223.05L1161.11 222.869L1160.21 183.205H1157.31C1156.41 190.269 1154.78 190.993 1152.25 190.993C1150.62 190.993 1147.9 189.906 1143.92 187.914C1137.04 184.473 1127.63 179.583 1113.7 179.583C1089.08 179.583 1069.9 194.434 1069.9 215.444C1069.9 235.004 1082.75 246.052 1104.83 256.919L1119.13 263.982C1137.04 272.857 1154.24 283 1154.24 303.466C1154.24 323.569 1135.78 334.98 1114.96 334.98C1088.72 334.98 1070.26 314.151 1069 286.803Z" fill="#FFFBF0"/>
</svg>
