<svg width="704" height="349" viewBox="0 0 704 349" fill="none" xmlns="http://www.w3.org/2000/svg">
<path d="M183.472 139H234.032V136.6C217.072 135.96 216.112 133.72 222.512 124.6L262.672 68.1199H271.472C289.552 68.1199 299.312 75.32 299.312 88.92C299.312 101.4 292.432 113.24 292.432 124.28C292.432 134.84 299.152 140.76 308.752 140.76C318.032 140.76 325.232 133.88 330.032 126.68L326.992 125.4C322.512 131.8 317.072 136.76 311.792 136.76C306.832 136.76 304.752 132.6 304.752 127.48C304.752 116.92 310.832 104.92 310.832 93.7199C310.832 77.3999 300.432 70.5199 288.912 67.9599V67.7999C326.192 67.3199 362.512 52.9199 362.512 28.2799C362.512 11.1599 344.592 2.99995 322.192 2.99995H273.712V5.39994C290.672 6.03995 291.792 8.27995 285.232 17.3999L210.992 121.88C202.832 133.24 200.592 135.96 183.472 136.6V139ZM264.912 64.9199L306.672 6.19994H320.752C339.952 6.19994 349.392 14.1999 349.392 27.1599C349.392 47.6399 324.912 64.9199 281.232 64.9199H264.912Z" fill="#FFFBF0"/>
<path d="M335.377 139H372.017V136.28C356.017 135.48 354.897 134.36 364.177 109.88L371.537 90.36H440.017L452.497 123.16C456.337 133.4 454.577 135.96 438.897 136.28V139H483.537V136.28C470.257 135.64 469.457 134.52 464.657 122.36L421.137 10.0399C418.897 4.27994 415.217 0.439941 409.137 0.439941C401.137 0.439941 398.737 7.15994 397.777 9.71995L359.057 111.8C350.417 134.52 349.137 135.64 335.377 136.28V139ZM372.817 86.84L401.777 10.5199C402.737 7.95994 403.697 6.51994 405.617 6.51994C408.017 6.51994 408.657 8.75995 409.457 10.6799L438.577 86.84H372.817Z" fill="#FFFBF0"/>
<path d="M478.152 139H525.352V136.28C509.512 135.32 507.592 135.16 507.592 121.88V69.7199H532.232C550.792 69.7199 560.072 78.8399 561.352 97.2399C561.992 105.88 561.352 115 561.832 121.88C562.792 136.6 572.072 140.76 580.712 140.76C589.672 140.76 596.872 135.64 600.232 123.32L597.192 122.52C593.832 133.08 588.872 136.28 584.072 136.28C578.472 136.28 574.632 133.24 573.992 121.08C573.672 113.88 573.512 104.76 572.712 95.9599C571.272 80.7599 564.072 71.1599 546.792 69.0799V68.7599C567.272 65.5599 581.512 54.1999 581.512 36.4399C581.512 15.4799 561.672 2.99995 535.912 2.99995H478.152V5.71994C493.992 6.67995 495.912 6.83994 495.912 20.1199V121.88C495.912 135.16 493.992 135.32 478.152 136.28V139ZM507.592 6.19994H531.432C554.952 6.19994 568.072 17.3999 568.072 36.4399C568.072 55.4799 554.632 66.2 531.912 66.3599L507.592 66.5199V6.19994Z" fill="#FFFBF0"/>
<path d="M595.82 139H698.38L703.82 98.6799H700.94C693.42 134.36 687.34 135.8 640.78 135.8H638.7C626.38 135.8 625.26 132.92 625.26 121.88V68.2799H674.54V65.0799H625.26V6.19994H660.78C682.22 6.19994 687.66 14.9999 693.1 40.1199H695.98L691.02 2.99995H595.82V5.71994C611.66 6.67995 613.58 6.83994 613.58 20.1199V121.88C613.58 135.16 611.66 135.32 595.82 136.28V139Z" fill="#FFFBF0"/>
<path d="M175.52 165.32C182.08 161.48 189.28 159.08 198.08 157.16L197.12 154.44C187.52 156.52 179.68 159.4 172.8 163.56C162.88 157.8 149.28 154.12 134.08 154.12C68.48 154.12 0 208.04 0 258.12C0 277.8 10.08 290.76 27.2 293.8C26.88 296.2 26.72 298.6 26.72 301C26.72 328.04 47.04 348.84 82.88 348.84C130.24 348.84 171.2 313.32 171.2 268.68C171.2 248.2 163.04 232.36 151.84 221.16C171.04 216.52 189.6 205.96 189.6 187.88C189.6 179.24 184.32 171.24 175.52 165.32ZM4.64 259.24C4.64 212.84 68.48 164.04 131.2 164.04C145.28 164.04 156.32 165.96 164.64 169C156 175.88 148.32 184.84 139.52 197L132 207.08C125.12 204.04 117.6 202.12 110.72 202.12C103.04 202.12 98.56 205.8 98.56 209.48C98.56 216.36 107.36 221.64 120.16 223.24L105.76 243.08C75.84 284.04 51.52 291.24 36.16 291.24C34.56 291.24 33.12 291.24 31.68 291.08C34.72 274.92 47.84 258.28 78.72 247.4L77.6 244.36C46.72 255.72 31.84 272.52 27.84 290.44C12.8 287.56 4.64 276.52 4.64 259.24ZM149.12 218.44C146.56 216.2 143.84 214.12 141.12 212.2C139.2 210.92 137.12 209.64 135.04 208.52L141.92 199.08C151.52 185.96 159.36 176.84 167.84 170.44C178.4 175.24 183.36 182.44 183.36 190.28C183.36 206.28 166.24 214.92 149.12 218.44ZM122.56 220.2C110.88 218.76 104.96 214.44 104.96 210.6C104.96 207.72 107.84 205.8 113.28 205.8C118.4 205.8 124.32 207.4 130.08 209.96L122.56 220.2ZM132.96 211.4C135.36 212.52 137.6 213.96 139.68 215.4C141.44 216.68 143.04 217.96 144.64 219.24C139.52 220.2 134.4 220.52 130.08 220.52C128.8 220.52 127.52 220.52 126.4 220.36L132.96 211.4ZM165.28 266.44C165.28 310.28 123.84 338.92 84.48 338.92C52.96 338.92 31.04 323.56 31.04 298.44C31.04 297 31.04 295.72 31.2 294.28C32.64 294.44 34.08 294.44 35.52 294.44C54.88 294.44 79.68 284.68 108.96 244.36L124 223.72C125.6 223.88 127.36 223.88 129.12 223.88C134.72 223.88 141.12 223.24 147.68 221.96C158.4 232.52 165.28 247.08 165.28 266.44Z" fill="#FFFBF0"/>
<path d="M203.944 291H251.144V288.28C235.304 287.32 233.384 287.16 233.384 273.88V221.72H258.024C276.584 221.72 285.864 230.84 287.144 249.24C287.784 257.88 287.144 267 287.624 273.88C288.584 288.6 297.864 292.76 306.504 292.76C315.464 292.76 322.664 287.64 326.024 275.32L322.984 274.52C319.624 285.08 314.664 288.28 309.864 288.28C304.264 288.28 300.424 285.24 299.784 273.08C299.464 265.88 299.304 256.76 298.504 247.96C297.064 232.76 289.864 223.16 272.584 221.08V220.76C293.064 217.56 307.304 206.2 307.304 188.44C307.304 167.48 287.464 155 261.704 155H203.944V157.72C219.784 158.68 221.704 158.84 221.704 172.12V273.88C221.704 287.16 219.784 287.32 203.944 288.28V291ZM233.384 158.2H257.224C280.744 158.2 293.864 169.4 293.864 188.44C293.864 207.48 280.424 218.2 257.704 218.36L233.384 218.52V158.2Z" fill="#FFFBF0"/>
<path d="M321.613 291H424.173L429.613 250.68H426.733C419.213 286.36 413.133 287.8 366.573 287.8H364.493C352.173 287.8 351.053 284.92 351.053 273.88V220.28H400.333V217.08H351.053V158.2H386.573C408.013 158.2 413.453 167 418.893 192.12H421.773L416.813 155H321.613V157.72C337.453 158.68 339.373 158.84 339.373 172.12V273.88C339.373 287.16 337.453 287.32 321.613 288.28V291Z" fill="#FFFBF0"/>
<path d="M432.719 291H535.279L540.719 250.68H537.839C530.319 286.36 524.239 287.8 477.679 287.8H475.599C463.279 287.8 462.159 284.92 462.159 273.88V220.28H511.439V217.08H462.159V158.2H497.679C519.119 158.2 524.559 167 529.999 192.12H532.879L527.919 155H432.719V157.72C448.559 158.68 450.479 158.84 450.479 172.12V273.88C450.479 287.16 448.559 287.32 432.719 288.28V291Z" fill="#FFFBF0"/>
<path d="M543.825 291H604.465C647.665 291 679.985 263 679.985 223C679.985 183.16 647.665 155 604.465 155H543.825V157.72C559.665 158.68 561.585 158.84 561.585 172.12V273.88C561.585 287.16 559.665 287.32 543.825 288.28V291ZM573.265 287.8V158.2H603.665C641.745 158.2 666.545 184.92 666.545 223C666.545 261.08 641.745 287.8 603.665 287.8H573.265Z" fill="#FFFBF0"/>
</svg>
