<svg width="1296" height="339" viewBox="0 0 1296 339" fill="none" xmlns="http://www.w3.org/2000/svg">
<path d="M184.048 88.864C195.424 88.864 204.352 80.368 204.352 69.784C204.352 59.344 195.424 50.848 184.048 50.848C172.6 50.848 163.672 59.344 163.672 69.784C163.672 80.368 172.6 88.864 184.048 88.864ZM184.048 87.424C175.264 87.424 169.144 80.152 169.144 69.784C169.144 59.56 175.264 52.288 184.048 52.288C192.76 52.288 198.88 59.56 198.88 69.784C198.88 80.152 192.76 87.424 184.048 87.424Z" fill="#FFFBF0"/>
<path d="M230.271 72.808C228.183 72.808 226.239 73.168 224.511 74.032L245.535 52.432V52H215.439L213.855 56.248H239.415L223.215 73.312C219.327 77.416 216.231 78.136 216.231 79.72C216.231 80.296 216.735 80.728 217.527 80.728C217.815 80.728 218.319 80.584 218.823 80.152C219.759 79.432 220.263 77.92 221.271 77.056C222.855 75.688 224.511 74.968 227.823 74.968C236.895 74.968 243.447 81.664 243.447 92.68C243.447 103.264 236.679 111.832 227.391 111.832C219.183 111.832 215.943 106.576 215.655 98.512C215.223 98.368 214.791 98.368 214.359 98.368C212.487 98.368 211.263 99.736 211.263 101.392C211.263 106.576 216.663 113.344 227.247 113.344C238.551 113.344 248.847 103.696 248.847 91.6C248.847 80.512 240.999 72.808 230.271 72.808Z" fill="#FFFBF0"/>
<path fill-rule="evenodd" clip-rule="evenodd" d="M546.301 68.6C559.701 80.7 579.001 88 600.401 88C623.401 88 639.301 78.8 639.301 67.3C639.301 55.7 626.101 46.1 601.101 46.1C580.601 46.1 560.901 52 544.501 61.6C536.801 52.3 532.501 41.1 532.501 29.1C532.501 12.1 541.501 2.8 554.201 2.8C566.401 2.8 578.501 9 587.801 25.9L590.401 24.6C581.301 8 568.201 0 554.101 0C537.901 0 527.601 12 527.601 28.1C527.601 41.7 532.701 53.9 541.201 63.6C517.201 78.7 500.801 101.7 500.801 124.8C500.801 145.9 515.201 164.6 548.501 164.6C577.901 164.6 608.201 146.8 608.201 123.4C608.201 107.7 594.201 100.2 580.101 100.2C564.301 100.2 543.601 109 531.201 132.9L533.801 134.1C546.401 109.8 566.101 103 580.001 103C592.201 103 604.801 109.2 604.801 123.5C604.801 145.5 575.801 161.8 548.801 161.8C517.501 161.8 505.701 143.7 505.701 126C505.801 104.5 522.001 82.5 546.301 68.6ZM634.501 69C634.501 78.4 618.601 85.3 600.701 85.3C579.401 85.3 561.501 78.1 549.401 66.9C564.001 59.2 581.301 54.5 599.601 54.5C621.401 54.5 634.501 60.7 634.501 69Z" fill="#FFFBF0"/>
<path fill-rule="evenodd" clip-rule="evenodd" d="M489.6 105.4C489.6 139.7 462.5 164.7 427.5 164.7C392.5 164.7 365.4 139.7 365.4 105.4C365.4 71.1 392.5 46.1 427.5 46.1C462.5 46.1 489.6 71.1 489.6 105.4ZM376.7 105.4C376.7 137 395.2 162 427.5 162C459.8 162 478.3 137 478.3 105.4C478.3 73.8 459.8 48.8 427.5 48.8C395.2 48.8 376.7 73.8 376.7 105.4Z" fill="#FFFBF0"/>
<path d="M286.199 126.1H288.599C289.599 146.5 303.299 162 322.799 162C338.299 162 352.099 153.5 352.099 138.5C352.099 123.3 339.299 115.7 325.899 109.1L315.199 103.8C298.699 95.7 289.099 87.5 289.099 72.8999C289.099 57.2999 303.399 46.2 321.799 46.2C332.138 46.2 339.117 49.7581 344.21 52.3543L344.299 52.4C347.299 53.9 349.299 54.7 350.499 54.7C352.399 54.7 353.599 54.2 354.299 48.9H356.499L357.199 78.5L354.899 78.5999C351.999 59.7 337.499 48.9 321.599 48.9C306.899 48.9 297.199 57.0999 297.199 68.7C297.199 80.4999 305.299 88 319.899 94.8L331.199 100.1C346.499 107.2 360.899 116 360.899 134.1C360.899 153 342.499 164.7 323.099 164.7C311.012 164.7 303.992 160.941 299.077 158.309C296.428 156.891 294.39 155.8 292.499 155.8C290.899 155.8 289.499 156.9 289.399 161.9H286.999L286.199 126.1Z" fill="#FFFBF0"/>
<path fill-rule="evenodd" clip-rule="evenodd" d="M637.9 163.1V160.9L637.927 160.898C651.302 160 652.9 159.893 652.9 148.7V62.8C652.9 51.5 651.3 51.4 637.9 50.6V48.3H677.7V50.6L677.674 50.6018C664.298 51.5002 662.7 51.6075 662.7 62.8V148.6C662.7 159.24 664.119 159.95 675.47 160.665C684.982 159.987 686.406 157.967 693.199 140.1L725.957 53.8485C726.794 51.6393 728.857 46.2 735.499 46.2C740.599 46.2 743.699 49.3999 745.599 54.2999L782.299 149.1C786.05 158.664 786.899 160.139 796.223 160.698C806.939 159.917 808.299 159.027 808.299 148.7V62.8C808.299 51.5 806.699 51.4 793.299 50.6V48.3H833.099V50.6L833.072 50.6018C819.697 51.5002 818.099 51.6075 818.099 62.8V148.7C818.099 158 818.999 160.4 829.399 160.4H839.399C878.699 160.4 883.899 159.2 890.199 129.1H892.599L887.999 163.1L760.499 163.1V160.8C773.799 160.5 775.199 158.3 771.999 149.7L761.499 122H703.699L697.499 138.5C689.699 159.2 690.599 160.1 704.099 160.8V163.1L637.9 163.1ZM704.799 119.1L729.199 54.7C729.999 52.5 730.799 51.2999 732.399 51.2999C734.299 51.2999 734.935 53.0138 735.509 54.5567C735.539 54.6384 735.569 54.7195 735.599 54.7999L760.199 119.1H704.799Z" fill="#FFFBF0"/>
<path d="M893.301 163.1H933.101V160.8C919.701 160 918.101 159.9 918.101 148.6V62.8C918.101 51.6075 919.699 51.5002 933.074 50.6018L933.101 50.6V48.3H893.301V50.6C906.701 51.4 908.301 51.5 908.301 62.8V148.7C908.301 159.893 906.703 160 893.328 160.898L893.301 160.9V163.1Z" fill="#FFFBF0"/>
<path d="M938.9 126.1H941.3C942.2 146.5 956 162 975.5 162C991 162 1004.8 153.5 1004.8 138.5C1004.8 123.3 992 115.7 978.6 109.1L967.9 103.8C951.4 95.7 941.8 87.5 941.8 72.8999C941.8 57.2999 956.1 46.2 974.5 46.2C984.8 46.2 991.9 49.8 997 52.4C1000 53.9 1002 54.7 1003.2 54.7C1005.1 54.7 1006.3 54.2 1007 48.9H1009.2L1009.9 78.5L1007.6 78.5999C1004.7 59.7 990.2 48.9 974.3 48.9C959.6 48.9 949.9 57.0999 949.9 68.7C949.9 80.4999 958 88 972.6 94.8L983.9 100.1C999.2 107.2 1013.6 116 1013.6 134.1C1013.6 153 995.2 164.7 975.8 164.7C963.713 164.7 956.694 160.941 951.778 158.309C949.129 156.891 947.091 155.8 945.2 155.8C943.6 155.8 942.2 156.9 942.1 161.9H939.7L938.9 126.1Z" fill="#FFFBF0"/>
<path fill-rule="evenodd" clip-rule="evenodd" d="M0 291.1H30.9V288.8C17.4 288.1 16.5 287.2 24.3 266.5L30.5 250H88.3L98.8 277.7C102 286.3 100.6 288.5 87.3 288.8V291.1H125V288.8C113.8 288.3 113.1 287.3 109.1 277.1L72.4 182.3C70.5 177.4 67.4 174.2 62.3 174.2C55.6573 174.2 53.5951 179.639 52.7575 181.849L20 268.1C12.7 287.3 11.6 288.2 0 288.8V291.1ZM31.6 247.1L56 182.7C56.8 180.5 57.6 179.3 59.2 179.3C61.0995 179.3 61.7362 181.014 62.3094 182.557L62.3105 182.56C62.3404 182.64 62.3702 182.721 62.4 182.8L87 247.1H31.6Z" fill="#FFFBF0"/>
<path fill-rule="evenodd" clip-rule="evenodd" d="M361.201 178.6V176.3L469.499 176.3L473.699 207.6H471.299C466.699 186.4 462.099 179 443.999 179H413.999V228.8H455.599V231.5H413.999V276.7C413.999 286 414.899 288.4 425.299 288.4H427.099C466.399 288.4 471.599 287.2 477.899 257.1H480.299L475.699 291.1H389.199V288.8C402.599 288 404.199 287.9 404.199 276.7V190.8C404.199 179.907 402.712 179.422 390.6 178.684C380.381 179.318 378.978 180.962 372.101 199.3L340.401 284.9C338.501 289.9 335.801 292.7 330.901 292.7C326.001 292.7 322.601 290 320.601 284.6L284.801 190.4C284.001 188.5 283.501 186.9 283.101 185.6C282.301 183.1 279.501 182 277.201 183.2C270.137 187.018 264.623 192.385 257.874 198.953C257.553 199.266 257.228 199.582 256.901 199.9C265.201 209.5 270.101 221.1 270.101 233.9C270.101 270.9 236.101 292.6 204.401 292.6C192.601 292.6 182.601 290.2 174.201 287.5C165.301 291.3 157.001 292.6 149.001 292.6C129.101 292.6 124.001 286.6 124.001 281.7C124.001 277.2 128.901 274.5 136.301 274.5C144.838 274.5 155.126 278.002 164.501 281.194C166.767 281.965 168.979 282.719 171.101 283.4C171.792 283.677 172.532 283.858 173.286 284.042L173.288 284.043C173.624 284.125 173.962 284.208 174.301 284.3C188.801 278 204.601 265 221.701 240.7L235.101 221.8C239.601 215.5 244.701 209 250.401 202.9C237.301 190.2 216.501 182.5 192.901 182.5C151.901 182.5 119.201 204 119.201 232.5C119.201 250.9 132.601 259 145.301 259C158.101 259 177.401 254 197.701 222L200.001 223.5C180.801 253.9 161.101 261.7 144.801 261.7C130.101 261.7 114.301 253.2 114.301 230.9C114.301 201.4 148.101 174.1 194.401 174.1C219.201 174.1 241.501 183.3 255.401 197.9C257.065 196.276 258.565 194.744 259.979 193.299L259.981 193.297C265.619 187.537 269.907 183.157 277.901 179.8C284.391 177.018 285.809 176.902 290.684 176.501L291.251 176.454C291.461 176.437 291.678 176.419 291.901 176.4C295.601 176.1 306.701 176.3 306.701 176.3V178.6C295.101 179 291.401 179.7 295.201 189.7L330.601 284.1C331.501 286.5 332.201 287.6 333.801 287.6C335.401 287.6 336.201 286.4 337.001 284.2L367.801 200.9C375.501 180.2 374.701 179.3 361.201 178.6ZM129.501 282.1C129.501 286.1 134.901 289.7 149.301 289.7C155.901 289.7 163.001 288.7 170.301 286L169.94 285.872C157.388 281.424 146.313 277.5 137.201 277.5C132.101 277.5 129.501 279.3 129.501 282.1ZM204.601 289.7C234.001 289.7 265.201 269.7 265.201 236.5C265.201 224.4 260.401 213.6 252.201 204.7C246.901 210.5 241.901 216.9 237.201 223.5L224.401 241.9C208.201 265.1 192.701 278.5 178.401 285.5C187.301 288.1 195.601 289.7 204.601 289.7Z" fill="#FFFBF0"/>
<path d="M516.1 291.1H483V288.8C496.4 288 498 287.9 498 276.7V190.8C498 179.5 496.4 179.4 483 178.6V176.3H505.4L584.8 274.6V190.8C584.8 179.5 583.2 179.4 569.8 178.6V176.3H602.9V178.6L602.873 178.602C589.498 179.5 587.9 179.607 587.9 190.8V291.2H584.8L501.1 187.5V276.7C501.1 287.9 502.7 288 516.1 288.8V291.1Z" fill="#FFFBF0"/>
<path d="M602.199 207.7H604.599C609.199 186.5 613.799 179.1 631.899 179.1H650.799V276.7C650.799 287.9 649.199 288 635.799 288.8V291.1H675.599V288.8C662.199 288 660.599 287.9 660.599 276.7V179H679.499C697.599 179 702.199 186.4 706.799 207.6H709.199L705.312 178.631C718.242 179.404 719.801 179.645 719.801 190.8V196.5L719.901 245.1C720.001 277.2 738.901 292.8 765.301 292.8C794.201 292.8 809.701 277.5 809.701 244.6V190.9C809.701 179.707 811.299 179.6 824.674 178.702L824.701 178.7V176.4H791.601V178.7C805.001 179.5 806.601 179.6 806.601 190.9V244.6C806.601 276.3 792.401 287 767.001 287C743.601 287 729.601 273.6 729.601 241.9V190.9C729.601 179.707 731.199 179.6 744.574 178.702L744.601 178.7V176.4H705.013L704.999 176.3H606.299L602.199 207.7Z" fill="#FFFBF0"/>
<path fill-rule="evenodd" clip-rule="evenodd" d="M1037.88 292.68C1037.29 316.139 1023.52 334.7 1001.9 334.7C979.401 334.7 970.301 315.3 963.601 293.5L951.401 254.9C948.401 245.4 944.901 237.8 941.001 231.8C958.801 228.7 978.001 219.7 978.001 202.6C978.001 195.3 973.501 188.6 966.001 183.4C971.501 180.2 977.701 178 985.201 176.5L984.401 174.3C976.301 176.1 969.701 178.5 963.901 182C955.501 177 944.201 174 931.401 174C876.101 174 818.301 219.5 818.301 261.8C818.301 281 829.601 292.4 848.301 292.4C865.001 292.4 884.801 285 910.101 250.1L922.801 232.7C924.201 232.8 925.601 232.8 927.101 232.8C930.201 232.8 933.601 232.5 937.001 232.1C939.601 236.6 941.701 242 943.501 248.6L956.101 298.4C962.601 324 976.301 338.2 999.401 338.2C1024.71 338.2 1040.66 319.109 1041.38 292.678C1075.51 291.849 1101.7 267.118 1101.7 233.4C1101.7 199.1 1074.6 174.1 1039.6 174.1C1004.6 174.1 977.5 199.1 977.5 233.4C977.5 267.136 1003.72 291.876 1037.88 292.68ZM907.201 249.2C881.301 284.6 862.501 289.8 848.601 289.8C831.501 289.8 822.001 279.8 822.001 262.8C822.001 223.6 875.901 182.5 928.801 182.5C940.701 182.5 950.001 184.1 956.901 186.7C949.601 192.4 943.101 200.1 935.701 210.3L928.901 219.5C923.601 216.3 917.801 214.6 911.401 214.6C904.901 214.6 901.101 217.7 901.101 220.8C901.101 226.6 908.501 231.1 919.301 232.4L907.201 249.2ZM972.801 204.7C972.801 219.7 955.001 227 939.201 229.4C936.601 226 934.101 223.3 931.101 221.2L937.701 212.2C945.701 201.1 952.301 193.4 959.401 187.9C968.501 191.9 972.801 198.1 972.801 204.7ZM927.301 221.8L921.401 229.9C911.501 228.7 906.601 225 906.601 221.8C906.601 219.4 909.001 217.8 913.601 217.8C918.601 217.8 923.101 219.1 927.301 221.8ZM927.701 230.2C926.601 230.2 925.501 230.2 924.601 230.1L929.501 223.5C931.501 225.3 933.401 227.3 935.201 229.8C932.601 230.1 930.001 230.2 927.701 230.2ZM988.8 233.4C988.8 265 1007.3 290 1039.6 290C1071.8 290 1090.4 265 1090.4 233.4C1090.4 201.8 1071.9 176.8 1039.6 176.8C1007.3 176.8 988.8 201.8 988.8 233.4Z" fill="#FFFBF0"/>
<path d="M1099.7 178.6C1113.1 179.4 1114.7 179.5 1114.7 190.8V196.5L1114.8 245.1C1114.9 277.2 1133.8 292.8 1160.2 292.8C1189.1 292.8 1204.6 277.5 1204.6 244.6V190.9C1204.6 179.707 1206.2 179.6 1219.57 178.702L1219.6 178.7V176.4H1186.5V178.7C1199.9 179.5 1201.5 179.6 1201.5 190.9V244.6C1201.5 276.3 1187.3 287 1161.9 287C1138.6 287 1124.5 273.6 1124.5 241.9V190.9C1124.5 179.707 1126.1 179.6 1139.47 178.702L1139.5 178.7V176.4H1099.7V178.6Z" fill="#FFFBF0"/>
<path d="M1220.8 254.1H1223.2C1224.2 274.5 1237.9 290 1257.5 290C1273 290 1286.8 281.5 1286.8 266.5C1286.8 251.3 1274 243.7 1260.6 237.1L1249.9 231.8C1233.4 223.7 1223.8 215.5 1223.8 200.9C1223.8 185.3 1238.1 174.2 1256.5 174.2C1266.84 174.2 1273.82 177.758 1278.91 180.354L1279 180.4C1282 181.9 1284 182.7 1285.2 182.7C1287.1 182.7 1288.3 182.2 1289 176.9H1291.2L1291.9 206.5L1289.6 206.6C1286.7 187.7 1272.2 176.9 1256.3 176.9C1241.6 176.9 1231.9 185.1 1231.9 196.7C1231.9 208.5 1240 216 1254.6 222.8L1265.9 228.1C1281.1 235.2 1295.6 244 1295.6 262.1C1295.6 281 1277.2 292.7 1257.8 292.7C1245.64 292.7 1238.59 288.934 1233.67 286.302C1231.02 284.887 1228.99 283.8 1227.1 283.8C1225.5 283.8 1224.1 284.9 1224 289.9H1221.6L1220.8 254.1Z" fill="#FFFBF0"/>
</svg>
