<svg width="993" height="332" viewBox="0 0 993 332" fill="none" xmlns="http://www.w3.org/2000/svg">
<path d="M175.71 8.05999C183.99 8.6 190.11 9.86 196.77 19.22L248.25 91.76V138.74C248.25 153.68 246.09 153.86 228.27 154.94V158H281.37V154.94C263.55 153.86 261.39 153.68 261.39 138.74V89.42L302.07 30.38C316.29 9.86 317.91 8.6 330.87 8.05999V5H291.63V8.05999C309.63 8.6 310.89 10.22 294.87 33.44L259.59 84.92L216.57 24.08C212.79 18.68 210.45 15.44 210.45 12.92C210.45 9.68 214.59 8.42 226.11 8.05999V5H175.71V8.05999Z" fill="#FFFBF0"/>
<path d="M393.208 160.16C439.828 160.16 476.008 126.86 476.008 81.14C476.008 35.42 439.828 2.12 393.208 2.12C346.588 2.12 310.408 35.42 310.408 81.14C310.408 126.86 346.588 160.16 393.208 160.16ZM393.208 156.56C350.188 156.56 325.528 123.26 325.528 81.14C325.528 39.02 350.188 5.72 393.208 5.72C436.228 5.72 460.888 39.02 460.888 81.14C460.888 123.26 436.228 156.56 393.208 156.56Z" fill="#FFFBF0"/>
<path d="M481.286 158H607.646L613.766 112.64H610.526C602.066 152.78 595.226 154.4 542.846 154.4H529.526C515.666 154.4 514.406 151.16 514.406 138.74V24.26C514.406 9.32 516.566 9.14 534.386 8.05999V5H481.286V8.05999C499.106 9.14 501.266 9.32 501.266 24.26V138.74C501.266 153.68 499.106 153.86 481.286 154.94V158Z" fill="#FFFBF0"/>
<path d="M687.991 159.98C751.351 159.98 818.311 109.58 818.311 52.7C818.311 23.54 792.931 2.12 752.611 2.12C685.831 2.12 626.251 57.2 626.251 107.6C626.251 140.18 650.551 159.98 687.991 159.98ZM808.591 59.54C808.591 109.94 748.291 156.38 688.891 156.38C653.071 156.38 634.531 137.3 634.531 110.12C634.531 60.62 691.591 14.72 749.911 14.72C794.731 14.72 808.591 37.04 808.591 59.54Z" fill="#FFFBF0"/>
<path d="M60.7124 203C78.5324 219.2 104.272 228.92 132.892 228.92C163.492 228.92 184.732 216.68 184.732 201.38C184.732 185.9 167.092 173.12 133.792 173.12C106.432 173.12 80.1524 181.04 58.3724 193.82C48.1124 181.4 42.3524 166.46 42.3524 150.44C42.3524 127.76 54.4124 115.34 71.3324 115.34C87.5324 115.34 103.732 123.62 116.152 146.12L119.572 144.32C107.332 122.18 89.8724 111.56 71.1524 111.56C49.5524 111.56 35.8724 127.58 35.8724 149C35.8724 167.18 42.7124 183.38 54.0524 196.34C22.0124 216.5 0.232422 247.1 0.232422 277.88C0.232422 305.96 19.4924 330.98 63.7724 330.98C103.012 330.98 143.332 307.22 143.332 276.08C143.332 255.2 124.612 245.12 105.892 245.12C84.8324 245.12 57.2924 256.82 40.7324 288.68L44.1524 290.3C60.8924 257.9 87.1724 248.9 105.712 248.9C121.912 248.9 138.832 257.18 138.832 276.26C138.832 305.6 100.132 327.38 64.1324 327.38C22.3724 327.38 6.71243 303.26 6.71243 279.68C6.71243 250.88 28.3124 221.54 60.7124 203ZM178.252 203.54C178.252 216.14 157.012 225.32 133.252 225.32C104.812 225.32 81.0524 215.78 64.8524 200.84C84.2924 190.58 107.332 184.28 131.812 184.28C160.792 184.28 178.252 192.56 178.252 203.54Z" fill="#FFFBF0"/>
<path d="M177.152 329H230.252V325.94C212.432 324.86 210.271 324.68 210.271 309.74V252.86H314.672V309.74C314.672 324.68 312.512 324.86 294.692 325.94V329H347.792V325.94C329.971 324.86 327.812 324.68 327.812 309.74V195.26C327.812 180.32 329.971 180.14 347.792 179.06V176H294.692V179.06C312.512 180.14 314.672 180.32 314.672 195.26V249.26H210.271V195.26C210.271 180.32 212.432 180.14 230.252 179.06V176H177.152V179.06C194.971 180.14 197.132 180.32 197.132 195.26V309.74C197.132 324.68 194.971 324.86 177.152 325.94V329Z" fill="#FFFBF0"/>
<path d="M341.753 329H382.973V325.94C364.973 325.04 363.713 323.78 374.153 296.24L382.433 274.28H459.473L473.513 311.18C477.833 322.7 475.853 325.58 458.213 325.94V329H508.433V325.94C493.493 325.22 492.593 323.96 487.193 310.28L438.233 183.92C435.713 177.44 431.573 173.12 424.733 173.12C415.733 173.12 413.033 180.68 411.953 183.56L368.393 298.4C358.673 323.96 357.233 325.22 341.753 325.94V329ZM383.873 270.32L416.453 184.46C417.533 181.58 418.613 179.96 420.773 179.96C423.473 179.96 424.193 182.48 425.093 184.64L457.853 270.32H383.873Z" fill="#FFFBF0"/>
<path d="M618.215 330.98C554.855 330.98 487.895 280.58 487.895 223.7C487.895 194.54 513.275 173.12 553.595 173.12C620.375 173.12 679.955 228.2 679.955 278.6C679.955 311.18 655.655 330.98 618.215 330.98ZM497.615 230.54C497.615 280.94 557.915 327.38 617.315 327.38C653.135 327.38 671.675 308.3 671.675 281.12C671.675 231.62 614.615 185.72 556.295 185.72C511.475 185.72 497.615 208.04 497.615 230.54Z" fill="#FFFBF0"/>
<path d="M677.465 217.76H680.705C686.825 189.5 692.945 179.6 717.065 179.6H742.265V309.74C742.265 324.68 740.105 324.86 722.285 325.94V329H775.385V325.94C757.565 324.86 755.405 324.68 755.405 309.74V179.6H780.605C804.725 179.6 810.845 189.5 816.965 217.76H820.205L814.625 176H683.045L677.465 217.76Z" fill="#FFFBF0"/>
<path d="M829.047 329H882.148V325.94C864.328 324.86 862.168 324.68 862.168 309.74V195.26C862.168 180.32 864.328 180.14 882.148 179.06V176H829.047V179.06C846.867 180.14 849.028 180.32 849.028 195.26V309.74C849.028 324.68 846.867 324.86 829.047 325.94V329Z" fill="#FFFBF0"/>
<path d="M895.972 279.68H892.732L893.812 327.38H897.052C897.232 320.72 899.032 319.28 901.192 319.28C908.392 319.28 917.211 331.16 942.052 331.16C967.971 331.16 992.452 315.5 992.452 290.3C992.452 266.18 973.192 254.48 952.852 244.94L937.732 237.92C918.292 228.92 907.492 218.84 907.492 203.18C907.492 187.7 920.452 176.72 940.072 176.72C961.312 176.72 980.571 191.12 984.531 216.32L987.592 216.14L986.692 176.72H983.812C982.911 183.74 981.292 184.46 978.772 184.46C977.152 184.46 974.452 183.38 970.492 181.4C963.652 177.98 954.292 173.12 940.432 173.12C915.952 173.12 896.872 187.88 896.872 208.76C896.872 228.2 909.652 239.18 931.612 249.98L945.832 257C963.652 265.82 980.752 275.9 980.752 296.24C980.752 316.22 962.392 327.56 941.692 327.56C915.592 327.56 897.232 306.86 895.972 279.68Z" fill="#FFFBF0"/>
<path d="M68.0479 38.864C79.4239 38.864 88.3519 30.368 88.3519 19.784C88.3519 9.34402 79.4239 0.848022 68.0479 0.848022C56.5999 0.848022 47.6719 9.34402 47.6719 19.784C47.6719 30.368 56.5999 38.864 68.0479 38.864ZM68.0479 37.424C59.2639 37.424 53.1439 30.152 53.1439 19.784C53.1439 9.56002 59.2639 2.28802 68.0479 2.28802C76.7599 2.28802 82.8799 9.56002 82.8799 19.784C82.8799 30.152 76.7599 37.424 68.0479 37.424Z" fill="#FFFBF0"/>
<path d="M107.647 2.36002C117.151 2.36002 120.895 9.05603 120.895 16.112C120.895 26.408 114.055 33.392 99.0073 37.352V38H127.735L129.247 34.472H110.167C119.167 31.448 126.871 24.824 126.439 15.392C126.007 5.16802 116.503 0.848022 108.223 0.848022C103.111 0.848022 99.0073 2.14402 96.4153 3.36802C94.3993 4.30402 93.6793 5.31202 93.6793 6.60802C93.6793 7.90402 94.5433 8.98402 95.9113 9.27202C98.7913 6.03202 102.319 2.36002 107.647 2.36002Z" fill="#FFFBF0"/>
</svg>
