<svg width="949" height="276" viewBox="0 0 949 276" fill="none" xmlns="http://www.w3.org/2000/svg">
<path d="M101 53.9521C101 85.0452 122.923 107.904 154.699 107.904C177.484 107.904 191.894 96.9663 199.037 78.1629L196.574 77.4256C189.8 94.5083 177.484 104.217 156.669 104.217C127.234 104.217 111.346 80.3751 111.346 53.9521C111.346 25.0711 125.879 2.45796 153.837 2.45796C176.991 2.45796 194.111 17.3286 197.313 34.4114H199.407L198.545 3.93273H196.328C195.835 8.47994 194.234 10.4463 191.894 10.4463C189.8 10.4463 188.199 9.58602 185.859 8.35705C179.701 5.16171 169.109 0 154.083 0C123.785 0 101 22.4903 101 53.9521Z" fill="#FFFBF0"/>
<path d="M396.419 105.938V108.396C396.419 130.394 383.733 148.092 363.534 148.092C342.966 148.092 334.714 130.394 328.556 110.608L317.471 75.4592C314.762 66.8564 311.56 59.8512 307.988 54.4437C324.245 51.617 341.734 43.3829 341.734 27.8978C341.734 21.2613 337.67 15.1164 330.773 10.4463C335.823 7.49677 341.488 5.53041 348.262 4.17853L347.523 2.21218C340.133 3.80985 334.098 6.022 328.802 9.21734C321.166 4.67013 310.821 1.96637 299.12 1.96637C248.624 1.96637 195.91 43.3829 195.91 81.8499C195.91 99.3014 206.256 109.748 223.252 109.748C238.524 109.748 256.506 102.988 279.661 71.2807L291.238 55.4269C292.47 55.5498 293.824 55.5498 295.179 55.5498C298.012 55.5498 301.091 55.304 304.17 54.9353C306.51 58.9909 308.481 63.9068 310.082 69.9288L315.809 92.6034L321.536 115.278C327.448 138.629 340.01 151.533 361.071 151.533C384.718 151.533 399.375 133.344 399.375 108.396V105.938H396.419ZM277.197 70.2975C253.55 102.497 236.431 107.29 223.745 107.29C208.103 107.29 199.482 98.1953 199.482 82.7102C199.482 47.0698 248.624 9.58603 296.903 9.58603C307.742 9.58603 316.24 11.0608 322.521 13.3959C315.87 18.5576 309.959 25.5627 303.185 34.903L297.026 43.26C292.223 40.3105 286.927 38.8357 281.015 38.8357C275.104 38.8357 271.655 41.6623 271.655 44.489C271.655 49.7736 278.429 53.8292 288.282 55.0582L277.197 70.2975ZM337.054 29.7412C337.054 43.3829 320.797 50.0194 306.387 52.2315C304.047 49.1591 301.707 46.7011 298.997 44.7348L305.032 36.5006C312.299 26.423 318.334 19.4179 324.861 14.379C333.113 18.066 337.054 23.7193 337.054 29.7412ZM295.549 45.3493L290.129 52.7231C281.139 51.6171 276.582 48.2988 276.582 45.3493C276.582 43.1371 278.798 41.6623 282.986 41.6623C287.543 41.6623 291.731 42.8913 295.549 45.3493ZM295.918 52.9689C294.933 52.9689 293.947 52.9689 293.085 52.846L297.519 46.824C299.367 48.4217 301.091 50.2652 302.692 52.6002C300.352 52.846 298.012 52.9689 295.918 52.9689Z" fill="#FFFBF0"/>
<path d="M358.762 106.429H437.709L441.896 75.4592H439.679C433.891 102.865 429.211 103.971 393.37 103.971H391.769C382.286 103.971 381.424 101.759 381.424 93.2794V52.1086H419.358V49.6507H381.424V4.42432H408.766C425.269 4.42432 429.457 11.1837 433.644 30.4786H435.861L432.043 1.96637H358.762V4.05562C370.955 4.79302 372.433 4.91592 372.433 15.1164V93.2794C372.433 103.48 370.955 103.603 358.762 104.34V106.429Z" fill="#FFFBF0"/>
<path d="M442.425 106.429H470.629V104.34C458.313 103.726 457.45 102.865 464.594 84.062L470.259 69.0685H522.973L532.579 94.2626C535.535 102.128 534.181 104.094 522.111 104.34V106.429H556.473V104.34C546.251 103.849 545.635 102.988 541.94 93.648L508.44 7.37387C506.715 2.94955 503.883 0 499.202 0C493.044 0 491.197 5.16171 490.458 7.12807L460.653 85.5368C454.002 102.988 453.017 103.849 442.425 104.34V106.429ZM471.245 66.3648L493.537 7.74256C494.276 5.77619 495.015 4.67011 496.493 4.67011C498.34 4.67011 498.833 6.39068 499.449 7.86545L510.657 37.1151L521.864 66.3648H471.245Z" fill="#FFFBF0"/>
<path d="M537.861 30.4786H540.078C544.265 11.1837 548.453 4.42432 564.956 4.42432H582.199V48.8518V93.2794C582.199 103.48 580.721 103.603 568.528 104.34V106.429H604.861V104.34C592.668 103.603 591.19 103.48 591.19 93.2794V4.42432H608.433C624.937 4.42432 629.124 11.1837 633.312 30.4786H635.529L631.711 1.96637H541.679L537.861 30.4786Z" fill="#FFFBF0"/>
<path d="M643.25 106.429H679.583V104.34C667.39 103.603 665.912 103.48 665.912 93.2794V15.1164C665.912 4.91592 667.39 4.79302 679.583 4.05562V1.96637H643.25V4.05562C655.443 4.79302 656.921 4.91592 656.921 15.1164V54.1979V93.2794C656.921 103.48 655.443 103.603 643.25 104.34V106.429Z" fill="#FFFBF0"/>
<path d="M779.627 22.859C786.154 5.40751 787.263 4.54722 797.855 4.05562V1.96637H769.651V4.05562C781.967 4.67011 782.706 5.53039 775.685 24.3337L747.604 100.162C746.866 102.128 746.127 103.234 744.649 103.234C743.171 103.234 742.555 102.251 741.693 100.039L709.424 14.1332C705.976 5.03881 709.301 4.42432 719.893 4.05562V1.96637H685.531V4.05562C695.753 4.54722 696.492 5.4075 700.064 14.7477L732.702 100.53C734.549 105.446 737.628 107.904 742.062 107.904C746.496 107.904 748.959 105.323 750.684 100.776L779.627 22.859Z" fill="#FFFBF0"/>
<path d="M804.719 106.429H883.666L887.854 75.4592H885.637C879.848 102.865 875.168 103.971 839.328 103.971H837.727C828.243 103.971 827.381 101.759 827.381 93.2794V52.1086H865.315V49.6507H827.381V4.42432H854.723C871.227 4.42432 875.414 11.1837 879.602 30.4786H881.819L878.001 1.96637H804.719V4.05562C816.912 4.79302 818.39 4.91592 818.39 15.1164V54.1979V93.2794C818.39 103.48 816.912 103.603 804.719 104.34V106.429Z" fill="#FFFBF0"/>
<path d="M113.679 239.376L93.3571 268.012H26.3568L97.2983 168.465H114.172V166.007H69.8331V168.465H86.9527L16.0111 268.012H0V270.47H91.6329L87.6917 276H94.3424L115.773 239.376H113.679Z" fill="#FFFBF0"/>
<path d="M111.353 270.47H139.557V268.38C127.241 267.766 126.379 266.906 133.522 248.102L139.187 233.109H191.901L201.508 258.303C204.464 266.168 203.109 268.135 191.039 268.38V270.47H225.401V268.38C215.179 267.889 214.563 267.028 210.868 257.688L177.368 171.414C175.644 166.99 172.811 164.04 168.131 164.04C161.973 164.04 160.125 169.202 159.386 171.168L129.581 249.577C122.93 267.028 121.945 267.889 111.353 268.38V270.47ZM140.173 230.405L162.465 171.783C163.204 169.816 163.943 168.71 165.421 168.71C167.268 168.71 167.761 170.431 168.377 171.906L190.793 230.405H140.173Z" fill="#FFFBF0"/>
<path d="M235.418 270.47H265.593V268.38C253.4 267.643 251.922 267.52 251.922 257.32V176.084L328.283 270.47H331.115V179.157C331.115 168.956 332.593 168.833 344.786 168.096V166.007H314.612V168.096C326.805 168.833 328.283 168.956 328.283 179.157V255.476L255.863 166.007H235.418V168.096C247.611 168.833 249.089 168.956 249.089 179.157V257.32C249.089 267.52 247.611 267.643 235.418 268.38V270.47Z" fill="#FFFBF0"/>
<path d="M352.716 270.47H399.395C432.649 270.47 457.527 248.963 457.527 218.238C457.527 187.637 432.649 166.007 399.395 166.007H352.716V168.096C364.909 168.833 366.387 168.956 366.387 179.157V257.32C366.387 267.52 364.909 267.643 352.716 268.38V270.47ZM375.378 268.012V168.465H398.779C428.092 168.465 447.182 188.988 447.182 218.238C447.182 247.488 428.092 268.012 398.779 268.012H375.378Z" fill="#FFFBF0"/>
<path d="M469.252 236.796H467.035L467.774 269.363H469.991C470.114 264.816 471.346 263.833 472.824 263.833C477.75 263.833 483.785 271.944 500.782 271.944C518.517 271.944 535.267 261.252 535.267 244.047C535.267 227.578 522.089 219.59 508.171 213.076L497.826 208.283C484.524 202.138 477.134 195.256 477.134 184.564C477.134 173.995 486.002 166.498 499.427 166.498C513.96 166.498 527.138 176.33 529.848 193.536L531.942 193.413L531.326 166.498H529.355C528.739 171.291 527.631 171.783 525.907 171.783C524.798 171.783 522.951 171.045 520.241 169.693C515.561 167.358 509.157 164.04 499.673 164.04C482.923 164.04 469.868 174.118 469.868 188.374C469.868 201.647 478.612 209.144 493.638 216.518L503.368 221.311C515.561 227.333 527.261 234.215 527.261 248.102C527.261 261.744 514.699 269.486 500.535 269.486C482.677 269.486 470.114 255.353 469.252 236.796Z" fill="#FFFBF0"/>
<path d="M593.387 184.441C605.58 195.502 623.192 202.138 642.775 202.138C663.713 202.138 678.246 193.781 678.246 183.335C678.246 172.766 666.176 164.04 643.391 164.04C624.67 164.04 606.689 169.448 591.786 178.173C584.766 169.693 580.824 159.493 580.824 148.555C580.824 133.07 593.076 124.59 604.654 124.59C615.738 124.59 622.823 130.243 631.321 145.606L633.661 144.377C625.286 129.26 617.339 122.009 604.53 122.009C589.751 122.009 576.391 132.947 576.391 147.572C576.391 159.985 581.071 171.045 588.83 179.894C566.907 193.659 552.004 214.551 552.004 235.567C552.004 254.739 565.183 271.821 595.481 271.821C622.33 271.821 649.919 255.599 649.919 234.338C649.919 220.082 637.11 213.199 624.301 213.199C609.891 213.199 591.047 221.188 579.716 242.941L582.056 244.047C593.51 221.925 611.492 215.78 624.178 215.78C635.262 215.78 646.839 221.433 646.839 234.461C646.839 254.493 620.36 269.363 595.727 269.363C567.153 269.363 556.438 252.895 556.438 236.796C556.438 217.132 571.218 197.1 593.387 184.441ZM673.812 184.81C673.812 193.413 659.279 199.681 643.021 199.681C623.562 199.681 607.304 193.167 596.22 182.966C609.521 175.961 625.286 171.66 642.036 171.66C661.865 171.66 673.812 177.313 673.812 184.81Z" fill="#FFFBF0"/>
<path d="M659.008 270.47H687.213V268.38C674.896 267.766 674.034 266.906 681.178 248.102L686.843 233.109H739.557L749.163 258.303C752.119 266.168 750.764 268.135 738.694 268.38V270.47H773.057V268.38C762.834 267.889 762.219 267.028 758.524 257.688L742.774 214.551L725.023 171.414C723.299 166.99 720.466 164.04 715.786 164.04C709.628 164.04 707.781 169.202 707.042 171.168L677.236 249.577C670.586 267.028 669.6 267.889 659.008 268.38V270.47ZM687.828 230.405L710.121 171.783C710.86 169.816 711.599 168.71 713.077 168.71C714.924 168.71 715.417 170.431 716.033 171.906L738.448 230.405H687.828Z" fill="#FFFBF0"/>
<path d="M781.276 270.47H817.609V268.38C805.416 267.643 803.938 267.52 803.938 257.32V217.255H824.752C845.197 217.255 860.839 207.915 860.839 191.692C860.839 175.593 845.444 166.007 825.738 166.007H781.276V168.096C793.469 168.833 794.947 168.956 794.947 179.157V257.32C794.947 267.52 793.469 267.643 781.276 268.38V270.47ZM803.938 168.465H822.535C840.64 168.465 850.493 177.067 850.493 191.692C850.493 206.317 840.394 214.551 822.905 214.674L803.938 214.797V168.465Z" fill="#FFFBF0"/>
<path d="M865.865 270.47H944.812L949 239.499H946.783C940.994 266.906 936.314 268.012 900.474 268.012H898.873C889.389 268.012 888.527 265.799 888.527 257.32V216.149H926.461V213.691H888.527V168.465H915.869C932.373 168.465 936.561 175.224 940.748 194.519H942.965L939.147 166.007H865.865V168.096C878.058 168.833 879.536 168.956 879.536 179.157V257.32C879.536 267.52 878.058 267.643 865.865 268.38V270.47Z" fill="#FFFBF0"/>
</svg>
